G04 #@! TF.GenerationSoftware,KiCad,Pcbnew,7.0.7*
G04 #@! TF.CreationDate,2024-01-02T23:05:42-05:00*
G04 #@! TF.ProjectId,squirrelbrain,73717569-7272-4656-9c62-7261696e2e6b,1*
G04 #@! TF.SameCoordinates,Original*
G04 #@! TF.FileFunction,Copper,L1,Top*
G04 #@! TF.FilePolarity,Positive*
%FSLAX46Y46*%
G04 Gerber Fmt 4.6, Leading zero omitted, Abs format (unit mm)*
G04 Created by KiCad (PCBNEW 7.0.7) date 2024-01-02 23:05:42*
%MOMM*%
%LPD*%
G01*
G04 APERTURE LIST*
G04 Aperture macros list*
%AMRoundRect*
0 Rectangle with rounded corners*
0 $1 Rounding radius*
0 $2 $3 $4 $5 $6 $7 $8 $9 X,Y pos of 4 corners*
0 Add a 4 corners polygon primitive as box body*
4,1,4,$2,$3,$4,$5,$6,$7,$8,$9,$2,$3,0*
0 Add four circle primitives for the rounded corners*
1,1,$1+$1,$2,$3*
1,1,$1+$1,$4,$5*
1,1,$1+$1,$6,$7*
1,1,$1+$1,$8,$9*
0 Add four rect primitives between the rounded corners*
20,1,$1+$1,$2,$3,$4,$5,0*
20,1,$1+$1,$4,$5,$6,$7,0*
20,1,$1+$1,$6,$7,$8,$9,0*
20,1,$1+$1,$8,$9,$2,$3,0*%
G04 Aperture macros list end*
G04 #@! TA.AperFunction,ComponentPad*
%ADD10O,1.700000X1.700000*%
G04 #@! TD*
G04 #@! TA.AperFunction,ComponentPad*
%ADD11R,1.700000X1.700000*%
G04 #@! TD*
G04 #@! TA.AperFunction,SMDPad,CuDef*
%ADD12RoundRect,1.000000X-0.375000X0.000000X0.375000X0.000000X0.375000X0.000000X-0.375000X0.000000X0*%
G04 #@! TD*
G04 #@! TA.AperFunction,ComponentPad*
%ADD13R,3.800000X3.800000*%
G04 #@! TD*
G04 #@! TA.AperFunction,ComponentPad*
%ADD14C,3.800000*%
G04 #@! TD*
G04 #@! TA.AperFunction,ComponentPad*
%ADD15RoundRect,0.250000X0.725000X-0.600000X0.725000X0.600000X-0.725000X0.600000X-0.725000X-0.600000X0*%
G04 #@! TD*
G04 #@! TA.AperFunction,ComponentPad*
%ADD16O,1.950000X1.700000*%
G04 #@! TD*
G04 #@! TA.AperFunction,ViaPad*
%ADD17C,0.600000*%
G04 #@! TD*
G04 #@! TA.AperFunction,Conductor*
%ADD18C,0.200000*%
G04 #@! TD*
G04 #@! TA.AperFunction,Conductor*
%ADD19C,0.500000*%
G04 #@! TD*
G04 #@! TA.AperFunction,Conductor*
%ADD20C,0.300000*%
G04 #@! TD*
G04 #@! TA.AperFunction,Conductor*
%ADD21C,0.160000*%
G04 #@! TD*
G04 APERTURE END LIST*
D10*
X38650000Y-50320000D03*
X38650000Y-47780000D03*
X38650000Y-45240000D03*
D11*
X38650000Y-42700000D03*
D12*
X41937500Y-39380000D03*
X41937500Y-41920000D03*
X41937500Y-44460000D03*
X41937500Y-47000000D03*
X41937500Y-49540000D03*
X41937500Y-52080000D03*
X41937500Y-54620000D03*
X58102500Y-54620000D03*
X58102500Y-52080000D03*
X58102500Y-49540000D03*
X58102500Y-47000000D03*
X58102500Y-44460000D03*
X58102500Y-41920000D03*
X58102500Y-39380000D03*
D13*
X60250000Y-60100001D03*
D14*
X55250000Y-60100001D03*
D15*
X61400000Y-49000000D03*
D16*
X61400000Y-46500000D03*
X61400000Y-44000000D03*
D13*
X44000000Y-60100001D03*
D14*
X49000000Y-60100001D03*
D17*
X40800000Y-37450001D03*
X60000000Y-47300001D03*
X55825000Y-40700001D03*
X56075000Y-45625001D03*
X54650000Y-48300001D03*
X54125000Y-48800001D03*
X58125000Y-56325001D03*
X59325000Y-56300001D03*
X56712500Y-45862501D03*
X60500000Y-50650001D03*
X62650000Y-51300001D03*
X59950000Y-41250001D03*
X61850000Y-56950001D03*
X53950000Y-40500001D03*
X59500000Y-40550001D03*
X57550000Y-37200001D03*
X57050000Y-37950001D03*
X55100000Y-37500001D03*
X40800000Y-56050001D03*
X60600000Y-52150001D03*
X52450000Y-61650001D03*
X46800000Y-61650001D03*
X51100000Y-61650001D03*
X52050000Y-60050001D03*
X52050000Y-58450001D03*
X53400000Y-58450001D03*
X51100000Y-58400001D03*
X46800000Y-58400001D03*
X61975000Y-53700001D03*
X59700000Y-55500001D03*
X59827500Y-51127501D03*
X37425000Y-46550000D03*
X54650000Y-38700001D03*
X39400000Y-57000001D03*
X37500000Y-55700001D03*
X47519254Y-49330746D03*
X47050000Y-51550000D03*
X54750000Y-52475001D03*
X52200000Y-51750001D03*
X54600000Y-51050000D03*
X56000000Y-56200000D03*
X44450000Y-50050000D03*
X45200000Y-54000000D03*
X43450000Y-56150001D03*
X50650000Y-50450000D03*
X55800000Y-49700000D03*
X53950000Y-41275000D03*
X51050000Y-48300000D03*
X48750000Y-48300000D03*
X51050000Y-46000000D03*
X48750000Y-46000000D03*
X46450000Y-45950000D03*
X44150000Y-45950000D03*
X50350000Y-43000000D03*
X51000000Y-38450001D03*
X45750000Y-43000000D03*
X45750000Y-40700000D03*
X50300000Y-40650001D03*
X44700000Y-38450001D03*
X53800000Y-38300001D03*
X48000000Y-38500000D03*
X56425000Y-43675001D03*
X57650000Y-38800000D03*
X57825000Y-42925000D03*
X59525000Y-48200000D03*
X55274999Y-44450001D03*
X54925000Y-45075001D03*
X59325000Y-45725000D03*
X57025000Y-46925001D03*
X56200000Y-46775000D03*
X54775000Y-53275001D03*
X39625000Y-51725000D03*
X38025000Y-52225000D03*
X38107714Y-54204141D03*
X39900000Y-55150000D03*
X61950000Y-52850001D03*
X59150000Y-53700001D03*
X50000000Y-54900000D03*
X50000000Y-53600000D03*
X49000000Y-55500000D03*
X51000000Y-55500000D03*
X51000000Y-53000000D03*
X49000000Y-53000000D03*
D18*
X59325000Y-45725000D02*
X59325000Y-45525001D01*
X59325000Y-45525001D02*
X60850001Y-44000000D01*
X60850001Y-44000000D02*
X61400000Y-44000000D01*
X59950000Y-41250001D02*
X61650000Y-41250001D01*
X58102500Y-51753478D02*
X58102500Y-52080000D01*
X61650000Y-41250001D02*
X63100000Y-42700001D01*
X63100000Y-42700001D02*
X63100000Y-46551346D01*
X63100000Y-46551346D02*
X62001346Y-47650000D01*
X62001346Y-47650000D02*
X60600001Y-47650000D01*
X60600001Y-47650000D02*
X60125000Y-48125001D01*
X60125000Y-48125001D02*
X60125000Y-49730978D01*
X60125000Y-49730978D02*
X58102500Y-51753478D01*
X54775000Y-53275001D02*
X54800000Y-53275001D01*
X54800000Y-53275001D02*
X55350000Y-52725001D01*
X55200000Y-50801471D02*
X54848529Y-50450000D01*
X53350000Y-49300000D02*
X53350000Y-43700001D01*
X55350000Y-52725001D02*
X55350000Y-52226472D01*
X55350000Y-52226472D02*
X55200000Y-52076472D01*
X55200000Y-52076472D02*
X55200000Y-50801471D01*
X54848529Y-50450000D02*
X54500000Y-50450000D01*
X54500000Y-50450000D02*
X53350000Y-49300000D01*
X58102500Y-52080000D02*
X58102500Y-51802501D01*
X58102500Y-51802501D02*
X56427500Y-50127501D01*
X56427500Y-50127501D02*
X56427500Y-47002500D01*
X56427500Y-47002500D02*
X56200000Y-46775000D01*
D19*
X54925000Y-45075001D02*
X55125001Y-44875000D01*
X57687500Y-44875000D02*
X58102500Y-44460000D01*
X55125001Y-44875000D02*
X57687500Y-44875000D01*
D18*
X62450000Y-61750001D02*
X62550000Y-61650001D01*
X62550000Y-61650001D02*
X62550000Y-54275001D01*
X62550000Y-54275001D02*
X61975000Y-53700001D01*
D20*
X59700000Y-55500001D02*
X59827500Y-55372501D01*
X59827500Y-55372501D02*
X59827500Y-51127501D01*
D18*
X53350000Y-40200001D02*
X53350000Y-43700001D01*
X53950000Y-39600001D02*
X53350000Y-40200001D01*
X54598529Y-39600001D02*
X53950000Y-39600001D01*
X56248529Y-37950001D02*
X54598529Y-39600001D01*
X57050000Y-37950001D02*
X56248529Y-37950001D01*
X54650000Y-38700001D02*
X54548529Y-38700001D01*
X54048529Y-39200001D02*
X53784314Y-39200001D01*
X52950000Y-40034315D02*
X52950000Y-49465686D01*
X54548529Y-38700001D02*
X54048529Y-39200001D01*
X52950000Y-49465686D02*
X54534314Y-51050000D01*
X54534314Y-51050000D02*
X54600000Y-51050000D01*
X53784314Y-39200001D02*
X52950000Y-40034315D01*
X57550000Y-37200001D02*
X56248529Y-37200001D01*
X56248529Y-37200001D02*
X55348529Y-38100001D01*
X54850000Y-38100001D02*
X54400000Y-37650001D01*
X55348529Y-38100001D02*
X54850000Y-38100001D01*
X54400000Y-37650001D02*
X43667499Y-37650001D01*
X43667499Y-37650001D02*
X41937500Y-39380000D01*
X55100000Y-37500001D02*
X54850000Y-37250001D01*
X54850000Y-37250001D02*
X41854021Y-37250001D01*
X41854021Y-37250001D02*
X40168399Y-38935623D01*
X40168399Y-38935623D02*
X40168399Y-41081601D01*
X40168399Y-41081601D02*
X38550000Y-42700000D01*
X53375000Y-43675001D02*
X53350000Y-43700001D01*
X56425000Y-43675001D02*
X53375000Y-43675001D01*
D19*
X55000000Y-44725000D02*
X55274999Y-44450001D01*
X55274999Y-44450001D02*
X58092501Y-44450001D01*
X58092501Y-44450001D02*
X58102500Y-44460000D01*
D18*
X41937500Y-54620000D02*
X41937500Y-55761030D01*
X61421170Y-62650001D02*
X61571175Y-62499996D01*
X61571175Y-62499996D02*
X61600005Y-62499996D01*
X40800000Y-56898530D02*
X40800000Y-61450000D01*
X40800000Y-61450000D02*
X42000001Y-62650001D01*
X42000001Y-62650001D02*
X61421170Y-62650001D01*
X41937500Y-55761030D02*
X40800000Y-56898530D01*
X61600005Y-62499996D02*
X61800000Y-62300001D01*
X61770000Y-62980001D02*
X61700000Y-63050001D01*
X41600000Y-63050001D02*
X40400000Y-61850001D01*
X40400000Y-61850001D02*
X40400000Y-57050001D01*
X61700000Y-63050001D02*
X41600000Y-63050001D01*
X41870001Y-52080000D02*
X41937500Y-52080000D01*
X40400000Y-57050001D02*
X39200000Y-55850001D01*
X39200000Y-55850001D02*
X39200000Y-54750001D01*
X39200000Y-54750001D02*
X41870001Y-52080000D01*
D21*
X61800000Y-62280001D02*
X62270000Y-62280001D01*
X62450000Y-62100001D02*
X62450000Y-61750001D01*
X62270000Y-62280001D02*
X62450000Y-62100001D01*
X61770000Y-62980001D02*
X62000000Y-62750001D01*
X62361401Y-62750001D02*
X62835338Y-62276064D01*
X62930005Y-62112097D02*
X62930005Y-61249996D01*
X62000000Y-62750001D02*
X62361401Y-62750001D01*
X62835338Y-62276064D02*
X62930005Y-62112097D01*
D18*
X61950000Y-52850001D02*
X62000000Y-52850001D01*
X62000000Y-52850001D02*
X62950000Y-53800001D01*
X62950000Y-53800001D02*
X62950000Y-61830006D01*
X62950000Y-61830006D02*
X62930005Y-61850001D01*
X59150000Y-53800001D02*
X58922499Y-53800001D01*
X58922499Y-53800001D02*
X58102500Y-54620000D01*
X38025000Y-52225000D02*
X37475000Y-51675000D01*
X40200000Y-48171814D02*
X40200000Y-46197500D01*
X37475000Y-51675000D02*
X37475000Y-49768654D01*
X37475000Y-49768654D02*
X38073654Y-49170000D01*
X38073654Y-49170000D02*
X39201814Y-49170000D01*
X39201814Y-49170000D02*
X40200000Y-48171814D01*
X40200000Y-46197500D02*
X41937500Y-44460000D01*
D20*
X38650000Y-45240000D02*
X41937500Y-41952500D01*
D18*
X41937500Y-41952500D02*
X41937500Y-41920000D01*
X42207500Y-39650000D02*
X41937500Y-39380000D01*
X39625000Y-51725000D02*
X39862500Y-51487500D01*
X39862500Y-51487500D02*
X39862500Y-51049314D01*
X39862500Y-51049314D02*
X40262500Y-50649314D01*
X40262500Y-50649314D02*
X40262500Y-48675000D01*
X40262500Y-48675000D02*
X41937500Y-47000000D01*
X38107714Y-54204141D02*
X38970859Y-54204141D01*
X40262500Y-51215000D02*
X41937500Y-49540000D01*
X38970859Y-54204141D02*
X40262500Y-52912500D01*
X40262500Y-52912500D02*
X40262500Y-51215000D01*
X47050000Y-51550000D02*
X47050000Y-50650000D01*
X47050000Y-50650000D02*
X47519254Y-50180746D01*
X47519254Y-50180746D02*
X47519254Y-49330746D01*
D20*
X57825000Y-42925000D02*
X58102500Y-42009962D01*
X58102500Y-42009962D02*
X58102500Y-41920000D01*
X59442500Y-48200000D02*
X58102500Y-49540000D01*
X59525000Y-48200000D02*
X59442500Y-48200000D01*
X41937500Y-41920000D02*
X40955000Y-41920000D01*
D18*
X58102500Y-54620000D02*
X58868714Y-54620000D01*
G04 #@! TA.AperFunction,Conductor*
G36*
X51371780Y-52468482D02*
G01*
X51398800Y-52515282D01*
X51400000Y-52529000D01*
X51400000Y-58190896D01*
X51398800Y-58204614D01*
X51394500Y-58228997D01*
X51394500Y-58358740D01*
X51394762Y-58366072D01*
X51396090Y-58384640D01*
X51396834Y-58391577D01*
X51396833Y-58408448D01*
X51396089Y-58415362D01*
X51394762Y-58433928D01*
X51394500Y-58441260D01*
X51394500Y-61608740D01*
X51394762Y-61616072D01*
X51396090Y-61634640D01*
X51396834Y-61641577D01*
X51396833Y-61658448D01*
X51396089Y-61665362D01*
X51394762Y-61683928D01*
X51394500Y-61691260D01*
X51394500Y-62270501D01*
X51376018Y-62321281D01*
X51329218Y-62348301D01*
X51315500Y-62349501D01*
X46579000Y-62349501D01*
X46528220Y-62331019D01*
X46501200Y-62284219D01*
X46500000Y-62270501D01*
X46500000Y-55029000D01*
X46518482Y-54978220D01*
X46565282Y-54951200D01*
X46579000Y-54950000D01*
X48600000Y-54950000D01*
X48600000Y-52529000D01*
X48618482Y-52478220D01*
X48665282Y-52451200D01*
X48679000Y-52450000D01*
X51321000Y-52450000D01*
X51371780Y-52468482D01*
G37*
G04 #@! TD.AperFunction*
G04 #@! TA.AperFunction,Conductor*
G36*
X41804367Y-36818982D02*
G01*
X41831387Y-36865782D01*
X41822003Y-36919000D01*
X41785489Y-36951772D01*
X41784030Y-36952415D01*
X41784029Y-36952416D01*
X41776995Y-36955520D01*
X41772909Y-36957325D01*
X41755529Y-36962707D01*
X41743590Y-36964939D01*
X41743585Y-36964941D01*
X41715900Y-36982082D01*
X41711059Y-36984634D01*
X41681251Y-36997796D01*
X41672660Y-37006387D01*
X41658396Y-37017686D01*
X41648072Y-37024078D01*
X41648068Y-37024082D01*
X41628439Y-37050074D01*
X41624845Y-37054204D01*
X40201379Y-38477670D01*
X40152403Y-38500508D01*
X40100205Y-38486522D01*
X40069210Y-38442256D01*
X40068935Y-38441203D01*
X40065244Y-38426628D01*
X40015449Y-38229992D01*
X39922216Y-38017443D01*
X39795271Y-37823139D01*
X39695227Y-37714462D01*
X39638082Y-37652385D01*
X39638079Y-37652382D01*
X39638076Y-37652379D01*
X39454918Y-37509822D01*
X39437694Y-37500501D01*
X39250797Y-37399356D01*
X39031275Y-37323994D01*
X38965863Y-37313079D01*
X38802341Y-37285792D01*
X38570243Y-37285792D01*
X38427887Y-37309547D01*
X38341308Y-37323994D01*
X38121786Y-37399356D01*
X37917667Y-37509821D01*
X37917665Y-37509822D01*
X37734511Y-37652376D01*
X37734501Y-37652385D01*
X37577313Y-37823138D01*
X37577313Y-37823139D01*
X37450366Y-38017446D01*
X37450365Y-38017448D01*
X37357138Y-38229983D01*
X37357136Y-38229988D01*
X37357135Y-38229992D01*
X37307340Y-38426628D01*
X37300158Y-38454987D01*
X37285647Y-38630119D01*
X37280992Y-38686292D01*
X37300158Y-38917597D01*
X37357135Y-39142592D01*
X37357137Y-39142597D01*
X37357138Y-39142600D01*
X37425962Y-39299501D01*
X37450368Y-39355141D01*
X37577313Y-39549445D01*
X37734501Y-39720198D01*
X37734504Y-39720200D01*
X37734508Y-39720205D01*
X37917666Y-39862762D01*
X37991112Y-39902509D01*
X38121786Y-39973227D01*
X38121789Y-39973228D01*
X38341311Y-40048590D01*
X38570243Y-40086792D01*
X38570248Y-40086792D01*
X38802335Y-40086792D01*
X38802341Y-40086792D01*
X39031273Y-40048590D01*
X39250795Y-39973228D01*
X39454918Y-39862762D01*
X39638076Y-39720205D01*
X39730779Y-39619501D01*
X39778766Y-39594661D01*
X39831497Y-39606478D01*
X39864296Y-39649426D01*
X39867898Y-39673009D01*
X39867899Y-40924408D01*
X39849417Y-40975188D01*
X39844760Y-40980269D01*
X39198668Y-41626361D01*
X39149692Y-41649199D01*
X39142807Y-41649500D01*
X37780252Y-41649500D01*
X37721769Y-41661132D01*
X37655448Y-41705448D01*
X37611132Y-41771769D01*
X37599500Y-41830252D01*
X37599500Y-43569747D01*
X37611132Y-43628230D01*
X37611133Y-43628231D01*
X37655448Y-43694552D01*
X37721769Y-43738867D01*
X37721768Y-43738867D01*
X37780252Y-43750500D01*
X39453095Y-43750500D01*
X39503875Y-43768982D01*
X39530895Y-43815782D01*
X39521511Y-43869000D01*
X39508959Y-43885357D01*
X39326459Y-44067858D01*
X39144647Y-44249670D01*
X39095671Y-44272507D01*
X39058123Y-44264840D01*
X39057538Y-44266253D01*
X39053945Y-44264764D01*
X38855938Y-44204701D01*
X38855936Y-44204700D01*
X38855934Y-44204700D01*
X38650000Y-44184417D01*
X38649999Y-44184417D01*
X38616529Y-44187713D01*
X38444066Y-44204700D01*
X38444063Y-44204700D01*
X38444061Y-44204701D01*
X38246054Y-44264764D01*
X38246048Y-44264767D01*
X38246046Y-44264767D01*
X38246046Y-44264768D01*
X38222920Y-44277129D01*
X38063546Y-44362317D01*
X37903589Y-44493589D01*
X37772317Y-44653546D01*
X37674767Y-44836048D01*
X37674764Y-44836054D01*
X37614701Y-45034061D01*
X37614700Y-45034063D01*
X37614700Y-45034066D01*
X37594417Y-45240000D01*
X37614700Y-45445934D01*
X37614700Y-45445936D01*
X37614701Y-45445938D01*
X37674764Y-45643945D01*
X37674767Y-45643951D01*
X37674768Y-45643954D01*
X37769234Y-45820685D01*
X37772317Y-45826453D01*
X37903589Y-45986410D01*
X38050703Y-46107142D01*
X38063550Y-46117685D01*
X38246046Y-46215232D01*
X38246051Y-46215233D01*
X38246054Y-46215235D01*
X38353488Y-46247823D01*
X38444066Y-46275300D01*
X38650000Y-46295583D01*
X38855934Y-46275300D01*
X39022950Y-46224637D01*
X39053945Y-46215235D01*
X39053946Y-46215234D01*
X39053954Y-46215232D01*
X39236450Y-46117685D01*
X39396410Y-45986410D01*
X39527685Y-45826450D01*
X39625232Y-45643954D01*
X39631796Y-45622317D01*
X39658296Y-45534954D01*
X39685300Y-45445934D01*
X39705583Y-45240000D01*
X39685300Y-45034066D01*
X39637862Y-44877682D01*
X39625235Y-44836054D01*
X39623747Y-44832462D01*
X39625554Y-44831713D01*
X39618881Y-44784952D01*
X39640327Y-44745353D01*
X40257018Y-44128662D01*
X40305993Y-44105825D01*
X40358191Y-44119811D01*
X40389186Y-44164077D01*
X40389780Y-44202611D01*
X40368418Y-44293437D01*
X40362000Y-44385910D01*
X40362000Y-44534090D01*
X40368418Y-44626562D01*
X40368418Y-44626565D01*
X40368419Y-44626567D01*
X40419357Y-44843143D01*
X40509223Y-45046671D01*
X40509224Y-45046672D01*
X40509226Y-45046676D01*
X40634961Y-45230225D01*
X40637290Y-45233030D01*
X40635711Y-45234340D01*
X40655609Y-45277011D01*
X40641623Y-45329209D01*
X40632771Y-45339757D01*
X40031285Y-45941242D01*
X40021158Y-45948531D01*
X40021612Y-45949132D01*
X40015771Y-45953542D01*
X39983217Y-45989250D01*
X39981961Y-45990566D01*
X39967827Y-46004702D01*
X39967817Y-46004714D01*
X39965418Y-46008214D01*
X39962027Y-46012494D01*
X39940084Y-46036567D01*
X39940082Y-46036570D01*
X39935693Y-46047898D01*
X39927209Y-46063994D01*
X39920346Y-46074014D01*
X39920344Y-46074018D01*
X39912887Y-46105717D01*
X39911268Y-46110945D01*
X39899500Y-46141326D01*
X39899500Y-46153470D01*
X39897402Y-46171557D01*
X39894620Y-46183381D01*
X39897239Y-46202154D01*
X39899121Y-46215644D01*
X39899500Y-46221098D01*
X39899500Y-48014621D01*
X39881018Y-48065401D01*
X39876371Y-48070471D01*
X39831559Y-48115284D01*
X39788301Y-48158542D01*
X39739325Y-48181379D01*
X39687127Y-48167393D01*
X39656132Y-48123126D01*
X39656842Y-48079747D01*
X39659653Y-48070483D01*
X39685300Y-47985934D01*
X39705583Y-47780000D01*
X39685300Y-47574066D01*
X39639803Y-47424081D01*
X39625235Y-47376054D01*
X39625233Y-47376051D01*
X39625232Y-47376046D01*
X39527685Y-47193550D01*
X39497806Y-47157142D01*
X39396410Y-47033589D01*
X39236453Y-46902317D01*
X39236451Y-46902316D01*
X39236450Y-46902315D01*
X39053954Y-46804768D01*
X39053951Y-46804767D01*
X39053945Y-46804764D01*
X38855938Y-46744701D01*
X38855936Y-46744700D01*
X38855934Y-46744700D01*
X38650000Y-46724417D01*
X38649999Y-46724417D01*
X38616529Y-46727713D01*
X38444066Y-46744700D01*
X38444063Y-46744700D01*
X38444061Y-46744701D01*
X38246054Y-46804764D01*
X38246048Y-46804767D01*
X38063546Y-46902317D01*
X37903589Y-47033589D01*
X37772317Y-47193546D01*
X37728675Y-47275194D01*
X37680707Y-47364936D01*
X37674767Y-47376048D01*
X37674764Y-47376054D01*
X37614701Y-47574061D01*
X37614700Y-47574063D01*
X37614700Y-47574066D01*
X37594417Y-47780000D01*
X37614700Y-47985934D01*
X37614700Y-47985936D01*
X37614701Y-47985938D01*
X37674764Y-48183945D01*
X37674767Y-48183951D01*
X37674768Y-48183954D01*
X37769234Y-48360685D01*
X37772317Y-48366453D01*
X37903589Y-48526410D01*
X38063546Y-48657682D01*
X38063550Y-48657685D01*
X38181684Y-48720829D01*
X38217754Y-48761066D01*
X38219522Y-48815076D01*
X38186159Y-48857587D01*
X38144442Y-48869500D01*
X38135561Y-48869500D01*
X38123242Y-48867490D01*
X38123138Y-48868237D01*
X38115891Y-48867226D01*
X38115890Y-48867226D01*
X38104855Y-48867736D01*
X38067613Y-48869458D01*
X38065789Y-48869500D01*
X38045803Y-48869500D01*
X38041632Y-48870280D01*
X38036202Y-48870909D01*
X38003662Y-48872415D01*
X37992544Y-48877324D01*
X37975158Y-48882707D01*
X37963222Y-48884938D01*
X37935531Y-48902083D01*
X37930688Y-48904636D01*
X37900890Y-48917792D01*
X37900883Y-48917797D01*
X37892295Y-48926385D01*
X37878033Y-48937683D01*
X37867704Y-48944079D01*
X37867698Y-48944084D01*
X37848069Y-48970077D01*
X37844474Y-48974208D01*
X37306285Y-49512396D01*
X37296158Y-49519685D01*
X37296612Y-49520286D01*
X37290771Y-49524696D01*
X37258217Y-49560404D01*
X37256961Y-49561720D01*
X37242827Y-49575856D01*
X37242817Y-49575868D01*
X37240418Y-49579368D01*
X37237027Y-49583648D01*
X37215084Y-49607721D01*
X37215082Y-49607724D01*
X37210693Y-49619052D01*
X37202209Y-49635148D01*
X37195346Y-49645168D01*
X37195344Y-49645172D01*
X37187887Y-49676871D01*
X37186268Y-49682099D01*
X37174500Y-49712480D01*
X37174500Y-49724624D01*
X37172402Y-49742711D01*
X37169620Y-49754535D01*
X37171198Y-49765841D01*
X37174121Y-49786798D01*
X37174500Y-49792252D01*
X37174500Y-51613097D01*
X37172491Y-51625412D01*
X37173238Y-51625517D01*
X37172226Y-51632763D01*
X37174458Y-51681027D01*
X37174500Y-51682852D01*
X37174500Y-51702850D01*
X37175279Y-51707015D01*
X37175910Y-51712454D01*
X37177414Y-51744991D01*
X37182322Y-51756106D01*
X37187707Y-51773496D01*
X37189938Y-51785432D01*
X37207083Y-51813122D01*
X37209636Y-51817966D01*
X37222793Y-51847763D01*
X37222796Y-51847767D01*
X37231378Y-51856349D01*
X37242683Y-51870620D01*
X37249080Y-51880951D01*
X37275076Y-51900583D01*
X37279200Y-51904171D01*
X37395549Y-52020520D01*
X37501531Y-52126502D01*
X37524369Y-52175478D01*
X37523866Y-52193604D01*
X37519353Y-52224998D01*
X37519353Y-52224999D01*
X37539834Y-52367455D01*
X37599622Y-52498372D01*
X37599623Y-52498373D01*
X37693872Y-52607143D01*
X37814947Y-52684953D01*
X37953039Y-52725500D01*
X38096960Y-52725500D01*
X38096961Y-52725500D01*
X38235053Y-52684953D01*
X38356128Y-52607143D01*
X38450377Y-52498373D01*
X38510165Y-52367457D01*
X38530647Y-52225000D01*
X38510165Y-52082543D01*
X38450377Y-51951627D01*
X38356128Y-51842857D01*
X38235053Y-51765047D01*
X38096961Y-51724500D01*
X37982194Y-51724500D01*
X37931414Y-51706018D01*
X37926333Y-51701361D01*
X37798639Y-51573667D01*
X37775801Y-51524691D01*
X37775500Y-51517806D01*
X37775500Y-49925848D01*
X37793982Y-49875068D01*
X37798639Y-49869986D01*
X38174988Y-49493638D01*
X38223964Y-49470801D01*
X38230849Y-49470500D01*
X39139911Y-49470500D01*
X39152226Y-49472508D01*
X39152331Y-49471762D01*
X39159577Y-49472773D01*
X39159578Y-49472772D01*
X39159579Y-49472773D01*
X39182509Y-49471713D01*
X39207843Y-49470542D01*
X39209668Y-49470500D01*
X39229652Y-49470500D01*
X39229658Y-49470500D01*
X39233830Y-49469719D01*
X39239266Y-49469088D01*
X39271806Y-49467585D01*
X39282918Y-49462677D01*
X39300306Y-49457292D01*
X39312247Y-49455061D01*
X39339943Y-49437912D01*
X39344770Y-49435367D01*
X39374579Y-49422206D01*
X39383167Y-49413616D01*
X39397436Y-49402314D01*
X39407766Y-49395919D01*
X39427399Y-49369918D01*
X39430976Y-49365807D01*
X39827140Y-48969643D01*
X39876115Y-48946807D01*
X39928313Y-48960793D01*
X39959308Y-49005059D01*
X39962000Y-49025506D01*
X39962000Y-50492120D01*
X39943518Y-50542900D01*
X39938871Y-50547970D01*
X39815986Y-50670856D01*
X39693785Y-50793057D01*
X39683659Y-50800346D01*
X39684112Y-50800946D01*
X39678271Y-50805356D01*
X39645717Y-50841064D01*
X39644461Y-50842380D01*
X39630327Y-50856516D01*
X39630317Y-50856528D01*
X39627918Y-50860028D01*
X39624527Y-50864308D01*
X39602584Y-50888381D01*
X39602582Y-50888384D01*
X39598193Y-50899712D01*
X39589709Y-50915808D01*
X39582846Y-50925828D01*
X39582844Y-50925832D01*
X39575387Y-50957531D01*
X39573768Y-50962759D01*
X39562000Y-50993140D01*
X39562000Y-51005284D01*
X39559902Y-51023371D01*
X39557120Y-51035195D01*
X39559186Y-51050000D01*
X39561621Y-51067458D01*
X39562000Y-51072912D01*
X39562000Y-51162730D01*
X39543518Y-51213510D01*
X39505257Y-51238530D01*
X39414947Y-51265047D01*
X39414946Y-51265047D01*
X39293871Y-51342857D01*
X39199622Y-51451627D01*
X39139834Y-51582544D01*
X39119353Y-51725000D01*
X39139834Y-51867455D01*
X39199622Y-51998372D01*
X39291428Y-52104322D01*
X39293872Y-52107143D01*
X39414947Y-52184953D01*
X39553039Y-52225500D01*
X39696960Y-52225500D01*
X39696961Y-52225500D01*
X39835053Y-52184953D01*
X39840288Y-52181588D01*
X39892996Y-52169681D01*
X39941030Y-52194440D01*
X39961910Y-52244282D01*
X39962000Y-52248046D01*
X39962000Y-52755307D01*
X39943518Y-52806087D01*
X39938861Y-52811168D01*
X38869527Y-53880502D01*
X38820551Y-53903340D01*
X38813666Y-53903641D01*
X38545664Y-53903641D01*
X38494884Y-53885159D01*
X38485960Y-53876375D01*
X38438842Y-53821998D01*
X38317767Y-53744188D01*
X38179675Y-53703641D01*
X38035753Y-53703641D01*
X37897661Y-53744188D01*
X37897660Y-53744188D01*
X37776585Y-53821998D01*
X37682336Y-53930768D01*
X37622548Y-54061685D01*
X37602067Y-54204141D01*
X37622548Y-54346596D01*
X37682336Y-54477513D01*
X37738581Y-54542423D01*
X37776586Y-54586284D01*
X37897661Y-54664094D01*
X38035753Y-54704641D01*
X38179674Y-54704641D01*
X38179675Y-54704641D01*
X38317767Y-54664094D01*
X38438842Y-54586284D01*
X38485959Y-54531907D01*
X38533182Y-54505633D01*
X38545664Y-54504641D01*
X38853959Y-54504641D01*
X38904739Y-54523123D01*
X38931759Y-54569923D01*
X38922984Y-54619683D01*
X38923301Y-54619823D01*
X38922733Y-54621108D01*
X38922375Y-54623141D01*
X38920573Y-54626002D01*
X38920344Y-54626519D01*
X38912887Y-54658218D01*
X38911268Y-54663446D01*
X38899500Y-54693827D01*
X38899500Y-54705971D01*
X38897402Y-54724058D01*
X38894620Y-54735882D01*
X38897239Y-54754655D01*
X38899121Y-54768145D01*
X38899500Y-54773599D01*
X38899500Y-55788098D01*
X38897491Y-55800413D01*
X38898238Y-55800518D01*
X38897226Y-55807764D01*
X38899458Y-55856028D01*
X38899500Y-55857853D01*
X38899500Y-55877851D01*
X38900279Y-55882016D01*
X38900910Y-55887455D01*
X38902414Y-55919992D01*
X38907322Y-55931107D01*
X38912707Y-55948497D01*
X38914938Y-55960433D01*
X38932083Y-55988123D01*
X38934636Y-55992967D01*
X38947793Y-56022764D01*
X38947796Y-56022768D01*
X38956378Y-56031350D01*
X38967683Y-56045621D01*
X38974080Y-56055952D01*
X39000076Y-56075584D01*
X39004200Y-56079172D01*
X40076361Y-57151333D01*
X40099199Y-57200308D01*
X40099500Y-57207193D01*
X40099500Y-60672256D01*
X40081018Y-60723036D01*
X40034218Y-60750056D01*
X39981000Y-60740672D01*
X39948154Y-60703990D01*
X39922218Y-60644864D01*
X39922217Y-60644862D01*
X39922216Y-60644859D01*
X39795271Y-60450555D01*
X39638076Y-60279795D01*
X39454918Y-60137238D01*
X39440484Y-60129426D01*
X39250797Y-60026772D01*
X39031275Y-59951410D01*
X38965863Y-59940495D01*
X38802341Y-59913208D01*
X38570243Y-59913208D01*
X38427160Y-59937084D01*
X38341308Y-59951410D01*
X38121786Y-60026772D01*
X37917667Y-60137237D01*
X37917665Y-60137238D01*
X37734511Y-60279792D01*
X37734501Y-60279801D01*
X37577313Y-60450554D01*
X37577313Y-60450555D01*
X37450366Y-60644862D01*
X37450365Y-60644864D01*
X37357138Y-60857399D01*
X37357136Y-60857404D01*
X37357135Y-60857408D01*
X37300158Y-61082403D01*
X37284936Y-61266115D01*
X37280992Y-61313708D01*
X37300158Y-61545013D01*
X37357135Y-61770008D01*
X37357137Y-61770013D01*
X37357138Y-61770016D01*
X37440663Y-61960433D01*
X37450368Y-61982557D01*
X37577313Y-62176861D01*
X37734501Y-62347614D01*
X37734504Y-62347616D01*
X37734508Y-62347621D01*
X37917666Y-62490178D01*
X38012510Y-62541505D01*
X38121786Y-62600643D01*
X38121789Y-62600644D01*
X38341311Y-62676006D01*
X38570243Y-62714208D01*
X38570248Y-62714208D01*
X38802335Y-62714208D01*
X38802341Y-62714208D01*
X39031273Y-62676006D01*
X39250795Y-62600644D01*
X39454918Y-62490178D01*
X39638076Y-62347621D01*
X39795271Y-62176861D01*
X39922216Y-61982557D01*
X39954032Y-61910023D01*
X39991356Y-61870945D01*
X40045067Y-61865000D01*
X40090033Y-61894971D01*
X40098655Y-61913650D01*
X40099458Y-61913296D01*
X40107322Y-61931107D01*
X40112707Y-61948497D01*
X40114938Y-61960433D01*
X40114939Y-61960434D01*
X40128636Y-61982557D01*
X40132083Y-61988123D01*
X40134634Y-61992964D01*
X40137521Y-61999501D01*
X40147793Y-62022764D01*
X40147796Y-62022768D01*
X40156378Y-62031350D01*
X40167683Y-62045621D01*
X40174080Y-62055952D01*
X40200076Y-62075584D01*
X40204200Y-62079172D01*
X40725671Y-62600643D01*
X41189667Y-63064639D01*
X41212505Y-63113615D01*
X41198519Y-63165813D01*
X41154253Y-63196808D01*
X41133806Y-63199500D01*
X38687589Y-63199500D01*
X38685005Y-63199415D01*
X38442732Y-63183535D01*
X38437604Y-63182860D01*
X38200754Y-63135746D01*
X38195758Y-63134408D01*
X37967089Y-63056785D01*
X37962311Y-63054806D01*
X37745721Y-62947995D01*
X37741241Y-62945409D01*
X37540450Y-62811243D01*
X37536354Y-62808101D01*
X37354772Y-62648858D01*
X37351141Y-62645227D01*
X37191896Y-62463642D01*
X37188756Y-62459549D01*
X37147647Y-62398027D01*
X37054586Y-62258751D01*
X37052004Y-62254278D01*
X36945193Y-62037688D01*
X36943217Y-62032918D01*
X36865588Y-61804231D01*
X36864253Y-61799245D01*
X36851648Y-61735877D01*
X36817137Y-61562382D01*
X36816465Y-61557275D01*
X36801275Y-61325529D01*
X36800585Y-61314995D01*
X36800500Y-61312411D01*
X36800500Y-38687586D01*
X36800585Y-38685002D01*
X36810360Y-38535868D01*
X36816465Y-38442722D01*
X36817136Y-38437619D01*
X36863616Y-38203955D01*
X36864253Y-38200754D01*
X36865587Y-38195772D01*
X36943219Y-37967076D01*
X36945189Y-37962318D01*
X37052006Y-37745716D01*
X37054581Y-37741254D01*
X37188759Y-37540445D01*
X37191890Y-37536364D01*
X37351148Y-37354764D01*
X37354764Y-37351148D01*
X37536364Y-37191890D01*
X37540445Y-37188759D01*
X37741254Y-37054581D01*
X37745716Y-37052006D01*
X37962318Y-36945189D01*
X37967076Y-36943219D01*
X38195772Y-36865587D01*
X38200754Y-36864253D01*
X38210402Y-36862333D01*
X38437619Y-36817136D01*
X38442722Y-36816465D01*
X38569047Y-36808185D01*
X38685005Y-36800585D01*
X38687589Y-36800500D01*
X38733888Y-36800500D01*
X41753587Y-36800500D01*
X41804367Y-36818982D01*
G37*
G04 #@! TD.AperFunction*
G04 #@! TA.AperFunction,Conductor*
G36*
X54293587Y-37968983D02*
G01*
X54298668Y-37973640D01*
X54446801Y-38121773D01*
X54469639Y-38170749D01*
X54455653Y-38222947D01*
X54433651Y-38244093D01*
X54318871Y-38317858D01*
X54224622Y-38426628D01*
X54164835Y-38557542D01*
X54164834Y-38557546D01*
X54151586Y-38649687D01*
X54129252Y-38694305D01*
X53947197Y-38876362D01*
X53898221Y-38899200D01*
X53891335Y-38899501D01*
X53846217Y-38899501D01*
X53833901Y-38897492D01*
X53833797Y-38898239D01*
X53826550Y-38897227D01*
X53778285Y-38899459D01*
X53776460Y-38899501D01*
X53756464Y-38899501D01*
X53752301Y-38900280D01*
X53746862Y-38900911D01*
X53714324Y-38902415D01*
X53714321Y-38902416D01*
X53714322Y-38902416D01*
X53703201Y-38907325D01*
X53685817Y-38912708D01*
X53673885Y-38914938D01*
X53673876Y-38914942D01*
X53646187Y-38932084D01*
X53641347Y-38934635D01*
X53611548Y-38947794D01*
X53611544Y-38947797D01*
X53602955Y-38956386D01*
X53588693Y-38967684D01*
X53578364Y-38974080D01*
X53578358Y-38974085D01*
X53558729Y-39000078D01*
X53555134Y-39004209D01*
X52781285Y-39778057D01*
X52771158Y-39785346D01*
X52771612Y-39785947D01*
X52765771Y-39790357D01*
X52733217Y-39826065D01*
X52731961Y-39827381D01*
X52717827Y-39841517D01*
X52717817Y-39841529D01*
X52715418Y-39845029D01*
X52712027Y-39849309D01*
X52690084Y-39873382D01*
X52690082Y-39873385D01*
X52685693Y-39884713D01*
X52677209Y-39900809D01*
X52670346Y-39910829D01*
X52670344Y-39910833D01*
X52662887Y-39942532D01*
X52661268Y-39947760D01*
X52649500Y-39978141D01*
X52649500Y-39990285D01*
X52647402Y-40008372D01*
X52644620Y-40020196D01*
X52647239Y-40038969D01*
X52649121Y-40052459D01*
X52649500Y-40057913D01*
X52649500Y-49403783D01*
X52647491Y-49416098D01*
X52648238Y-49416203D01*
X52647226Y-49423449D01*
X52649458Y-49471713D01*
X52649500Y-49473538D01*
X52649500Y-49493536D01*
X52650279Y-49497701D01*
X52650910Y-49503140D01*
X52652414Y-49535677D01*
X52657322Y-49546792D01*
X52662707Y-49564182D01*
X52664938Y-49576118D01*
X52682083Y-49603808D01*
X52684636Y-49608652D01*
X52697793Y-49638449D01*
X52697796Y-49638453D01*
X52706378Y-49647035D01*
X52717683Y-49661306D01*
X52724080Y-49671637D01*
X52750076Y-49691269D01*
X52754200Y-49694857D01*
X53414077Y-50354734D01*
X54073242Y-51013899D01*
X54095577Y-51058517D01*
X54114834Y-51192455D01*
X54174622Y-51323372D01*
X54241777Y-51400873D01*
X54268872Y-51432143D01*
X54389947Y-51509953D01*
X54528039Y-51550500D01*
X54671960Y-51550500D01*
X54671961Y-51550500D01*
X54798244Y-51513420D01*
X54852173Y-51516847D01*
X54891283Y-51554139D01*
X54899500Y-51589220D01*
X54899500Y-52014569D01*
X54897491Y-52026884D01*
X54898238Y-52026989D01*
X54897226Y-52034235D01*
X54899458Y-52082499D01*
X54899500Y-52084324D01*
X54899500Y-52104322D01*
X54900279Y-52108487D01*
X54900910Y-52113926D01*
X54902414Y-52146463D01*
X54907322Y-52157578D01*
X54912707Y-52174968D01*
X54914938Y-52186904D01*
X54932083Y-52214594D01*
X54934634Y-52219435D01*
X54935080Y-52220443D01*
X54947793Y-52249235D01*
X54947796Y-52249239D01*
X54956378Y-52257821D01*
X54967683Y-52272092D01*
X54974080Y-52282423D01*
X55000076Y-52302055D01*
X55004200Y-52305643D01*
X55023548Y-52324991D01*
X55026360Y-52327803D01*
X55049198Y-52376779D01*
X55049499Y-52383664D01*
X55049499Y-52567807D01*
X55031017Y-52618587D01*
X55026360Y-52623668D01*
X54898666Y-52751362D01*
X54849692Y-52774200D01*
X54842806Y-52774501D01*
X54703039Y-52774501D01*
X54564947Y-52815048D01*
X54564946Y-52815048D01*
X54443871Y-52892858D01*
X54349622Y-53001628D01*
X54289834Y-53132545D01*
X54269353Y-53275001D01*
X54289834Y-53417456D01*
X54349622Y-53548373D01*
X54404900Y-53612167D01*
X54443872Y-53657144D01*
X54564947Y-53734954D01*
X54703039Y-53775501D01*
X54846960Y-53775501D01*
X54846961Y-53775501D01*
X54985053Y-53734954D01*
X55106128Y-53657144D01*
X55200377Y-53548374D01*
X55260165Y-53417458D01*
X55280647Y-53275001D01*
X55280373Y-53273098D01*
X55279276Y-53265467D01*
X55290341Y-53212573D01*
X55301606Y-53198364D01*
X55518711Y-52981259D01*
X55528842Y-52973974D01*
X55528386Y-52973370D01*
X55534224Y-52968960D01*
X55534228Y-52968959D01*
X55566799Y-52933229D01*
X55568009Y-52931961D01*
X55582174Y-52917798D01*
X55584577Y-52914289D01*
X55587962Y-52910014D01*
X55609916Y-52885934D01*
X55614304Y-52874605D01*
X55622793Y-52858499D01*
X55629656Y-52848482D01*
X55637111Y-52816781D01*
X55638731Y-52811550D01*
X55638879Y-52811168D01*
X55650500Y-52781174D01*
X55650500Y-52769028D01*
X55652598Y-52750941D01*
X55655379Y-52739120D01*
X55650878Y-52706857D01*
X55650500Y-52701402D01*
X55650500Y-52288377D01*
X55652509Y-52276063D01*
X55651762Y-52275959D01*
X55652773Y-52268710D01*
X55652569Y-52264305D01*
X55650753Y-52225000D01*
X55650542Y-52220443D01*
X55650500Y-52218618D01*
X55650500Y-52198632D01*
X55650500Y-52198628D01*
X55649719Y-52194455D01*
X55649088Y-52189017D01*
X55647585Y-52156480D01*
X55642678Y-52145367D01*
X55637292Y-52127974D01*
X55635061Y-52116040D01*
X55635061Y-52116039D01*
X55617912Y-52088343D01*
X55615363Y-52083505D01*
X55615319Y-52083406D01*
X55602206Y-52053707D01*
X55602204Y-52053704D01*
X55593619Y-52045119D01*
X55582312Y-52030845D01*
X55575919Y-52020520D01*
X55549925Y-52000890D01*
X55545800Y-51997301D01*
X55523639Y-51975140D01*
X55500801Y-51926164D01*
X55500500Y-51919279D01*
X55500500Y-50863375D01*
X55502509Y-50851061D01*
X55501762Y-50850957D01*
X55502773Y-50843709D01*
X55500541Y-50795441D01*
X55500499Y-50793614D01*
X55500499Y-50793057D01*
X55500500Y-50773627D01*
X55499719Y-50769452D01*
X55499088Y-50764017D01*
X55499028Y-50762715D01*
X55497585Y-50731479D01*
X55492678Y-50720366D01*
X55487292Y-50702973D01*
X55485061Y-50691039D01*
X55485061Y-50691038D01*
X55467912Y-50663342D01*
X55465363Y-50658504D01*
X55452206Y-50628706D01*
X55452204Y-50628703D01*
X55443619Y-50620118D01*
X55432312Y-50605844D01*
X55425919Y-50595519D01*
X55399925Y-50575889D01*
X55395800Y-50572300D01*
X55104789Y-50281289D01*
X55097499Y-50271157D01*
X55096897Y-50271612D01*
X55092488Y-50265773D01*
X55092487Y-50265772D01*
X55056768Y-50233209D01*
X55055458Y-50231958D01*
X55041326Y-50217826D01*
X55037822Y-50215425D01*
X55033535Y-50212028D01*
X55009463Y-50190085D01*
X55009462Y-50190084D01*
X55009459Y-50190083D01*
X55009456Y-50190081D01*
X54998128Y-50185692D01*
X54982028Y-50177206D01*
X54972009Y-50170343D01*
X54940309Y-50162887D01*
X54935078Y-50161267D01*
X54904704Y-50149500D01*
X54904702Y-50149500D01*
X54892556Y-50149500D01*
X54874469Y-50147401D01*
X54869786Y-50146299D01*
X54862647Y-50144620D01*
X54841254Y-50147605D01*
X54830385Y-50149121D01*
X54824930Y-50149500D01*
X54657193Y-50149500D01*
X54606413Y-50131018D01*
X54601332Y-50126361D01*
X53673639Y-49198668D01*
X53650801Y-49149692D01*
X53650500Y-49142807D01*
X53650500Y-44054501D01*
X53668982Y-44003721D01*
X53715782Y-43976701D01*
X53729500Y-43975501D01*
X54850913Y-43975501D01*
X54901693Y-43993983D01*
X54928713Y-44040783D01*
X54919329Y-44094001D01*
X54910620Y-44106231D01*
X54898854Y-44119811D01*
X54849618Y-44176632D01*
X54803722Y-44277129D01*
X54787724Y-44300171D01*
X54657574Y-44430322D01*
X54597208Y-44512116D01*
X54552354Y-44640300D01*
X54549463Y-44717534D01*
X54530224Y-44766310D01*
X54499623Y-44801627D01*
X54439834Y-44932545D01*
X54419353Y-45075001D01*
X54439834Y-45217456D01*
X54499622Y-45348373D01*
X54584159Y-45445934D01*
X54593872Y-45457144D01*
X54714947Y-45534954D01*
X54853039Y-45575501D01*
X54996960Y-45575501D01*
X54996961Y-45575501D01*
X55135053Y-45534954D01*
X55256128Y-45457144D01*
X55316441Y-45387539D01*
X55346572Y-45352766D01*
X55393794Y-45326492D01*
X55406276Y-45325500D01*
X56862515Y-45325500D01*
X56913295Y-45343982D01*
X56918365Y-45348628D01*
X56957276Y-45387539D01*
X56957279Y-45387542D01*
X57069915Y-45464700D01*
X57140829Y-45513277D01*
X57344357Y-45603143D01*
X57556755Y-45653098D01*
X57601955Y-45682716D01*
X57617542Y-45734459D01*
X57596223Y-45784115D01*
X57556756Y-45806901D01*
X57344357Y-45856857D01*
X57153243Y-45941242D01*
X57140827Y-45946724D01*
X57140823Y-45946726D01*
X56957275Y-46072460D01*
X56799960Y-46229775D01*
X56676724Y-46409677D01*
X56632778Y-46441125D01*
X56578899Y-46436968D01*
X56551845Y-46416766D01*
X56531127Y-46392856D01*
X56410053Y-46315047D01*
X56271961Y-46274500D01*
X56128039Y-46274500D01*
X55989947Y-46315047D01*
X55989946Y-46315047D01*
X55868871Y-46392857D01*
X55774622Y-46501627D01*
X55714834Y-46632544D01*
X55694353Y-46775000D01*
X55714834Y-46917455D01*
X55774622Y-47048372D01*
X55774623Y-47048373D01*
X55868872Y-47157143D01*
X55989947Y-47234953D01*
X56070256Y-47258533D01*
X56113773Y-47290573D01*
X56127000Y-47334333D01*
X56127000Y-50065598D01*
X56124991Y-50077913D01*
X56125738Y-50078018D01*
X56124726Y-50085264D01*
X56126958Y-50133528D01*
X56127000Y-50135353D01*
X56127000Y-50155351D01*
X56127779Y-50159516D01*
X56128410Y-50164955D01*
X56129914Y-50197492D01*
X56134822Y-50208607D01*
X56140207Y-50225997D01*
X56142438Y-50237933D01*
X56159583Y-50265623D01*
X56162134Y-50270464D01*
X56170828Y-50290154D01*
X56175293Y-50300264D01*
X56175296Y-50300268D01*
X56183878Y-50308850D01*
X56195183Y-50323121D01*
X56201580Y-50333452D01*
X56227576Y-50353084D01*
X56231700Y-50356672D01*
X56587010Y-50711982D01*
X56936521Y-51061493D01*
X56959359Y-51110469D01*
X56945373Y-51162667D01*
X56936521Y-51173215D01*
X56799960Y-51309775D01*
X56674226Y-51493323D01*
X56674224Y-51493327D01*
X56674223Y-51493329D01*
X56584357Y-51696857D01*
X56541059Y-51880951D01*
X56533418Y-51913437D01*
X56527000Y-52005910D01*
X56527000Y-52154090D01*
X56533418Y-52246562D01*
X56533418Y-52246565D01*
X56533419Y-52246567D01*
X56584357Y-52463143D01*
X56674223Y-52666671D01*
X56674224Y-52666672D01*
X56674226Y-52666676D01*
X56799960Y-52850224D01*
X56957275Y-53007539D01*
X56957278Y-53007541D01*
X56957279Y-53007542D01*
X57140829Y-53133277D01*
X57344357Y-53223143D01*
X57556758Y-53273099D01*
X57601955Y-53302715D01*
X57617542Y-53354457D01*
X57596223Y-53404114D01*
X57556756Y-53426901D01*
X57432207Y-53456194D01*
X57344357Y-53476857D01*
X57344355Y-53476857D01*
X57344354Y-53476858D01*
X57140827Y-53566724D01*
X57140823Y-53566726D01*
X56957275Y-53692460D01*
X56799960Y-53849775D01*
X56674226Y-54033323D01*
X56674224Y-54033327D01*
X56674223Y-54033329D01*
X56584357Y-54236857D01*
X56540034Y-54425309D01*
X56533418Y-54453437D01*
X56527000Y-54545910D01*
X56527000Y-54694090D01*
X56533418Y-54786562D01*
X56533418Y-54786565D01*
X56533419Y-54786567D01*
X56584357Y-55003143D01*
X56674223Y-55206671D01*
X56674224Y-55206672D01*
X56674226Y-55206676D01*
X56799960Y-55390224D01*
X56957275Y-55547539D01*
X56957278Y-55547541D01*
X56957279Y-55547542D01*
X57140829Y-55673277D01*
X57344357Y-55763143D01*
X57560933Y-55814081D01*
X57653408Y-55820500D01*
X57653410Y-55820500D01*
X58551590Y-55820500D01*
X58551592Y-55820500D01*
X58644067Y-55814081D01*
X58860643Y-55763143D01*
X59064171Y-55673277D01*
X59112165Y-55640399D01*
X59164502Y-55626949D01*
X59213242Y-55650288D01*
X59228671Y-55672755D01*
X59228908Y-55673273D01*
X59274622Y-55773373D01*
X59346243Y-55856028D01*
X59368872Y-55882144D01*
X59489947Y-55959954D01*
X59628039Y-56000501D01*
X59771960Y-56000501D01*
X59771961Y-56000501D01*
X59910053Y-55959954D01*
X60031128Y-55882144D01*
X60125377Y-55773374D01*
X60185165Y-55642458D01*
X60205647Y-55500001D01*
X60185165Y-55357544D01*
X60185137Y-55357483D01*
X60185108Y-55357350D01*
X60183574Y-55352126D01*
X60183948Y-55352016D01*
X60177999Y-55324667D01*
X60177999Y-53417456D01*
X60177999Y-51516749D01*
X60196481Y-51465972D01*
X60197222Y-51465102D01*
X60252877Y-51400874D01*
X60312665Y-51269958D01*
X60333147Y-51127501D01*
X60312665Y-50985044D01*
X60252877Y-50854128D01*
X60158628Y-50745358D01*
X60037553Y-50667548D01*
X59899461Y-50627001D01*
X59844669Y-50627001D01*
X59793889Y-50608519D01*
X59766869Y-50561719D01*
X59776253Y-50508501D01*
X59788808Y-50492140D01*
X60015325Y-50265623D01*
X60293711Y-49987236D01*
X60303842Y-49979951D01*
X60303386Y-49979347D01*
X60309224Y-49974937D01*
X60309228Y-49974936D01*
X60341799Y-49939206D01*
X60343009Y-49937938D01*
X60357174Y-49923775D01*
X60359577Y-49920266D01*
X60362962Y-49915991D01*
X60384916Y-49891911D01*
X60389301Y-49880588D01*
X60397795Y-49864475D01*
X60404657Y-49854459D01*
X60412115Y-49822746D01*
X60413731Y-49817527D01*
X60425500Y-49787151D01*
X60425500Y-49775007D01*
X60427599Y-49756919D01*
X60430378Y-49745100D01*
X60430379Y-49745096D01*
X60426292Y-49715800D01*
X60425878Y-49712832D01*
X60425500Y-49707379D01*
X60425500Y-48282194D01*
X60443982Y-48231414D01*
X60448639Y-48226333D01*
X60701333Y-47973639D01*
X60750309Y-47950801D01*
X60757194Y-47950500D01*
X61939443Y-47950500D01*
X61951758Y-47952508D01*
X61951863Y-47951762D01*
X61959109Y-47952773D01*
X61959110Y-47952772D01*
X61959111Y-47952773D01*
X61980981Y-47951762D01*
X62007375Y-47950542D01*
X62009200Y-47950500D01*
X62029184Y-47950500D01*
X62029190Y-47950500D01*
X62033362Y-47949719D01*
X62038798Y-47949088D01*
X62071338Y-47947585D01*
X62082450Y-47942677D01*
X62099838Y-47937292D01*
X62111779Y-47935061D01*
X62139475Y-47917912D01*
X62144302Y-47915367D01*
X62174111Y-47902206D01*
X62182699Y-47893616D01*
X62196968Y-47882314D01*
X62207298Y-47875919D01*
X62226932Y-47849917D01*
X62230507Y-47845808D01*
X63064640Y-47011676D01*
X63113615Y-46988839D01*
X63165813Y-47002825D01*
X63196808Y-47047091D01*
X63199500Y-47067538D01*
X63199499Y-53433807D01*
X63181017Y-53484587D01*
X63134217Y-53511607D01*
X63080999Y-53502223D01*
X63064638Y-53489668D01*
X62478786Y-52903816D01*
X62455948Y-52854840D01*
X62455775Y-52850897D01*
X62455646Y-52850003D01*
X62455647Y-52850001D01*
X62435165Y-52707544D01*
X62375377Y-52576628D01*
X62281128Y-52467858D01*
X62160053Y-52390048D01*
X62021961Y-52349501D01*
X61878039Y-52349501D01*
X61739947Y-52390048D01*
X61739946Y-52390048D01*
X61618871Y-52467858D01*
X61524622Y-52576628D01*
X61464834Y-52707545D01*
X61444353Y-52850000D01*
X61464834Y-52992456D01*
X61524622Y-53123373D01*
X61524623Y-53123374D01*
X61609483Y-53221309D01*
X61622572Y-53236414D01*
X61620628Y-53238098D01*
X61642140Y-53276757D01*
X61631916Y-53329821D01*
X61623838Y-53340977D01*
X61549622Y-53426628D01*
X61489834Y-53557545D01*
X61469353Y-53700000D01*
X61489834Y-53842456D01*
X61549622Y-53973373D01*
X61631180Y-54067496D01*
X61643872Y-54082144D01*
X61764947Y-54159954D01*
X61903039Y-54200501D01*
X62017807Y-54200501D01*
X62068587Y-54218983D01*
X62073668Y-54223640D01*
X62226361Y-54376333D01*
X62249199Y-54425309D01*
X62249500Y-54432194D01*
X62249500Y-61492806D01*
X62231018Y-61543586D01*
X62226364Y-61548665D01*
X62217831Y-61557198D01*
X62217827Y-61557203D01*
X62170343Y-61626521D01*
X62144621Y-61735877D01*
X62144620Y-61735884D01*
X62160142Y-61847150D01*
X62162469Y-61854092D01*
X62161680Y-61854356D01*
X62169499Y-61884466D01*
X62169500Y-61920499D01*
X62151019Y-61971280D01*
X62104220Y-61998300D01*
X62090500Y-61999501D01*
X61861904Y-61999501D01*
X61849588Y-61997492D01*
X61849484Y-61998239D01*
X61842237Y-61997227D01*
X61793972Y-61999459D01*
X61792147Y-61999501D01*
X61774007Y-61999501D01*
X61770439Y-62000167D01*
X61765006Y-62000797D01*
X61730009Y-62002415D01*
X61717535Y-62007923D01*
X61700153Y-62013306D01*
X61696918Y-62013910D01*
X61696914Y-62013912D01*
X61681706Y-62023328D01*
X61676864Y-62025880D01*
X61627236Y-62047793D01*
X61627235Y-62047794D01*
X61465523Y-62209505D01*
X61451249Y-62220811D01*
X61433052Y-62232078D01*
X61428210Y-62234630D01*
X61398407Y-62247791D01*
X61398405Y-62247792D01*
X61389816Y-62256381D01*
X61375554Y-62267679D01*
X61365225Y-62274075D01*
X61365219Y-62274081D01*
X61345593Y-62300068D01*
X61342000Y-62304197D01*
X61319840Y-62326360D01*
X61270865Y-62349200D01*
X61263976Y-62349501D01*
X57634500Y-62349501D01*
X57583720Y-62331019D01*
X57556700Y-62284219D01*
X57555500Y-62270501D01*
X57555500Y-58224517D01*
X57555109Y-58215559D01*
X57553518Y-58197375D01*
X57526768Y-58112533D01*
X57499748Y-58065733D01*
X57468890Y-58024994D01*
X57468889Y-58024993D01*
X57468888Y-58024992D01*
X57392064Y-57975375D01*
X57341286Y-57956894D01*
X57271003Y-57944501D01*
X57271000Y-57944501D01*
X51684500Y-57944501D01*
X51633720Y-57926019D01*
X51606700Y-57879219D01*
X51605500Y-57865501D01*
X51605500Y-52524516D01*
X51605109Y-52515558D01*
X51603605Y-52498372D01*
X51603518Y-52497374D01*
X51576768Y-52412532D01*
X51574114Y-52407936D01*
X51549751Y-52365737D01*
X51549747Y-52365731D01*
X51538545Y-52350942D01*
X51518890Y-52324993D01*
X51518889Y-52324992D01*
X51518888Y-52324991D01*
X51442064Y-52275374D01*
X51391286Y-52256893D01*
X51321003Y-52244500D01*
X51321000Y-52244500D01*
X48674517Y-52244500D01*
X48674516Y-52244500D01*
X48665558Y-52244891D01*
X48647372Y-52246482D01*
X48562533Y-52273231D01*
X48562526Y-52273234D01*
X48515737Y-52300248D01*
X48515731Y-52300252D01*
X48474991Y-52331111D01*
X48425374Y-52407935D01*
X48406893Y-52458713D01*
X48394500Y-52528996D01*
X48394500Y-54665500D01*
X48376018Y-54716280D01*
X48329218Y-54743300D01*
X48315500Y-54744500D01*
X46574516Y-54744500D01*
X46565558Y-54744891D01*
X46547372Y-54746482D01*
X46462533Y-54773231D01*
X46462526Y-54773234D01*
X46415737Y-54800248D01*
X46415731Y-54800252D01*
X46374991Y-54831111D01*
X46325374Y-54907935D01*
X46306893Y-54958713D01*
X46294500Y-55028996D01*
X46294500Y-58393333D01*
X46294353Y-58395390D01*
X46294353Y-58404623D01*
X46294500Y-58406677D01*
X46294500Y-61643333D01*
X46294353Y-61645390D01*
X46294353Y-61654623D01*
X46294500Y-61656677D01*
X46294500Y-62270501D01*
X46276018Y-62321281D01*
X46229218Y-62348301D01*
X46215500Y-62349501D01*
X42157194Y-62349501D01*
X42106414Y-62331019D01*
X42101333Y-62326362D01*
X41123639Y-61348668D01*
X41100801Y-61299692D01*
X41100500Y-61292807D01*
X41100500Y-57055722D01*
X41118982Y-57004942D01*
X41123639Y-56999861D01*
X41481228Y-56642272D01*
X42106211Y-56017288D01*
X42116342Y-56010003D01*
X42115886Y-56009399D01*
X42121724Y-56004989D01*
X42121728Y-56004988D01*
X42154299Y-55969258D01*
X42155509Y-55967990D01*
X42169674Y-55953827D01*
X42172077Y-55950318D01*
X42175462Y-55946043D01*
X42197416Y-55921963D01*
X42201801Y-55910640D01*
X42210295Y-55894527D01*
X42217157Y-55884511D01*
X42217714Y-55882144D01*
X42217887Y-55881411D01*
X42219845Y-55878422D01*
X42220114Y-55877814D01*
X42220214Y-55877858D01*
X42247506Y-55836212D01*
X42294788Y-55820500D01*
X42386590Y-55820500D01*
X42386592Y-55820500D01*
X42479067Y-55814081D01*
X42695643Y-55763143D01*
X42899171Y-55673277D01*
X43082721Y-55547542D01*
X43240042Y-55390221D01*
X43365777Y-55206671D01*
X43455643Y-55003143D01*
X43506581Y-54786567D01*
X43513000Y-54694092D01*
X43513000Y-54545908D01*
X43506581Y-54453433D01*
X43455643Y-54236857D01*
X43365777Y-54033329D01*
X43240042Y-53849779D01*
X43240041Y-53849778D01*
X43240039Y-53849775D01*
X43082724Y-53692460D01*
X42899176Y-53566726D01*
X42899172Y-53566724D01*
X42899173Y-53566724D01*
X42899171Y-53566723D01*
X42695643Y-53476857D01*
X42483242Y-53426901D01*
X42438044Y-53397284D01*
X42422457Y-53345541D01*
X42443776Y-53295885D01*
X42483242Y-53273098D01*
X42695643Y-53223143D01*
X42899171Y-53133277D01*
X43082721Y-53007542D01*
X43240042Y-52850221D01*
X43365777Y-52666671D01*
X43455643Y-52463143D01*
X43506581Y-52246567D01*
X43513000Y-52154092D01*
X43513000Y-52005908D01*
X43506581Y-51913433D01*
X43455643Y-51696857D01*
X43390800Y-51550000D01*
X46544353Y-51550000D01*
X46564834Y-51692455D01*
X46624622Y-51823372D01*
X46645759Y-51847765D01*
X46718872Y-51932143D01*
X46839947Y-52009953D01*
X46978039Y-52050500D01*
X47121960Y-52050500D01*
X47121961Y-52050500D01*
X47260053Y-52009953D01*
X47381128Y-51932143D01*
X47475377Y-51823373D01*
X47535165Y-51692457D01*
X47555647Y-51550000D01*
X47535165Y-51407543D01*
X47475377Y-51276627D01*
X47381128Y-51167857D01*
X47381127Y-51167856D01*
X47377765Y-51164943D01*
X47351491Y-51117721D01*
X47350500Y-51105251D01*
X47350500Y-50807191D01*
X47368983Y-50756411D01*
X47373628Y-50751341D01*
X47687965Y-50437004D01*
X47698096Y-50429719D01*
X47697640Y-50429115D01*
X47703478Y-50424705D01*
X47703482Y-50424704D01*
X47736053Y-50388974D01*
X47737263Y-50387706D01*
X47751428Y-50373543D01*
X47753831Y-50370034D01*
X47757216Y-50365759D01*
X47779170Y-50341679D01*
X47783558Y-50330350D01*
X47792047Y-50314244D01*
X47798910Y-50304227D01*
X47806365Y-50272526D01*
X47807985Y-50267295D01*
X47808633Y-50265623D01*
X47819754Y-50236919D01*
X47819754Y-50224773D01*
X47821852Y-50206686D01*
X47824633Y-50194865D01*
X47820132Y-50162600D01*
X47819754Y-50157147D01*
X47819754Y-49775506D01*
X47838236Y-49724726D01*
X47847021Y-49715801D01*
X47850377Y-49712891D01*
X47850382Y-49712889D01*
X47944631Y-49604119D01*
X48004419Y-49473203D01*
X48024901Y-49330746D01*
X48004419Y-49188289D01*
X47944631Y-49057373D01*
X47850382Y-48948603D01*
X47729307Y-48870793D01*
X47591215Y-48830246D01*
X47447293Y-48830246D01*
X47309201Y-48870793D01*
X47309200Y-48870793D01*
X47188125Y-48948603D01*
X47093876Y-49057373D01*
X47034088Y-49188290D01*
X47013607Y-49330746D01*
X47034088Y-49473201D01*
X47093876Y-49604118D01*
X47093877Y-49604119D01*
X47188126Y-49712889D01*
X47188131Y-49712892D01*
X47191486Y-49715800D01*
X47217760Y-49763021D01*
X47218753Y-49775505D01*
X47218753Y-50023552D01*
X47200271Y-50074332D01*
X47195614Y-50079413D01*
X46881285Y-50393742D01*
X46871158Y-50401031D01*
X46871612Y-50401632D01*
X46865771Y-50406042D01*
X46833217Y-50441750D01*
X46831961Y-50443066D01*
X46817827Y-50457202D01*
X46817817Y-50457214D01*
X46815418Y-50460714D01*
X46812027Y-50464994D01*
X46790084Y-50489067D01*
X46790082Y-50489070D01*
X46785693Y-50500398D01*
X46777209Y-50516494D01*
X46770346Y-50526514D01*
X46770344Y-50526518D01*
X46762887Y-50558217D01*
X46761268Y-50563445D01*
X46749500Y-50593826D01*
X46749500Y-50605970D01*
X46747402Y-50624057D01*
X46744620Y-50635881D01*
X46747239Y-50654654D01*
X46749121Y-50668144D01*
X46749500Y-50673598D01*
X46749500Y-51105239D01*
X46731018Y-51156019D01*
X46722238Y-51164940D01*
X46718872Y-51167856D01*
X46624622Y-51276627D01*
X46564834Y-51407544D01*
X46544353Y-51550000D01*
X43390800Y-51550000D01*
X43365777Y-51493329D01*
X43346383Y-51465018D01*
X43328360Y-51438707D01*
X43240042Y-51309779D01*
X43240041Y-51309778D01*
X43240039Y-51309775D01*
X43082724Y-51152460D01*
X42899176Y-51026726D01*
X42899172Y-51026724D01*
X42899173Y-51026724D01*
X42899171Y-51026723D01*
X42695643Y-50936857D01*
X42483242Y-50886901D01*
X42438044Y-50857284D01*
X42422457Y-50805541D01*
X42443776Y-50755885D01*
X42483242Y-50733098D01*
X42695643Y-50683143D01*
X42899171Y-50593277D01*
X43082721Y-50467542D01*
X43240042Y-50310221D01*
X43365777Y-50126671D01*
X43455643Y-49923143D01*
X43506581Y-49706567D01*
X43513000Y-49614092D01*
X43513000Y-49465908D01*
X43506581Y-49373433D01*
X43455643Y-49156857D01*
X43365777Y-48953329D01*
X43240042Y-48769779D01*
X43240041Y-48769778D01*
X43240039Y-48769775D01*
X43082724Y-48612460D01*
X42899176Y-48486726D01*
X42899172Y-48486724D01*
X42899173Y-48486724D01*
X42899171Y-48486723D01*
X42695643Y-48396857D01*
X42483242Y-48346901D01*
X42438044Y-48317284D01*
X42422457Y-48265541D01*
X42443776Y-48215885D01*
X42483242Y-48193098D01*
X42695643Y-48143143D01*
X42899171Y-48053277D01*
X43082721Y-47927542D01*
X43240042Y-47770221D01*
X43365777Y-47586671D01*
X43455643Y-47383143D01*
X43506581Y-47166567D01*
X43513000Y-47074092D01*
X43513000Y-46925908D01*
X43506581Y-46833433D01*
X43455643Y-46616857D01*
X43365777Y-46413329D01*
X43240042Y-46229779D01*
X43240041Y-46229778D01*
X43240039Y-46229775D01*
X43082724Y-46072460D01*
X42899176Y-45946726D01*
X42899172Y-45946724D01*
X42899173Y-45946724D01*
X42899171Y-45946723D01*
X42695643Y-45856857D01*
X42483242Y-45806901D01*
X42438044Y-45777284D01*
X42422457Y-45725541D01*
X42443776Y-45675885D01*
X42483242Y-45653098D01*
X42695643Y-45603143D01*
X42899171Y-45513277D01*
X43082721Y-45387542D01*
X43240042Y-45230221D01*
X43365777Y-45046671D01*
X43455643Y-44843143D01*
X43506581Y-44626567D01*
X43513000Y-44534092D01*
X43513000Y-44385908D01*
X43506581Y-44293433D01*
X43455643Y-44076857D01*
X43365777Y-43873329D01*
X43240042Y-43689779D01*
X43240041Y-43689778D01*
X43240039Y-43689775D01*
X43082724Y-43532460D01*
X42899176Y-43406726D01*
X42899172Y-43406724D01*
X42899173Y-43406724D01*
X42899171Y-43406723D01*
X42695643Y-43316857D01*
X42483242Y-43266901D01*
X42438044Y-43237284D01*
X42422457Y-43185541D01*
X42443776Y-43135885D01*
X42483242Y-43113098D01*
X42695643Y-43063143D01*
X42899171Y-42973277D01*
X43082721Y-42847542D01*
X43240042Y-42690221D01*
X43365777Y-42506671D01*
X43455643Y-42303143D01*
X43506581Y-42086567D01*
X43513000Y-41994092D01*
X43513000Y-41845908D01*
X43506581Y-41753433D01*
X43455643Y-41536857D01*
X43365777Y-41333329D01*
X43360454Y-41325559D01*
X43280620Y-41209016D01*
X43240042Y-41149779D01*
X43240040Y-41149777D01*
X43240039Y-41149775D01*
X43082724Y-40992460D01*
X42899176Y-40866726D01*
X42899172Y-40866724D01*
X42899173Y-40866724D01*
X42899171Y-40866723D01*
X42695643Y-40776857D01*
X42483242Y-40726901D01*
X42438044Y-40697284D01*
X42422457Y-40645541D01*
X42443776Y-40595885D01*
X42483242Y-40573098D01*
X42695643Y-40523143D01*
X42899171Y-40433277D01*
X43082721Y-40307542D01*
X43240042Y-40150221D01*
X43365777Y-39966671D01*
X43455643Y-39763143D01*
X43506581Y-39546567D01*
X43513000Y-39454092D01*
X43513000Y-39305908D01*
X43506581Y-39213433D01*
X43455643Y-38996857D01*
X43365777Y-38793329D01*
X43240042Y-38609779D01*
X43240040Y-38609777D01*
X43240038Y-38609774D01*
X43237710Y-38606970D01*
X43239288Y-38605659D01*
X43219390Y-38562988D01*
X43233376Y-38510790D01*
X43242222Y-38500248D01*
X43768831Y-37973640D01*
X43817807Y-37950802D01*
X43824692Y-37950501D01*
X54242807Y-37950501D01*
X54293587Y-37968983D01*
G37*
G04 #@! TD.AperFunction*
G04 #@! TA.AperFunction,Conductor*
G36*
X40444063Y-54023230D02*
G01*
X40475058Y-54067496D01*
X40471019Y-54119852D01*
X40419358Y-54236853D01*
X40368418Y-54453437D01*
X40362000Y-54545910D01*
X40362000Y-54694090D01*
X40368418Y-54786562D01*
X40368418Y-54786565D01*
X40368419Y-54786567D01*
X40419357Y-55003143D01*
X40509223Y-55206671D01*
X40509224Y-55206672D01*
X40509226Y-55206676D01*
X40634960Y-55390224D01*
X40792275Y-55547539D01*
X40792278Y-55547541D01*
X40792279Y-55547542D01*
X40975829Y-55673277D01*
X41179357Y-55763143D01*
X41309315Y-55793708D01*
X41354513Y-55823325D01*
X41370100Y-55875067D01*
X41348781Y-55924723D01*
X41347087Y-55926470D01*
X40631285Y-56642272D01*
X40621158Y-56649561D01*
X40621612Y-56650162D01*
X40615771Y-56654572D01*
X40583216Y-56690281D01*
X40581957Y-56691600D01*
X40580124Y-56693432D01*
X40531148Y-56716270D01*
X40478950Y-56702284D01*
X40468402Y-56693432D01*
X39523639Y-55748669D01*
X39500801Y-55699693D01*
X39500500Y-55692808D01*
X39500500Y-54907193D01*
X39518982Y-54856413D01*
X39523628Y-54851343D01*
X40342890Y-54032081D01*
X40391865Y-54009244D01*
X40444063Y-54023230D01*
G37*
G04 #@! TD.AperFunction*
G04 #@! TA.AperFunction,Conductor*
G36*
X61314995Y-36800585D02*
G01*
X61437633Y-36808622D01*
X61557275Y-36816465D01*
X61562382Y-36817137D01*
X61746086Y-36853678D01*
X61799245Y-36864253D01*
X61804231Y-36865588D01*
X62032918Y-36943217D01*
X62037686Y-36945192D01*
X62112491Y-36982082D01*
X62254278Y-37052004D01*
X62258751Y-37054586D01*
X62263180Y-37057545D01*
X62459549Y-37188756D01*
X62463642Y-37191896D01*
X62645227Y-37351141D01*
X62648858Y-37354772D01*
X62808101Y-37536354D01*
X62811243Y-37540450D01*
X62886031Y-37652376D01*
X62927515Y-37714462D01*
X62945409Y-37741241D01*
X62947995Y-37745721D01*
X63054806Y-37962311D01*
X63056785Y-37967089D01*
X63134408Y-38195758D01*
X63135746Y-38200754D01*
X63182860Y-38437604D01*
X63183535Y-38442732D01*
X63199415Y-38685002D01*
X63199500Y-38687586D01*
X63199499Y-42183807D01*
X63181016Y-42234587D01*
X63134217Y-42261607D01*
X63080999Y-42252223D01*
X63064641Y-42239670D01*
X61906259Y-41081289D01*
X61898970Y-41071158D01*
X61898368Y-41071613D01*
X61893959Y-41065774D01*
X61891427Y-41063466D01*
X61858239Y-41033210D01*
X61856929Y-41031959D01*
X61842797Y-41017827D01*
X61839293Y-41015426D01*
X61835006Y-41012029D01*
X61810934Y-40990086D01*
X61810933Y-40990085D01*
X61810930Y-40990084D01*
X61810927Y-40990082D01*
X61799599Y-40985693D01*
X61783499Y-40977207D01*
X61773480Y-40970344D01*
X61741780Y-40962888D01*
X61736549Y-40961268D01*
X61706175Y-40949501D01*
X61706173Y-40949501D01*
X61694027Y-40949501D01*
X61675940Y-40947402D01*
X61671257Y-40946300D01*
X61664118Y-40944621D01*
X61642725Y-40947606D01*
X61631856Y-40949122D01*
X61626401Y-40949501D01*
X60387950Y-40949501D01*
X60337170Y-40931019D01*
X60328246Y-40922235D01*
X60281128Y-40867858D01*
X60160053Y-40790048D01*
X60021961Y-40749501D01*
X59878039Y-40749501D01*
X59739947Y-40790048D01*
X59739946Y-40790048D01*
X59618871Y-40867858D01*
X59524622Y-40976628D01*
X59464834Y-41107545D01*
X59444353Y-41250001D01*
X59464834Y-41392456D01*
X59524622Y-41523373D01*
X59536303Y-41536853D01*
X59618872Y-41632144D01*
X59739947Y-41709954D01*
X59878039Y-41750501D01*
X60021960Y-41750501D01*
X60021961Y-41750501D01*
X60160053Y-41709954D01*
X60281128Y-41632144D01*
X60328245Y-41577767D01*
X60375468Y-41551493D01*
X60387950Y-41550501D01*
X61492807Y-41550501D01*
X61543587Y-41568983D01*
X61548667Y-41573639D01*
X62776360Y-42801333D01*
X62799198Y-42850308D01*
X62799499Y-42857193D01*
X62799499Y-46394150D01*
X62781017Y-46444930D01*
X62776361Y-46450011D01*
X62711764Y-46514609D01*
X62662788Y-46537447D01*
X62610590Y-46523461D01*
X62579594Y-46479195D01*
X62577283Y-46466498D01*
X62560300Y-46294066D01*
X62560299Y-46294063D01*
X62560299Y-46294061D01*
X62500235Y-46096054D01*
X62500233Y-46096051D01*
X62500232Y-46096046D01*
X62402685Y-45913550D01*
X62356161Y-45856860D01*
X62271410Y-45753589D01*
X62111453Y-45622317D01*
X62111451Y-45622316D01*
X62111450Y-45622315D01*
X61928954Y-45524768D01*
X61928951Y-45524767D01*
X61928945Y-45524764D01*
X61730938Y-45464701D01*
X61730936Y-45464700D01*
X61730934Y-45464700D01*
X61576608Y-45449500D01*
X61223392Y-45449500D01*
X61069066Y-45464700D01*
X61069063Y-45464700D01*
X61069061Y-45464701D01*
X60871054Y-45524764D01*
X60871048Y-45524767D01*
X60688546Y-45622317D01*
X60528589Y-45753589D01*
X60397317Y-45913546D01*
X60379583Y-45946724D01*
X60320938Y-46056441D01*
X60299767Y-46096048D01*
X60299764Y-46096054D01*
X60239701Y-46294061D01*
X60239700Y-46294063D01*
X60239700Y-46294066D01*
X60219417Y-46500000D01*
X60239700Y-46705934D01*
X60239700Y-46705936D01*
X60239701Y-46705938D01*
X60299764Y-46903945D01*
X60299767Y-46903951D01*
X60299768Y-46903954D01*
X60397315Y-47086450D01*
X60397317Y-47086453D01*
X60523752Y-47240515D01*
X60541679Y-47291494D01*
X60522644Y-47342070D01*
X60495782Y-47361073D01*
X60495791Y-47361087D01*
X60495574Y-47361220D01*
X60491231Y-47364294D01*
X60489573Y-47364936D01*
X60461878Y-47382083D01*
X60457035Y-47384636D01*
X60427237Y-47397792D01*
X60427230Y-47397797D01*
X60418642Y-47406385D01*
X60404380Y-47417683D01*
X60394051Y-47424079D01*
X60394045Y-47424084D01*
X60374416Y-47450077D01*
X60370821Y-47454208D01*
X59986247Y-47838781D01*
X59937271Y-47861619D01*
X59885073Y-47847633D01*
X59870683Y-47834655D01*
X59856128Y-47817857D01*
X59735053Y-47740047D01*
X59596960Y-47699499D01*
X59591369Y-47698696D01*
X59591797Y-47695714D01*
X59551418Y-47681018D01*
X59524398Y-47634218D01*
X59529929Y-47588590D01*
X59530776Y-47586672D01*
X59530777Y-47586671D01*
X59620643Y-47383143D01*
X59671581Y-47166567D01*
X59678000Y-47074092D01*
X59678000Y-46925908D01*
X59671581Y-46833433D01*
X59620643Y-46616857D01*
X59530777Y-46413329D01*
X59462751Y-46314024D01*
X59449302Y-46261688D01*
X59472642Y-46212948D01*
X59505670Y-46193580D01*
X59535053Y-46184953D01*
X59656128Y-46107143D01*
X59750377Y-45998373D01*
X59810165Y-45867457D01*
X59830647Y-45725000D01*
X59810165Y-45582543D01*
X59796037Y-45551609D01*
X59791755Y-45497742D01*
X59812036Y-45462934D01*
X60477945Y-44797025D01*
X60526920Y-44774188D01*
X60579118Y-44788174D01*
X60583913Y-44791812D01*
X60688550Y-44877685D01*
X60871046Y-44975232D01*
X60871051Y-44975233D01*
X60871054Y-44975235D01*
X60978488Y-45007823D01*
X61069066Y-45035300D01*
X61223392Y-45050500D01*
X61223394Y-45050500D01*
X61576606Y-45050500D01*
X61576608Y-45050500D01*
X61730934Y-45035300D01*
X61878360Y-44990579D01*
X61928945Y-44975235D01*
X61928946Y-44975234D01*
X61928954Y-44975232D01*
X62111450Y-44877685D01*
X62271410Y-44746410D01*
X62402685Y-44586450D01*
X62500232Y-44403954D01*
X62560300Y-44205934D01*
X62580583Y-44000000D01*
X62560300Y-43794066D01*
X62509995Y-43628230D01*
X62500235Y-43596054D01*
X62500233Y-43596051D01*
X62500232Y-43596046D01*
X62402685Y-43413550D01*
X62397083Y-43406724D01*
X62271410Y-43253589D01*
X62111453Y-43122317D01*
X62111451Y-43122316D01*
X62111450Y-43122315D01*
X61928954Y-43024768D01*
X61928951Y-43024767D01*
X61928945Y-43024764D01*
X61730938Y-42964701D01*
X61730936Y-42964700D01*
X61730934Y-42964700D01*
X61576608Y-42949500D01*
X61223392Y-42949500D01*
X61069066Y-42964700D01*
X61069063Y-42964700D01*
X61069061Y-42964701D01*
X60871054Y-43024764D01*
X60871048Y-43024767D01*
X60688546Y-43122317D01*
X60528589Y-43253589D01*
X60397317Y-43413546D01*
X60299767Y-43596048D01*
X60299764Y-43596054D01*
X60239701Y-43794061D01*
X60239700Y-43794063D01*
X60239700Y-43794066D01*
X60230708Y-43885362D01*
X60219417Y-44000000D01*
X60234189Y-44149994D01*
X60220772Y-44202342D01*
X60211430Y-44213598D01*
X59811408Y-44613620D01*
X59762432Y-44636458D01*
X59710234Y-44622472D01*
X59679239Y-44578206D01*
X59676737Y-44552288D01*
X59678000Y-44534090D01*
X59678000Y-44385910D01*
X59676362Y-44362315D01*
X59671581Y-44293433D01*
X59620643Y-44076857D01*
X59530777Y-43873329D01*
X59405042Y-43689779D01*
X59405041Y-43689778D01*
X59405039Y-43689775D01*
X59247724Y-43532460D01*
X59064176Y-43406726D01*
X59064172Y-43406724D01*
X59064173Y-43406724D01*
X59064171Y-43406723D01*
X58860643Y-43316857D01*
X58644067Y-43265919D01*
X58644065Y-43265918D01*
X58644062Y-43265918D01*
X58567803Y-43260625D01*
X58551592Y-43259500D01*
X57653408Y-43259500D01*
X57638502Y-43260534D01*
X57560937Y-43265918D01*
X57539157Y-43271040D01*
X57344357Y-43316857D01*
X57146435Y-43404248D01*
X57140827Y-43406724D01*
X57140823Y-43406726D01*
X56998850Y-43503980D01*
X56946511Y-43517430D01*
X56897772Y-43494090D01*
X56882343Y-43471623D01*
X56850377Y-43401628D01*
X56756128Y-43292858D01*
X56635053Y-43215048D01*
X56496961Y-43174501D01*
X56353039Y-43174501D01*
X56214947Y-43215048D01*
X56214946Y-43215048D01*
X56093871Y-43292858D01*
X56046754Y-43347235D01*
X55999532Y-43373509D01*
X55987050Y-43374501D01*
X53729500Y-43374501D01*
X53678720Y-43356019D01*
X53651700Y-43309219D01*
X53650500Y-43295501D01*
X53650500Y-40357194D01*
X53668982Y-40306414D01*
X53673639Y-40301333D01*
X54051332Y-39923640D01*
X54100308Y-39900802D01*
X54107193Y-39900501D01*
X54536626Y-39900501D01*
X54548941Y-39902509D01*
X54549046Y-39901763D01*
X54556292Y-39902774D01*
X54556293Y-39902773D01*
X54556294Y-39902774D01*
X54578164Y-39901763D01*
X54604558Y-39900543D01*
X54606383Y-39900501D01*
X54626367Y-39900501D01*
X54626373Y-39900501D01*
X54630545Y-39899720D01*
X54635981Y-39899089D01*
X54668521Y-39897586D01*
X54679633Y-39892678D01*
X54697021Y-39887293D01*
X54708962Y-39885062D01*
X54736658Y-39867913D01*
X54741485Y-39865368D01*
X54771294Y-39852207D01*
X54779882Y-39843617D01*
X54794151Y-39832315D01*
X54804481Y-39825920D01*
X54824114Y-39799919D01*
X54827691Y-39795808D01*
X56349860Y-38273640D01*
X56398837Y-38250802D01*
X56405722Y-38250501D01*
X56612050Y-38250501D01*
X56662830Y-38268983D01*
X56671754Y-38277767D01*
X56714175Y-38326724D01*
X56718872Y-38332144D01*
X56839947Y-38409954D01*
X56839950Y-38409954D01*
X56845085Y-38412300D01*
X56843958Y-38414766D01*
X56879262Y-38440756D01*
X56892006Y-38493271D01*
X56869354Y-38540382D01*
X56799958Y-38609778D01*
X56674226Y-38793323D01*
X56674224Y-38793327D01*
X56674223Y-38793329D01*
X56584357Y-38996857D01*
X56550081Y-39142592D01*
X56533418Y-39213437D01*
X56527000Y-39305910D01*
X56527000Y-39454090D01*
X56533418Y-39546562D01*
X56533418Y-39546565D01*
X56533419Y-39546567D01*
X56584357Y-39763143D01*
X56674223Y-39966671D01*
X56674224Y-39966672D01*
X56674226Y-39966676D01*
X56799960Y-40150224D01*
X56957275Y-40307539D01*
X56957278Y-40307541D01*
X56957279Y-40307542D01*
X57140829Y-40433277D01*
X57344357Y-40523143D01*
X57560933Y-40574081D01*
X57653408Y-40580500D01*
X57653410Y-40580500D01*
X58551590Y-40580500D01*
X58551592Y-40580500D01*
X58644067Y-40574081D01*
X58860643Y-40523143D01*
X59064171Y-40433277D01*
X59247721Y-40307542D01*
X59405042Y-40150221D01*
X59530777Y-39966671D01*
X59620643Y-39763143D01*
X59671581Y-39546567D01*
X59678000Y-39454092D01*
X59678000Y-39305908D01*
X59671581Y-39213433D01*
X59620643Y-38996857D01*
X59530777Y-38793329D01*
X59457455Y-38686292D01*
X59908408Y-38686292D01*
X59927574Y-38917597D01*
X59984551Y-39142592D01*
X59984553Y-39142597D01*
X59984554Y-39142600D01*
X60053378Y-39299501D01*
X60077784Y-39355141D01*
X60204729Y-39549445D01*
X60361917Y-39720198D01*
X60361920Y-39720200D01*
X60361924Y-39720205D01*
X60545082Y-39862762D01*
X60618528Y-39902509D01*
X60749202Y-39973227D01*
X60749205Y-39973228D01*
X60968727Y-40048590D01*
X61197659Y-40086792D01*
X61197664Y-40086792D01*
X61429751Y-40086792D01*
X61429757Y-40086792D01*
X61658689Y-40048590D01*
X61878211Y-39973228D01*
X62082334Y-39862762D01*
X62265492Y-39720205D01*
X62422687Y-39549445D01*
X62549632Y-39355141D01*
X62642865Y-39142592D01*
X62699842Y-38917597D01*
X62719008Y-38686292D01*
X62699842Y-38454987D01*
X62642865Y-38229992D01*
X62549632Y-38017443D01*
X62422687Y-37823139D01*
X62322643Y-37714462D01*
X62265498Y-37652385D01*
X62265495Y-37652382D01*
X62265492Y-37652379D01*
X62082334Y-37509822D01*
X62065110Y-37500501D01*
X61878213Y-37399356D01*
X61658691Y-37323994D01*
X61593279Y-37313079D01*
X61429757Y-37285792D01*
X61197659Y-37285792D01*
X61055303Y-37309547D01*
X60968724Y-37323994D01*
X60749202Y-37399356D01*
X60545083Y-37509821D01*
X60545081Y-37509822D01*
X60361927Y-37652376D01*
X60361917Y-37652385D01*
X60204729Y-37823138D01*
X60204729Y-37823139D01*
X60077782Y-38017446D01*
X60077781Y-38017448D01*
X59984554Y-38229983D01*
X59984552Y-38229988D01*
X59984551Y-38229992D01*
X59934756Y-38426628D01*
X59927574Y-38454987D01*
X59913063Y-38630119D01*
X59908408Y-38686292D01*
X59457455Y-38686292D01*
X59405042Y-38609779D01*
X59405041Y-38609778D01*
X59405039Y-38609775D01*
X59247724Y-38452460D01*
X59064176Y-38326726D01*
X59064172Y-38326724D01*
X59064173Y-38326724D01*
X59064171Y-38326723D01*
X58860643Y-38236857D01*
X58644067Y-38185919D01*
X58644065Y-38185918D01*
X58644062Y-38185918D01*
X58567803Y-38180625D01*
X58551592Y-38179500D01*
X57653408Y-38179500D01*
X57651301Y-38179646D01*
X57618918Y-38181893D01*
X57566980Y-38166971D01*
X57536785Y-38122154D01*
X57535253Y-38091844D01*
X57555647Y-37950001D01*
X57535165Y-37807544D01*
X57535163Y-37807540D01*
X57533573Y-37802124D01*
X57536477Y-37801270D01*
X57533048Y-37758503D01*
X57564363Y-37714462D01*
X57609206Y-37700501D01*
X57621960Y-37700501D01*
X57621961Y-37700501D01*
X57760053Y-37659954D01*
X57881128Y-37582144D01*
X57975377Y-37473374D01*
X58035165Y-37342458D01*
X58055647Y-37200001D01*
X58035165Y-37057544D01*
X57991197Y-36961269D01*
X57975377Y-36926627D01*
X57972541Y-36922215D01*
X57960632Y-36869504D01*
X57985391Y-36821471D01*
X58035233Y-36800590D01*
X58038997Y-36800500D01*
X61266112Y-36800500D01*
X61312411Y-36800500D01*
X61314995Y-36800585D01*
G37*
G04 #@! TD.AperFunction*
G04 #@! TA.AperFunction,Conductor*
G36*
X57321780Y-58168483D02*
G01*
X57348800Y-58215283D01*
X57350000Y-58229001D01*
X57350000Y-62270501D01*
X57331518Y-62321281D01*
X57284718Y-62348301D01*
X57271000Y-62349501D01*
X51679000Y-62349501D01*
X51628220Y-62331019D01*
X51601200Y-62284219D01*
X51600000Y-62270501D01*
X51600000Y-61694927D01*
X51600804Y-61683684D01*
X51605647Y-61650001D01*
X51600804Y-61616315D01*
X51600000Y-61605073D01*
X51600000Y-58444927D01*
X51600804Y-58433684D01*
X51605647Y-58400001D01*
X51600804Y-58366315D01*
X51600000Y-58355073D01*
X51600000Y-58229001D01*
X51618482Y-58178221D01*
X51665282Y-58151201D01*
X51679000Y-58150001D01*
X57271000Y-58150001D01*
X57321780Y-58168483D01*
G37*
G04 #@! TD.AperFunction*
M02*
