G04 #@! TF.GenerationSoftware,KiCad,Pcbnew,7.0.7*
G04 #@! TF.CreationDate,2024-01-02T23:05:42-05:00*
G04 #@! TF.ProjectId,squirrelbrain,73717569-7272-4656-9c62-7261696e2e6b,1*
G04 #@! TF.SameCoordinates,Original*
G04 #@! TF.FileFunction,Legend,Top*
G04 #@! TF.FilePolarity,Positive*
%FSLAX46Y46*%
G04 Gerber Fmt 4.6, Leading zero omitted, Abs format (unit mm)*
G04 Created by KiCad (PCBNEW 7.0.7) date 2024-01-02 23:05:42*
%MOMM*%
%LPD*%
G01*
G04 APERTURE LIST*
G04 Aperture macros list*
%AMRoundRect*
0 Rectangle with rounded corners*
0 $1 Rounding radius*
0 $2 $3 $4 $5 $6 $7 $8 $9 X,Y pos of 4 corners*
0 Add a 4 corners polygon primitive as box body*
4,1,4,$2,$3,$4,$5,$6,$7,$8,$9,$2,$3,0*
0 Add four circle primitives for the rounded corners*
1,1,$1+$1,$2,$3*
1,1,$1+$1,$4,$5*
1,1,$1+$1,$6,$7*
1,1,$1+$1,$8,$9*
0 Add four rect primitives between the rounded corners*
20,1,$1+$1,$2,$3,$4,$5,0*
20,1,$1+$1,$4,$5,$6,$7,0*
20,1,$1+$1,$6,$7,$8,$9,0*
20,1,$1+$1,$8,$9,$2,$3,0*%
G04 Aperture macros list end*
%ADD10C,0.150000*%
%ADD11C,0.127000*%
%ADD12O,1.700000X1.700000*%
%ADD13R,1.700000X1.700000*%
%ADD14RoundRect,1.000000X-0.375000X0.000000X0.375000X0.000000X0.375000X0.000000X-0.375000X0.000000X0*%
%ADD15R,3.800000X3.800000*%
%ADD16C,3.800000*%
%ADD17RoundRect,0.250000X0.725000X-0.600000X0.725000X0.600000X-0.725000X0.600000X-0.725000X-0.600000X0*%
%ADD18O,1.950000X1.700000*%
G04 APERTURE END LIST*
D10*
X58902500Y-57650000D02*
X63525000Y-57650000D01*
X48637500Y-50000001D02*
X51362500Y-50000001D01*
X50000000Y-48625000D02*
X50000000Y-51350000D01*
X51000000Y-50000001D02*
G75*
G03*
X51000000Y-50000001I-1000000J0D01*
G01*
X38725000Y-38675000D02*
X50000000Y-50000001D01*
X62200000Y-60350000D02*
G75*
G03*
X41574640Y-63600581I-12200000J10349999D01*
G01*
X39517181Y-40211322D02*
X38520497Y-40346009D01*
X38682121Y-40507633D02*
X38655184Y-40426821D01*
X38655184Y-40426821D02*
X38655184Y-40319072D01*
X38655184Y-40319072D02*
X38735996Y-40184385D01*
X38735996Y-40184385D02*
X38924558Y-39995823D01*
X38924558Y-39995823D02*
X39059245Y-39915011D01*
X39059245Y-39915011D02*
X39166995Y-39915011D01*
X39166995Y-39915011D02*
X39247807Y-39941948D01*
X39247807Y-39941948D02*
X39355557Y-40049698D01*
X39355557Y-40049698D02*
X39382494Y-40130510D01*
X39382494Y-40130510D02*
X39382494Y-40238259D01*
X39382494Y-40238259D02*
X39301682Y-40372946D01*
X39301682Y-40372946D02*
X39113120Y-40561508D01*
X39113120Y-40561508D02*
X38978433Y-40642320D01*
X38978433Y-40642320D02*
X38870683Y-40642320D01*
X38870683Y-40642320D02*
X38789871Y-40615383D01*
X38789871Y-40615383D02*
X38682121Y-40507633D01*
X39678805Y-40372946D02*
X40028991Y-40723132D01*
X40028991Y-40723132D02*
X39624930Y-40750070D01*
X39624930Y-40750070D02*
X39705743Y-40830882D01*
X39705743Y-40830882D02*
X39732680Y-40911694D01*
X39732680Y-40911694D02*
X39732680Y-40965569D01*
X39732680Y-40965569D02*
X39705743Y-41046381D01*
X39705743Y-41046381D02*
X39571056Y-41181068D01*
X39571056Y-41181068D02*
X39490243Y-41208006D01*
X39490243Y-41208006D02*
X39436369Y-41208006D01*
X39436369Y-41208006D02*
X39355556Y-41181068D01*
X39355556Y-41181068D02*
X39193932Y-41019444D01*
X39193932Y-41019444D02*
X39166995Y-40938632D01*
X39166995Y-40938632D02*
X39166995Y-40884757D01*
X40190616Y-40992507D02*
X40244491Y-40992507D01*
X40244491Y-40992507D02*
X40325303Y-41019444D01*
X40325303Y-41019444D02*
X40459990Y-41154131D01*
X40459990Y-41154131D02*
X40486927Y-41234943D01*
X40486927Y-41234943D02*
X40486927Y-41288818D01*
X40486927Y-41288818D02*
X40459990Y-41369630D01*
X40459990Y-41369630D02*
X40406115Y-41423505D01*
X40406115Y-41423505D02*
X40298366Y-41477380D01*
X40298366Y-41477380D02*
X39651868Y-41477380D01*
X39651868Y-41477380D02*
X40002054Y-41827566D01*
X37253571Y-55505200D02*
X37367857Y-55543295D01*
X37367857Y-55543295D02*
X37558333Y-55543295D01*
X37558333Y-55543295D02*
X37634524Y-55505200D01*
X37634524Y-55505200D02*
X37672619Y-55467104D01*
X37672619Y-55467104D02*
X37710714Y-55390914D01*
X37710714Y-55390914D02*
X37710714Y-55314723D01*
X37710714Y-55314723D02*
X37672619Y-55238533D01*
X37672619Y-55238533D02*
X37634524Y-55200438D01*
X37634524Y-55200438D02*
X37558333Y-55162342D01*
X37558333Y-55162342D02*
X37405952Y-55124247D01*
X37405952Y-55124247D02*
X37329762Y-55086152D01*
X37329762Y-55086152D02*
X37291667Y-55048057D01*
X37291667Y-55048057D02*
X37253571Y-54971866D01*
X37253571Y-54971866D02*
X37253571Y-54895676D01*
X37253571Y-54895676D02*
X37291667Y-54819485D01*
X37291667Y-54819485D02*
X37329762Y-54781390D01*
X37329762Y-54781390D02*
X37405952Y-54743295D01*
X37405952Y-54743295D02*
X37596429Y-54743295D01*
X37596429Y-54743295D02*
X37710714Y-54781390D01*
X38586905Y-55619485D02*
X38510715Y-55581390D01*
X38510715Y-55581390D02*
X38434524Y-55505200D01*
X38434524Y-55505200D02*
X38320238Y-55390914D01*
X38320238Y-55390914D02*
X38244048Y-55352819D01*
X38244048Y-55352819D02*
X38167857Y-55352819D01*
X38205953Y-55543295D02*
X38129762Y-55505200D01*
X38129762Y-55505200D02*
X38053572Y-55429009D01*
X38053572Y-55429009D02*
X38015476Y-55276628D01*
X38015476Y-55276628D02*
X38015476Y-55009961D01*
X38015476Y-55009961D02*
X38053572Y-54857580D01*
X38053572Y-54857580D02*
X38129762Y-54781390D01*
X38129762Y-54781390D02*
X38205953Y-54743295D01*
X38205953Y-54743295D02*
X38358334Y-54743295D01*
X38358334Y-54743295D02*
X38434524Y-54781390D01*
X38434524Y-54781390D02*
X38510715Y-54857580D01*
X38510715Y-54857580D02*
X38548810Y-55009961D01*
X38548810Y-55009961D02*
X38548810Y-55276628D01*
X38548810Y-55276628D02*
X38510715Y-55429009D01*
X38510715Y-55429009D02*
X38434524Y-55505200D01*
X38434524Y-55505200D02*
X38358334Y-55543295D01*
X38358334Y-55543295D02*
X38205953Y-55543295D01*
X39348810Y-55543295D02*
X39082143Y-55162342D01*
X38891667Y-55543295D02*
X38891667Y-54743295D01*
X38891667Y-54743295D02*
X39196429Y-54743295D01*
X39196429Y-54743295D02*
X39272619Y-54781390D01*
X39272619Y-54781390D02*
X39310714Y-54819485D01*
X39310714Y-54819485D02*
X39348810Y-54895676D01*
X39348810Y-54895676D02*
X39348810Y-55009961D01*
X39348810Y-55009961D02*
X39310714Y-55086152D01*
X39310714Y-55086152D02*
X39272619Y-55124247D01*
X39272619Y-55124247D02*
X39196429Y-55162342D01*
X39196429Y-55162342D02*
X38891667Y-55162342D01*
X40072619Y-55543295D02*
X39691667Y-55543295D01*
X39691667Y-55543295D02*
X39691667Y-54743295D01*
X37329762Y-56412247D02*
X37444048Y-56450342D01*
X37444048Y-56450342D02*
X37482143Y-56488438D01*
X37482143Y-56488438D02*
X37520239Y-56564628D01*
X37520239Y-56564628D02*
X37520239Y-56678914D01*
X37520239Y-56678914D02*
X37482143Y-56755104D01*
X37482143Y-56755104D02*
X37444048Y-56793200D01*
X37444048Y-56793200D02*
X37367858Y-56831295D01*
X37367858Y-56831295D02*
X37063096Y-56831295D01*
X37063096Y-56831295D02*
X37063096Y-56031295D01*
X37063096Y-56031295D02*
X37329762Y-56031295D01*
X37329762Y-56031295D02*
X37405953Y-56069390D01*
X37405953Y-56069390D02*
X37444048Y-56107485D01*
X37444048Y-56107485D02*
X37482143Y-56183676D01*
X37482143Y-56183676D02*
X37482143Y-56259866D01*
X37482143Y-56259866D02*
X37444048Y-56336057D01*
X37444048Y-56336057D02*
X37405953Y-56374152D01*
X37405953Y-56374152D02*
X37329762Y-56412247D01*
X37329762Y-56412247D02*
X37063096Y-56412247D01*
X38320239Y-56831295D02*
X38053572Y-56450342D01*
X37863096Y-56831295D02*
X37863096Y-56031295D01*
X37863096Y-56031295D02*
X38167858Y-56031295D01*
X38167858Y-56031295D02*
X38244048Y-56069390D01*
X38244048Y-56069390D02*
X38282143Y-56107485D01*
X38282143Y-56107485D02*
X38320239Y-56183676D01*
X38320239Y-56183676D02*
X38320239Y-56297961D01*
X38320239Y-56297961D02*
X38282143Y-56374152D01*
X38282143Y-56374152D02*
X38244048Y-56412247D01*
X38244048Y-56412247D02*
X38167858Y-56450342D01*
X38167858Y-56450342D02*
X37863096Y-56450342D01*
X38625000Y-56602723D02*
X39005953Y-56602723D01*
X38548810Y-56831295D02*
X38815477Y-56031295D01*
X38815477Y-56031295D02*
X39082143Y-56831295D01*
X39348810Y-56831295D02*
X39348810Y-56031295D01*
X39729762Y-56831295D02*
X39729762Y-56031295D01*
X39729762Y-56031295D02*
X40186905Y-56831295D01*
X40186905Y-56831295D02*
X40186905Y-56031295D01*
X38053571Y-57585961D02*
X38244047Y-58119295D01*
X38244047Y-58119295D02*
X38434524Y-57585961D01*
X39158333Y-58119295D02*
X38701190Y-58119295D01*
X38929762Y-58119295D02*
X38929762Y-57319295D01*
X38929762Y-57319295D02*
X38853571Y-57433580D01*
X38853571Y-57433580D02*
X38777381Y-57509771D01*
X38777381Y-57509771D02*
X38701190Y-57547866D01*
X43383207Y-62407390D02*
X43307017Y-62369295D01*
X43307017Y-62369295D02*
X43192731Y-62369295D01*
X43192731Y-62369295D02*
X43078445Y-62407390D01*
X43078445Y-62407390D02*
X43002255Y-62483580D01*
X43002255Y-62483580D02*
X42964160Y-62559771D01*
X42964160Y-62559771D02*
X42926064Y-62712152D01*
X42926064Y-62712152D02*
X42926064Y-62826438D01*
X42926064Y-62826438D02*
X42964160Y-62978819D01*
X42964160Y-62978819D02*
X43002255Y-63055009D01*
X43002255Y-63055009D02*
X43078445Y-63131200D01*
X43078445Y-63131200D02*
X43192731Y-63169295D01*
X43192731Y-63169295D02*
X43268922Y-63169295D01*
X43268922Y-63169295D02*
X43383207Y-63131200D01*
X43383207Y-63131200D02*
X43421303Y-63093104D01*
X43421303Y-63093104D02*
X43421303Y-62826438D01*
X43421303Y-62826438D02*
X43268922Y-62826438D01*
X43764160Y-63169295D02*
X43764160Y-62369295D01*
X43764160Y-62369295D02*
X44221303Y-63169295D01*
X44221303Y-63169295D02*
X44221303Y-62369295D01*
X44602255Y-63169295D02*
X44602255Y-62369295D01*
X44602255Y-62369295D02*
X44792731Y-62369295D01*
X44792731Y-62369295D02*
X44907017Y-62407390D01*
X44907017Y-62407390D02*
X44983207Y-62483580D01*
X44983207Y-62483580D02*
X45021302Y-62559771D01*
X45021302Y-62559771D02*
X45059398Y-62712152D01*
X45059398Y-62712152D02*
X45059398Y-62826438D01*
X45059398Y-62826438D02*
X45021302Y-62978819D01*
X45021302Y-62978819D02*
X44983207Y-63055009D01*
X44983207Y-63055009D02*
X44907017Y-63131200D01*
X44907017Y-63131200D02*
X44792731Y-63169295D01*
X44792731Y-63169295D02*
X44602255Y-63169295D01*
X54280826Y-62750247D02*
X54395112Y-62788342D01*
X54395112Y-62788342D02*
X54433207Y-62826438D01*
X54433207Y-62826438D02*
X54471303Y-62902628D01*
X54471303Y-62902628D02*
X54471303Y-63016914D01*
X54471303Y-63016914D02*
X54433207Y-63093104D01*
X54433207Y-63093104D02*
X54395112Y-63131200D01*
X54395112Y-63131200D02*
X54318922Y-63169295D01*
X54318922Y-63169295D02*
X54014160Y-63169295D01*
X54014160Y-63169295D02*
X54014160Y-62369295D01*
X54014160Y-62369295D02*
X54280826Y-62369295D01*
X54280826Y-62369295D02*
X54357017Y-62407390D01*
X54357017Y-62407390D02*
X54395112Y-62445485D01*
X54395112Y-62445485D02*
X54433207Y-62521676D01*
X54433207Y-62521676D02*
X54433207Y-62597866D01*
X54433207Y-62597866D02*
X54395112Y-62674057D01*
X54395112Y-62674057D02*
X54357017Y-62712152D01*
X54357017Y-62712152D02*
X54280826Y-62750247D01*
X54280826Y-62750247D02*
X54014160Y-62750247D01*
X55195112Y-63169295D02*
X54814160Y-63169295D01*
X54814160Y-63169295D02*
X54814160Y-62369295D01*
X55461779Y-63169295D02*
X55461779Y-62369295D01*
X55461779Y-62369295D02*
X55652255Y-62369295D01*
X55652255Y-62369295D02*
X55766541Y-62407390D01*
X55766541Y-62407390D02*
X55842731Y-62483580D01*
X55842731Y-62483580D02*
X55880826Y-62559771D01*
X55880826Y-62559771D02*
X55918922Y-62712152D01*
X55918922Y-62712152D02*
X55918922Y-62826438D01*
X55918922Y-62826438D02*
X55880826Y-62978819D01*
X55880826Y-62978819D02*
X55842731Y-63055009D01*
X55842731Y-63055009D02*
X55766541Y-63131200D01*
X55766541Y-63131200D02*
X55652255Y-63169295D01*
X55652255Y-63169295D02*
X55461779Y-63169295D01*
X56718922Y-63093104D02*
X56680826Y-63131200D01*
X56680826Y-63131200D02*
X56566541Y-63169295D01*
X56566541Y-63169295D02*
X56490350Y-63169295D01*
X56490350Y-63169295D02*
X56376064Y-63131200D01*
X56376064Y-63131200D02*
X56299874Y-63055009D01*
X56299874Y-63055009D02*
X56261779Y-62978819D01*
X56261779Y-62978819D02*
X56223683Y-62826438D01*
X56223683Y-62826438D02*
X56223683Y-62712152D01*
X56223683Y-62712152D02*
X56261779Y-62559771D01*
X56261779Y-62559771D02*
X56299874Y-62483580D01*
X56299874Y-62483580D02*
X56376064Y-62407390D01*
X56376064Y-62407390D02*
X56490350Y-62369295D01*
X56490350Y-62369295D02*
X56566541Y-62369295D01*
X56566541Y-62369295D02*
X56680826Y-62407390D01*
X56680826Y-62407390D02*
X56718922Y-62445485D01*
X47880826Y-62750247D02*
X47995112Y-62788342D01*
X47995112Y-62788342D02*
X48033207Y-62826438D01*
X48033207Y-62826438D02*
X48071303Y-62902628D01*
X48071303Y-62902628D02*
X48071303Y-63016914D01*
X48071303Y-63016914D02*
X48033207Y-63093104D01*
X48033207Y-63093104D02*
X47995112Y-63131200D01*
X47995112Y-63131200D02*
X47918922Y-63169295D01*
X47918922Y-63169295D02*
X47614160Y-63169295D01*
X47614160Y-63169295D02*
X47614160Y-62369295D01*
X47614160Y-62369295D02*
X47880826Y-62369295D01*
X47880826Y-62369295D02*
X47957017Y-62407390D01*
X47957017Y-62407390D02*
X47995112Y-62445485D01*
X47995112Y-62445485D02*
X48033207Y-62521676D01*
X48033207Y-62521676D02*
X48033207Y-62597866D01*
X48033207Y-62597866D02*
X47995112Y-62674057D01*
X47995112Y-62674057D02*
X47957017Y-62712152D01*
X47957017Y-62712152D02*
X47880826Y-62750247D01*
X47880826Y-62750247D02*
X47614160Y-62750247D01*
X48376064Y-62940723D02*
X48757017Y-62940723D01*
X48299874Y-63169295D02*
X48566541Y-62369295D01*
X48566541Y-62369295D02*
X48833207Y-63169295D01*
X48985588Y-62369295D02*
X49442731Y-62369295D01*
X49214159Y-63169295D02*
X49214159Y-62369295D01*
X49595112Y-62369295D02*
X50052255Y-62369295D01*
X49823683Y-63169295D02*
X49823683Y-62369295D01*
X50318922Y-62864533D02*
X50928446Y-62864533D01*
X50623684Y-63169295D02*
X50623684Y-62559771D01*
X59633207Y-62407390D02*
X59557017Y-62369295D01*
X59557017Y-62369295D02*
X59442731Y-62369295D01*
X59442731Y-62369295D02*
X59328445Y-62407390D01*
X59328445Y-62407390D02*
X59252255Y-62483580D01*
X59252255Y-62483580D02*
X59214160Y-62559771D01*
X59214160Y-62559771D02*
X59176064Y-62712152D01*
X59176064Y-62712152D02*
X59176064Y-62826438D01*
X59176064Y-62826438D02*
X59214160Y-62978819D01*
X59214160Y-62978819D02*
X59252255Y-63055009D01*
X59252255Y-63055009D02*
X59328445Y-63131200D01*
X59328445Y-63131200D02*
X59442731Y-63169295D01*
X59442731Y-63169295D02*
X59518922Y-63169295D01*
X59518922Y-63169295D02*
X59633207Y-63131200D01*
X59633207Y-63131200D02*
X59671303Y-63093104D01*
X59671303Y-63093104D02*
X59671303Y-62826438D01*
X59671303Y-62826438D02*
X59518922Y-62826438D01*
X60014160Y-63169295D02*
X60014160Y-62369295D01*
X60014160Y-62369295D02*
X60471303Y-63169295D01*
X60471303Y-63169295D02*
X60471303Y-62369295D01*
X60852255Y-63169295D02*
X60852255Y-62369295D01*
X60852255Y-62369295D02*
X61042731Y-62369295D01*
X61042731Y-62369295D02*
X61157017Y-62407390D01*
X61157017Y-62407390D02*
X61233207Y-62483580D01*
X61233207Y-62483580D02*
X61271302Y-62559771D01*
X61271302Y-62559771D02*
X61309398Y-62712152D01*
X61309398Y-62712152D02*
X61309398Y-62826438D01*
X61309398Y-62826438D02*
X61271302Y-62978819D01*
X61271302Y-62978819D02*
X61233207Y-63055009D01*
X61233207Y-63055009D02*
X61157017Y-63131200D01*
X61157017Y-63131200D02*
X61042731Y-63169295D01*
X61042731Y-63169295D02*
X60852255Y-63169295D01*
X62445112Y-44844295D02*
X62064160Y-44844295D01*
X62064160Y-44844295D02*
X62026064Y-45225247D01*
X62026064Y-45225247D02*
X62064160Y-45187152D01*
X62064160Y-45187152D02*
X62140350Y-45149057D01*
X62140350Y-45149057D02*
X62330826Y-45149057D01*
X62330826Y-45149057D02*
X62407017Y-45187152D01*
X62407017Y-45187152D02*
X62445112Y-45225247D01*
X62445112Y-45225247D02*
X62483207Y-45301438D01*
X62483207Y-45301438D02*
X62483207Y-45491914D01*
X62483207Y-45491914D02*
X62445112Y-45568104D01*
X62445112Y-45568104D02*
X62407017Y-45606200D01*
X62407017Y-45606200D02*
X62330826Y-45644295D01*
X62330826Y-45644295D02*
X62140350Y-45644295D01*
X62140350Y-45644295D02*
X62064160Y-45606200D01*
X62064160Y-45606200D02*
X62026064Y-45568104D01*
X62711779Y-44844295D02*
X62978446Y-45644295D01*
X62978446Y-45644295D02*
X63245112Y-44844295D01*
X60739160Y-42969295D02*
X60739160Y-42169295D01*
X60739160Y-42169295D02*
X60929636Y-42169295D01*
X60929636Y-42169295D02*
X61043922Y-42207390D01*
X61043922Y-42207390D02*
X61120112Y-42283580D01*
X61120112Y-42283580D02*
X61158207Y-42359771D01*
X61158207Y-42359771D02*
X61196303Y-42512152D01*
X61196303Y-42512152D02*
X61196303Y-42626438D01*
X61196303Y-42626438D02*
X61158207Y-42778819D01*
X61158207Y-42778819D02*
X61120112Y-42855009D01*
X61120112Y-42855009D02*
X61043922Y-42931200D01*
X61043922Y-42931200D02*
X60929636Y-42969295D01*
X60929636Y-42969295D02*
X60739160Y-42969295D01*
X61501064Y-42740723D02*
X61882017Y-42740723D01*
X61424874Y-42969295D02*
X61691541Y-42169295D01*
X61691541Y-42169295D02*
X61958207Y-42969295D01*
X62110588Y-42169295D02*
X62567731Y-42169295D01*
X62339159Y-42969295D02*
X62339159Y-42169295D01*
X62796302Y-42740723D02*
X63177255Y-42740723D01*
X62720112Y-42969295D02*
X62986779Y-42169295D01*
X62986779Y-42169295D02*
X63253445Y-42969295D01*
X45276064Y-56143200D02*
X45390350Y-56181295D01*
X45390350Y-56181295D02*
X45580826Y-56181295D01*
X45580826Y-56181295D02*
X45657017Y-56143200D01*
X45657017Y-56143200D02*
X45695112Y-56105104D01*
X45695112Y-56105104D02*
X45733207Y-56028914D01*
X45733207Y-56028914D02*
X45733207Y-55952723D01*
X45733207Y-55952723D02*
X45695112Y-55876533D01*
X45695112Y-55876533D02*
X45657017Y-55838438D01*
X45657017Y-55838438D02*
X45580826Y-55800342D01*
X45580826Y-55800342D02*
X45428445Y-55762247D01*
X45428445Y-55762247D02*
X45352255Y-55724152D01*
X45352255Y-55724152D02*
X45314160Y-55686057D01*
X45314160Y-55686057D02*
X45276064Y-55609866D01*
X45276064Y-55609866D02*
X45276064Y-55533676D01*
X45276064Y-55533676D02*
X45314160Y-55457485D01*
X45314160Y-55457485D02*
X45352255Y-55419390D01*
X45352255Y-55419390D02*
X45428445Y-55381295D01*
X45428445Y-55381295D02*
X45618922Y-55381295D01*
X45618922Y-55381295D02*
X45733207Y-55419390D01*
X46380827Y-56143200D02*
X46304636Y-56181295D01*
X46304636Y-56181295D02*
X46152255Y-56181295D01*
X46152255Y-56181295D02*
X46076065Y-56143200D01*
X46076065Y-56143200D02*
X46037969Y-56067009D01*
X46037969Y-56067009D02*
X46037969Y-55762247D01*
X46037969Y-55762247D02*
X46076065Y-55686057D01*
X46076065Y-55686057D02*
X46152255Y-55647961D01*
X46152255Y-55647961D02*
X46304636Y-55647961D01*
X46304636Y-55647961D02*
X46380827Y-55686057D01*
X46380827Y-55686057D02*
X46418922Y-55762247D01*
X46418922Y-55762247D02*
X46418922Y-55838438D01*
X46418922Y-55838438D02*
X46037969Y-55914628D01*
X47066541Y-56143200D02*
X46990350Y-56181295D01*
X46990350Y-56181295D02*
X46837969Y-56181295D01*
X46837969Y-56181295D02*
X46761779Y-56143200D01*
X46761779Y-56143200D02*
X46723683Y-56067009D01*
X46723683Y-56067009D02*
X46723683Y-55762247D01*
X46723683Y-55762247D02*
X46761779Y-55686057D01*
X46761779Y-55686057D02*
X46837969Y-55647961D01*
X46837969Y-55647961D02*
X46990350Y-55647961D01*
X46990350Y-55647961D02*
X47066541Y-55686057D01*
X47066541Y-55686057D02*
X47104636Y-55762247D01*
X47104636Y-55762247D02*
X47104636Y-55838438D01*
X47104636Y-55838438D02*
X46723683Y-55914628D01*
X47752255Y-56143200D02*
X47676064Y-56181295D01*
X47676064Y-56181295D02*
X47523683Y-56181295D01*
X47523683Y-56181295D02*
X47447493Y-56143200D01*
X47447493Y-56143200D02*
X47409397Y-56067009D01*
X47409397Y-56067009D02*
X47409397Y-55762247D01*
X47409397Y-55762247D02*
X47447493Y-55686057D01*
X47447493Y-55686057D02*
X47523683Y-55647961D01*
X47523683Y-55647961D02*
X47676064Y-55647961D01*
X47676064Y-55647961D02*
X47752255Y-55686057D01*
X47752255Y-55686057D02*
X47790350Y-55762247D01*
X47790350Y-55762247D02*
X47790350Y-55838438D01*
X47790350Y-55838438D02*
X47409397Y-55914628D01*
X48476064Y-56181295D02*
X48476064Y-55381295D01*
X48476064Y-56143200D02*
X48399873Y-56181295D01*
X48399873Y-56181295D02*
X48247492Y-56181295D01*
X48247492Y-56181295D02*
X48171302Y-56143200D01*
X48171302Y-56143200D02*
X48133207Y-56105104D01*
X48133207Y-56105104D02*
X48095111Y-56028914D01*
X48095111Y-56028914D02*
X48095111Y-55800342D01*
X48095111Y-55800342D02*
X48133207Y-55724152D01*
X48133207Y-55724152D02*
X48171302Y-55686057D01*
X48171302Y-55686057D02*
X48247492Y-55647961D01*
X48247492Y-55647961D02*
X48399873Y-55647961D01*
X48399873Y-55647961D02*
X48476064Y-55686057D01*
X49199874Y-55647961D02*
X49199874Y-56181295D01*
X48857017Y-55647961D02*
X48857017Y-56067009D01*
X48857017Y-56067009D02*
X48895112Y-56143200D01*
X48895112Y-56143200D02*
X48971302Y-56181295D01*
X48971302Y-56181295D02*
X49085588Y-56181295D01*
X49085588Y-56181295D02*
X49161779Y-56143200D01*
X49161779Y-56143200D02*
X49199874Y-56105104D01*
X49580827Y-56181295D02*
X49580827Y-55647961D01*
X49580827Y-55381295D02*
X49542731Y-55419390D01*
X49542731Y-55419390D02*
X49580827Y-55457485D01*
X49580827Y-55457485D02*
X49618922Y-55419390D01*
X49618922Y-55419390D02*
X49580827Y-55381295D01*
X49580827Y-55381295D02*
X49580827Y-55457485D01*
X49961779Y-55647961D02*
X49961779Y-56181295D01*
X49961779Y-55724152D02*
X49999874Y-55686057D01*
X49999874Y-55686057D02*
X50076064Y-55647961D01*
X50076064Y-55647961D02*
X50190350Y-55647961D01*
X50190350Y-55647961D02*
X50266541Y-55686057D01*
X50266541Y-55686057D02*
X50304636Y-55762247D01*
X50304636Y-55762247D02*
X50304636Y-56181295D01*
X50799874Y-56181295D02*
X50723684Y-56143200D01*
X50723684Y-56143200D02*
X50685589Y-56105104D01*
X50685589Y-56105104D02*
X50647493Y-56028914D01*
X50647493Y-56028914D02*
X50647493Y-55800342D01*
X50647493Y-55800342D02*
X50685589Y-55724152D01*
X50685589Y-55724152D02*
X50723684Y-55686057D01*
X50723684Y-55686057D02*
X50799874Y-55647961D01*
X50799874Y-55647961D02*
X50914160Y-55647961D01*
X50914160Y-55647961D02*
X50990351Y-55686057D01*
X50990351Y-55686057D02*
X51028446Y-55724152D01*
X51028446Y-55724152D02*
X51066541Y-55800342D01*
X51066541Y-55800342D02*
X51066541Y-56028914D01*
X51066541Y-56028914D02*
X51028446Y-56105104D01*
X51028446Y-56105104D02*
X50990351Y-56143200D01*
X50990351Y-56143200D02*
X50914160Y-56181295D01*
X50914160Y-56181295D02*
X50799874Y-56181295D01*
X51942732Y-55381295D02*
X52476066Y-56181295D01*
X52476066Y-55381295D02*
X51942732Y-56181295D01*
X52780828Y-56181295D02*
X52780828Y-55381295D01*
X53123684Y-55952723D02*
X53504637Y-55952723D01*
X53047494Y-56181295D02*
X53314161Y-55381295D01*
X53314161Y-55381295D02*
X53580827Y-56181295D01*
X53999875Y-55381295D02*
X54152256Y-55381295D01*
X54152256Y-55381295D02*
X54228446Y-55419390D01*
X54228446Y-55419390D02*
X54304637Y-55495580D01*
X54304637Y-55495580D02*
X54342732Y-55647961D01*
X54342732Y-55647961D02*
X54342732Y-55914628D01*
X54342732Y-55914628D02*
X54304637Y-56067009D01*
X54304637Y-56067009D02*
X54228446Y-56143200D01*
X54228446Y-56143200D02*
X54152256Y-56181295D01*
X54152256Y-56181295D02*
X53999875Y-56181295D01*
X53999875Y-56181295D02*
X53923684Y-56143200D01*
X53923684Y-56143200D02*
X53847494Y-56067009D01*
X53847494Y-56067009D02*
X53809398Y-55914628D01*
X53809398Y-55914628D02*
X53809398Y-55647961D01*
X53809398Y-55647961D02*
X53847494Y-55495580D01*
X53847494Y-55495580D02*
X53923684Y-55419390D01*
X53923684Y-55419390D02*
X53999875Y-55381295D01*
X45314160Y-57050247D02*
X45580826Y-57050247D01*
X45695112Y-57469295D02*
X45314160Y-57469295D01*
X45314160Y-57469295D02*
X45314160Y-56669295D01*
X45314160Y-56669295D02*
X45695112Y-56669295D01*
X45999874Y-57431200D02*
X46114160Y-57469295D01*
X46114160Y-57469295D02*
X46304636Y-57469295D01*
X46304636Y-57469295D02*
X46380827Y-57431200D01*
X46380827Y-57431200D02*
X46418922Y-57393104D01*
X46418922Y-57393104D02*
X46457017Y-57316914D01*
X46457017Y-57316914D02*
X46457017Y-57240723D01*
X46457017Y-57240723D02*
X46418922Y-57164533D01*
X46418922Y-57164533D02*
X46380827Y-57126438D01*
X46380827Y-57126438D02*
X46304636Y-57088342D01*
X46304636Y-57088342D02*
X46152255Y-57050247D01*
X46152255Y-57050247D02*
X46076065Y-57012152D01*
X46076065Y-57012152D02*
X46037970Y-56974057D01*
X46037970Y-56974057D02*
X45999874Y-56897866D01*
X45999874Y-56897866D02*
X45999874Y-56821676D01*
X45999874Y-56821676D02*
X46037970Y-56745485D01*
X46037970Y-56745485D02*
X46076065Y-56707390D01*
X46076065Y-56707390D02*
X46152255Y-56669295D01*
X46152255Y-56669295D02*
X46342732Y-56669295D01*
X46342732Y-56669295D02*
X46457017Y-56707390D01*
X46799875Y-57469295D02*
X46799875Y-56669295D01*
X46799875Y-56669295D02*
X47104637Y-56669295D01*
X47104637Y-56669295D02*
X47180827Y-56707390D01*
X47180827Y-56707390D02*
X47218922Y-56745485D01*
X47218922Y-56745485D02*
X47257018Y-56821676D01*
X47257018Y-56821676D02*
X47257018Y-56935961D01*
X47257018Y-56935961D02*
X47218922Y-57012152D01*
X47218922Y-57012152D02*
X47180827Y-57050247D01*
X47180827Y-57050247D02*
X47104637Y-57088342D01*
X47104637Y-57088342D02*
X46799875Y-57088342D01*
X47523684Y-56669295D02*
X48018922Y-56669295D01*
X48018922Y-56669295D02*
X47752256Y-56974057D01*
X47752256Y-56974057D02*
X47866541Y-56974057D01*
X47866541Y-56974057D02*
X47942732Y-57012152D01*
X47942732Y-57012152D02*
X47980827Y-57050247D01*
X47980827Y-57050247D02*
X48018922Y-57126438D01*
X48018922Y-57126438D02*
X48018922Y-57316914D01*
X48018922Y-57316914D02*
X47980827Y-57393104D01*
X47980827Y-57393104D02*
X47942732Y-57431200D01*
X47942732Y-57431200D02*
X47866541Y-57469295D01*
X47866541Y-57469295D02*
X47637970Y-57469295D01*
X47637970Y-57469295D02*
X47561779Y-57431200D01*
X47561779Y-57431200D02*
X47523684Y-57393104D01*
X48323684Y-56745485D02*
X48361780Y-56707390D01*
X48361780Y-56707390D02*
X48437970Y-56669295D01*
X48437970Y-56669295D02*
X48628446Y-56669295D01*
X48628446Y-56669295D02*
X48704637Y-56707390D01*
X48704637Y-56707390D02*
X48742732Y-56745485D01*
X48742732Y-56745485D02*
X48780827Y-56821676D01*
X48780827Y-56821676D02*
X48780827Y-56897866D01*
X48780827Y-56897866D02*
X48742732Y-57012152D01*
X48742732Y-57012152D02*
X48285589Y-57469295D01*
X48285589Y-57469295D02*
X48780827Y-57469295D01*
X49123685Y-57164533D02*
X49733209Y-57164533D01*
X50076065Y-57431200D02*
X50190351Y-57469295D01*
X50190351Y-57469295D02*
X50380827Y-57469295D01*
X50380827Y-57469295D02*
X50457018Y-57431200D01*
X50457018Y-57431200D02*
X50495113Y-57393104D01*
X50495113Y-57393104D02*
X50533208Y-57316914D01*
X50533208Y-57316914D02*
X50533208Y-57240723D01*
X50533208Y-57240723D02*
X50495113Y-57164533D01*
X50495113Y-57164533D02*
X50457018Y-57126438D01*
X50457018Y-57126438D02*
X50380827Y-57088342D01*
X50380827Y-57088342D02*
X50228446Y-57050247D01*
X50228446Y-57050247D02*
X50152256Y-57012152D01*
X50152256Y-57012152D02*
X50114161Y-56974057D01*
X50114161Y-56974057D02*
X50076065Y-56897866D01*
X50076065Y-56897866D02*
X50076065Y-56821676D01*
X50076065Y-56821676D02*
X50114161Y-56745485D01*
X50114161Y-56745485D02*
X50152256Y-56707390D01*
X50152256Y-56707390D02*
X50228446Y-56669295D01*
X50228446Y-56669295D02*
X50418923Y-56669295D01*
X50418923Y-56669295D02*
X50533208Y-56707390D01*
X50799875Y-56669295D02*
X51295113Y-56669295D01*
X51295113Y-56669295D02*
X51028447Y-56974057D01*
X51028447Y-56974057D02*
X51142732Y-56974057D01*
X51142732Y-56974057D02*
X51218923Y-57012152D01*
X51218923Y-57012152D02*
X51257018Y-57050247D01*
X51257018Y-57050247D02*
X51295113Y-57126438D01*
X51295113Y-57126438D02*
X51295113Y-57316914D01*
X51295113Y-57316914D02*
X51257018Y-57393104D01*
X51257018Y-57393104D02*
X51218923Y-57431200D01*
X51218923Y-57431200D02*
X51142732Y-57469295D01*
X51142732Y-57469295D02*
X50914161Y-57469295D01*
X50914161Y-57469295D02*
X50837970Y-57431200D01*
X50837970Y-57431200D02*
X50799875Y-57393104D01*
X52209399Y-57431200D02*
X52323685Y-57469295D01*
X52323685Y-57469295D02*
X52514161Y-57469295D01*
X52514161Y-57469295D02*
X52590352Y-57431200D01*
X52590352Y-57431200D02*
X52628447Y-57393104D01*
X52628447Y-57393104D02*
X52666542Y-57316914D01*
X52666542Y-57316914D02*
X52666542Y-57240723D01*
X52666542Y-57240723D02*
X52628447Y-57164533D01*
X52628447Y-57164533D02*
X52590352Y-57126438D01*
X52590352Y-57126438D02*
X52514161Y-57088342D01*
X52514161Y-57088342D02*
X52361780Y-57050247D01*
X52361780Y-57050247D02*
X52285590Y-57012152D01*
X52285590Y-57012152D02*
X52247495Y-56974057D01*
X52247495Y-56974057D02*
X52209399Y-56897866D01*
X52209399Y-56897866D02*
X52209399Y-56821676D01*
X52209399Y-56821676D02*
X52247495Y-56745485D01*
X52247495Y-56745485D02*
X52285590Y-56707390D01*
X52285590Y-56707390D02*
X52361780Y-56669295D01*
X52361780Y-56669295D02*
X52552257Y-56669295D01*
X52552257Y-56669295D02*
X52666542Y-56707390D01*
X53314162Y-57431200D02*
X53237971Y-57469295D01*
X53237971Y-57469295D02*
X53085590Y-57469295D01*
X53085590Y-57469295D02*
X53009400Y-57431200D01*
X53009400Y-57431200D02*
X52971304Y-57355009D01*
X52971304Y-57355009D02*
X52971304Y-57050247D01*
X52971304Y-57050247D02*
X53009400Y-56974057D01*
X53009400Y-56974057D02*
X53085590Y-56935961D01*
X53085590Y-56935961D02*
X53237971Y-56935961D01*
X53237971Y-56935961D02*
X53314162Y-56974057D01*
X53314162Y-56974057D02*
X53352257Y-57050247D01*
X53352257Y-57050247D02*
X53352257Y-57126438D01*
X53352257Y-57126438D02*
X52971304Y-57202628D01*
X53695114Y-56935961D02*
X53695114Y-57469295D01*
X53695114Y-57012152D02*
X53733209Y-56974057D01*
X53733209Y-56974057D02*
X53809399Y-56935961D01*
X53809399Y-56935961D02*
X53923685Y-56935961D01*
X53923685Y-56935961D02*
X53999876Y-56974057D01*
X53999876Y-56974057D02*
X54037971Y-57050247D01*
X54037971Y-57050247D02*
X54037971Y-57469295D01*
X54380828Y-57431200D02*
X54457019Y-57469295D01*
X54457019Y-57469295D02*
X54609400Y-57469295D01*
X54609400Y-57469295D02*
X54685590Y-57431200D01*
X54685590Y-57431200D02*
X54723686Y-57355009D01*
X54723686Y-57355009D02*
X54723686Y-57316914D01*
X54723686Y-57316914D02*
X54685590Y-57240723D01*
X54685590Y-57240723D02*
X54609400Y-57202628D01*
X54609400Y-57202628D02*
X54495114Y-57202628D01*
X54495114Y-57202628D02*
X54418924Y-57164533D01*
X54418924Y-57164533D02*
X54380828Y-57088342D01*
X54380828Y-57088342D02*
X54380828Y-57050247D01*
X54380828Y-57050247D02*
X54418924Y-56974057D01*
X54418924Y-56974057D02*
X54495114Y-56935961D01*
X54495114Y-56935961D02*
X54609400Y-56935961D01*
X54609400Y-56935961D02*
X54685590Y-56974057D01*
X55371305Y-57431200D02*
X55295114Y-57469295D01*
X55295114Y-57469295D02*
X55142733Y-57469295D01*
X55142733Y-57469295D02*
X55066543Y-57431200D01*
X55066543Y-57431200D02*
X55028447Y-57355009D01*
X55028447Y-57355009D02*
X55028447Y-57050247D01*
X55028447Y-57050247D02*
X55066543Y-56974057D01*
X55066543Y-56974057D02*
X55142733Y-56935961D01*
X55142733Y-56935961D02*
X55295114Y-56935961D01*
X55295114Y-56935961D02*
X55371305Y-56974057D01*
X55371305Y-56974057D02*
X55409400Y-57050247D01*
X55409400Y-57050247D02*
X55409400Y-57126438D01*
X55409400Y-57126438D02*
X55028447Y-57202628D01*
G36*
X62730345Y-48291580D02*
G01*
X62763639Y-48291773D01*
X62814069Y-48292161D01*
X62856150Y-48292596D01*
X62890627Y-48293104D01*
X62918244Y-48293712D01*
X62939745Y-48294447D01*
X62955873Y-48295337D01*
X62967374Y-48296409D01*
X62974991Y-48297688D01*
X62979469Y-48299203D01*
X62980194Y-48299628D01*
X62994819Y-48314215D01*
X63002546Y-48332490D01*
X63003195Y-48352134D01*
X62996589Y-48370825D01*
X62986615Y-48382956D01*
X62972624Y-48395456D01*
X62753213Y-48395456D01*
X62702116Y-48395427D01*
X62659344Y-48395323D01*
X62624127Y-48395121D01*
X62595698Y-48394798D01*
X62573288Y-48394328D01*
X62556129Y-48393690D01*
X62543452Y-48392858D01*
X62534490Y-48391809D01*
X62528474Y-48390520D01*
X62524635Y-48388967D01*
X62523672Y-48388362D01*
X62510823Y-48374646D01*
X62502270Y-48356322D01*
X62499955Y-48341485D01*
X62504028Y-48325954D01*
X62514751Y-48311111D01*
X62529882Y-48299540D01*
X62540070Y-48295264D01*
X62549592Y-48293907D01*
X62567923Y-48292849D01*
X62595114Y-48292088D01*
X62631214Y-48291623D01*
X62676274Y-48291454D01*
X62730345Y-48291580D01*
G37*
G36*
X63123859Y-48090538D02*
G01*
X63132900Y-48099777D01*
X63137296Y-48108882D01*
X63138652Y-48121822D01*
X63138706Y-48127274D01*
X63137971Y-48142225D01*
X63134696Y-48152101D01*
X63127277Y-48160872D01*
X63123859Y-48164011D01*
X63109012Y-48177274D01*
X62752273Y-48177274D01*
X62395535Y-48177274D01*
X62380688Y-48164011D01*
X62368788Y-48147867D01*
X62364370Y-48129029D01*
X62367433Y-48109966D01*
X62377977Y-48093151D01*
X62380688Y-48090538D01*
X62395535Y-48077274D01*
X62752273Y-48077274D01*
X63109012Y-48077274D01*
X63123859Y-48090538D01*
G37*
G36*
X62779371Y-47412592D02*
G01*
X62793841Y-47426367D01*
X62794244Y-47426957D01*
X62804555Y-47442255D01*
X62804555Y-47650674D01*
X62804555Y-47859092D01*
X63020958Y-47859092D01*
X63237360Y-47859092D01*
X63252817Y-47874547D01*
X63263322Y-47887128D01*
X63267753Y-47899141D01*
X63268275Y-47906800D01*
X63264572Y-47927316D01*
X63254497Y-47944699D01*
X63241382Y-47955296D01*
X63234787Y-47956381D01*
X63219838Y-47957389D01*
X63197275Y-47958321D01*
X63167838Y-47959174D01*
X63132266Y-47959947D01*
X63091297Y-47960638D01*
X63045671Y-47961247D01*
X62996128Y-47961772D01*
X62943406Y-47962211D01*
X62888244Y-47962564D01*
X62831383Y-47962828D01*
X62773561Y-47963003D01*
X62715516Y-47963087D01*
X62657990Y-47963079D01*
X62601720Y-47962977D01*
X62547446Y-47962780D01*
X62495907Y-47962487D01*
X62447842Y-47962096D01*
X62403991Y-47961606D01*
X62365092Y-47961016D01*
X62331886Y-47960324D01*
X62305111Y-47959528D01*
X62285506Y-47958629D01*
X62273810Y-47957623D01*
X62271167Y-47957083D01*
X62259994Y-47952818D01*
X62253298Y-47949782D01*
X62252611Y-47949284D01*
X62241388Y-47931248D01*
X62236647Y-47914563D01*
X62236272Y-47907626D01*
X62237964Y-47894134D01*
X62244318Y-47882696D01*
X62251729Y-47874547D01*
X62267186Y-47859092D01*
X62483589Y-47859092D01*
X62699991Y-47859092D01*
X62699991Y-47650674D01*
X62699991Y-47442255D01*
X62710373Y-47426810D01*
X62724637Y-47412849D01*
X62742443Y-47405828D01*
X62761463Y-47405744D01*
X62779371Y-47412592D01*
G37*
G36*
X61087354Y-53658302D02*
G01*
X61098636Y-53659968D01*
X61115578Y-53662682D01*
X61133308Y-53665437D01*
X61146895Y-53667477D01*
X61166707Y-53671477D01*
X61185303Y-53677932D01*
X61205212Y-53687821D01*
X61216678Y-53694497D01*
X61229575Y-53701565D01*
X61246106Y-53709636D01*
X61263245Y-53717253D01*
X61267824Y-53719139D01*
X61282838Y-53725528D01*
X61296452Y-53731916D01*
X61306502Y-53737265D01*
X61309151Y-53738960D01*
X61315092Y-53744627D01*
X61324340Y-53755223D01*
X61336202Y-53769807D01*
X61349983Y-53787436D01*
X61364992Y-53807169D01*
X61380534Y-53828063D01*
X61395915Y-53849177D01*
X61410443Y-53869568D01*
X61423423Y-53888294D01*
X61434162Y-53904414D01*
X61441968Y-53916985D01*
X61446128Y-53925022D01*
X61448761Y-53931754D01*
X61453479Y-53943790D01*
X61459769Y-53959819D01*
X61467116Y-53978533D01*
X61473617Y-53995082D01*
X61481501Y-54015669D01*
X61488656Y-54035323D01*
X61494563Y-54052545D01*
X61498704Y-54065838D01*
X61500363Y-54072444D01*
X61502963Y-54084094D01*
X61505741Y-54093514D01*
X61506988Y-54096524D01*
X61509085Y-54103191D01*
X61511266Y-54114299D01*
X61512758Y-54125007D01*
X61515519Y-54139354D01*
X61520622Y-54157368D01*
X61527273Y-54176342D01*
X61529464Y-54181847D01*
X61543937Y-54219519D01*
X61555811Y-54256205D01*
X61565715Y-54294192D01*
X61574278Y-54335767D01*
X61578513Y-54360197D01*
X61582418Y-54383852D01*
X61586319Y-54407239D01*
X61589925Y-54428638D01*
X61592948Y-54446331D01*
X61594970Y-54457890D01*
X61597807Y-54475275D01*
X61600769Y-54495881D01*
X61603308Y-54515854D01*
X61603786Y-54520057D01*
X61609152Y-54567098D01*
X61614201Y-54607820D01*
X61619089Y-54642996D01*
X61623974Y-54673397D01*
X61629014Y-54699793D01*
X61634366Y-54722957D01*
X61640187Y-54743659D01*
X61646635Y-54762671D01*
X61653867Y-54780763D01*
X61659621Y-54793596D01*
X61667393Y-54810677D01*
X61675032Y-54828191D01*
X61681354Y-54843395D01*
X61683616Y-54849183D01*
X61699324Y-54886616D01*
X61715658Y-54917430D01*
X61730375Y-54938780D01*
X61739887Y-54949941D01*
X61751989Y-54963036D01*
X61765503Y-54976912D01*
X61779248Y-54990415D01*
X61792043Y-55002391D01*
X61802709Y-55011688D01*
X61810064Y-55017152D01*
X61811203Y-55017764D01*
X61825168Y-55025239D01*
X61840891Y-55035794D01*
X61859684Y-55050339D01*
X61867058Y-55056397D01*
X61891436Y-55075978D01*
X61915787Y-55094286D01*
X61938961Y-55110529D01*
X61959806Y-55123916D01*
X61977170Y-55133656D01*
X61984172Y-55136905D01*
X62005163Y-55145840D01*
X62021067Y-55153127D01*
X62033445Y-55159620D01*
X62043860Y-55166173D01*
X62053872Y-55173642D01*
X62059171Y-55177949D01*
X62069383Y-55186162D01*
X62077496Y-55192233D01*
X62081979Y-55195024D01*
X62082262Y-55195091D01*
X62086154Y-55197282D01*
X62093339Y-55202797D01*
X62098174Y-55206886D01*
X62108352Y-55215688D01*
X62120841Y-55226375D01*
X62130146Y-55234271D01*
X62140114Y-55243318D01*
X62153019Y-55255923D01*
X62167093Y-55270319D01*
X62178881Y-55282897D01*
X62191819Y-55297021D01*
X62201205Y-55307329D01*
X62208274Y-55315261D01*
X62214257Y-55322256D01*
X62220387Y-55329753D01*
X62227895Y-55339191D01*
X62237477Y-55351330D01*
X62246829Y-55362951D01*
X62254657Y-55372263D01*
X62259858Y-55377975D01*
X62261214Y-55379120D01*
X62264256Y-55382576D01*
X62269563Y-55390485D01*
X62275573Y-55400435D01*
X62282190Y-55411819D01*
X62287780Y-55421327D01*
X62290784Y-55426326D01*
X62307288Y-55455576D01*
X62321314Y-55486468D01*
X62333015Y-55519737D01*
X62342549Y-55556116D01*
X62350072Y-55596341D01*
X62355740Y-55641144D01*
X62359709Y-55691261D01*
X62362135Y-55747424D01*
X62362541Y-55763491D01*
X62363137Y-55792381D01*
X62363476Y-55815352D01*
X62363504Y-55833588D01*
X62363169Y-55848272D01*
X62362419Y-55860587D01*
X62361200Y-55871716D01*
X62359461Y-55882844D01*
X62357149Y-55895152D01*
X62356549Y-55898182D01*
X62349110Y-55930051D01*
X62340685Y-55955507D01*
X62331027Y-55975205D01*
X62323631Y-55985643D01*
X62316133Y-55995457D01*
X62308048Y-56007176D01*
X62305860Y-56010588D01*
X62297265Y-56022443D01*
X62286925Y-56034280D01*
X62283953Y-56037231D01*
X62272833Y-56046107D01*
X62257128Y-56056491D01*
X62238596Y-56067436D01*
X62218990Y-56077992D01*
X62200065Y-56087212D01*
X62183576Y-56094147D01*
X62172097Y-56097688D01*
X62157586Y-56101040D01*
X62143076Y-56104883D01*
X62137016Y-56106697D01*
X62125225Y-56109773D01*
X62114523Y-56111478D01*
X62112149Y-56111596D01*
X62103253Y-56112544D01*
X62090933Y-56114928D01*
X62082965Y-56116883D01*
X62072840Y-56118589D01*
X62057202Y-56119992D01*
X62037429Y-56121079D01*
X62014902Y-56121837D01*
X61990998Y-56122255D01*
X61967098Y-56122319D01*
X61944580Y-56122016D01*
X61924823Y-56121336D01*
X61909207Y-56120265D01*
X61899111Y-56118790D01*
X61898215Y-56118550D01*
X61885833Y-56115427D01*
X61868527Y-56111751D01*
X61848418Y-56107909D01*
X61827625Y-56104285D01*
X61808267Y-56101266D01*
X61792463Y-56099238D01*
X61791665Y-56099155D01*
X61744690Y-56091705D01*
X61702087Y-56079274D01*
X61688012Y-56073693D01*
X61669212Y-56065704D01*
X61655857Y-56060143D01*
X61646849Y-56056677D01*
X61641086Y-56054972D01*
X61637468Y-56054695D01*
X61634896Y-56055510D01*
X61632602Y-56056881D01*
X61627710Y-56061145D01*
X61619634Y-56069463D01*
X61609719Y-56080417D01*
X61604013Y-56087002D01*
X61590882Y-56102451D01*
X61575415Y-56120749D01*
X61558194Y-56141195D01*
X61539808Y-56163087D01*
X61520840Y-56185723D01*
X61501876Y-56208403D01*
X61483502Y-56230423D01*
X61466303Y-56251083D01*
X61450866Y-56269682D01*
X61437775Y-56285517D01*
X61427615Y-56297887D01*
X61420974Y-56306090D01*
X61418577Y-56309195D01*
X61412952Y-56316525D01*
X61404879Y-56326087D01*
X61400799Y-56330662D01*
X61392448Y-56340175D01*
X61385383Y-56348806D01*
X61383117Y-56351845D01*
X61378692Y-56357610D01*
X61370844Y-56367304D01*
X61360772Y-56379461D01*
X61352049Y-56389822D01*
X61341663Y-56402599D01*
X61333282Y-56413919D01*
X61327860Y-56422423D01*
X61326294Y-56426395D01*
X61327539Y-56431883D01*
X61330945Y-56442531D01*
X61336025Y-56456907D01*
X61342286Y-56473581D01*
X61343701Y-56477229D01*
X61351085Y-56496518D01*
X61358326Y-56516049D01*
X61364593Y-56533543D01*
X61369053Y-56546721D01*
X61369055Y-56546729D01*
X61376720Y-56570258D01*
X61383762Y-56590644D01*
X61390871Y-56609615D01*
X61398738Y-56628897D01*
X61408054Y-56650218D01*
X61419509Y-56675305D01*
X61426246Y-56689783D01*
X61432279Y-56702855D01*
X61436962Y-56713303D01*
X61439616Y-56719605D01*
X61439972Y-56720719D01*
X61441404Y-56724359D01*
X61445292Y-56733063D01*
X61451027Y-56745490D01*
X61457304Y-56758840D01*
X61478581Y-56804167D01*
X61497914Y-56846261D01*
X61515019Y-56884476D01*
X61529610Y-56918167D01*
X61541400Y-56946689D01*
X61548175Y-56964141D01*
X61552291Y-56974521D01*
X61557844Y-56987746D01*
X61561493Y-56996113D01*
X61570439Y-57016663D01*
X61576755Y-57032243D01*
X61580963Y-57044252D01*
X61583587Y-57054088D01*
X61584083Y-57056505D01*
X61586136Y-57064808D01*
X61589903Y-57077970D01*
X61594830Y-57094115D01*
X61599846Y-57109792D01*
X61611028Y-57145128D01*
X61619497Y-57175002D01*
X61625356Y-57200472D01*
X61628709Y-57222599D01*
X61629657Y-57242441D01*
X61628305Y-57261060D01*
X61624756Y-57279515D01*
X61619113Y-57298865D01*
X61618444Y-57300870D01*
X61602656Y-57340365D01*
X61580970Y-57382838D01*
X61553680Y-57427778D01*
X61521076Y-57474678D01*
X61511021Y-57488109D01*
X61490755Y-57512491D01*
X61471406Y-57530630D01*
X61451975Y-57543124D01*
X61431463Y-57550571D01*
X61408871Y-57553570D01*
X61401467Y-57553692D01*
X61386965Y-57552887D01*
X61373407Y-57550956D01*
X61365371Y-57548853D01*
X61350520Y-57543013D01*
X61340194Y-57538035D01*
X61332173Y-57532557D01*
X61324233Y-57525217D01*
X61320449Y-57521314D01*
X61303163Y-57499174D01*
X61292175Y-57475060D01*
X61287822Y-57456269D01*
X61286135Y-57437138D01*
X61287720Y-57419280D01*
X61293038Y-57401385D01*
X61302550Y-57382143D01*
X61316717Y-57360243D01*
X61326267Y-57347117D01*
X61342519Y-57325312D01*
X61354879Y-57308499D01*
X61363793Y-57296049D01*
X61369712Y-57287331D01*
X61373082Y-57281715D01*
X61373767Y-57280309D01*
X61376833Y-57274197D01*
X61381966Y-57264683D01*
X61384955Y-57259324D01*
X61390146Y-57248722D01*
X61393324Y-57239529D01*
X61393791Y-57236363D01*
X61392618Y-57228709D01*
X61389338Y-57215489D01*
X61384310Y-57197800D01*
X61377890Y-57176740D01*
X61370436Y-57153406D01*
X61362305Y-57128897D01*
X61353857Y-57104310D01*
X61345447Y-57080742D01*
X61337434Y-57059291D01*
X61330175Y-57041054D01*
X61330050Y-57040752D01*
X61321711Y-57021161D01*
X61310762Y-56996107D01*
X61297637Y-56966550D01*
X61282769Y-56933447D01*
X61266589Y-56897757D01*
X61249531Y-56860439D01*
X61232027Y-56822451D01*
X61214509Y-56784750D01*
X61213677Y-56782967D01*
X61190584Y-56731436D01*
X61170938Y-56682895D01*
X61153719Y-56634808D01*
X61151749Y-56628893D01*
X61144371Y-56607085D01*
X61136371Y-56584299D01*
X61128604Y-56562923D01*
X61121925Y-56545342D01*
X61120542Y-56541858D01*
X61111590Y-56518864D01*
X61103193Y-56495954D01*
X61095904Y-56474738D01*
X61090275Y-56456824D01*
X61086860Y-56443824D01*
X61086835Y-56443708D01*
X61086353Y-56436101D01*
X61086694Y-56423237D01*
X61087772Y-56406904D01*
X61089498Y-56388891D01*
X61089525Y-56388645D01*
X61092862Y-56363494D01*
X61097093Y-56343609D01*
X61103013Y-56327149D01*
X61111417Y-56312276D01*
X61123101Y-56297150D01*
X61134591Y-56284432D01*
X61146455Y-56271458D01*
X61160940Y-56255087D01*
X61176191Y-56237441D01*
X61190007Y-56221058D01*
X61200918Y-56207916D01*
X61214402Y-56191675D01*
X61229689Y-56173259D01*
X61246010Y-56153597D01*
X61262596Y-56133615D01*
X61278677Y-56114241D01*
X61293484Y-56096401D01*
X61306246Y-56081022D01*
X61316196Y-56069032D01*
X61322563Y-56061358D01*
X61323478Y-56060254D01*
X61343293Y-56036365D01*
X61359098Y-56017336D01*
X61371410Y-56002550D01*
X61380745Y-55991391D01*
X61387619Y-55983242D01*
X61392548Y-55977486D01*
X61396048Y-55973506D01*
X61396455Y-55973054D01*
X61402583Y-55965582D01*
X61403982Y-55960922D01*
X61401085Y-55957008D01*
X61400007Y-55956116D01*
X61392981Y-55951956D01*
X61380499Y-55946025D01*
X61363830Y-55938846D01*
X61344243Y-55930940D01*
X61323006Y-55922830D01*
X61301388Y-55915038D01*
X61293979Y-55912486D01*
X61249192Y-55895859D01*
X61209797Y-55878085D01*
X61174086Y-55858348D01*
X61154334Y-55845641D01*
X61139633Y-55835767D01*
X61128365Y-55828525D01*
X61118129Y-55822487D01*
X61106525Y-55816228D01*
X61093933Y-55809738D01*
X61080604Y-55803266D01*
X61069141Y-55798311D01*
X61061377Y-55795641D01*
X61059731Y-55795386D01*
X61050800Y-55793660D01*
X61037695Y-55789055D01*
X61022284Y-55782430D01*
X61006434Y-55774643D01*
X60992014Y-55766555D01*
X60981195Y-55759262D01*
X60973004Y-55753261D01*
X60967193Y-55749663D01*
X60965902Y-55749204D01*
X60962069Y-55747397D01*
X60953763Y-55742553D01*
X60942449Y-55735544D01*
X60936217Y-55731562D01*
X60908302Y-55713177D01*
X60882421Y-55695262D01*
X60857775Y-55677135D01*
X60833566Y-55658119D01*
X60808995Y-55637534D01*
X60783264Y-55614702D01*
X60755573Y-55588943D01*
X60725124Y-55559578D01*
X60691118Y-55525927D01*
X60673205Y-55507961D01*
X60653381Y-55487606D01*
X60634265Y-55467230D01*
X60616487Y-55447571D01*
X60600676Y-55429368D01*
X60587460Y-55413360D01*
X60577471Y-55400286D01*
X60571336Y-55390884D01*
X60569623Y-55386360D01*
X60567934Y-55382366D01*
X60563431Y-55373857D01*
X60556960Y-55362410D01*
X60554294Y-55357840D01*
X60538630Y-55329791D01*
X60522838Y-55298921D01*
X60507676Y-55266910D01*
X60493902Y-55235436D01*
X60482274Y-55206178D01*
X60473549Y-55180814D01*
X60471969Y-55175484D01*
X60468205Y-55163093D01*
X60464672Y-55152807D01*
X60462616Y-55147874D01*
X60454842Y-55130254D01*
X60447887Y-55108523D01*
X60441498Y-55081742D01*
X60435423Y-55048968D01*
X60434329Y-55042267D01*
X60431703Y-55026864D01*
X60428816Y-55011352D01*
X60426986Y-55002363D01*
X60425301Y-54992473D01*
X60423292Y-54977424D01*
X60421191Y-54959140D01*
X60419234Y-54939544D01*
X60418950Y-54936417D01*
X60417169Y-54918234D01*
X60415336Y-54902458D01*
X60413636Y-54890512D01*
X60412258Y-54883819D01*
X60411949Y-54883070D01*
X60409195Y-54880161D01*
X60405020Y-54879427D01*
X60398345Y-54881205D01*
X60388091Y-54885830D01*
X60373181Y-54893637D01*
X60366778Y-54897121D01*
X60343322Y-54909879D01*
X60324967Y-54919595D01*
X60310621Y-54926709D01*
X60299191Y-54931662D01*
X60289586Y-54934894D01*
X60280712Y-54936843D01*
X60271477Y-54937951D01*
X60264112Y-54938467D01*
X60254118Y-54938907D01*
X60245344Y-54938714D01*
X60236424Y-54937593D01*
X60225991Y-54935249D01*
X60212679Y-54931387D01*
X60195122Y-54925711D01*
X60177079Y-54919659D01*
X60155383Y-54912149D01*
X60134021Y-54904428D01*
X60114738Y-54897149D01*
X60099278Y-54890966D01*
X60091820Y-54887713D01*
X60075988Y-54880349D01*
X60057479Y-54871727D01*
X60040055Y-54863600D01*
X60038532Y-54862889D01*
X60023602Y-54856144D01*
X60009245Y-54850042D01*
X59998029Y-54845665D01*
X59995902Y-54844929D01*
X59984235Y-54840865D01*
X59970053Y-54835638D01*
X59962154Y-54832610D01*
X59947922Y-54827330D01*
X59933334Y-54822343D01*
X59926630Y-54820244D01*
X59914225Y-54816431D01*
X59902737Y-54812678D01*
X59899986Y-54811724D01*
X59885394Y-54806733D01*
X59868068Y-54801092D01*
X59850179Y-54795479D01*
X59833898Y-54790571D01*
X59821399Y-54787045D01*
X59818280Y-54786253D01*
X59805323Y-54782581D01*
X59792709Y-54778192D01*
X59791637Y-54777762D01*
X59782908Y-54774270D01*
X59769713Y-54769071D01*
X59754215Y-54763016D01*
X59745455Y-54759614D01*
X59730138Y-54753575D01*
X59723582Y-54750899D01*
X60640672Y-54750899D01*
X60640733Y-54789122D01*
X60641146Y-54809864D01*
X60642197Y-54832659D01*
X60643692Y-54853718D01*
X60644401Y-54861092D01*
X60646496Y-54881083D01*
X60648826Y-54903918D01*
X60650960Y-54925367D01*
X60651404Y-54929931D01*
X60658295Y-54981521D01*
X60668510Y-55029355D01*
X60681755Y-55072076D01*
X60682801Y-55074874D01*
X60688793Y-55091220D01*
X60694014Y-55106400D01*
X60697793Y-55118410D01*
X60699245Y-55123974D01*
X60702348Y-55134066D01*
X60707633Y-55146953D01*
X60711973Y-55155946D01*
X60717732Y-55167307D01*
X60725411Y-55182850D01*
X60733908Y-55200326D01*
X60740418Y-55213906D01*
X60749808Y-55232654D01*
X60759777Y-55250306D01*
X60770884Y-55267526D01*
X60783691Y-55284977D01*
X60798759Y-55303321D01*
X60816649Y-55323223D01*
X60837922Y-55345344D01*
X60863140Y-55370347D01*
X60892863Y-55398897D01*
X60913283Y-55418184D01*
X60943017Y-55445649D01*
X60969492Y-55468919D01*
X60994162Y-55489120D01*
X61018481Y-55507373D01*
X61043900Y-55524804D01*
X61071874Y-55542535D01*
X61082261Y-55548853D01*
X61094120Y-55556048D01*
X61105307Y-55562905D01*
X61109934Y-55565774D01*
X61120558Y-55570935D01*
X61133171Y-55575169D01*
X61135491Y-55575733D01*
X61148170Y-55579743D01*
X61165404Y-55586869D01*
X61185768Y-55596387D01*
X61207837Y-55607572D01*
X61230189Y-55619702D01*
X61251399Y-55632053D01*
X61270042Y-55643902D01*
X61271231Y-55644705D01*
X61286957Y-55655071D01*
X61301482Y-55663805D01*
X61316193Y-55671545D01*
X61332475Y-55678931D01*
X61351715Y-55686602D01*
X61375299Y-55695199D01*
X61397343Y-55702868D01*
X61414149Y-55708754D01*
X61428601Y-55714028D01*
X61439323Y-55718171D01*
X61444937Y-55720665D01*
X61445301Y-55720900D01*
X61449968Y-55723379D01*
X61459595Y-55727766D01*
X61472547Y-55733329D01*
X61480825Y-55736761D01*
X61495867Y-55742992D01*
X61509439Y-55748748D01*
X61519489Y-55753153D01*
X61522531Y-55754564D01*
X61533723Y-55758988D01*
X61542917Y-55761621D01*
X61551101Y-55764266D01*
X61555596Y-55767240D01*
X61560490Y-55770082D01*
X61563860Y-55770519D01*
X61567521Y-55768087D01*
X61575722Y-55761097D01*
X61587972Y-55750013D01*
X61603782Y-55735295D01*
X61622661Y-55717406D01*
X61644122Y-55696808D01*
X61667672Y-55673962D01*
X61692824Y-55649330D01*
X61703084Y-55639218D01*
X61733153Y-55609575D01*
X61758675Y-55584535D01*
X61780118Y-55563670D01*
X61797949Y-55546553D01*
X61812638Y-55532755D01*
X61824654Y-55521848D01*
X61834463Y-55513404D01*
X61842536Y-55506995D01*
X61849340Y-55502193D01*
X61855344Y-55498569D01*
X61859161Y-55496583D01*
X61885337Y-55487452D01*
X61911984Y-55485154D01*
X61938279Y-55489536D01*
X61963402Y-55500445D01*
X61986529Y-55517727D01*
X61989864Y-55520949D01*
X62005182Y-55539793D01*
X62015257Y-55561092D01*
X62020719Y-55586356D01*
X62021703Y-55597106D01*
X62022225Y-55607641D01*
X62022118Y-55617231D01*
X62021028Y-55626340D01*
X62018603Y-55635427D01*
X62014488Y-55644956D01*
X62008329Y-55655388D01*
X61999774Y-55667185D01*
X61988469Y-55680809D01*
X61974059Y-55696721D01*
X61956191Y-55715383D01*
X61934513Y-55737258D01*
X61908669Y-55762806D01*
X61878307Y-55792491D01*
X61853943Y-55816204D01*
X61835923Y-55834061D01*
X61823103Y-55847551D01*
X61815273Y-55856914D01*
X61812225Y-55862391D01*
X61812487Y-55863811D01*
X61817833Y-55866613D01*
X61828547Y-55869421D01*
X61845134Y-55872333D01*
X61868102Y-55875447D01*
X61879570Y-55876815D01*
X61893684Y-55878706D01*
X61905289Y-55880736D01*
X61912392Y-55882539D01*
X61913319Y-55882964D01*
X61921965Y-55885951D01*
X61936186Y-55888259D01*
X61954482Y-55889860D01*
X61975352Y-55890727D01*
X61997297Y-55890834D01*
X62018816Y-55890154D01*
X62038409Y-55888659D01*
X62054576Y-55886324D01*
X62058098Y-55885560D01*
X62072285Y-55882350D01*
X62085628Y-55879604D01*
X62093623Y-55878180D01*
X62104782Y-55874701D01*
X62116251Y-55868566D01*
X62118050Y-55867289D01*
X62130043Y-55858285D01*
X62128155Y-55758451D01*
X62127069Y-55715734D01*
X62125336Y-55679118D01*
X62122629Y-55647609D01*
X62118623Y-55620211D01*
X62112989Y-55595929D01*
X62105403Y-55573766D01*
X62095537Y-55552728D01*
X62083064Y-55531819D01*
X62067659Y-55510044D01*
X62048995Y-55486406D01*
X62032422Y-55466574D01*
X62019670Y-55451898D01*
X62006532Y-55437359D01*
X61994811Y-55424924D01*
X61988264Y-55418382D01*
X61977702Y-55408859D01*
X61964695Y-55397970D01*
X61950464Y-55386638D01*
X61936231Y-55375784D01*
X61923219Y-55366332D01*
X61912649Y-55359204D01*
X61905743Y-55355324D01*
X61904167Y-55354883D01*
X61895909Y-55352874D01*
X61883015Y-55347272D01*
X61866557Y-55338716D01*
X61847606Y-55327844D01*
X61827234Y-55315295D01*
X61806513Y-55301706D01*
X61786515Y-55287717D01*
X61768316Y-55273969D01*
X61754139Y-55262754D01*
X61740010Y-55251592D01*
X61728178Y-55242259D01*
X61724168Y-55239103D01*
X61714136Y-55231185D01*
X61705570Y-55224371D01*
X61701950Y-55221458D01*
X61695516Y-55216979D01*
X61685373Y-55210688D01*
X61676831Y-55205721D01*
X61664314Y-55197264D01*
X61648363Y-55184386D01*
X61630059Y-55168149D01*
X61610483Y-55149617D01*
X61590718Y-55129855D01*
X61571844Y-55109925D01*
X61554943Y-55090892D01*
X61541096Y-55073818D01*
X61536851Y-55068052D01*
X61524469Y-55050035D01*
X61513875Y-55033085D01*
X61504200Y-55015555D01*
X61494578Y-54995796D01*
X61484139Y-54972162D01*
X61475574Y-54951680D01*
X61468495Y-54934757D01*
X61461373Y-54918180D01*
X61455248Y-54904350D01*
X61452495Y-54898393D01*
X61446060Y-54884237D01*
X61439261Y-54868350D01*
X61436313Y-54861092D01*
X61431541Y-54849147D01*
X61427411Y-54839003D01*
X61425499Y-54834449D01*
X61418366Y-54816040D01*
X61411940Y-54794992D01*
X61405921Y-54770103D01*
X61400008Y-54740170D01*
X61395751Y-54715442D01*
X61393262Y-54701028D01*
X61390956Y-54688949D01*
X61389224Y-54681207D01*
X61388835Y-54679918D01*
X61387640Y-54674255D01*
X61386003Y-54663329D01*
X61384181Y-54648945D01*
X61383068Y-54639064D01*
X61379451Y-54605394D01*
X61376459Y-54577804D01*
X61373956Y-54555311D01*
X61371808Y-54536933D01*
X61369877Y-54521684D01*
X61368028Y-54508583D01*
X61366125Y-54496646D01*
X61364032Y-54484889D01*
X61361612Y-54472329D01*
X61358731Y-54457983D01*
X61356545Y-54447232D01*
X61353163Y-54429644D01*
X61349709Y-54410175D01*
X61347634Y-54397498D01*
X61343166Y-54369555D01*
X61339170Y-54347176D01*
X61335248Y-54328873D01*
X61331000Y-54313160D01*
X61326027Y-54298548D01*
X61319931Y-54283552D01*
X61312847Y-54267834D01*
X61304183Y-54248589D01*
X61298200Y-54233636D01*
X61294231Y-54221002D01*
X61291608Y-54208713D01*
X61290596Y-54202113D01*
X61287288Y-54181711D01*
X61282997Y-54160222D01*
X61278109Y-54139174D01*
X61273014Y-54120097D01*
X61268101Y-54104518D01*
X61263757Y-54093969D01*
X61262607Y-54091987D01*
X61260186Y-54086983D01*
X61256230Y-54077489D01*
X61252191Y-54067120D01*
X61244325Y-54047162D01*
X61236913Y-54030761D01*
X61228799Y-54015867D01*
X61218824Y-54000429D01*
X61205833Y-53982396D01*
X61199978Y-53974587D01*
X61186634Y-53957036D01*
X61176488Y-53944215D01*
X61168521Y-53935136D01*
X61161713Y-53928810D01*
X61155047Y-53924248D01*
X61147504Y-53920463D01*
X61141567Y-53917918D01*
X61130940Y-53913150D01*
X61122534Y-53908792D01*
X61120252Y-53907341D01*
X61109901Y-53901244D01*
X61097243Y-53895759D01*
X61085366Y-53892101D01*
X61079318Y-53891274D01*
X61068882Y-53892536D01*
X61053887Y-53895929D01*
X61036337Y-53900862D01*
X61018237Y-53906747D01*
X61001593Y-53912993D01*
X60993400Y-53916547D01*
X60981563Y-53921742D01*
X60971896Y-53925430D01*
X60966579Y-53926799D01*
X60960068Y-53929119D01*
X60957358Y-53931239D01*
X60952568Y-53933231D01*
X60942461Y-53934605D01*
X60926459Y-53935405D01*
X60903980Y-53935681D01*
X60902472Y-53935682D01*
X60882159Y-53935774D01*
X60867514Y-53936169D01*
X60857100Y-53937048D01*
X60849481Y-53938593D01*
X60843220Y-53940987D01*
X60837832Y-53943859D01*
X60824279Y-53951735D01*
X60814310Y-53957835D01*
X60805309Y-53963857D01*
X60794662Y-53971501D01*
X60789943Y-53974962D01*
X60776830Y-53984199D01*
X60763137Y-53993224D01*
X60754350Y-53998594D01*
X60743304Y-54006130D01*
X60733818Y-54014552D01*
X60730888Y-54017971D01*
X60719125Y-54036995D01*
X60707422Y-54061596D01*
X60696435Y-54090270D01*
X60688616Y-54115078D01*
X60680866Y-54142664D01*
X60675005Y-54165077D01*
X60670724Y-54183900D01*
X60667710Y-54200716D01*
X60665654Y-54217108D01*
X60664245Y-54234659D01*
X60663857Y-54241190D01*
X60662625Y-54259611D01*
X60661058Y-54277687D01*
X60659394Y-54292855D01*
X60658396Y-54299806D01*
X60657261Y-54309626D01*
X60656113Y-54325017D01*
X60655036Y-54344444D01*
X60654117Y-54366375D01*
X60653472Y-54387938D01*
X60652980Y-54412658D01*
X60652866Y-54431098D01*
X60653163Y-54444077D01*
X60653909Y-54452411D01*
X60655137Y-54456918D01*
X60656481Y-54458313D01*
X60660745Y-54456963D01*
X60669854Y-54452145D01*
X60682820Y-54444446D01*
X60698655Y-54434454D01*
X60716370Y-54422759D01*
X60717505Y-54421993D01*
X60738971Y-54407469D01*
X60755682Y-54396090D01*
X60768778Y-54387036D01*
X60779399Y-54379490D01*
X60788685Y-54372630D01*
X60797778Y-54365639D01*
X60807817Y-54357696D01*
X60814937Y-54351998D01*
X60835864Y-54336627D01*
X60854646Y-54326312D01*
X60873215Y-54320287D01*
X60893502Y-54317789D01*
X60901777Y-54317605D01*
X60918093Y-54318033D01*
X60930434Y-54319782D01*
X60941895Y-54323488D01*
X60951511Y-54327807D01*
X60975841Y-54342833D01*
X60994302Y-54361786D01*
X61006963Y-54384782D01*
X61013892Y-54411934D01*
X61015370Y-54434799D01*
X61014967Y-54451198D01*
X61013534Y-54463082D01*
X61010567Y-54473018D01*
X61005955Y-54482827D01*
X60996191Y-54497271D01*
X60981105Y-54514086D01*
X60961676Y-54532358D01*
X60938881Y-54551175D01*
X60913699Y-54569622D01*
X60911157Y-54571364D01*
X60877216Y-54594372D01*
X60843372Y-54617090D01*
X60807926Y-54640650D01*
X60769180Y-54666181D01*
X60743693Y-54682884D01*
X60722173Y-54696975D01*
X60701929Y-54710253D01*
X60683939Y-54722074D01*
X60669182Y-54731795D01*
X60658637Y-54738772D01*
X60653993Y-54741876D01*
X60640672Y-54750899D01*
X59723582Y-54750899D01*
X59716461Y-54747992D01*
X59706351Y-54743662D01*
X59702825Y-54742009D01*
X59696348Y-54738775D01*
X59685003Y-54733177D01*
X59670308Y-54725963D01*
X59653783Y-54717881D01*
X59651346Y-54716691D01*
X59626190Y-54703595D01*
X59606535Y-54691146D01*
X59591032Y-54678091D01*
X59578335Y-54663176D01*
X59567099Y-54645151D01*
X59560374Y-54632069D01*
X59547406Y-54608655D01*
X59533610Y-54590541D01*
X59527285Y-54584094D01*
X59499613Y-54557600D01*
X59476903Y-54535002D01*
X59458685Y-54515617D01*
X59444489Y-54498762D01*
X59433846Y-54483753D01*
X59426286Y-54469908D01*
X59421339Y-54456541D01*
X59418535Y-54442971D01*
X59417404Y-54428514D01*
X59417322Y-54424141D01*
X59417807Y-54407365D01*
X59420016Y-54394242D01*
X59424604Y-54381401D01*
X59426340Y-54377533D01*
X59441748Y-54351809D01*
X59461611Y-54331619D01*
X59481751Y-54318930D01*
X59493270Y-54313739D01*
X59503541Y-54310711D01*
X59515292Y-54309311D01*
X59531249Y-54309005D01*
X59532308Y-54309010D01*
X59555931Y-54310693D01*
X59576388Y-54315980D01*
X59594978Y-54325594D01*
X59613002Y-54340258D01*
X59631759Y-54360695D01*
X59637135Y-54367319D01*
X59642808Y-54373410D01*
X59652369Y-54382625D01*
X59664275Y-54393504D01*
X59672301Y-54400569D01*
X59698993Y-54425539D01*
X59721931Y-54451393D01*
X59740955Y-54476922D01*
X59749141Y-54488631D01*
X59757128Y-54499985D01*
X59760493Y-54504735D01*
X59768134Y-54511894D01*
X59781327Y-54520475D01*
X59798812Y-54529882D01*
X59819328Y-54539519D01*
X59841615Y-54548789D01*
X59864413Y-54557097D01*
X59884000Y-54563167D01*
X59896605Y-54566908D01*
X59915010Y-54572669D01*
X59938297Y-54580154D01*
X59965550Y-54589065D01*
X59995851Y-54599106D01*
X60017217Y-54606257D01*
X60039302Y-54613792D01*
X60059072Y-54620849D01*
X60077857Y-54627976D01*
X60096989Y-54635720D01*
X60117799Y-54644630D01*
X60141616Y-54655252D01*
X60169773Y-54668134D01*
X60187305Y-54676248D01*
X60202520Y-54682625D01*
X60218368Y-54688191D01*
X60230669Y-54691560D01*
X60238802Y-54693141D01*
X60245376Y-54693645D01*
X60251969Y-54692654D01*
X60260161Y-54689750D01*
X60271529Y-54684515D01*
X60287651Y-54676530D01*
X60287938Y-54676387D01*
X60319810Y-54660250D01*
X60347182Y-54645927D01*
X60369614Y-54633662D01*
X60386664Y-54623698D01*
X60397892Y-54616281D01*
X60401157Y-54613631D01*
X60405059Y-54609509D01*
X60407573Y-54604798D01*
X60409012Y-54597913D01*
X60409686Y-54587270D01*
X60409907Y-54571287D01*
X60409917Y-54569073D01*
X60410322Y-54551606D01*
X60411280Y-54534931D01*
X60412625Y-54521530D01*
X60413458Y-54516505D01*
X60414466Y-54508807D01*
X60415615Y-54495095D01*
X60416839Y-54476456D01*
X60418074Y-54453978D01*
X60419255Y-54428749D01*
X60420319Y-54401857D01*
X60420411Y-54399274D01*
X60421470Y-54372064D01*
X60422664Y-54346220D01*
X60423927Y-54322871D01*
X60425191Y-54303151D01*
X60426391Y-54288190D01*
X60427458Y-54279118D01*
X60427527Y-54278727D01*
X60429590Y-54263597D01*
X60430906Y-54246469D01*
X60431149Y-54237874D01*
X60431793Y-54221851D01*
X60433373Y-54203825D01*
X60434735Y-54193232D01*
X60437049Y-54177501D01*
X60439672Y-54158878D01*
X60441926Y-54142237D01*
X60445025Y-54124139D01*
X60449482Y-54104464D01*
X60453880Y-54088951D01*
X60458789Y-54073002D01*
X60464271Y-54053814D01*
X60469284Y-54035064D01*
X60470123Y-54031747D01*
X60474908Y-54014813D01*
X60480565Y-53998007D01*
X60486065Y-53984319D01*
X60487443Y-53981441D01*
X60498341Y-53959661D01*
X60508022Y-53939842D01*
X60515637Y-53923733D01*
X60518271Y-53917918D01*
X60522261Y-53908909D01*
X60527782Y-53896443D01*
X60532429Y-53885946D01*
X60540912Y-53868544D01*
X60551356Y-53849734D01*
X60562622Y-53831348D01*
X60573573Y-53815216D01*
X60583070Y-53803170D01*
X60585483Y-53800609D01*
X60605388Y-53781793D01*
X60625320Y-53764768D01*
X60643949Y-53750581D01*
X60659946Y-53740279D01*
X60666199Y-53737066D01*
X60677980Y-53732286D01*
X60689104Y-53729475D01*
X60702240Y-53728159D01*
X60717972Y-53727862D01*
X60729354Y-53727778D01*
X60738818Y-53727281D01*
X60747638Y-53726006D01*
X60757086Y-53723584D01*
X60768436Y-53719650D01*
X60782961Y-53713837D01*
X60801935Y-53705778D01*
X60816518Y-53699481D01*
X60824571Y-53696805D01*
X60837715Y-53693291D01*
X60854053Y-53689388D01*
X60871689Y-53685543D01*
X60888726Y-53682204D01*
X60892895Y-53681461D01*
X60918042Y-53677218D01*
X60938382Y-53674116D01*
X60956069Y-53671879D01*
X60973258Y-53670228D01*
X60988811Y-53669096D01*
X61007353Y-53667418D01*
X61026708Y-53664909D01*
X61043404Y-53662037D01*
X61047125Y-53661232D01*
X61061848Y-53658301D01*
X61074090Y-53657353D01*
X61087354Y-53658302D01*
G37*
D11*
X41102500Y-37171500D02*
X41102500Y-57650000D01*
X41102500Y-57650000D02*
X58902500Y-57650000D01*
X41774041Y-36500000D02*
X41102500Y-37171500D01*
X45498500Y-42428000D02*
X45498500Y-35075000D01*
X45502500Y-35076000D02*
X54497500Y-35076000D01*
X54497500Y-35076000D02*
X54497500Y-42428000D01*
X54497500Y-42428000D02*
X45498500Y-42428000D01*
X58902500Y-36500000D02*
X41774041Y-36500000D01*
X58902500Y-57650000D02*
X58902500Y-36500000D01*
%LPC*%
D12*
X38650000Y-50320000D03*
X38650000Y-47780000D03*
X38650000Y-45240000D03*
D13*
X38650000Y-42700000D03*
D14*
X41937500Y-39380000D03*
X41937500Y-41920000D03*
X41937500Y-44460000D03*
X41937500Y-47000000D03*
X41937500Y-49540000D03*
X41937500Y-52080000D03*
X41937500Y-54620000D03*
X58102500Y-54620000D03*
X58102500Y-52080000D03*
X58102500Y-49540000D03*
X58102500Y-47000000D03*
X58102500Y-44460000D03*
X58102500Y-41920000D03*
X58102500Y-39380000D03*
D15*
X60250000Y-60100001D03*
D16*
X55250000Y-60100001D03*
D17*
X61400000Y-49000000D03*
D18*
X61400000Y-46500000D03*
X61400000Y-44000000D03*
D15*
X44000000Y-60100001D03*
D16*
X49000000Y-60100001D03*
%LPD*%
M02*
