%TF.GenerationSoftware,KiCad,Pcbnew,7.0.7*%
%TF.CreationDate,2024-03-10T21:17:56-05:00*%
%TF.ProjectId,squirrelbrain,73717569-7272-4656-9c62-7261696e2e6b,1*%
%TF.SameCoordinates,Original*%
%TF.FileFunction,Drillmap*%
%TF.FilePolarity,Positive*%
%FSLAX45Y45*%
G04 Gerber Fmt 4.5, Leading zero omitted, Abs format (unit mm)*
G04 Created by KiCad (PCBNEW 7.0.7) date 2024-03-10 21:17:56*
%MOMM*%
%LPD*%
G01*
G04 APERTURE LIST*
%ADD10C,0.150000*%
%ADD11C,0.200000*%
G04 APERTURE END LIST*
D10*
X6350000Y-6131371D02*
X6350000Y-3868629D01*
X6241371Y-3868629D02*
G75*
G03*
X6241371Y-3868629I-110000J0D01*
G01*
X3650000Y-6131371D02*
G75*
G03*
X3868629Y-6350000I218630J1D01*
G01*
X3868629Y-3650000D02*
G75*
G03*
X3650000Y-3868629I1J-218630D01*
G01*
X6131371Y-3650000D02*
X3868629Y-3650000D01*
X6131371Y-6350000D02*
G75*
G03*
X6350000Y-6131371I-1J218630D01*
G01*
X3978629Y-3868629D02*
G75*
G03*
X3978629Y-3868629I-110000J0D01*
G01*
X3868629Y-6350000D02*
X6131371Y-6350000D01*
X3650000Y-3868629D02*
X3650000Y-6131371D01*
X6350000Y-3868629D02*
G75*
G03*
X6131371Y-3650000I-218630J-1D01*
G01*
X3978629Y-6131371D02*
G75*
G03*
X3978629Y-6131371I-110000J0D01*
G01*
D11*
X3903277Y-6668984D02*
X3903277Y-6468984D01*
X3903277Y-6468984D02*
X3950896Y-6468984D01*
X3950896Y-6468984D02*
X3979467Y-6478508D01*
X3979467Y-6478508D02*
X3998515Y-6497555D01*
X3998515Y-6497555D02*
X4008039Y-6516603D01*
X4008039Y-6516603D02*
X4017562Y-6554698D01*
X4017562Y-6554698D02*
X4017562Y-6583269D01*
X4017562Y-6583269D02*
X4008039Y-6621365D01*
X4008039Y-6621365D02*
X3998515Y-6640412D01*
X3998515Y-6640412D02*
X3979467Y-6659460D01*
X3979467Y-6659460D02*
X3950896Y-6668984D01*
X3950896Y-6668984D02*
X3903277Y-6668984D01*
X4103277Y-6668984D02*
X4103277Y-6535650D01*
X4103277Y-6573746D02*
X4112801Y-6554698D01*
X4112801Y-6554698D02*
X4122324Y-6545174D01*
X4122324Y-6545174D02*
X4141372Y-6535650D01*
X4141372Y-6535650D02*
X4160420Y-6535650D01*
X4227086Y-6668984D02*
X4227086Y-6535650D01*
X4227086Y-6468984D02*
X4217563Y-6478508D01*
X4217563Y-6478508D02*
X4227086Y-6488031D01*
X4227086Y-6488031D02*
X4236610Y-6478508D01*
X4236610Y-6478508D02*
X4227086Y-6468984D01*
X4227086Y-6468984D02*
X4227086Y-6488031D01*
X4350896Y-6668984D02*
X4331848Y-6659460D01*
X4331848Y-6659460D02*
X4322324Y-6640412D01*
X4322324Y-6640412D02*
X4322324Y-6468984D01*
X4455658Y-6668984D02*
X4436610Y-6659460D01*
X4436610Y-6659460D02*
X4427086Y-6640412D01*
X4427086Y-6640412D02*
X4427086Y-6468984D01*
X4684229Y-6668984D02*
X4684229Y-6468984D01*
X4684229Y-6468984D02*
X4750896Y-6611841D01*
X4750896Y-6611841D02*
X4817563Y-6468984D01*
X4817563Y-6468984D02*
X4817563Y-6668984D01*
X4998515Y-6668984D02*
X4998515Y-6564222D01*
X4998515Y-6564222D02*
X4988991Y-6545174D01*
X4988991Y-6545174D02*
X4969944Y-6535650D01*
X4969944Y-6535650D02*
X4931848Y-6535650D01*
X4931848Y-6535650D02*
X4912801Y-6545174D01*
X4998515Y-6659460D02*
X4979467Y-6668984D01*
X4979467Y-6668984D02*
X4931848Y-6668984D01*
X4931848Y-6668984D02*
X4912801Y-6659460D01*
X4912801Y-6659460D02*
X4903277Y-6640412D01*
X4903277Y-6640412D02*
X4903277Y-6621365D01*
X4903277Y-6621365D02*
X4912801Y-6602317D01*
X4912801Y-6602317D02*
X4931848Y-6592793D01*
X4931848Y-6592793D02*
X4979467Y-6592793D01*
X4979467Y-6592793D02*
X4998515Y-6583269D01*
X5093753Y-6535650D02*
X5093753Y-6735650D01*
X5093753Y-6545174D02*
X5112801Y-6535650D01*
X5112801Y-6535650D02*
X5150896Y-6535650D01*
X5150896Y-6535650D02*
X5169944Y-6545174D01*
X5169944Y-6545174D02*
X5179467Y-6554698D01*
X5179467Y-6554698D02*
X5188991Y-6573746D01*
X5188991Y-6573746D02*
X5188991Y-6630888D01*
X5188991Y-6630888D02*
X5179467Y-6649936D01*
X5179467Y-6649936D02*
X5169944Y-6659460D01*
X5169944Y-6659460D02*
X5150896Y-6668984D01*
X5150896Y-6668984D02*
X5112801Y-6668984D01*
X5112801Y-6668984D02*
X5093753Y-6659460D01*
X5274705Y-6649936D02*
X5284229Y-6659460D01*
X5284229Y-6659460D02*
X5274705Y-6668984D01*
X5274705Y-6668984D02*
X5265182Y-6659460D01*
X5265182Y-6659460D02*
X5274705Y-6649936D01*
X5274705Y-6649936D02*
X5274705Y-6668984D01*
X5274705Y-6545174D02*
X5284229Y-6554698D01*
X5284229Y-6554698D02*
X5274705Y-6564222D01*
X5274705Y-6564222D02*
X5265182Y-6554698D01*
X5265182Y-6554698D02*
X5274705Y-6545174D01*
X5274705Y-6545174D02*
X5274705Y-6564222D01*
M02*
