G04 #@! TF.GenerationSoftware,KiCad,Pcbnew,7.0.7*
G04 #@! TF.CreationDate,2024-03-10T21:17:58-05:00*
G04 #@! TF.ProjectId,squirrelbrain,73717569-7272-4656-9c62-7261696e2e6b,1*
G04 #@! TF.SameCoordinates,Original*
G04 #@! TF.FileFunction,Copper,L2,Bot*
G04 #@! TF.FilePolarity,Positive*
%FSLAX46Y46*%
G04 Gerber Fmt 4.6, Leading zero omitted, Abs format (unit mm)*
G04 Created by KiCad (PCBNEW 7.0.7) date 2024-03-10 21:17:58*
%MOMM*%
%LPD*%
G01*
G04 APERTURE LIST*
G04 Aperture macros list*
%AMRoundRect*
0 Rectangle with rounded corners*
0 $1 Rounding radius*
0 $2 $3 $4 $5 $6 $7 $8 $9 X,Y pos of 4 corners*
0 Add a 4 corners polygon primitive as box body*
4,1,4,$2,$3,$4,$5,$6,$7,$8,$9,$2,$3,0*
0 Add four circle primitives for the rounded corners*
1,1,$1+$1,$2,$3*
1,1,$1+$1,$4,$5*
1,1,$1+$1,$6,$7*
1,1,$1+$1,$8,$9*
0 Add four rect primitives between the rounded corners*
20,1,$1+$1,$2,$3,$4,$5,0*
20,1,$1+$1,$4,$5,$6,$7,0*
20,1,$1+$1,$6,$7,$8,$9,0*
20,1,$1+$1,$8,$9,$2,$3,0*%
G04 Aperture macros list end*
G04 #@! TA.AperFunction,SMDPad,CuDef*
%ADD10RoundRect,0.135000X0.185000X-0.135000X0.185000X0.135000X-0.185000X0.135000X-0.185000X-0.135000X0*%
G04 #@! TD*
G04 #@! TA.AperFunction,SMDPad,CuDef*
%ADD11RoundRect,0.140000X-0.140000X-0.170000X0.140000X-0.170000X0.140000X0.170000X-0.140000X0.170000X0*%
G04 #@! TD*
G04 #@! TA.AperFunction,ComponentPad*
%ADD12R,1.700000X1.700000*%
G04 #@! TD*
G04 #@! TA.AperFunction,ComponentPad*
%ADD13O,1.700000X1.700000*%
G04 #@! TD*
G04 #@! TA.AperFunction,SMDPad,CuDef*
%ADD14RoundRect,0.135000X-0.135000X-0.185000X0.135000X-0.185000X0.135000X0.185000X-0.135000X0.185000X0*%
G04 #@! TD*
G04 #@! TA.AperFunction,SMDPad,CuDef*
%ADD15R,0.200000X0.604799*%
G04 #@! TD*
G04 #@! TA.AperFunction,SMDPad,CuDef*
%ADD16R,0.873098X0.250000*%
G04 #@! TD*
G04 #@! TA.AperFunction,SMDPad,CuDef*
%ADD17RoundRect,0.150000X0.150000X0.600000X-0.150000X0.600000X-0.150000X-0.600000X0.150000X-0.600000X0*%
G04 #@! TD*
G04 #@! TA.AperFunction,SMDPad,CuDef*
%ADD18RoundRect,0.009000X-0.141000X0.416000X-0.141000X-0.416000X0.141000X-0.416000X0.141000X0.416000X0*%
G04 #@! TD*
G04 #@! TA.AperFunction,SMDPad,CuDef*
%ADD19RoundRect,0.135000X0.135000X0.185000X-0.135000X0.185000X-0.135000X-0.185000X0.135000X-0.185000X0*%
G04 #@! TD*
G04 #@! TA.AperFunction,SMDPad,CuDef*
%ADD20R,0.600000X1.550000*%
G04 #@! TD*
G04 #@! TA.AperFunction,SMDPad,CuDef*
%ADD21R,1.200000X1.800000*%
G04 #@! TD*
G04 #@! TA.AperFunction,ComponentPad*
%ADD22R,3.800000X3.800000*%
G04 #@! TD*
G04 #@! TA.AperFunction,ComponentPad*
%ADD23C,3.800000*%
G04 #@! TD*
G04 #@! TA.AperFunction,SMDPad,CuDef*
%ADD24RoundRect,0.050000X-0.100000X0.285000X-0.100000X-0.285000X0.100000X-0.285000X0.100000X0.285000X0*%
G04 #@! TD*
G04 #@! TA.AperFunction,SMDPad,CuDef*
%ADD25R,0.385000X0.690000*%
G04 #@! TD*
G04 #@! TA.AperFunction,SMDPad,CuDef*
%ADD26R,1.035000X0.690000*%
G04 #@! TD*
G04 #@! TA.AperFunction,SMDPad,CuDef*
%ADD27R,1.404099X0.354800*%
G04 #@! TD*
G04 #@! TA.AperFunction,SMDPad,CuDef*
%ADD28R,2.768600X3.378200*%
G04 #@! TD*
G04 #@! TA.AperFunction,SMDPad,CuDef*
%ADD29R,1.060000X1.060000*%
G04 #@! TD*
G04 #@! TA.AperFunction,ComponentPad*
%ADD30RoundRect,0.250000X0.725000X-0.600000X0.725000X0.600000X-0.725000X0.600000X-0.725000X-0.600000X0*%
G04 #@! TD*
G04 #@! TA.AperFunction,ComponentPad*
%ADD31O,1.950000X1.700000*%
G04 #@! TD*
G04 #@! TA.AperFunction,ViaPad*
%ADD32C,0.600000*%
G04 #@! TD*
G04 #@! TA.AperFunction,Conductor*
%ADD33C,0.160000*%
G04 #@! TD*
G04 #@! TA.AperFunction,Conductor*
%ADD34C,0.200000*%
G04 #@! TD*
G04 #@! TA.AperFunction,Conductor*
%ADD35C,0.300000*%
G04 #@! TD*
G04 #@! TA.AperFunction,Conductor*
%ADD36C,0.500000*%
G04 #@! TD*
G04 #@! TA.AperFunction,Conductor*
%ADD37C,1.000000*%
G04 #@! TD*
G04 APERTURE END LIST*
D10*
X55650000Y-38210001D03*
X55650000Y-37190001D03*
X56600000Y-38210001D03*
X56600000Y-37190001D03*
D11*
X38520000Y-56400000D03*
X39480000Y-56400000D03*
X55645000Y-50550000D03*
X56605000Y-50550000D03*
D12*
X38650000Y-42700000D03*
D13*
X38650000Y-45240000D03*
X38650000Y-47780000D03*
X38650000Y-50320000D03*
D14*
X60340000Y-52650001D03*
X61360000Y-52650001D03*
D15*
X56375002Y-42866401D03*
D16*
X56238452Y-42195701D03*
D15*
X56375002Y-41525001D03*
X56775001Y-41525001D03*
X57175000Y-41525001D03*
D16*
X57311550Y-42195701D03*
D15*
X57175000Y-42866401D03*
X56775001Y-42866401D03*
D17*
X37300000Y-54400001D03*
X62775000Y-55850001D03*
D18*
X56000000Y-44650000D03*
X56500000Y-44650000D03*
X57000000Y-44650000D03*
X57500000Y-44650000D03*
X57500000Y-47750000D03*
X57000000Y-47750000D03*
X56500000Y-47750000D03*
X56000000Y-47750000D03*
D19*
X55460000Y-51525000D03*
X54440000Y-51525000D03*
D20*
X56100000Y-53225000D03*
X57100000Y-53225000D03*
D21*
X54800000Y-55750000D03*
X58400000Y-55750000D03*
D19*
X39410000Y-52575000D03*
X38390000Y-52575000D03*
D22*
X60250000Y-60100001D03*
D23*
X55250000Y-60100001D03*
D20*
X42900000Y-53225000D03*
X43900000Y-53225000D03*
D21*
X41600000Y-55750000D03*
X45200000Y-55750000D03*
D14*
X56540000Y-51525000D03*
X57560000Y-51525000D03*
D24*
X59860052Y-53560001D03*
X60360052Y-53560001D03*
X60860052Y-53560001D03*
X61360052Y-53560001D03*
X61360052Y-55040001D03*
X60860052Y-55040001D03*
X60360052Y-55040001D03*
X59860052Y-55040001D03*
D11*
X57145000Y-48975000D03*
X58105000Y-48975000D03*
X42665000Y-51300000D03*
X43625000Y-51300000D03*
X60120000Y-55900001D03*
X61080000Y-55900001D03*
D25*
X57124500Y-39175001D03*
D26*
X56132500Y-39175001D03*
D17*
X37300000Y-56650001D03*
D14*
X56015000Y-40200001D03*
X57035000Y-40200001D03*
D27*
X52949948Y-51875001D03*
X52949948Y-52524999D03*
X52949948Y-53175001D03*
X52949948Y-53824999D03*
X52949948Y-54474998D03*
X52949948Y-55124999D03*
X52949948Y-55774998D03*
X52949948Y-56424999D03*
X47050052Y-56424999D03*
X47050052Y-55775001D03*
X47050052Y-55124999D03*
X47050052Y-54475001D03*
X47050052Y-53825002D03*
X47050052Y-53175001D03*
X47050052Y-52525002D03*
X47050052Y-51875001D03*
D28*
X50000000Y-54150000D03*
D24*
X38200000Y-53674999D03*
X38700000Y-53674999D03*
X39200000Y-53674999D03*
X39700000Y-53674999D03*
X39700000Y-55154999D03*
X39200000Y-55154999D03*
X38700000Y-55154999D03*
X38200000Y-55154999D03*
D29*
X43470000Y-48280000D03*
X45760000Y-48280000D03*
X48050000Y-48280000D03*
X50340000Y-48280000D03*
X52630000Y-48280000D03*
X43470000Y-45990000D03*
X45760000Y-45990000D03*
X48050000Y-45990000D03*
X50340000Y-45990000D03*
X52630000Y-45990000D03*
X43470000Y-43700000D03*
X45760000Y-43700000D03*
X48050000Y-43700000D03*
X50340000Y-43700000D03*
X52630000Y-43700000D03*
X43470000Y-41410000D03*
X45760000Y-41410000D03*
X48050000Y-41410000D03*
X50340000Y-41410000D03*
X52630000Y-41410000D03*
X43470000Y-39120000D03*
X45760000Y-39120000D03*
X48050000Y-39120000D03*
X50340000Y-39120000D03*
X52630000Y-39120000D03*
D30*
X61400000Y-49000000D03*
D31*
X61400000Y-46500000D03*
X61400000Y-44000000D03*
D17*
X58350000Y-37700001D03*
X58350000Y-40050001D03*
D22*
X44000000Y-60100001D03*
D23*
X49000000Y-60100001D03*
D17*
X62775000Y-53600001D03*
D14*
X44515000Y-51300000D03*
X45535000Y-51300000D03*
D32*
X60550000Y-57850001D03*
X54650000Y-57400001D03*
X41850000Y-57450001D03*
X40050000Y-58750001D03*
X41399500Y-61176089D03*
X40776089Y-62273911D03*
X39800000Y-57650001D03*
X40700000Y-53350001D03*
X38150000Y-56850001D03*
X59800000Y-56700001D03*
X55000000Y-48700001D03*
X59100000Y-53700001D03*
X60600000Y-56650001D03*
X38025000Y-52225000D03*
X39625000Y-51725000D03*
X37900000Y-53300001D03*
X61950000Y-52850001D03*
X61975000Y-53700001D03*
X59950000Y-41250001D03*
X56200000Y-46775000D03*
X47519254Y-49330746D03*
X59700000Y-55500001D03*
X55274999Y-44450001D03*
X54925000Y-45075001D03*
X47050000Y-51550000D03*
X61900000Y-57250001D03*
X37425000Y-46550000D03*
X46450000Y-45950000D03*
X40800000Y-56050001D03*
X60000000Y-47300001D03*
X52200000Y-51750001D03*
X59500000Y-40550001D03*
X55825000Y-40700001D03*
X53950000Y-40500001D03*
X54750000Y-52475001D03*
X50300000Y-50650001D03*
X53950000Y-41275000D03*
X39900000Y-55150000D03*
X57825000Y-42925000D03*
X44700000Y-38450001D03*
X45750000Y-43000000D03*
X56250000Y-56400001D03*
X51050000Y-48300000D03*
X59000000Y-56600001D03*
X53800000Y-38300001D03*
X60600000Y-52150001D03*
X48750000Y-46000000D03*
X60500000Y-50650001D03*
X43600000Y-56450001D03*
X50300000Y-40650001D03*
X56712500Y-45862501D03*
X51050000Y-46000000D03*
X54125000Y-48800001D03*
X51000000Y-38450001D03*
X50350000Y-43000000D03*
X44450000Y-50050000D03*
X62650000Y-51300001D03*
X45200000Y-54000000D03*
X45750000Y-40700000D03*
X55800000Y-49700000D03*
X56075000Y-45625001D03*
X48750000Y-48300000D03*
X44150000Y-45950000D03*
X40800000Y-37450001D03*
X48000000Y-38500000D03*
X51000000Y-55500000D03*
X49000000Y-53000000D03*
X50000000Y-53600000D03*
X51100000Y-58400001D03*
X46800000Y-58400001D03*
X49000000Y-55500000D03*
X51000000Y-53000000D03*
X50000000Y-54900000D03*
X46800000Y-61650001D03*
X51100000Y-61650001D03*
X57650000Y-38800000D03*
X59325000Y-45725000D03*
X59525000Y-48200000D03*
X57025000Y-46925001D03*
X54600000Y-51050000D03*
X54650000Y-38700001D03*
X56425000Y-43675001D03*
X54775000Y-53275001D03*
X57050000Y-37950001D03*
X55100000Y-37500001D03*
X57550000Y-37200001D03*
X52050000Y-58450001D03*
X53400000Y-58450001D03*
X52450000Y-61650001D03*
X52050000Y-60050001D03*
D33*
X60860052Y-55040001D02*
X60860052Y-54660026D01*
X59743031Y-57300001D02*
X59483031Y-57560001D01*
X58352354Y-57310000D02*
X57350883Y-57310000D01*
X62148529Y-57850001D02*
X61650000Y-57850001D01*
X59483031Y-57560001D02*
X58602355Y-57560001D01*
X60860052Y-54660026D02*
X61115077Y-54405001D01*
X61115077Y-54405001D02*
X61605027Y-54405001D01*
X61650000Y-57850001D02*
X60400000Y-56600001D01*
X61605027Y-54405001D02*
X61810052Y-54610026D01*
X61810052Y-56350001D02*
X61829291Y-56330763D01*
X60400000Y-56600001D02*
X60400000Y-56948530D01*
X61829291Y-56330763D02*
X62500000Y-57001472D01*
X62500000Y-57001472D02*
X62500000Y-57498530D01*
X62500000Y-57498530D02*
X62148529Y-57850001D01*
X61810052Y-54610026D02*
X61810052Y-56350001D01*
X60048529Y-57300001D02*
X59743031Y-57300001D01*
X57140000Y-57099117D02*
X57140000Y-54940000D01*
X60400000Y-56948530D02*
X60048529Y-57300001D01*
X58602355Y-57560001D02*
X58352354Y-57310000D01*
X57350883Y-57310000D02*
X57140000Y-57099117D01*
X57140000Y-54940000D02*
X56100000Y-53900000D01*
X56100000Y-53900000D02*
X56100000Y-53225000D01*
X58501470Y-56950000D02*
X57500000Y-56950000D01*
X59277345Y-57200001D02*
X58751471Y-57200001D01*
X57500000Y-56950000D02*
X57500000Y-54650001D01*
X59795279Y-56682067D02*
X59277345Y-57200001D01*
X58751471Y-57200001D02*
X58501470Y-56950000D01*
X57500000Y-54650001D02*
X57100000Y-54250001D01*
X57100000Y-54250001D02*
X57100000Y-53225000D01*
D34*
X40700000Y-53350001D02*
X40500000Y-53550001D01*
X40500000Y-53550001D02*
X40500000Y-53900000D01*
X40776089Y-62273911D02*
X40776089Y-61799500D01*
X40776089Y-61799500D02*
X41399500Y-61176089D01*
X40108530Y-57341471D02*
X39800000Y-57650001D01*
X40108530Y-55789999D02*
X40108530Y-57341471D01*
X39250000Y-55154999D02*
X39250000Y-54725024D01*
X39475024Y-54500000D02*
X39900000Y-54500000D01*
X39250000Y-54725024D02*
X39475024Y-54500000D01*
X39900000Y-54500000D02*
X40500000Y-53900000D01*
X38200000Y-53674999D02*
X38200000Y-53600001D01*
X38200000Y-53600001D02*
X37900000Y-53300001D01*
D35*
X55875000Y-48550000D02*
X55363604Y-48550000D01*
X37050000Y-50122943D02*
X37050000Y-54150000D01*
X53913603Y-49600000D02*
X53213602Y-50300001D01*
X55363604Y-48550000D02*
X54313604Y-49600000D01*
X37050000Y-54150000D02*
X38054999Y-55154999D01*
X53213602Y-50300001D02*
X51400000Y-50300001D01*
X51300000Y-50200001D02*
X51300000Y-50180761D01*
X54313604Y-49600000D02*
X53913603Y-49600000D01*
X51400000Y-50300001D02*
X51300000Y-50200001D01*
X46975000Y-47650000D02*
X46525000Y-47200000D01*
X40225000Y-49000000D02*
X38172943Y-49000000D01*
X51300000Y-50180761D02*
X50719239Y-49600000D01*
X38054999Y-55154999D02*
X38200000Y-55154999D01*
X50719239Y-49600000D02*
X47650000Y-49600000D01*
X47650000Y-49600000D02*
X46975000Y-48925000D01*
X46975000Y-48925000D02*
X46975000Y-47650000D01*
X46525000Y-47200000D02*
X42025000Y-47200000D01*
X38172943Y-49000000D02*
X37050000Y-50122943D01*
X42025000Y-47200000D02*
X40225000Y-49000000D01*
D34*
X38390000Y-52575000D02*
X38524999Y-52575000D01*
X38524999Y-52575000D02*
X38700000Y-52750001D01*
X38700000Y-52750001D02*
X38700000Y-53674999D01*
X61080000Y-55900001D02*
X61300000Y-56120001D01*
X61300000Y-56120001D02*
X61300000Y-56650001D01*
X61300000Y-56650001D02*
X61900000Y-57250001D01*
X59100000Y-53700001D02*
X59820051Y-53700001D01*
X39200000Y-53674999D02*
X38700000Y-53674999D01*
X39980000Y-53394999D02*
X39700000Y-53674999D01*
X39625000Y-51725000D02*
X39980000Y-52080000D01*
X39700000Y-53674999D02*
X39775001Y-53674999D01*
X39980000Y-52080000D02*
X39980000Y-53394999D01*
X60360052Y-53560001D02*
X60860052Y-53560001D01*
X61950000Y-52850001D02*
X61560000Y-52850001D01*
X60860052Y-53149949D02*
X61360000Y-52650001D01*
X61560000Y-52850001D02*
X61360000Y-52650001D01*
X60860052Y-53560001D02*
X60860052Y-53149949D01*
X61420051Y-53700001D02*
X61360052Y-53760000D01*
X61975000Y-53700001D02*
X61420051Y-53700001D01*
X59820051Y-53800001D02*
X59860052Y-53760000D01*
X56000000Y-44851472D02*
X56000000Y-44375000D01*
X56500000Y-47475000D02*
X56500000Y-47256008D01*
X56500000Y-47256008D02*
X55475000Y-46231008D01*
X59850000Y-41150001D02*
X58025000Y-41150001D01*
X55475000Y-45376472D02*
X56000000Y-44851472D01*
X59950000Y-41250001D02*
X59850000Y-41150001D01*
X55475000Y-46231008D02*
X55475000Y-45376472D01*
X57075000Y-40200001D02*
X57035000Y-40200001D01*
X58025000Y-41150001D02*
X57075000Y-40200001D01*
D36*
X54925000Y-46560661D02*
X54925000Y-44800000D01*
D35*
X56677035Y-48550000D02*
X55875000Y-48550000D01*
D34*
X60120000Y-55900001D02*
X60100000Y-55900001D01*
D35*
X62775000Y-52425001D02*
X62775000Y-53700001D01*
D34*
X38200000Y-56080000D02*
X38200000Y-55154999D01*
D35*
X56000000Y-48425000D02*
X55875000Y-48550000D01*
X56000000Y-47475000D02*
X56000000Y-48425000D01*
D34*
X59860052Y-55040001D02*
X59860052Y-55339949D01*
D35*
X61675000Y-51325001D02*
X62775000Y-52425001D01*
D36*
X54925000Y-44800000D02*
X55274999Y-44450001D01*
D34*
X38520000Y-56400000D02*
X38200000Y-56080000D01*
D35*
X59827500Y-51127501D02*
X59254536Y-51127501D01*
D34*
X47050052Y-51550052D02*
X47050000Y-51550000D01*
X59860052Y-55339949D02*
X59700000Y-55500001D01*
D35*
X60025000Y-51325001D02*
X61675000Y-51325001D01*
D36*
X55900000Y-47535661D02*
X54925000Y-46560661D01*
D35*
X59827500Y-51127501D02*
X60025000Y-51325001D01*
D34*
X47050052Y-51875001D02*
X47050052Y-51550052D01*
D36*
X55900000Y-47775001D02*
X55900000Y-47535661D01*
D34*
X60100000Y-55900001D02*
X59700000Y-55500001D01*
D35*
X59254536Y-51127501D02*
X56677035Y-48550000D01*
X58155000Y-49025000D02*
X61375000Y-49025000D01*
D34*
X56775001Y-41525001D02*
X56775001Y-40960002D01*
D35*
X56974999Y-46125000D02*
X57369239Y-46125000D01*
D34*
X56015000Y-40200001D02*
X56015000Y-40510001D01*
D35*
X53850000Y-48800001D02*
X54125000Y-48800001D01*
D34*
X55825000Y-40700001D02*
X56515000Y-40700001D01*
D35*
X54125000Y-48800001D02*
X54150000Y-48800001D01*
X52550001Y-49800001D02*
X52850000Y-49800001D01*
X57700000Y-44450000D02*
X57700000Y-43050000D01*
D34*
X54800000Y-56425001D02*
X54800000Y-55750000D01*
D35*
X57444240Y-46200001D02*
X58880762Y-46200001D01*
X60250000Y-47550001D02*
X60550000Y-47550001D01*
X58880762Y-46200001D02*
X59055761Y-46375000D01*
D34*
X56515000Y-40700001D02*
X56775001Y-40960002D01*
D35*
X56712500Y-45862501D02*
X56974999Y-46125000D01*
D34*
X60340000Y-52650001D02*
X60340000Y-52410001D01*
D35*
X59850000Y-47550001D02*
X59050000Y-47550001D01*
D34*
X56015000Y-40510001D02*
X55825000Y-40700001D01*
D35*
X61375000Y-49025000D02*
X61400000Y-49000000D01*
D34*
X52200000Y-51750001D02*
X52949948Y-51849948D01*
D35*
X60000000Y-47300001D02*
X59850000Y-47550001D01*
X61400000Y-49000000D02*
X61400000Y-48400001D01*
X61400000Y-48400001D02*
X60550000Y-47550001D01*
D34*
X60250000Y-60100001D02*
X59775000Y-59625001D01*
X59775000Y-59625001D02*
X57975000Y-59625001D01*
X56605000Y-50525000D02*
X56605000Y-50255000D01*
X39410000Y-52575000D02*
X39000000Y-52165000D01*
D35*
X57500000Y-44650000D02*
X57700000Y-44450000D01*
X57700000Y-43050000D02*
X57825000Y-42925000D01*
X51050000Y-48300000D02*
X52550001Y-49800001D01*
D34*
X55460000Y-51525000D02*
X55605000Y-51525000D01*
X39000000Y-50770000D02*
X38550000Y-50320000D01*
D35*
X57369239Y-46125000D02*
X57444240Y-46200001D01*
D34*
X57975000Y-59600001D02*
X56937500Y-58562501D01*
X56605000Y-50505000D02*
X55800000Y-49700000D01*
X56937500Y-58562501D02*
X54800000Y-56425001D01*
D36*
X43625000Y-51300000D02*
X44515000Y-51300000D01*
D35*
X58105000Y-48975000D02*
X58155000Y-49025000D01*
X59374999Y-46375000D02*
X60550000Y-47550001D01*
D34*
X39900000Y-55150000D02*
X39700000Y-55150000D01*
X56605000Y-50550000D02*
X56605000Y-50505000D01*
X56937500Y-58562501D02*
X56937500Y-58462501D01*
X55605000Y-51525000D02*
X56605000Y-50525000D01*
D35*
X52850000Y-49800001D02*
X53850000Y-48800001D01*
D34*
X52949948Y-51849948D02*
X52949948Y-51875001D01*
D35*
X60000000Y-47300001D02*
X60250000Y-47550001D01*
D34*
X57975000Y-59625001D02*
X57975000Y-59600001D01*
D35*
X59055761Y-46375000D02*
X59374999Y-46375000D01*
D34*
X39000000Y-52165000D02*
X39000000Y-50770000D01*
X39700000Y-55150000D02*
X39700000Y-55154999D01*
X60340000Y-52410001D02*
X60600000Y-52150001D01*
D36*
X42175000Y-44850000D02*
X52579999Y-44850000D01*
X54850000Y-42750001D02*
X53900001Y-43700000D01*
X52579999Y-44850000D02*
X52630000Y-44900001D01*
D37*
X52630000Y-48280000D02*
X52630000Y-43700000D01*
D36*
X54850000Y-39702818D02*
X54850000Y-42750001D01*
D34*
X56375002Y-42725000D02*
X56375002Y-42190850D01*
D36*
X56132500Y-39100000D02*
X55452818Y-39100000D01*
X56132500Y-39050000D02*
X56132500Y-39100000D01*
X53900001Y-43700000D02*
X52630000Y-43700000D01*
X55452818Y-39100000D02*
X54850000Y-39702818D01*
X38650000Y-47780000D02*
X39245000Y-47780000D01*
X39245000Y-47780000D02*
X42175000Y-44850000D01*
D34*
X45535000Y-52561998D02*
X46148003Y-53175001D01*
X46148003Y-53175001D02*
X47050052Y-53175001D01*
X45535000Y-51300000D02*
X45535000Y-52561998D01*
X56350000Y-51525000D02*
X56350000Y-51570183D01*
X55400000Y-52250000D02*
X55400000Y-54350001D01*
X55770183Y-52150000D02*
X55500000Y-52150000D01*
X55400000Y-54350001D02*
X55275003Y-54474998D01*
X56350000Y-51570183D02*
X55770183Y-52150000D01*
X55500000Y-52150000D02*
X55400000Y-52250000D01*
X55275003Y-54474998D02*
X52949948Y-54474998D01*
D37*
X45760000Y-48280000D02*
X45760000Y-48985000D01*
D34*
X53399998Y-50750001D02*
X51749999Y-50750001D01*
X55550000Y-49000000D02*
X54500000Y-50050000D01*
D37*
X47225000Y-50450000D02*
X48150000Y-50450000D01*
D34*
X54099999Y-50050000D02*
X53399998Y-50750001D01*
D37*
X43470000Y-48280000D02*
X45760000Y-48280000D01*
X45760000Y-48985000D02*
X47225000Y-50450000D01*
D34*
X54500000Y-50050000D02*
X54099999Y-50050000D01*
X57560000Y-51525000D02*
X57475000Y-51440000D01*
X50950000Y-51550000D02*
X50950000Y-52950000D01*
X56198529Y-49000000D02*
X55550000Y-49000000D01*
D36*
X42665000Y-51300000D02*
X42665000Y-49085000D01*
D37*
X48150000Y-50450000D02*
X50000000Y-52300000D01*
D34*
X57475000Y-51440000D02*
X57475000Y-50276471D01*
D37*
X50000000Y-52300000D02*
X50000000Y-54150000D01*
D34*
X51749999Y-50750001D02*
X50950000Y-51550000D01*
X50950000Y-52950000D02*
X51000000Y-53000000D01*
D36*
X42665000Y-49085000D02*
X43470000Y-48280000D01*
D34*
X57475000Y-50276471D02*
X56198529Y-49000000D01*
X60360052Y-54560053D02*
X60100000Y-54300001D01*
X60100000Y-54300001D02*
X58175001Y-54300001D01*
X58175001Y-54300001D02*
X57100000Y-53225000D01*
X60360052Y-55240000D02*
X60360052Y-54560053D01*
X42900000Y-53900000D02*
X42900000Y-53225000D01*
X40500000Y-53900000D02*
X42900000Y-53900000D01*
X38750000Y-55154999D02*
X38750000Y-55750000D01*
X43900000Y-54200000D02*
X43900000Y-53225000D01*
X38789999Y-55789999D02*
X40108530Y-55789999D01*
X43800000Y-54300000D02*
X43900000Y-54200000D01*
X38750000Y-55750000D02*
X38789999Y-55789999D01*
X40500000Y-54465686D02*
X40665686Y-54300000D01*
X40108530Y-55789999D02*
X40500000Y-55398529D01*
X40500000Y-55398529D02*
X40500000Y-54465686D01*
X40665686Y-54300000D02*
X43800000Y-54300000D01*
D36*
X57650000Y-38800000D02*
X57424500Y-38800000D01*
X57424500Y-38800000D02*
X57124500Y-39100000D01*
D35*
X56500000Y-44650000D02*
X57000000Y-44650000D01*
D34*
X57000000Y-45200001D02*
X57200000Y-45400001D01*
X57200000Y-45400001D02*
X59000001Y-45400001D01*
X57000000Y-44875000D02*
X57000000Y-45200001D01*
X59000001Y-45400001D02*
X59325000Y-45725000D01*
D35*
X57950000Y-48200000D02*
X59525000Y-48200000D01*
X57500000Y-47750000D02*
X57950000Y-48200000D01*
X57500000Y-47475000D02*
X57500000Y-47750000D01*
D34*
X57025000Y-46925001D02*
X57025000Y-47725000D01*
X57025000Y-47725000D02*
X57000000Y-47750000D01*
X54440000Y-51525000D02*
X54440000Y-51210000D01*
X54440000Y-51525000D02*
X54440000Y-51936996D01*
X55140000Y-38210001D02*
X55850000Y-38210001D01*
X53851997Y-52524999D02*
X52949948Y-52524999D01*
X54440000Y-51210000D02*
X54600000Y-51050000D01*
X54440000Y-51936996D02*
X53851997Y-52524999D01*
X54650000Y-38700001D02*
X55140000Y-38210001D01*
D35*
X54775000Y-53275001D02*
X53975002Y-53824999D01*
D34*
X56775001Y-43325000D02*
X56775001Y-42725000D01*
X58100000Y-37950001D02*
X57050000Y-37950001D01*
D35*
X53975002Y-53824999D02*
X52949948Y-53824999D01*
D34*
X58350000Y-37700001D02*
X58100000Y-37950001D01*
X56425000Y-43675001D02*
X56775001Y-43325000D01*
X55879817Y-37125000D02*
X55890000Y-37125000D01*
X55410000Y-37190001D02*
X55100000Y-37500001D01*
X55650000Y-37190001D02*
X55410000Y-37190001D01*
X56600000Y-37190001D02*
X57540000Y-37190001D01*
X57540000Y-37190001D02*
X57550000Y-37200001D01*
X54265685Y-50450000D02*
X53565684Y-51150001D01*
X52047899Y-55124999D02*
X52949948Y-55124999D01*
X51684300Y-52160900D02*
X51684300Y-54761400D01*
X51500000Y-51600000D02*
X51500000Y-51976600D01*
X51500000Y-51976600D02*
X51684300Y-52160900D01*
X51684300Y-54761400D02*
X52047899Y-55124999D01*
X55645000Y-50525000D02*
X55570000Y-50450000D01*
X51949999Y-51150001D02*
X51500000Y-51600000D01*
X53565684Y-51150001D02*
X51949999Y-51150001D01*
X55570000Y-50450000D02*
X54265685Y-50450000D01*
G04 #@! TA.AperFunction,Conductor*
G36*
X42735143Y-47568982D02*
G01*
X42762163Y-47615782D01*
X42753596Y-47664365D01*
X42754111Y-47664579D01*
X42753149Y-47666901D01*
X42752779Y-47669000D01*
X42751283Y-47671404D01*
X42751132Y-47671768D01*
X42739500Y-47730252D01*
X42739500Y-48340674D01*
X42721018Y-48391454D01*
X42716371Y-48396524D01*
X42537637Y-48575259D01*
X42365915Y-48746981D01*
X42362610Y-48749934D01*
X42331030Y-48775119D01*
X42297519Y-48824271D01*
X42262210Y-48872113D01*
X42259441Y-48877352D01*
X42259330Y-48877293D01*
X42256983Y-48881943D01*
X42257095Y-48881997D01*
X42254525Y-48887333D01*
X42236992Y-48944177D01*
X42217353Y-49000303D01*
X42216253Y-49006116D01*
X42216132Y-49006093D01*
X42215260Y-49011224D01*
X42215382Y-49011243D01*
X42214500Y-49017098D01*
X42214500Y-49076573D01*
X42212276Y-49136010D01*
X42212939Y-49141891D01*
X42212814Y-49141905D01*
X42214500Y-49154709D01*
X42214500Y-50972663D01*
X42207098Y-51006050D01*
X42191028Y-51040510D01*
X42191028Y-51040512D01*
X42184500Y-51090096D01*
X42184500Y-51509901D01*
X42184501Y-51509907D01*
X42191026Y-51559482D01*
X42191028Y-51559488D01*
X42241776Y-51668316D01*
X42241778Y-51668319D01*
X42326680Y-51753221D01*
X42326683Y-51753223D01*
X42326684Y-51753224D01*
X42435513Y-51803972D01*
X42485099Y-51810500D01*
X42844900Y-51810499D01*
X42844901Y-51810499D01*
X42844904Y-51810498D01*
X42854175Y-51809278D01*
X42894482Y-51803973D01*
X42894483Y-51803972D01*
X42894487Y-51803972D01*
X43003316Y-51753224D01*
X43088224Y-51668316D01*
X43138972Y-51559487D01*
X43145500Y-51509901D01*
X43145499Y-51090100D01*
X43145498Y-51090096D01*
X43145498Y-51090092D01*
X43138973Y-51040515D01*
X43138972Y-51040511D01*
X43122902Y-51006050D01*
X43115500Y-50972663D01*
X43115500Y-49304325D01*
X43133982Y-49253545D01*
X43138639Y-49248464D01*
X43353464Y-49033639D01*
X43402440Y-49010801D01*
X43409325Y-49010500D01*
X44019748Y-49010500D01*
X44078231Y-48998867D01*
X44078232Y-48998866D01*
X44085794Y-48993814D01*
X44129684Y-48980500D01*
X44981171Y-48980500D01*
X45031951Y-48998982D01*
X45058877Y-49045261D01*
X45066944Y-49089283D01*
X45067303Y-49091641D01*
X45074859Y-49153869D01*
X45074859Y-49153871D01*
X45074860Y-49153872D01*
X45079399Y-49165842D01*
X45079901Y-49167165D01*
X45083739Y-49180934D01*
X45086304Y-49194929D01*
X45086305Y-49194933D01*
X45112038Y-49252109D01*
X45112951Y-49254313D01*
X45135180Y-49312927D01*
X45135181Y-49312929D01*
X45135182Y-49312930D01*
X45143262Y-49324636D01*
X45150285Y-49337088D01*
X45156121Y-49350057D01*
X45194793Y-49399418D01*
X45196207Y-49401340D01*
X45231817Y-49452929D01*
X45278747Y-49494505D01*
X45280467Y-49496124D01*
X46713873Y-50929530D01*
X46715493Y-50931251D01*
X46757070Y-50978182D01*
X46757072Y-50978184D01*
X46783360Y-50996329D01*
X46814653Y-51040386D01*
X46810305Y-51094250D01*
X46781195Y-51127804D01*
X46718871Y-51167857D01*
X46624622Y-51276627D01*
X46564835Y-51407542D01*
X46564834Y-51407547D01*
X46563343Y-51417919D01*
X46562108Y-51426514D01*
X46561701Y-51429342D01*
X46536181Y-51476976D01*
X46486013Y-51497061D01*
X46483505Y-51497101D01*
X46328254Y-51497101D01*
X46269771Y-51508733D01*
X46203450Y-51553049D01*
X46159134Y-51619370D01*
X46147620Y-51677259D01*
X46147502Y-51677853D01*
X46147502Y-52072149D01*
X46150379Y-52086612D01*
X46159134Y-52130632D01*
X46159135Y-52130633D01*
X46176159Y-52156111D01*
X46189003Y-52208601D01*
X46176160Y-52243890D01*
X46159135Y-52269370D01*
X46159134Y-52269370D01*
X46147502Y-52327854D01*
X46147502Y-52558807D01*
X46129020Y-52609587D01*
X46082220Y-52636607D01*
X46029002Y-52627223D01*
X46012641Y-52614668D01*
X45858638Y-52460665D01*
X45835800Y-52411689D01*
X45835499Y-52404804D01*
X45835499Y-52108941D01*
X45835499Y-51826126D01*
X45853981Y-51775349D01*
X45860730Y-51769166D01*
X45860517Y-51768953D01*
X45949062Y-51680407D01*
X45949065Y-51680404D01*
X45999068Y-51573173D01*
X46005500Y-51524316D01*
X46005500Y-51075684D01*
X46005243Y-51073735D01*
X46002642Y-51053973D01*
X45999068Y-51026827D01*
X45989379Y-51006050D01*
X45973956Y-50972975D01*
X45949065Y-50919596D01*
X45949064Y-50919595D01*
X45949062Y-50919592D01*
X45865407Y-50835937D01*
X45865404Y-50835935D01*
X45758174Y-50785932D01*
X45709318Y-50779500D01*
X45709316Y-50779500D01*
X45360684Y-50779500D01*
X45360682Y-50779500D01*
X45311826Y-50785932D01*
X45311824Y-50785932D01*
X45204595Y-50835935D01*
X45204592Y-50835937D01*
X45120937Y-50919592D01*
X45120935Y-50919595D01*
X45070932Y-51026824D01*
X45070932Y-51026826D01*
X45064499Y-51075681D01*
X45064499Y-51524318D01*
X45070932Y-51573173D01*
X45070932Y-51573175D01*
X45120935Y-51680404D01*
X45120937Y-51680407D01*
X45209483Y-51768953D01*
X45207484Y-51770951D01*
X45231801Y-51805654D01*
X45234500Y-51826128D01*
X45234500Y-52500095D01*
X45232491Y-52512410D01*
X45233238Y-52512515D01*
X45232226Y-52519761D01*
X45234458Y-52568025D01*
X45234500Y-52569850D01*
X45234500Y-52589848D01*
X45235279Y-52594013D01*
X45235910Y-52599452D01*
X45237414Y-52631989D01*
X45242322Y-52643104D01*
X45247707Y-52660494D01*
X45249938Y-52672430D01*
X45267083Y-52700120D01*
X45269634Y-52704961D01*
X45272214Y-52710803D01*
X45282793Y-52734761D01*
X45282796Y-52734765D01*
X45291378Y-52743347D01*
X45302683Y-52757618D01*
X45309080Y-52767949D01*
X45335076Y-52787581D01*
X45339200Y-52791169D01*
X45617876Y-53069845D01*
X45891743Y-53343712D01*
X45899034Y-53353843D01*
X45899636Y-53353390D01*
X45904045Y-53359229D01*
X45939763Y-53391791D01*
X45941061Y-53393030D01*
X45955206Y-53407175D01*
X45958707Y-53409573D01*
X45962993Y-53412968D01*
X45987070Y-53434917D01*
X45998400Y-53439306D01*
X46014502Y-53447793D01*
X46024522Y-53454657D01*
X46056229Y-53462114D01*
X46061448Y-53463730D01*
X46085050Y-53472874D01*
X46089243Y-53474499D01*
X46091830Y-53475501D01*
X46091832Y-53475501D01*
X46096160Y-53476310D01*
X46142682Y-53503804D01*
X46160647Y-53554770D01*
X46159133Y-53569377D01*
X46147502Y-53627853D01*
X46147502Y-54022149D01*
X46159134Y-54080633D01*
X46159135Y-54080635D01*
X46176158Y-54106110D01*
X46189004Y-54158600D01*
X46176159Y-54193891D01*
X46159135Y-54219368D01*
X46159134Y-54219369D01*
X46147502Y-54277853D01*
X46147502Y-54672149D01*
X46153059Y-54700089D01*
X46144838Y-54753499D01*
X46104209Y-54789129D01*
X46075577Y-54794500D01*
X46075016Y-54794500D01*
X46066058Y-54794891D01*
X46047872Y-54796482D01*
X45963033Y-54823231D01*
X45963026Y-54823234D01*
X45916237Y-54850248D01*
X45916231Y-54850252D01*
X45875491Y-54881111D01*
X45825874Y-54957935D01*
X45807393Y-55008713D01*
X45795000Y-55078996D01*
X45795000Y-56660561D01*
X45794952Y-56662498D01*
X45794623Y-56669214D01*
X45794500Y-56674248D01*
X45794500Y-57983453D01*
X45796562Y-58012492D01*
X45799717Y-58034595D01*
X45800073Y-58036765D01*
X45801119Y-58043127D01*
X45837423Y-58127060D01*
X45837424Y-58127062D01*
X45837425Y-58127063D01*
X45843285Y-58135056D01*
X45869376Y-58170643D01*
X45869377Y-58170645D01*
X45870629Y-58171843D01*
X45870886Y-58172366D01*
X45871649Y-58173235D01*
X45871416Y-58173439D01*
X45894530Y-58220309D01*
X45895000Y-58228910D01*
X45895000Y-61820492D01*
X45895382Y-61829349D01*
X45896937Y-61847329D01*
X45923500Y-61932016D01*
X45932475Y-61947633D01*
X45950424Y-61978867D01*
X45950426Y-61978869D01*
X45981202Y-62019668D01*
X45981203Y-62019669D01*
X46006722Y-62036223D01*
X46057928Y-62069441D01*
X46108671Y-62088025D01*
X46178931Y-62100559D01*
X46219383Y-62100639D01*
X46219465Y-62100640D01*
X46219465Y-62100639D01*
X46219466Y-62100640D01*
X46223997Y-62100449D01*
X46228530Y-62100258D01*
X46246918Y-62098668D01*
X46246920Y-62098667D01*
X46246924Y-62098667D01*
X46331968Y-62071899D01*
X46357794Y-62056988D01*
X46411008Y-62047604D01*
X46440306Y-62059141D01*
X46452781Y-62067240D01*
X46457345Y-62070203D01*
X46457349Y-62070205D01*
X46506267Y-62088138D01*
X46510245Y-62091365D01*
X46520817Y-62093800D01*
X46523689Y-62094654D01*
X46524264Y-62094594D01*
X46530847Y-62096110D01*
X46530847Y-62096111D01*
X46553431Y-62101313D01*
X45900000Y-62100001D01*
X45900000Y-63199500D01*
X38687589Y-63199500D01*
X38685005Y-63199415D01*
X38442732Y-63183535D01*
X38437604Y-63182860D01*
X38200754Y-63135746D01*
X38195758Y-63134408D01*
X37967089Y-63056785D01*
X37962311Y-63054806D01*
X37745721Y-62947995D01*
X37741241Y-62945409D01*
X37540450Y-62811243D01*
X37536354Y-62808101D01*
X37354772Y-62648858D01*
X37351141Y-62645227D01*
X37191896Y-62463642D01*
X37188756Y-62459549D01*
X37147647Y-62398027D01*
X37054586Y-62258751D01*
X37052004Y-62254278D01*
X36982194Y-62112719D01*
X36945192Y-62037686D01*
X36943217Y-62032918D01*
X36865588Y-61804231D01*
X36864253Y-61799245D01*
X36846578Y-61710391D01*
X36817137Y-61562382D01*
X36816465Y-61557275D01*
X36808622Y-61437633D01*
X36800585Y-61314995D01*
X36800543Y-61313708D01*
X37280992Y-61313708D01*
X37300158Y-61545013D01*
X37357135Y-61770008D01*
X37357137Y-61770013D01*
X37357138Y-61770016D01*
X37428199Y-61932017D01*
X37450368Y-61982557D01*
X37577313Y-62176861D01*
X37734501Y-62347614D01*
X37734504Y-62347616D01*
X37734508Y-62347621D01*
X37917666Y-62490178D01*
X38012510Y-62541505D01*
X38121786Y-62600643D01*
X38121789Y-62600644D01*
X38341311Y-62676006D01*
X38570243Y-62714208D01*
X38570248Y-62714208D01*
X38802335Y-62714208D01*
X38802341Y-62714208D01*
X39031273Y-62676006D01*
X39250795Y-62600644D01*
X39454918Y-62490178D01*
X39638076Y-62347621D01*
X39705931Y-62273911D01*
X40270442Y-62273911D01*
X40290923Y-62416366D01*
X40350711Y-62547283D01*
X40350712Y-62547284D01*
X40444961Y-62656054D01*
X40566036Y-62733864D01*
X40704128Y-62774411D01*
X40848049Y-62774411D01*
X40848050Y-62774411D01*
X40986142Y-62733864D01*
X41107217Y-62656054D01*
X41201466Y-62547284D01*
X41261254Y-62416368D01*
X41281736Y-62273911D01*
X41261254Y-62131454D01*
X41201466Y-62000538D01*
X41156111Y-61948195D01*
X41136827Y-61897716D01*
X41154502Y-61846649D01*
X41159937Y-61840621D01*
X41300832Y-61699726D01*
X41349807Y-61676890D01*
X41356692Y-61676589D01*
X41471460Y-61676589D01*
X41471461Y-61676589D01*
X41609553Y-61636042D01*
X41730628Y-61558232D01*
X41824877Y-61449462D01*
X41884665Y-61318546D01*
X41905147Y-61176089D01*
X41884665Y-61033632D01*
X41824877Y-60902716D01*
X41730628Y-60793946D01*
X41609553Y-60716136D01*
X41471461Y-60675589D01*
X41327539Y-60675589D01*
X41189447Y-60716136D01*
X41189446Y-60716136D01*
X41068371Y-60793946D01*
X40974122Y-60902716D01*
X40914334Y-61033633D01*
X40893853Y-61176089D01*
X40898366Y-61207482D01*
X40887298Y-61260376D01*
X40876031Y-61274585D01*
X40607374Y-61543242D01*
X40597247Y-61550531D01*
X40597701Y-61551132D01*
X40591860Y-61555542D01*
X40559306Y-61591250D01*
X40558050Y-61592566D01*
X40543916Y-61606702D01*
X40543906Y-61606714D01*
X40541507Y-61610214D01*
X40538116Y-61614494D01*
X40516173Y-61638567D01*
X40516171Y-61638570D01*
X40511782Y-61649898D01*
X40503298Y-61665994D01*
X40496435Y-61676014D01*
X40496433Y-61676018D01*
X40488976Y-61707717D01*
X40487357Y-61712945D01*
X40475589Y-61743326D01*
X40475589Y-61755470D01*
X40473491Y-61773557D01*
X40470709Y-61785381D01*
X40472644Y-61799245D01*
X40475210Y-61817644D01*
X40475589Y-61823098D01*
X40475589Y-61829150D01*
X40457107Y-61879930D01*
X40448327Y-61888851D01*
X40444961Y-61891767D01*
X40350711Y-62000538D01*
X40290924Y-62131454D01*
X40290923Y-62131454D01*
X40270442Y-62273911D01*
X39705931Y-62273911D01*
X39795271Y-62176861D01*
X39922216Y-61982557D01*
X40015449Y-61770008D01*
X40072426Y-61545013D01*
X40091592Y-61313708D01*
X40072426Y-61082403D01*
X40015449Y-60857408D01*
X39922216Y-60644859D01*
X39795271Y-60450555D01*
X39638076Y-60279795D01*
X39454918Y-60137238D01*
X39440484Y-60129426D01*
X39250797Y-60026772D01*
X39031275Y-59951410D01*
X38965863Y-59940495D01*
X38802341Y-59913208D01*
X38570243Y-59913208D01*
X38427160Y-59937084D01*
X38341308Y-59951410D01*
X38121786Y-60026772D01*
X37917667Y-60137237D01*
X37917665Y-60137238D01*
X37734511Y-60279792D01*
X37734501Y-60279801D01*
X37577313Y-60450554D01*
X37577313Y-60450555D01*
X37450366Y-60644862D01*
X37450365Y-60644864D01*
X37357138Y-60857399D01*
X37357136Y-60857404D01*
X37357135Y-60857408D01*
X37300158Y-61082403D01*
X37284936Y-61266115D01*
X37280992Y-61313708D01*
X36800543Y-61313708D01*
X36800500Y-61312411D01*
X36800500Y-55336905D01*
X36818982Y-55286125D01*
X36865782Y-55259105D01*
X36919000Y-55268489D01*
X36935361Y-55281044D01*
X36943512Y-55289195D01*
X36943516Y-55289198D01*
X36943517Y-55289199D01*
X36998453Y-55316055D01*
X37048604Y-55340573D01*
X37048605Y-55340573D01*
X37048607Y-55340574D01*
X37116740Y-55350501D01*
X37116744Y-55350501D01*
X37483256Y-55350501D01*
X37483260Y-55350501D01*
X37551393Y-55340574D01*
X37630684Y-55301810D01*
X37684421Y-55296113D01*
X37721241Y-55316923D01*
X37775659Y-55371341D01*
X37785934Y-55383993D01*
X37793559Y-55395665D01*
X37793562Y-55395668D01*
X37820609Y-55416720D01*
X37824275Y-55419957D01*
X37827714Y-55423397D01*
X37849335Y-55463845D01*
X37850762Y-55471017D01*
X37864034Y-55537739D01*
X37884597Y-55568514D01*
X37886186Y-55570892D01*
X37899500Y-55614782D01*
X37899500Y-56018097D01*
X37897491Y-56030412D01*
X37898238Y-56030517D01*
X37897226Y-56037763D01*
X37899458Y-56086027D01*
X37899500Y-56087852D01*
X37899500Y-56107850D01*
X37900279Y-56112015D01*
X37900910Y-56117454D01*
X37902414Y-56149991D01*
X37907322Y-56161106D01*
X37912707Y-56178496D01*
X37914938Y-56190432D01*
X37914939Y-56190433D01*
X37930683Y-56215862D01*
X37932083Y-56218122D01*
X37934636Y-56222966D01*
X37947793Y-56252763D01*
X37947796Y-56252767D01*
X37956378Y-56261349D01*
X37967682Y-56275618D01*
X37969611Y-56278733D01*
X37980632Y-56331636D01*
X37955070Y-56379247D01*
X37944265Y-56386315D01*
X37944701Y-56386993D01*
X37939947Y-56390047D01*
X37939947Y-56390048D01*
X37930578Y-56396069D01*
X37818871Y-56467858D01*
X37724622Y-56576628D01*
X37664834Y-56707545D01*
X37645761Y-56840206D01*
X37644353Y-56850001D01*
X37645557Y-56858375D01*
X37664834Y-56992456D01*
X37724622Y-57123373D01*
X37794464Y-57203975D01*
X37818872Y-57232144D01*
X37939947Y-57309954D01*
X38078039Y-57350501D01*
X38221960Y-57350501D01*
X38221961Y-57350501D01*
X38360053Y-57309954D01*
X38481128Y-57232144D01*
X38575377Y-57123374D01*
X38635165Y-56992458D01*
X38637405Y-56976871D01*
X38662923Y-56929240D01*
X38705289Y-56909789D01*
X38749487Y-56903972D01*
X38858316Y-56853224D01*
X38943224Y-56768316D01*
X38993972Y-56659487D01*
X39000500Y-56609901D01*
X39000499Y-56190100D01*
X39000492Y-56190048D01*
X38999145Y-56179808D01*
X39010842Y-56127050D01*
X39053716Y-56094155D01*
X39077469Y-56090499D01*
X39729030Y-56090499D01*
X39779810Y-56108981D01*
X39806830Y-56155781D01*
X39808030Y-56169499D01*
X39808030Y-57070501D01*
X39789548Y-57121281D01*
X39742748Y-57148301D01*
X39729030Y-57149501D01*
X39728039Y-57149501D01*
X39589947Y-57190048D01*
X39589946Y-57190048D01*
X39468871Y-57267858D01*
X39374622Y-57376628D01*
X39314834Y-57507545D01*
X39294353Y-57650001D01*
X39314834Y-57792456D01*
X39374622Y-57923373D01*
X39460055Y-58021968D01*
X39468872Y-58032144D01*
X39589947Y-58109954D01*
X39728039Y-58150501D01*
X39871960Y-58150501D01*
X39871961Y-58150501D01*
X40010053Y-58109954D01*
X40131128Y-58032144D01*
X40225377Y-57923374D01*
X40285165Y-57792458D01*
X40305647Y-57650001D01*
X40301177Y-57618920D01*
X40312245Y-57566027D01*
X40320981Y-57554468D01*
X40325330Y-57549698D01*
X40326539Y-57548431D01*
X40340704Y-57534268D01*
X40343107Y-57530759D01*
X40346492Y-57526484D01*
X40368446Y-57502404D01*
X40372834Y-57491075D01*
X40381323Y-57474969D01*
X40388186Y-57464952D01*
X40395641Y-57433251D01*
X40397261Y-57428020D01*
X40407961Y-57400402D01*
X40409030Y-57397644D01*
X40409030Y-57385498D01*
X40411128Y-57367411D01*
X40413909Y-57355590D01*
X40409408Y-57323325D01*
X40409030Y-57317872D01*
X40409030Y-55947192D01*
X40427512Y-55896412D01*
X40432157Y-55891341D01*
X40668712Y-55654786D01*
X40678842Y-55647502D01*
X40678386Y-55646898D01*
X40684224Y-55642488D01*
X40684228Y-55642487D01*
X40716799Y-55606757D01*
X40718009Y-55605489D01*
X40732174Y-55591326D01*
X40734577Y-55587817D01*
X40737962Y-55583542D01*
X40759916Y-55559462D01*
X40764304Y-55548133D01*
X40772793Y-55532027D01*
X40779656Y-55522010D01*
X40787111Y-55490309D01*
X40788731Y-55485078D01*
X40800500Y-55454702D01*
X40800500Y-55442556D01*
X40802598Y-55424469D01*
X40805379Y-55412648D01*
X40800878Y-55380383D01*
X40800500Y-55374930D01*
X40800500Y-54679500D01*
X40818982Y-54628720D01*
X40865782Y-54601700D01*
X40879500Y-54600500D01*
X43738097Y-54600500D01*
X43750412Y-54602508D01*
X43750517Y-54601762D01*
X43757763Y-54602773D01*
X43757764Y-54602772D01*
X43757765Y-54602773D01*
X43779635Y-54601762D01*
X43806029Y-54600542D01*
X43807854Y-54600500D01*
X43827838Y-54600500D01*
X43827844Y-54600500D01*
X43832016Y-54599719D01*
X43837452Y-54599088D01*
X43869992Y-54597585D01*
X43881104Y-54592677D01*
X43898492Y-54587292D01*
X43910433Y-54585061D01*
X43938129Y-54567912D01*
X43942956Y-54565367D01*
X43972765Y-54552206D01*
X43981353Y-54543616D01*
X43995622Y-54532314D01*
X44005952Y-54525919D01*
X44025585Y-54499918D01*
X44029162Y-54495807D01*
X44068711Y-54456258D01*
X44078842Y-54448973D01*
X44078386Y-54448369D01*
X44084224Y-54443959D01*
X44084228Y-54443958D01*
X44116799Y-54408228D01*
X44118009Y-54406960D01*
X44132174Y-54392797D01*
X44134577Y-54389288D01*
X44137962Y-54385013D01*
X44159916Y-54360933D01*
X44164304Y-54349604D01*
X44172793Y-54333498D01*
X44179656Y-54323481D01*
X44187111Y-54291780D01*
X44188731Y-54286549D01*
X44200500Y-54256173D01*
X44200500Y-54256167D01*
X44200744Y-54254864D01*
X44201505Y-54253575D01*
X44203144Y-54249347D01*
X44203844Y-54249618D01*
X44228244Y-54208345D01*
X44262988Y-54191899D01*
X44278231Y-54188867D01*
X44344552Y-54144552D01*
X44388867Y-54078231D01*
X44400500Y-54019748D01*
X44400500Y-52430252D01*
X44388867Y-52371769D01*
X44344552Y-52305448D01*
X44278231Y-52261133D01*
X44278230Y-52261132D01*
X44278231Y-52261132D01*
X44219748Y-52249500D01*
X43580252Y-52249500D01*
X43521769Y-52261132D01*
X43477397Y-52290782D01*
X43455448Y-52305448D01*
X43455447Y-52305448D01*
X43448979Y-52309771D01*
X43448201Y-52308607D01*
X43406878Y-52327872D01*
X43354681Y-52313881D01*
X43344944Y-52305710D01*
X43322603Y-52290782D01*
X43278231Y-52261133D01*
X43278230Y-52261132D01*
X43278231Y-52261132D01*
X43219748Y-52249500D01*
X42580252Y-52249500D01*
X42521769Y-52261132D01*
X42455448Y-52305448D01*
X42411132Y-52371769D01*
X42399500Y-52430252D01*
X42399500Y-53520500D01*
X42381018Y-53571280D01*
X42334218Y-53598300D01*
X42320500Y-53599500D01*
X41259207Y-53599500D01*
X41208427Y-53581018D01*
X41181407Y-53534218D01*
X41185946Y-53498572D01*
X41183574Y-53497876D01*
X41185165Y-53492457D01*
X41185317Y-53491401D01*
X41205647Y-53350001D01*
X41185165Y-53207544D01*
X41125377Y-53076628D01*
X41031128Y-52967858D01*
X40910053Y-52890048D01*
X40771961Y-52849501D01*
X40628039Y-52849501D01*
X40489947Y-52890048D01*
X40489942Y-52890050D01*
X40402210Y-52946432D01*
X40349499Y-52958337D01*
X40301467Y-52933575D01*
X40280589Y-52883732D01*
X40280500Y-52879973D01*
X40280500Y-52141906D01*
X40282509Y-52129592D01*
X40281762Y-52129488D01*
X40282773Y-52122239D01*
X40282507Y-52116494D01*
X40280542Y-52073972D01*
X40280500Y-52072147D01*
X40280500Y-52052160D01*
X40280500Y-52052156D01*
X40279719Y-52047983D01*
X40279088Y-52042545D01*
X40277585Y-52010009D01*
X40272678Y-51998896D01*
X40267292Y-51981502D01*
X40265061Y-51969568D01*
X40265061Y-51969567D01*
X40247911Y-51941869D01*
X40245362Y-51937032D01*
X40232206Y-51907235D01*
X40232202Y-51907231D01*
X40232201Y-51907229D01*
X40223619Y-51898647D01*
X40212312Y-51884373D01*
X40205919Y-51874048D01*
X40179925Y-51854418D01*
X40175800Y-51850829D01*
X40148468Y-51823497D01*
X40125630Y-51774521D01*
X40126133Y-51756392D01*
X40130647Y-51725000D01*
X40110165Y-51582543D01*
X40050377Y-51451627D01*
X39956128Y-51342857D01*
X39835053Y-51265047D01*
X39696961Y-51224500D01*
X39553039Y-51224500D01*
X39414947Y-51265047D01*
X39414946Y-51265047D01*
X39293871Y-51342857D01*
X39199622Y-51451627D01*
X39139834Y-51582544D01*
X39119353Y-51725000D01*
X39139834Y-51867455D01*
X39199622Y-51998372D01*
X39253433Y-52060473D01*
X39293872Y-52107143D01*
X39414947Y-52184953D01*
X39553039Y-52225500D01*
X39600500Y-52225500D01*
X39651280Y-52243982D01*
X39678300Y-52290782D01*
X39679500Y-52304500D01*
X39679500Y-53060499D01*
X39661018Y-53111279D01*
X39614218Y-53138299D01*
X39600500Y-53139499D01*
X39575326Y-53139499D01*
X39502261Y-53154032D01*
X39502260Y-53154033D01*
X39493888Y-53159627D01*
X39441397Y-53172469D01*
X39406112Y-53159627D01*
X39397740Y-53154033D01*
X39397738Y-53154032D01*
X39324674Y-53139499D01*
X39079500Y-53139499D01*
X39028720Y-53121017D01*
X39001700Y-53074217D01*
X39000500Y-53060499D01*
X39000500Y-52811907D01*
X39002509Y-52799593D01*
X39001762Y-52799489D01*
X39002773Y-52792240D01*
X39002737Y-52791471D01*
X39000542Y-52743973D01*
X39000500Y-52742148D01*
X39000500Y-52722161D01*
X39000500Y-52722157D01*
X38999719Y-52717984D01*
X38999088Y-52712546D01*
X38997585Y-52680010D01*
X38992678Y-52668897D01*
X38987292Y-52651503D01*
X38985061Y-52639569D01*
X38985061Y-52639568D01*
X38967911Y-52611870D01*
X38965362Y-52607033D01*
X38962015Y-52599452D01*
X38952206Y-52577236D01*
X38952202Y-52577232D01*
X38952201Y-52577230D01*
X38943619Y-52568648D01*
X38932312Y-52554374D01*
X38925919Y-52544049D01*
X38899925Y-52524419D01*
X38895800Y-52520830D01*
X38883639Y-52508669D01*
X38860801Y-52459693D01*
X38860500Y-52452808D01*
X38860500Y-52350681D01*
X38856935Y-52323608D01*
X38854068Y-52301827D01*
X38839037Y-52269594D01*
X38825022Y-52239539D01*
X38804065Y-52194596D01*
X38804064Y-52194595D01*
X38804062Y-52194592D01*
X38720407Y-52110937D01*
X38720404Y-52110935D01*
X38613174Y-52060932D01*
X38564318Y-52054500D01*
X38564316Y-52054500D01*
X38548128Y-52054500D01*
X38497348Y-52036018D01*
X38476267Y-52008318D01*
X38474833Y-52005179D01*
X38450377Y-51951627D01*
X38356128Y-51842857D01*
X38235053Y-51765047D01*
X38096961Y-51724500D01*
X37953039Y-51724500D01*
X37814947Y-51765047D01*
X37814946Y-51765047D01*
X37693871Y-51842857D01*
X37599622Y-51951627D01*
X37558465Y-52041749D01*
X37551403Y-52057214D01*
X37551361Y-52057305D01*
X37513454Y-52095818D01*
X37459659Y-52100955D01*
X37415148Y-52070311D01*
X37400500Y-52024487D01*
X37400500Y-50300847D01*
X37418982Y-50250067D01*
X37423639Y-50244986D01*
X38294986Y-49373639D01*
X38343962Y-49350801D01*
X38350847Y-49350500D01*
X40180454Y-49350500D01*
X40196665Y-49352181D01*
X40201091Y-49353108D01*
X40210315Y-49355043D01*
X40240205Y-49351316D01*
X40244321Y-49350804D01*
X40249212Y-49350500D01*
X40254036Y-49350500D01*
X40254040Y-49350500D01*
X40275540Y-49346912D01*
X40326393Y-49340573D01*
X40326396Y-49340571D01*
X40332669Y-49338704D01*
X40332799Y-49339143D01*
X40334335Y-49338650D01*
X40334187Y-49338218D01*
X40340375Y-49336092D01*
X40340381Y-49336092D01*
X40385444Y-49311704D01*
X40431484Y-49289198D01*
X40431486Y-49289195D01*
X40436813Y-49285393D01*
X40437078Y-49285764D01*
X40438373Y-49284799D01*
X40438092Y-49284438D01*
X40443252Y-49280420D01*
X40443258Y-49280418D01*
X40477957Y-49242724D01*
X42147042Y-47573639D01*
X42196019Y-47550801D01*
X42202904Y-47550500D01*
X42684363Y-47550500D01*
X42735143Y-47568982D01*
G37*
G04 #@! TD.AperFunction*
G04 #@! TA.AperFunction,Conductor*
G36*
X62227392Y-54166783D02*
G01*
X62266502Y-54204074D01*
X62273710Y-54230487D01*
X62274088Y-54230432D01*
X62274500Y-54233259D01*
X62274500Y-54233261D01*
X62276844Y-54249347D01*
X62284427Y-54301396D01*
X62335802Y-54406484D01*
X62335805Y-54406488D01*
X62418512Y-54489195D01*
X62418516Y-54489198D01*
X62418517Y-54489199D01*
X62462973Y-54510932D01*
X62523604Y-54540573D01*
X62523605Y-54540573D01*
X62523607Y-54540574D01*
X62591740Y-54550501D01*
X62591744Y-54550501D01*
X62958256Y-54550501D01*
X62958260Y-54550501D01*
X63026393Y-54540574D01*
X63055192Y-54526495D01*
X63085802Y-54511531D01*
X63139540Y-54505833D01*
X63184369Y-54536010D01*
X63199499Y-54582504D01*
X63199500Y-61266112D01*
X63199500Y-61312411D01*
X63199415Y-61314995D01*
X63183535Y-61557267D01*
X63182860Y-61562395D01*
X63135746Y-61799245D01*
X63134408Y-61804241D01*
X63056785Y-62032910D01*
X63054806Y-62037688D01*
X62947995Y-62254278D01*
X62945409Y-62258758D01*
X62811243Y-62459549D01*
X62808095Y-62463652D01*
X62648865Y-62645219D01*
X62645219Y-62648865D01*
X62502062Y-62774411D01*
X62463653Y-62808095D01*
X62459549Y-62811243D01*
X62258758Y-62945409D01*
X62254278Y-62947995D01*
X62037688Y-63054806D01*
X62032910Y-63056785D01*
X61804241Y-63134408D01*
X61799245Y-63135746D01*
X61562395Y-63182860D01*
X61557267Y-63183535D01*
X61314995Y-63199415D01*
X61312411Y-63199500D01*
X58350000Y-63199500D01*
X58350000Y-62225001D01*
X58350000Y-62125001D01*
X55843101Y-62119967D01*
X55843117Y-62119966D01*
X57274964Y-62122842D01*
X57284028Y-62122460D01*
X57287092Y-62122194D01*
X57302422Y-62120869D01*
X57387468Y-62094101D01*
X57434268Y-62067081D01*
X57475007Y-62036223D01*
X57524625Y-61959397D01*
X57543107Y-61908617D01*
X57555500Y-61838333D01*
X57555500Y-59428204D01*
X57555003Y-59416833D01*
X57535944Y-59338959D01*
X57513106Y-59289984D01*
X57491427Y-59259023D01*
X57472177Y-59231530D01*
X57472170Y-59231522D01*
X56884491Y-58643843D01*
X56884489Y-58643841D01*
X56879275Y-58638976D01*
X56869780Y-58630715D01*
X56867150Y-58628582D01*
X56854984Y-58616276D01*
X56851276Y-58611595D01*
X56851273Y-58611592D01*
X56851267Y-58611584D01*
X56851268Y-58611586D01*
X56843385Y-58602736D01*
X56265315Y-58024667D01*
X56256940Y-58016990D01*
X56256938Y-58016988D01*
X56249530Y-58012492D01*
X56188370Y-57975375D01*
X56137590Y-57956893D01*
X56137589Y-57956893D01*
X56067309Y-57944500D01*
X56067306Y-57944500D01*
X54284500Y-57944500D01*
X54233720Y-57926018D01*
X54206700Y-57879218D01*
X54205500Y-57865500D01*
X54205500Y-56674246D01*
X54205377Y-56669215D01*
X54205048Y-56662498D01*
X54205000Y-56660561D01*
X54205000Y-55074516D01*
X54204609Y-55065558D01*
X54203789Y-55056187D01*
X54203018Y-55047374D01*
X54176268Y-54962532D01*
X54173614Y-54957936D01*
X54149251Y-54915737D01*
X54149241Y-54915722D01*
X54138997Y-54902197D01*
X54123069Y-54850558D01*
X54144061Y-54800763D01*
X54192150Y-54776111D01*
X54201971Y-54775498D01*
X55213100Y-54775498D01*
X55225415Y-54777506D01*
X55225520Y-54776760D01*
X55232766Y-54777771D01*
X55232767Y-54777770D01*
X55232768Y-54777771D01*
X55254638Y-54776760D01*
X55281032Y-54775540D01*
X55282857Y-54775498D01*
X55302841Y-54775498D01*
X55302847Y-54775498D01*
X55307019Y-54774717D01*
X55312455Y-54774086D01*
X55344995Y-54772583D01*
X55356107Y-54767675D01*
X55373495Y-54762290D01*
X55385436Y-54760059D01*
X55413132Y-54742910D01*
X55417959Y-54740365D01*
X55447768Y-54727204D01*
X55456356Y-54718614D01*
X55470625Y-54707312D01*
X55480955Y-54700917D01*
X55500588Y-54674916D01*
X55504165Y-54670805D01*
X55568711Y-54606259D01*
X55578842Y-54598974D01*
X55578386Y-54598370D01*
X55584224Y-54593960D01*
X55584228Y-54593959D01*
X55616799Y-54558229D01*
X55618009Y-54556961D01*
X55632174Y-54542798D01*
X55634577Y-54539289D01*
X55637962Y-54535014D01*
X55659916Y-54510934D01*
X55664304Y-54499605D01*
X55672793Y-54483499D01*
X55679656Y-54473482D01*
X55687111Y-54441781D01*
X55688731Y-54436550D01*
X55700500Y-54406174D01*
X55700500Y-54394028D01*
X55702598Y-54375941D01*
X55705379Y-54364120D01*
X55700878Y-54331857D01*
X55700500Y-54326402D01*
X55700500Y-54279500D01*
X55718982Y-54228720D01*
X55765782Y-54201700D01*
X55779500Y-54200500D01*
X55780252Y-54200500D01*
X55971091Y-54200500D01*
X56021871Y-54218982D01*
X56026952Y-54223639D01*
X56836361Y-55033048D01*
X56859199Y-55082024D01*
X56859500Y-55088909D01*
X56859500Y-57040474D01*
X56857567Y-57052328D01*
X56858389Y-57052443D01*
X56857377Y-57059692D01*
X56859458Y-57104687D01*
X56859500Y-57106512D01*
X56859500Y-57125116D01*
X56860193Y-57128823D01*
X56860824Y-57134259D01*
X56862221Y-57164450D01*
X56866555Y-57174266D01*
X56871938Y-57191648D01*
X56873529Y-57200161D01*
X56873911Y-57202202D01*
X56889818Y-57227891D01*
X56892370Y-57232733D01*
X56904579Y-57260383D01*
X56912162Y-57267966D01*
X56923467Y-57282237D01*
X56929118Y-57291363D01*
X56953238Y-57309578D01*
X56957362Y-57313166D01*
X57041838Y-57397642D01*
X57111072Y-57466876D01*
X57118085Y-57476623D01*
X57118748Y-57476123D01*
X57123159Y-57481963D01*
X57123160Y-57481964D01*
X57123162Y-57481967D01*
X57145578Y-57502402D01*
X57156458Y-57512321D01*
X57157777Y-57513581D01*
X57170922Y-57526726D01*
X57174036Y-57528859D01*
X57178332Y-57532261D01*
X57193800Y-57546362D01*
X57200661Y-57552617D01*
X57209013Y-57555852D01*
X57210666Y-57556493D01*
X57226771Y-57564983D01*
X57233367Y-57569501D01*
X57235621Y-57571045D01*
X57265040Y-57577963D01*
X57270260Y-57579579D01*
X57298448Y-57590500D01*
X57309173Y-57590500D01*
X57327262Y-57592599D01*
X57337704Y-57595055D01*
X57367643Y-57590878D01*
X57373099Y-57590500D01*
X58203444Y-57590500D01*
X58254224Y-57608982D01*
X58259305Y-57613638D01*
X58362544Y-57716876D01*
X58369557Y-57726624D01*
X58370220Y-57726124D01*
X58374631Y-57731964D01*
X58374632Y-57731965D01*
X58374634Y-57731968D01*
X58390869Y-57746768D01*
X58407940Y-57762331D01*
X58409238Y-57763570D01*
X58422392Y-57776724D01*
X58425501Y-57778854D01*
X58429792Y-57782252D01*
X58452133Y-57802618D01*
X58462134Y-57806492D01*
X58478242Y-57814983D01*
X58487090Y-57821044D01*
X58487093Y-57821046D01*
X58487094Y-57821046D01*
X58487096Y-57821047D01*
X58498942Y-57823832D01*
X58516512Y-57827964D01*
X58521732Y-57829580D01*
X58549920Y-57840501D01*
X58560645Y-57840501D01*
X58578734Y-57842600D01*
X58589176Y-57845056D01*
X58619115Y-57840879D01*
X58624571Y-57840501D01*
X59424389Y-57840501D01*
X59436242Y-57842434D01*
X59436357Y-57841612D01*
X59443604Y-57842623D01*
X59443606Y-57842622D01*
X59443607Y-57842623D01*
X59468225Y-57841484D01*
X59488601Y-57840543D01*
X59490426Y-57840501D01*
X59509022Y-57840501D01*
X59509024Y-57840501D01*
X59512739Y-57839806D01*
X59518170Y-57839175D01*
X59548364Y-57837780D01*
X59558176Y-57833447D01*
X59575571Y-57828061D01*
X59577169Y-57827762D01*
X59586115Y-57826090D01*
X59611815Y-57810175D01*
X59616642Y-57807631D01*
X59644297Y-57795422D01*
X59651883Y-57787835D01*
X59666150Y-57776533D01*
X59675276Y-57770884D01*
X59693498Y-57746752D01*
X59697075Y-57742642D01*
X59836079Y-57603639D01*
X59885056Y-57580802D01*
X59891941Y-57580501D01*
X59989887Y-57580501D01*
X60001740Y-57582434D01*
X60001855Y-57581612D01*
X60009102Y-57582623D01*
X60009104Y-57582622D01*
X60009105Y-57582623D01*
X60033723Y-57581484D01*
X60054099Y-57580543D01*
X60055924Y-57580501D01*
X60074520Y-57580501D01*
X60074522Y-57580501D01*
X60078237Y-57579806D01*
X60083668Y-57579175D01*
X60113862Y-57577780D01*
X60123674Y-57573447D01*
X60141069Y-57568061D01*
X60142667Y-57567762D01*
X60151613Y-57566090D01*
X60177313Y-57550175D01*
X60182140Y-57547631D01*
X60209795Y-57535422D01*
X60217381Y-57527835D01*
X60231648Y-57516533D01*
X60240774Y-57510884D01*
X60258993Y-57486756D01*
X60262569Y-57482646D01*
X60518404Y-57226811D01*
X60567379Y-57203975D01*
X60619577Y-57217961D01*
X60630125Y-57226813D01*
X61410189Y-58006877D01*
X61417202Y-58016624D01*
X61417865Y-58016124D01*
X61422276Y-58021964D01*
X61422277Y-58021965D01*
X61422279Y-58021968D01*
X61445485Y-58043123D01*
X61455574Y-58052321D01*
X61456872Y-58053560D01*
X61464194Y-58060882D01*
X61470037Y-58066725D01*
X61473148Y-58068856D01*
X61477445Y-58072258D01*
X61499778Y-58092618D01*
X61509779Y-58096492D01*
X61525887Y-58104983D01*
X61533142Y-58109953D01*
X61534738Y-58111046D01*
X61534739Y-58111046D01*
X61534741Y-58111047D01*
X61546587Y-58113832D01*
X61564157Y-58117964D01*
X61569377Y-58119580D01*
X61597565Y-58130501D01*
X61608290Y-58130501D01*
X61626379Y-58132600D01*
X61636821Y-58135056D01*
X61666760Y-58130879D01*
X61672216Y-58130501D01*
X62089887Y-58130501D01*
X62101740Y-58132434D01*
X62101855Y-58131612D01*
X62109102Y-58132623D01*
X62109104Y-58132622D01*
X62109105Y-58132623D01*
X62133723Y-58131484D01*
X62154099Y-58130543D01*
X62155924Y-58130501D01*
X62174520Y-58130501D01*
X62174522Y-58130501D01*
X62178237Y-58129806D01*
X62183668Y-58129175D01*
X62213862Y-58127780D01*
X62223674Y-58123447D01*
X62241069Y-58118061D01*
X62242667Y-58117762D01*
X62251613Y-58116090D01*
X62277313Y-58100175D01*
X62282140Y-58097631D01*
X62309795Y-58085422D01*
X62317381Y-58077835D01*
X62331648Y-58066533D01*
X62340774Y-58060884D01*
X62358993Y-58036756D01*
X62362576Y-58032639D01*
X62656875Y-57738340D01*
X62666626Y-57731330D01*
X62666123Y-57730664D01*
X62671962Y-57726253D01*
X62671967Y-57726251D01*
X62702340Y-57692932D01*
X62703529Y-57691686D01*
X62716723Y-57678494D01*
X62718856Y-57675378D01*
X62722259Y-57671083D01*
X62724670Y-57668437D01*
X62742617Y-57648752D01*
X62746490Y-57638752D01*
X62754986Y-57622636D01*
X62761045Y-57613792D01*
X62767964Y-57584367D01*
X62769581Y-57579146D01*
X62780500Y-57550965D01*
X62780500Y-57540240D01*
X62782599Y-57522150D01*
X62783922Y-57516528D01*
X62785055Y-57511709D01*
X62780878Y-57481768D01*
X62780500Y-57476313D01*
X62780500Y-57060114D01*
X62782433Y-57048260D01*
X62781611Y-57048146D01*
X62782622Y-57040898D01*
X62780542Y-56995901D01*
X62780500Y-56994076D01*
X62780500Y-56975481D01*
X62780500Y-56975479D01*
X62779804Y-56971759D01*
X62779174Y-56966328D01*
X62777779Y-56936140D01*
X62777778Y-56936137D01*
X62773446Y-56926325D01*
X62768060Y-56908931D01*
X62766089Y-56898388D01*
X62766087Y-56898383D01*
X62750178Y-56872690D01*
X62747627Y-56867852D01*
X62735421Y-56840206D01*
X62735420Y-56840205D01*
X62735420Y-56840204D01*
X62727837Y-56832621D01*
X62716530Y-56818347D01*
X62710883Y-56809227D01*
X62710882Y-56809225D01*
X62686764Y-56791013D01*
X62682639Y-56787424D01*
X62113691Y-56218476D01*
X62090853Y-56169500D01*
X62090552Y-56162615D01*
X62090552Y-54668668D01*
X62092485Y-54656814D01*
X62091663Y-54656700D01*
X62092674Y-54649452D01*
X62090594Y-54604455D01*
X62090552Y-54602630D01*
X62090552Y-54584035D01*
X62090539Y-54583965D01*
X62089856Y-54580313D01*
X62089226Y-54574882D01*
X62088904Y-54567918D01*
X62087831Y-54544693D01*
X62085767Y-54540018D01*
X62083498Y-54534879D01*
X62078112Y-54517485D01*
X62076141Y-54506942D01*
X62076139Y-54506937D01*
X62060230Y-54481244D01*
X62057679Y-54476406D01*
X62045473Y-54448760D01*
X62045472Y-54448759D01*
X62045472Y-54448758D01*
X62037889Y-54441175D01*
X62026582Y-54426901D01*
X62020935Y-54417781D01*
X62020934Y-54417779D01*
X61996816Y-54399567D01*
X61992691Y-54395978D01*
X61932075Y-54335362D01*
X61909237Y-54286386D01*
X61923223Y-54234188D01*
X61967489Y-54203193D01*
X61987936Y-54200501D01*
X62046959Y-54200501D01*
X62046961Y-54200501D01*
X62173465Y-54163356D01*
X62227392Y-54166783D01*
G37*
G04 #@! TD.AperFunction*
G04 #@! TA.AperFunction,Conductor*
G36*
X53693284Y-62115647D02*
G01*
X54648801Y-62117567D01*
X54648828Y-62117568D01*
X52668241Y-62113591D01*
X52668282Y-62113589D01*
X53693284Y-62115647D01*
G37*
G04 #@! TD.AperFunction*
G04 #@! TA.AperFunction,Conductor*
G36*
X51545792Y-62069381D02*
G01*
X51562911Y-62080487D01*
X51562922Y-62080493D01*
X51613665Y-62099078D01*
X51683927Y-62111613D01*
X52229276Y-62112707D01*
X52229323Y-62112710D01*
X51324897Y-62110894D01*
X51324953Y-62110892D01*
X51324968Y-62110893D01*
X51333464Y-62110534D01*
X51334035Y-62110510D01*
X51337712Y-62110192D01*
X51352426Y-62108920D01*
X51437469Y-62082151D01*
X51463295Y-62067239D01*
X51516513Y-62057855D01*
X51545792Y-62069381D01*
G37*
G04 #@! TD.AperFunction*
G04 #@! TA.AperFunction,Conductor*
G36*
X50869983Y-62109978D02*
G01*
X50870023Y-62109980D01*
X49637581Y-62107506D01*
X49637599Y-62107505D01*
X50869983Y-62109978D01*
G37*
G04 #@! TD.AperFunction*
G04 #@! TA.AperFunction,Conductor*
G36*
X47977994Y-62104171D02*
G01*
X48353678Y-62104926D01*
X48353708Y-62104928D01*
X47047602Y-62102305D01*
X47047612Y-62102304D01*
X47977994Y-62104171D01*
G37*
G04 #@! TD.AperFunction*
G04 #@! TA.AperFunction,Conductor*
G36*
X61501332Y-54703983D02*
G01*
X61528352Y-54750783D01*
X61529552Y-54764501D01*
X61529552Y-56308289D01*
X61527454Y-56326371D01*
X61524998Y-56336815D01*
X61524998Y-56336816D01*
X61529173Y-56366750D01*
X61529552Y-56372213D01*
X61529552Y-56375996D01*
X61532968Y-56394269D01*
X61533261Y-56396069D01*
X61539483Y-56440676D01*
X61541583Y-56446944D01*
X61543963Y-56453085D01*
X61567681Y-56491392D01*
X61568595Y-56492948D01*
X61590509Y-56532295D01*
X61594718Y-56537364D01*
X61599169Y-56542246D01*
X61635097Y-56569377D01*
X61636528Y-56570511D01*
X61671188Y-56599294D01*
X61671191Y-56599296D01*
X61676931Y-56602493D01*
X61682855Y-56605443D01*
X61682856Y-56605443D01*
X61682857Y-56605444D01*
X61697265Y-56609543D01*
X61731507Y-56629666D01*
X62196361Y-57094519D01*
X62219199Y-57143495D01*
X62219500Y-57150380D01*
X62219499Y-57349621D01*
X62201016Y-57400402D01*
X62196360Y-57405482D01*
X62055480Y-57546362D01*
X62006506Y-57569200D01*
X61999620Y-57569501D01*
X61798909Y-57569501D01*
X61748129Y-57551019D01*
X61743048Y-57546362D01*
X61093846Y-56897160D01*
X61071008Y-56848184D01*
X61077847Y-56808481D01*
X61085165Y-56792458D01*
X61105647Y-56650001D01*
X61085165Y-56507544D01*
X61025377Y-56376628D01*
X60931128Y-56267858D01*
X60810053Y-56190048D01*
X60671961Y-56149501D01*
X60668254Y-56148968D01*
X60620621Y-56123445D01*
X60600539Y-56073276D01*
X60600499Y-56070828D01*
X60600499Y-55690101D01*
X60595769Y-55654167D01*
X60607465Y-55601411D01*
X60650338Y-55568514D01*
X60689504Y-55566376D01*
X60735378Y-55575501D01*
X60984726Y-55575501D01*
X61057792Y-55560967D01*
X61140653Y-55505602D01*
X61196018Y-55422741D01*
X61210552Y-55349675D01*
X61210552Y-54764501D01*
X61229034Y-54713721D01*
X61275834Y-54686701D01*
X61289552Y-54685501D01*
X61450552Y-54685501D01*
X61501332Y-54703983D01*
G37*
G04 #@! TD.AperFunction*
G04 #@! TA.AperFunction,Conductor*
G36*
X57873477Y-54423448D02*
G01*
X57918741Y-54468712D01*
X57926032Y-54478843D01*
X57926634Y-54478390D01*
X57931043Y-54484229D01*
X57966761Y-54516791D01*
X57968059Y-54518030D01*
X57982204Y-54532175D01*
X57985705Y-54534573D01*
X57989991Y-54537968D01*
X58014068Y-54559917D01*
X58025398Y-54564306D01*
X58041500Y-54572793D01*
X58051520Y-54579657D01*
X58083227Y-54587114D01*
X58088446Y-54588730D01*
X58101942Y-54593959D01*
X58118827Y-54600501D01*
X58118828Y-54600501D01*
X58130974Y-54600501D01*
X58149060Y-54602599D01*
X58160882Y-54605380D01*
X58193144Y-54600879D01*
X58198600Y-54600501D01*
X59439114Y-54600501D01*
X59489894Y-54618983D01*
X59516914Y-54665783D01*
X59516596Y-54694912D01*
X59509552Y-54730326D01*
X59509552Y-54984310D01*
X59491070Y-55035090D01*
X59473263Y-55050769D01*
X59368871Y-55117858D01*
X59274622Y-55226628D01*
X59214834Y-55357545D01*
X59194353Y-55500001D01*
X59214834Y-55642456D01*
X59274622Y-55773373D01*
X59274623Y-55773374D01*
X59368872Y-55882144D01*
X59489947Y-55959954D01*
X59582759Y-55987205D01*
X59626274Y-56019245D01*
X59639500Y-56063004D01*
X59639501Y-56109901D01*
X59640495Y-56117454D01*
X59645324Y-56154141D01*
X59633625Y-56206899D01*
X59594670Y-56236788D01*
X59595087Y-56237700D01*
X59591122Y-56239510D01*
X59590752Y-56239795D01*
X59589998Y-56240024D01*
X59589951Y-56240045D01*
X59468871Y-56317858D01*
X59374622Y-56426628D01*
X59314834Y-56557545D01*
X59294353Y-56700001D01*
X59294353Y-56700003D01*
X59299573Y-56736316D01*
X59288504Y-56789210D01*
X59277239Y-56803418D01*
X59184297Y-56896362D01*
X59135321Y-56919200D01*
X59128435Y-56919501D01*
X58900380Y-56919501D01*
X58849600Y-56901019D01*
X58844519Y-56896362D01*
X58741281Y-56793124D01*
X58734269Y-56783376D01*
X58733605Y-56783878D01*
X58729192Y-56778035D01*
X58729191Y-56778034D01*
X58729191Y-56778033D01*
X58695885Y-56747670D01*
X58694595Y-56746438D01*
X58681434Y-56733277D01*
X58681433Y-56733276D01*
X58681432Y-56733275D01*
X58678316Y-56731141D01*
X58674025Y-56727742D01*
X58670553Y-56724577D01*
X58651692Y-56707383D01*
X58651690Y-56707382D01*
X58641687Y-56703507D01*
X58625580Y-56695016D01*
X58616733Y-56688955D01*
X58616731Y-56688954D01*
X58587310Y-56682035D01*
X58582078Y-56680414D01*
X58553906Y-56669500D01*
X58553905Y-56669500D01*
X58543180Y-56669500D01*
X58525091Y-56667401D01*
X58514650Y-56664945D01*
X58514648Y-56664944D01*
X58497043Y-56667401D01*
X58484709Y-56669121D01*
X58479254Y-56669500D01*
X57859500Y-56669500D01*
X57808720Y-56651018D01*
X57781700Y-56604218D01*
X57780500Y-56590500D01*
X57780500Y-54708643D01*
X57782433Y-54696789D01*
X57781611Y-54696675D01*
X57782621Y-54689427D01*
X57782622Y-54689425D01*
X57780541Y-54644429D01*
X57780499Y-54642602D01*
X57780499Y-54634032D01*
X57780500Y-54624008D01*
X57779805Y-54620292D01*
X57779174Y-54614856D01*
X57778693Y-54604455D01*
X57777779Y-54584668D01*
X57773445Y-54574853D01*
X57768060Y-54557466D01*
X57766089Y-54546917D01*
X57750180Y-54521224D01*
X57747630Y-54516387D01*
X57746929Y-54514801D01*
X57745352Y-54511230D01*
X57741740Y-54457314D01*
X57773630Y-54413687D01*
X57826101Y-54400766D01*
X57873477Y-54423448D01*
G37*
G04 #@! TD.AperFunction*
G04 #@! TA.AperFunction,Conductor*
G36*
X40176931Y-54759979D02*
G01*
X40199266Y-54809187D01*
X40199500Y-54815265D01*
X40199500Y-55241336D01*
X40181018Y-55292116D01*
X40176361Y-55297197D01*
X40007198Y-55466360D01*
X39958222Y-55489198D01*
X39951337Y-55489499D01*
X39629500Y-55489499D01*
X39578720Y-55471017D01*
X39551700Y-55424217D01*
X39550500Y-55410499D01*
X39550500Y-54882217D01*
X39568982Y-54831437D01*
X39573649Y-54826345D01*
X39576367Y-54823628D01*
X39625347Y-54800799D01*
X39632218Y-54800500D01*
X39838097Y-54800500D01*
X39850412Y-54802508D01*
X39850517Y-54801762D01*
X39857763Y-54802773D01*
X39857764Y-54802772D01*
X39857765Y-54802773D01*
X39879635Y-54801762D01*
X39906029Y-54800542D01*
X39907854Y-54800500D01*
X39927838Y-54800500D01*
X39927844Y-54800500D01*
X39932016Y-54799719D01*
X39937452Y-54799088D01*
X39969992Y-54797585D01*
X39981104Y-54792677D01*
X39998492Y-54787292D01*
X40010433Y-54785061D01*
X40038129Y-54767912D01*
X40042956Y-54765367D01*
X40072765Y-54752206D01*
X40072765Y-54752205D01*
X40075853Y-54750091D01*
X40128192Y-54736640D01*
X40176931Y-54759979D01*
G37*
G04 #@! TD.AperFunction*
G04 #@! TA.AperFunction,Conductor*
G36*
X57903735Y-50273233D02*
G01*
X57911049Y-50279696D01*
X58975195Y-51343841D01*
X58985467Y-51356488D01*
X58993099Y-51368170D01*
X59019948Y-51389067D01*
X59020142Y-51389218D01*
X59023816Y-51392462D01*
X59027230Y-51395877D01*
X59036097Y-51402207D01*
X59044966Y-51408539D01*
X59085410Y-51440018D01*
X59085412Y-51440018D01*
X59091168Y-51443134D01*
X59090950Y-51443536D01*
X59092387Y-51444275D01*
X59092588Y-51443866D01*
X59098466Y-51446739D01*
X59098468Y-51446739D01*
X59098470Y-51446741D01*
X59147581Y-51461362D01*
X59196048Y-51478001D01*
X59196053Y-51478001D01*
X59202505Y-51479078D01*
X59202430Y-51479526D01*
X59204028Y-51479759D01*
X59204085Y-51479308D01*
X59210576Y-51480116D01*
X59210582Y-51480118D01*
X59261767Y-51478001D01*
X59649596Y-51478001D01*
X59700376Y-51496483D01*
X59705457Y-51501140D01*
X59745660Y-51541343D01*
X59755935Y-51553995D01*
X59763560Y-51565667D01*
X59763563Y-51565670D01*
X59790610Y-51586722D01*
X59794276Y-51589959D01*
X59797693Y-51593376D01*
X59815434Y-51606042D01*
X59855874Y-51637518D01*
X59855876Y-51637518D01*
X59861632Y-51640634D01*
X59861416Y-51641032D01*
X59862854Y-51641773D01*
X59863054Y-51641365D01*
X59868931Y-51644238D01*
X59868934Y-51644240D01*
X59918033Y-51658857D01*
X59966512Y-51675501D01*
X59966515Y-51675501D01*
X59972968Y-51676578D01*
X59972893Y-51677026D01*
X59974492Y-51677259D01*
X59974549Y-51676808D01*
X59981040Y-51677616D01*
X59981046Y-51677618D01*
X60032231Y-51675501D01*
X61497096Y-51675501D01*
X61547876Y-51693983D01*
X61552957Y-51698640D01*
X62068957Y-52214640D01*
X62091795Y-52263616D01*
X62077809Y-52315814D01*
X62033543Y-52346809D01*
X62013096Y-52349501D01*
X61878039Y-52349501D01*
X61873565Y-52350144D01*
X61820672Y-52339072D01*
X61790730Y-52305335D01*
X61774065Y-52269597D01*
X61774062Y-52269594D01*
X61774062Y-52269593D01*
X61690407Y-52185938D01*
X61690404Y-52185936D01*
X61583174Y-52135933D01*
X61534318Y-52129501D01*
X61534316Y-52129501D01*
X61185684Y-52129501D01*
X61185682Y-52129501D01*
X61136826Y-52135933D01*
X61136824Y-52135933D01*
X61029595Y-52185936D01*
X61029592Y-52185938D01*
X60945937Y-52269593D01*
X60945935Y-52269596D01*
X60895932Y-52376825D01*
X60895932Y-52376827D01*
X60889500Y-52425682D01*
X60889500Y-52662806D01*
X60871018Y-52713586D01*
X60866361Y-52718668D01*
X60691335Y-52893693D01*
X60681211Y-52900981D01*
X60681664Y-52901581D01*
X60675823Y-52905991D01*
X60643269Y-52941699D01*
X60642013Y-52943015D01*
X60627879Y-52957151D01*
X60627869Y-52957163D01*
X60625470Y-52960663D01*
X60622079Y-52964943D01*
X60600134Y-52989017D01*
X60596760Y-52994468D01*
X60554313Y-53027911D01*
X60514182Y-53030360D01*
X60484726Y-53024501D01*
X60235378Y-53024501D01*
X60162313Y-53039034D01*
X60162312Y-53039035D01*
X60153938Y-53044630D01*
X60101446Y-53057471D01*
X60066164Y-53044629D01*
X60057792Y-53039035D01*
X60057789Y-53039034D01*
X60057791Y-53039034D01*
X59984726Y-53024501D01*
X59735378Y-53024501D01*
X59662313Y-53039034D01*
X59662312Y-53039035D01*
X59579450Y-53094399D01*
X59524086Y-53177261D01*
X59511379Y-53241143D01*
X59483345Y-53287341D01*
X59432173Y-53304711D01*
X59391186Y-53292189D01*
X59383642Y-53287341D01*
X59310053Y-53240048D01*
X59171961Y-53199501D01*
X59028039Y-53199501D01*
X58889947Y-53240048D01*
X58889946Y-53240048D01*
X58768871Y-53317858D01*
X58674622Y-53426628D01*
X58614834Y-53557545D01*
X58594353Y-53700000D01*
X58614834Y-53842456D01*
X58635489Y-53887683D01*
X58639772Y-53941552D01*
X58608426Y-53985571D01*
X58563628Y-53999501D01*
X58332194Y-53999501D01*
X58281414Y-53981019D01*
X58276333Y-53976362D01*
X57623639Y-53323668D01*
X57600801Y-53274692D01*
X57600500Y-53267807D01*
X57600500Y-52430252D01*
X57588867Y-52371769D01*
X57585500Y-52366730D01*
X57544552Y-52305448D01*
X57478231Y-52261133D01*
X57478230Y-52261132D01*
X57478231Y-52261132D01*
X57419748Y-52249500D01*
X56780252Y-52249500D01*
X56721769Y-52261132D01*
X56677397Y-52290782D01*
X56655448Y-52305448D01*
X56655447Y-52305448D01*
X56648979Y-52309771D01*
X56648201Y-52308607D01*
X56606878Y-52327872D01*
X56554681Y-52313881D01*
X56544944Y-52305710D01*
X56522603Y-52290782D01*
X56478231Y-52261133D01*
X56478230Y-52261132D01*
X56478231Y-52261132D01*
X56419748Y-52249500D01*
X56286376Y-52249500D01*
X56235596Y-52231018D01*
X56208576Y-52184218D01*
X56217960Y-52131000D01*
X56230514Y-52114639D01*
X56254245Y-52090908D01*
X56279788Y-52065365D01*
X56328762Y-52042528D01*
X56345956Y-52042902D01*
X56365684Y-52045500D01*
X56714318Y-52045500D01*
X56724500Y-52044159D01*
X56763173Y-52039068D01*
X56870404Y-51989065D01*
X56954065Y-51905404D01*
X56976486Y-51857323D01*
X56978402Y-51853214D01*
X57016614Y-51815002D01*
X57070447Y-51810293D01*
X57114713Y-51841289D01*
X57121598Y-51853214D01*
X57145935Y-51905404D01*
X57145937Y-51905407D01*
X57229592Y-51989062D01*
X57229595Y-51989064D01*
X57229596Y-51989065D01*
X57336827Y-52039068D01*
X57372817Y-52043806D01*
X57385682Y-52045500D01*
X57385684Y-52045500D01*
X57734318Y-52045500D01*
X57744500Y-52044159D01*
X57783173Y-52039068D01*
X57890404Y-51989065D01*
X57974065Y-51905404D01*
X58024068Y-51798173D01*
X58030500Y-51749316D01*
X58030500Y-51300684D01*
X58024068Y-51251827D01*
X58008994Y-51219502D01*
X57976818Y-51150500D01*
X57974065Y-51144596D01*
X57974063Y-51144594D01*
X57974062Y-51144592D01*
X57890407Y-51060937D01*
X57890404Y-51060935D01*
X57821112Y-51028623D01*
X57782900Y-50990411D01*
X57775499Y-50957025D01*
X57775499Y-50714778D01*
X57775499Y-50338372D01*
X57777507Y-50326096D01*
X57776758Y-50325992D01*
X57776941Y-50324676D01*
X57778095Y-50322496D01*
X57779613Y-50313218D01*
X57780119Y-50311712D01*
X57783252Y-50312764D01*
X57802241Y-50276926D01*
X57852316Y-50256609D01*
X57903735Y-50273233D01*
G37*
G04 #@! TD.AperFunction*
G04 #@! TA.AperFunction,Conductor*
G36*
X56092116Y-49318982D02*
G01*
X56097197Y-49323639D01*
X57151361Y-50377803D01*
X57174199Y-50426779D01*
X57174500Y-50433664D01*
X57174500Y-51083308D01*
X57156018Y-51134088D01*
X57151361Y-51139169D01*
X57145937Y-51144592D01*
X57145936Y-51144594D01*
X57121598Y-51196786D01*
X57083386Y-51234997D01*
X57029552Y-51239706D01*
X56985286Y-51208710D01*
X56978402Y-51196786D01*
X56965436Y-51168982D01*
X56954065Y-51144596D01*
X56954063Y-51144594D01*
X56954062Y-51144592D01*
X56870407Y-51060937D01*
X56870404Y-51060935D01*
X56763174Y-51010932D01*
X56714318Y-51004500D01*
X56714316Y-51004500D01*
X56365684Y-51004500D01*
X56365682Y-51004500D01*
X56316826Y-51010932D01*
X56316824Y-51010932D01*
X56209595Y-51060935D01*
X56209592Y-51060937D01*
X56125937Y-51144592D01*
X56125935Y-51144595D01*
X56075932Y-51251824D01*
X56075932Y-51251826D01*
X56069500Y-51300681D01*
X56069500Y-51392988D01*
X56051018Y-51443768D01*
X56046361Y-51448849D01*
X55855284Y-51639928D01*
X55668851Y-51826361D01*
X55619874Y-51849199D01*
X55612989Y-51849500D01*
X55561903Y-51849500D01*
X55549587Y-51847491D01*
X55549483Y-51848238D01*
X55542236Y-51847226D01*
X55493971Y-51849458D01*
X55492146Y-51849500D01*
X55472150Y-51849500D01*
X55467987Y-51850279D01*
X55462548Y-51850910D01*
X55430008Y-51852414D01*
X55418890Y-51857323D01*
X55401508Y-51862706D01*
X55389569Y-51864938D01*
X55389564Y-51864940D01*
X55361879Y-51882081D01*
X55357038Y-51884633D01*
X55327230Y-51897795D01*
X55318639Y-51906386D01*
X55304375Y-51917685D01*
X55294049Y-51924079D01*
X55274424Y-51950067D01*
X55270828Y-51954199D01*
X55231281Y-51993745D01*
X55221159Y-52001033D01*
X55221611Y-52001632D01*
X55215770Y-52006043D01*
X55183219Y-52041749D01*
X55181962Y-52043065D01*
X55167827Y-52057202D01*
X55167817Y-52057214D01*
X55165418Y-52060714D01*
X55162027Y-52064994D01*
X55140084Y-52089067D01*
X55140082Y-52089070D01*
X55135693Y-52100398D01*
X55127209Y-52116494D01*
X55120346Y-52126514D01*
X55120344Y-52126518D01*
X55112887Y-52158217D01*
X55111268Y-52163445D01*
X55099500Y-52193826D01*
X55099500Y-52205970D01*
X55097402Y-52224057D01*
X55094620Y-52235881D01*
X55095751Y-52243982D01*
X55099121Y-52268144D01*
X55099500Y-52273598D01*
X55099500Y-52744387D01*
X55081018Y-52795167D01*
X55034218Y-52822187D01*
X54990483Y-52816607D01*
X54990474Y-52816640D01*
X54990270Y-52816580D01*
X54987690Y-52816251D01*
X54985060Y-52815050D01*
X54846961Y-52774501D01*
X54703039Y-52774501D01*
X54564947Y-52815048D01*
X54564946Y-52815048D01*
X54443871Y-52892858D01*
X54349622Y-53001628D01*
X54289835Y-53132542D01*
X54289833Y-53132551D01*
X54286674Y-53154517D01*
X54261152Y-53202149D01*
X54253235Y-53208370D01*
X53976254Y-53398796D01*
X53923938Y-53412334D01*
X53875160Y-53389077D01*
X53852742Y-53339907D01*
X53852498Y-53333697D01*
X53852498Y-52977854D01*
X53849930Y-52964943D01*
X53840865Y-52919370D01*
X53840863Y-52919368D01*
X53840446Y-52917268D01*
X53848666Y-52863858D01*
X53889295Y-52828227D01*
X53914281Y-52822940D01*
X53921989Y-52822584D01*
X53933101Y-52817676D01*
X53950489Y-52812291D01*
X53962430Y-52810060D01*
X53990126Y-52792911D01*
X53994953Y-52790366D01*
X54024762Y-52777205D01*
X54033350Y-52768615D01*
X54047619Y-52757313D01*
X54057949Y-52750918D01*
X54077582Y-52724917D01*
X54081159Y-52720806D01*
X54608711Y-52193254D01*
X54618842Y-52185969D01*
X54618386Y-52185365D01*
X54624224Y-52180955D01*
X54624228Y-52180954D01*
X54656799Y-52145224D01*
X54658009Y-52143956D01*
X54672174Y-52129793D01*
X54674577Y-52126284D01*
X54677962Y-52122009D01*
X54699916Y-52097929D01*
X54704301Y-52086606D01*
X54712795Y-52070493D01*
X54712920Y-52070311D01*
X54719657Y-52060477D01*
X54723494Y-52044161D01*
X54753109Y-51998960D01*
X54767009Y-51990647D01*
X54770404Y-51989065D01*
X54854065Y-51905404D01*
X54904068Y-51798173D01*
X54909463Y-51757193D01*
X54910500Y-51749318D01*
X54910500Y-51485414D01*
X54928982Y-51434634D01*
X54929796Y-51433680D01*
X54936002Y-51426518D01*
X55025377Y-51323373D01*
X55085165Y-51192457D01*
X55105647Y-51050000D01*
X55097813Y-50995514D01*
X55108881Y-50942621D01*
X55151358Y-50909216D01*
X55205370Y-50910931D01*
X55231870Y-50928411D01*
X55306680Y-51003221D01*
X55306683Y-51003223D01*
X55306684Y-51003224D01*
X55415513Y-51053972D01*
X55465099Y-51060500D01*
X55824900Y-51060499D01*
X55824901Y-51060499D01*
X55824904Y-51060498D01*
X55834175Y-51059278D01*
X55874482Y-51053973D01*
X55874483Y-51053972D01*
X55874487Y-51053972D01*
X55983316Y-51003224D01*
X56068224Y-50918316D01*
X56118972Y-50809487D01*
X56125500Y-50759901D01*
X56125499Y-50340100D01*
X56125498Y-50340092D01*
X56118973Y-50290517D01*
X56118971Y-50290511D01*
X56103162Y-50256609D01*
X56068224Y-50181684D01*
X56068223Y-50181683D01*
X56068221Y-50181680D01*
X55983319Y-50096778D01*
X55983316Y-50096776D01*
X55874488Y-50046028D01*
X55824903Y-50039500D01*
X55465098Y-50039500D01*
X55465092Y-50039501D01*
X55415517Y-50046026D01*
X55415511Y-50046028D01*
X55306684Y-50096775D01*
X55291892Y-50111568D01*
X55277098Y-50126361D01*
X55228124Y-50149199D01*
X55221238Y-50149500D01*
X55016193Y-50149500D01*
X54965413Y-50131018D01*
X54938393Y-50084218D01*
X54947777Y-50031000D01*
X54960332Y-50014639D01*
X55651332Y-49323639D01*
X55700308Y-49300801D01*
X55707193Y-49300500D01*
X56041336Y-49300500D01*
X56092116Y-49318982D01*
G37*
G04 #@! TD.AperFunction*
G04 #@! TA.AperFunction,Conductor*
G36*
X56271966Y-45262291D02*
G01*
X56273742Y-45262214D01*
X56276353Y-45263164D01*
X56277256Y-45263343D01*
X56277257Y-45263344D01*
X56338368Y-45275500D01*
X56649306Y-45275500D01*
X56700086Y-45293982D01*
X56716473Y-45312912D01*
X56723115Y-45323639D01*
X56732083Y-45338124D01*
X56734636Y-45342967D01*
X56747793Y-45372764D01*
X56747796Y-45372768D01*
X56756378Y-45381350D01*
X56767683Y-45395621D01*
X56774080Y-45405952D01*
X56800076Y-45425584D01*
X56804200Y-45429172D01*
X56875971Y-45500943D01*
X56943740Y-45568712D01*
X56951031Y-45578843D01*
X56951633Y-45578390D01*
X56956042Y-45584229D01*
X56991760Y-45616791D01*
X56993058Y-45618030D01*
X57007203Y-45632175D01*
X57010704Y-45634573D01*
X57014991Y-45637969D01*
X57039067Y-45659917D01*
X57050393Y-45664305D01*
X57066502Y-45672795D01*
X57076520Y-45679658D01*
X57108231Y-45687116D01*
X57113438Y-45688728D01*
X57133814Y-45696622D01*
X57143826Y-45700501D01*
X57143827Y-45700501D01*
X57155970Y-45700501D01*
X57174057Y-45702599D01*
X57185881Y-45705380D01*
X57218143Y-45700879D01*
X57223599Y-45700501D01*
X58747377Y-45700501D01*
X58798157Y-45718983D01*
X58825177Y-45765783D01*
X58825573Y-45768259D01*
X58839834Y-45867455D01*
X58899622Y-45998372D01*
X58899623Y-45998373D01*
X58993872Y-46107143D01*
X59114947Y-46184953D01*
X59253039Y-46225500D01*
X59396961Y-46225500D01*
X59399798Y-46224667D01*
X59401850Y-46224797D01*
X59402556Y-46224696D01*
X59402577Y-46224843D01*
X59453729Y-46228092D01*
X59492840Y-46265382D01*
X59493656Y-46267078D01*
X59497141Y-46274552D01*
X59497143Y-46274554D01*
X59497144Y-46274557D01*
X59538080Y-46333019D01*
X59538084Y-46333022D01*
X59538084Y-46333023D01*
X59538086Y-46333026D01*
X60088288Y-46883227D01*
X60637659Y-47432598D01*
X60642298Y-47436959D01*
X60650746Y-47444420D01*
X60655653Y-47448490D01*
X60656443Y-47449145D01*
X60667328Y-47460143D01*
X60673166Y-47467331D01*
X60680275Y-47475215D01*
X60830394Y-47625333D01*
X60838771Y-47633012D01*
X60907339Y-47674625D01*
X60958119Y-47693107D01*
X61028403Y-47705500D01*
X61028407Y-47705500D01*
X63120500Y-47705500D01*
X63171280Y-47723982D01*
X63198300Y-47770782D01*
X63199500Y-47784500D01*
X63199499Y-52161739D01*
X63181016Y-52212519D01*
X63134217Y-52239539D01*
X63080999Y-52230155D01*
X63058157Y-52210262D01*
X63055419Y-52206744D01*
X63017724Y-52172043D01*
X61954339Y-51108658D01*
X61944063Y-51096005D01*
X61942916Y-51094250D01*
X61936437Y-51084332D01*
X61936435Y-51084330D01*
X61909391Y-51063281D01*
X61905719Y-51060038D01*
X61902309Y-51056628D01*
X61902307Y-51056626D01*
X61884561Y-51043956D01*
X61862554Y-51026827D01*
X61844124Y-51012482D01*
X61838369Y-51009368D01*
X61838584Y-51008970D01*
X61837143Y-51008228D01*
X61836945Y-51008635D01*
X61831064Y-51005759D01*
X61781954Y-50991139D01*
X61744216Y-50978184D01*
X61733488Y-50974501D01*
X61733487Y-50974501D01*
X61733484Y-50974500D01*
X61727030Y-50973423D01*
X61727104Y-50972975D01*
X61725507Y-50972742D01*
X61725451Y-50973194D01*
X61718954Y-50972384D01*
X61667769Y-50974501D01*
X60202904Y-50974501D01*
X60152124Y-50956019D01*
X60147043Y-50951362D01*
X60106839Y-50911158D01*
X60096563Y-50898505D01*
X60088937Y-50886832D01*
X60088935Y-50886830D01*
X60061891Y-50865781D01*
X60058219Y-50862538D01*
X60054809Y-50859128D01*
X60054807Y-50859126D01*
X60037061Y-50846456D01*
X60023544Y-50835935D01*
X59996624Y-50814982D01*
X59990869Y-50811868D01*
X59991084Y-50811470D01*
X59989643Y-50810728D01*
X59989445Y-50811135D01*
X59983564Y-50808259D01*
X59934454Y-50793639D01*
X59934453Y-50793638D01*
X59885988Y-50777001D01*
X59885987Y-50777001D01*
X59885984Y-50777000D01*
X59879530Y-50775923D01*
X59879604Y-50775475D01*
X59878007Y-50775242D01*
X59877951Y-50775694D01*
X59871454Y-50774884D01*
X59820269Y-50777001D01*
X59432440Y-50777001D01*
X59381660Y-50758519D01*
X59376579Y-50753862D01*
X57648637Y-49025920D01*
X57625799Y-48976944D01*
X57625499Y-48970081D01*
X57625499Y-48765100D01*
X57623503Y-48749934D01*
X57618973Y-48715517D01*
X57618971Y-48715511D01*
X57611971Y-48700500D01*
X57568224Y-48606684D01*
X57568223Y-48606683D01*
X57568221Y-48606680D01*
X57483319Y-48521778D01*
X57479657Y-48519214D01*
X57448660Y-48474949D01*
X57453369Y-48421115D01*
X57491579Y-48382902D01*
X57524968Y-48375500D01*
X57597096Y-48375500D01*
X57647876Y-48393982D01*
X57652957Y-48398639D01*
X57670660Y-48416342D01*
X57680935Y-48428994D01*
X57688560Y-48440666D01*
X57688563Y-48440669D01*
X57715610Y-48461721D01*
X57719276Y-48464958D01*
X57722693Y-48468375D01*
X57726409Y-48471028D01*
X57740438Y-48481045D01*
X57773536Y-48506805D01*
X57780874Y-48512517D01*
X57780876Y-48512517D01*
X57786632Y-48515633D01*
X57786414Y-48516035D01*
X57787851Y-48516774D01*
X57788052Y-48516365D01*
X57793930Y-48519238D01*
X57793932Y-48519238D01*
X57793934Y-48519240D01*
X57843045Y-48533861D01*
X57891512Y-48550500D01*
X57891517Y-48550500D01*
X57897969Y-48551577D01*
X57897894Y-48552025D01*
X57899492Y-48552258D01*
X57899549Y-48551807D01*
X57906040Y-48552615D01*
X57906046Y-48552617D01*
X57957231Y-48550500D01*
X59130375Y-48550500D01*
X59181155Y-48568982D01*
X59190078Y-48577765D01*
X59192216Y-48580232D01*
X59193872Y-48582143D01*
X59314947Y-48659953D01*
X59453039Y-48700500D01*
X59596960Y-48700500D01*
X59596961Y-48700500D01*
X59735053Y-48659953D01*
X59856128Y-48582143D01*
X59950377Y-48473373D01*
X60010165Y-48342457D01*
X60030647Y-48200000D01*
X60010165Y-48057543D01*
X59950377Y-47926627D01*
X59856128Y-47817857D01*
X59735053Y-47740047D01*
X59596961Y-47699500D01*
X59453039Y-47699500D01*
X59314947Y-47740047D01*
X59314946Y-47740047D01*
X59193870Y-47817858D01*
X59190078Y-47822235D01*
X59142855Y-47848508D01*
X59130375Y-47849500D01*
X58127904Y-47849500D01*
X58077124Y-47831018D01*
X58072043Y-47826361D01*
X57873639Y-47627957D01*
X57850801Y-47578981D01*
X57850500Y-47572096D01*
X57850500Y-47313368D01*
X57838344Y-47252257D01*
X57838344Y-47252256D01*
X57792041Y-47182959D01*
X57722743Y-47136656D01*
X57722742Y-47136655D01*
X57661632Y-47124500D01*
X57593135Y-47124500D01*
X57542355Y-47106018D01*
X57515335Y-47059218D01*
X57514939Y-47034258D01*
X57530647Y-46925001D01*
X57527385Y-46902315D01*
X57510165Y-46782544D01*
X57450377Y-46651628D01*
X57356128Y-46542858D01*
X57235053Y-46465048D01*
X57096961Y-46424501D01*
X56953039Y-46424501D01*
X56814947Y-46465048D01*
X56814942Y-46465050D01*
X56730410Y-46519375D01*
X56677698Y-46531280D01*
X56629667Y-46506518D01*
X56627995Y-46504650D01*
X56625378Y-46501630D01*
X56625377Y-46501627D01*
X56531128Y-46392857D01*
X56410053Y-46315047D01*
X56271961Y-46274500D01*
X56128039Y-46274500D01*
X56128038Y-46274500D01*
X56030330Y-46303189D01*
X55976400Y-46299761D01*
X55952213Y-46283250D01*
X55798639Y-46129676D01*
X55775801Y-46080700D01*
X55775500Y-46073815D01*
X55775500Y-45533665D01*
X55793982Y-45482885D01*
X55798639Y-45477804D01*
X55977804Y-45298639D01*
X56026780Y-45275801D01*
X56033665Y-45275500D01*
X56161632Y-45275500D01*
X56230375Y-45261826D01*
X56230826Y-45264095D01*
X56269510Y-45262399D01*
X56269625Y-45261826D01*
X56271966Y-45262291D01*
G37*
G04 #@! TD.AperFunction*
G04 #@! TA.AperFunction,Conductor*
G36*
X53935813Y-51297165D02*
G01*
X53966808Y-51341431D01*
X53969500Y-51361877D01*
X53969500Y-51749318D01*
X53975932Y-51798173D01*
X53975932Y-51798175D01*
X54009135Y-51869377D01*
X54013845Y-51923210D01*
X53993398Y-51958625D01*
X53812146Y-52139877D01*
X53763170Y-52162715D01*
X53738137Y-52158860D01*
X53737861Y-52160250D01*
X53671746Y-52147099D01*
X52228150Y-52147099D01*
X52169667Y-52158731D01*
X52124237Y-52189088D01*
X52117145Y-52193827D01*
X52107691Y-52200144D01*
X52055200Y-52212989D01*
X52006734Y-52189088D01*
X51984969Y-52139626D01*
X51984800Y-52134458D01*
X51984800Y-52133056D01*
X51984020Y-52128884D01*
X51983389Y-52123446D01*
X51982718Y-52108941D01*
X51981885Y-52090909D01*
X51976978Y-52079796D01*
X51971592Y-52062403D01*
X51969361Y-52050468D01*
X51969361Y-52050467D01*
X51952211Y-52022769D01*
X51949662Y-52017932D01*
X51945417Y-52008318D01*
X51936506Y-51988135D01*
X51936502Y-51988131D01*
X51936501Y-51988129D01*
X51927919Y-51979547D01*
X51916612Y-51965273D01*
X51910219Y-51954948D01*
X51884225Y-51935318D01*
X51880100Y-51931729D01*
X51823639Y-51875268D01*
X51800801Y-51826292D01*
X51800500Y-51819407D01*
X51800500Y-51757193D01*
X51818982Y-51706413D01*
X51823639Y-51701331D01*
X52051332Y-51473639D01*
X52100308Y-51450802D01*
X52107193Y-51450501D01*
X53503781Y-51450501D01*
X53516096Y-51452509D01*
X53516201Y-51451763D01*
X53523447Y-51452774D01*
X53523448Y-51452773D01*
X53523449Y-51452774D01*
X53548261Y-51451627D01*
X53571713Y-51450543D01*
X53573538Y-51450501D01*
X53593522Y-51450501D01*
X53593528Y-51450501D01*
X53597700Y-51449720D01*
X53603136Y-51449089D01*
X53635676Y-51447586D01*
X53646788Y-51442678D01*
X53664176Y-51437293D01*
X53676117Y-51435062D01*
X53703813Y-51417913D01*
X53708640Y-51415368D01*
X53738449Y-51402207D01*
X53747037Y-51393617D01*
X53761306Y-51382315D01*
X53771636Y-51375920D01*
X53791269Y-51349919D01*
X53794846Y-51345808D01*
X53834640Y-51306014D01*
X53883616Y-51283178D01*
X53935813Y-51297165D01*
G37*
G04 #@! TD.AperFunction*
G04 #@! TA.AperFunction,Conductor*
G36*
X50592115Y-49968982D02*
G01*
X50597196Y-49973639D01*
X50983077Y-50359520D01*
X50998189Y-50380684D01*
X51010802Y-50406485D01*
X51014607Y-50411814D01*
X51014237Y-50412077D01*
X51015201Y-50413370D01*
X51015560Y-50413092D01*
X51019581Y-50418258D01*
X51019582Y-50418259D01*
X51057275Y-50452958D01*
X51120664Y-50516347D01*
X51130935Y-50528995D01*
X51138560Y-50540667D01*
X51138563Y-50540670D01*
X51165610Y-50561722D01*
X51169276Y-50564959D01*
X51172693Y-50568376D01*
X51190434Y-50581042D01*
X51230874Y-50612518D01*
X51230876Y-50612518D01*
X51236632Y-50615634D01*
X51236416Y-50616032D01*
X51237854Y-50616773D01*
X51238054Y-50616365D01*
X51243931Y-50619238D01*
X51243934Y-50619240D01*
X51280118Y-50630012D01*
X51323513Y-50662215D01*
X51336057Y-50714778D01*
X51313438Y-50761589D01*
X50781285Y-51293742D01*
X50771158Y-51301031D01*
X50771612Y-51301632D01*
X50765771Y-51306042D01*
X50733217Y-51341750D01*
X50731961Y-51343066D01*
X50717827Y-51357202D01*
X50717817Y-51357214D01*
X50715418Y-51360714D01*
X50712027Y-51364994D01*
X50690084Y-51389067D01*
X50690082Y-51389070D01*
X50685693Y-51400398D01*
X50677209Y-51416494D01*
X50670346Y-51426514D01*
X50670344Y-51426518D01*
X50662887Y-51458217D01*
X50661268Y-51463445D01*
X50649500Y-51493826D01*
X50649500Y-51505970D01*
X50647402Y-51524057D01*
X50644621Y-51535880D01*
X50649120Y-51568135D01*
X50649499Y-51573599D01*
X50649499Y-51764017D01*
X50631017Y-51814797D01*
X50584217Y-51841817D01*
X50530999Y-51832433D01*
X50518112Y-51823149D01*
X50481251Y-51790493D01*
X50479530Y-51788873D01*
X48776018Y-50085360D01*
X48753180Y-50036385D01*
X48767166Y-49984187D01*
X48811432Y-49953192D01*
X48831879Y-49950500D01*
X50541335Y-49950500D01*
X50592115Y-49968982D01*
G37*
G04 #@! TD.AperFunction*
G04 #@! TA.AperFunction,Conductor*
G36*
X51866280Y-45318982D02*
G01*
X51893300Y-45365782D01*
X51894500Y-45379500D01*
X51894500Y-48725484D01*
X51894891Y-48734442D01*
X51896482Y-48752631D01*
X51897324Y-48756863D01*
X51896822Y-48756962D01*
X51899500Y-48774358D01*
X51899500Y-48829747D01*
X51911132Y-48888230D01*
X51919331Y-48900500D01*
X51955448Y-48954552D01*
X52021769Y-48998867D01*
X52021768Y-48998867D01*
X52080252Y-49010500D01*
X53179748Y-49010500D01*
X53197253Y-49007017D01*
X53212665Y-49005500D01*
X53326087Y-49005500D01*
X53337458Y-49005003D01*
X53415332Y-48985944D01*
X53464307Y-48963106D01*
X53522767Y-48922172D01*
X53745346Y-48699594D01*
X53751726Y-48692662D01*
X53775161Y-48675187D01*
X53783615Y-48671056D01*
X53832429Y-48644639D01*
X53832428Y-48644638D01*
X53836025Y-48642692D01*
X53837855Y-48641763D01*
X53849143Y-48636410D01*
X53849169Y-48636384D01*
X53866068Y-48623658D01*
X53876405Y-48617860D01*
X53876404Y-48617860D01*
X53876407Y-48617859D01*
X53925466Y-48577860D01*
X53929040Y-48575267D01*
X53991638Y-48535038D01*
X54012086Y-48525700D01*
X54071686Y-48508200D01*
X54093942Y-48505001D01*
X54156056Y-48505001D01*
X54178312Y-48508201D01*
X54237907Y-48525699D01*
X54258361Y-48535040D01*
X54326564Y-48578871D01*
X54330604Y-48581845D01*
X54346501Y-48595185D01*
X54352705Y-48600086D01*
X54356003Y-48602692D01*
X54439703Y-48639549D01*
X54439706Y-48639549D01*
X54439707Y-48639550D01*
X54440253Y-48639721D01*
X54440469Y-48639886D01*
X54443764Y-48641337D01*
X54443413Y-48642131D01*
X54483220Y-48672493D01*
X54494912Y-48703890D01*
X54514835Y-48842458D01*
X54515392Y-48844356D01*
X54515304Y-48845725D01*
X54515639Y-48848050D01*
X54515152Y-48848119D01*
X54511960Y-48898286D01*
X54495452Y-48922468D01*
X54191561Y-49226361D01*
X54142585Y-49249199D01*
X54135699Y-49249500D01*
X53958149Y-49249500D01*
X53941938Y-49247819D01*
X53928290Y-49244957D01*
X53928284Y-49244957D01*
X53894282Y-49249196D01*
X53889391Y-49249500D01*
X53884560Y-49249500D01*
X53863062Y-49253087D01*
X53812213Y-49259426D01*
X53805938Y-49261294D01*
X53805809Y-49260861D01*
X53804264Y-49261356D01*
X53804411Y-49261783D01*
X53798225Y-49263906D01*
X53753158Y-49288295D01*
X53707120Y-49310800D01*
X53701795Y-49314603D01*
X53701532Y-49314235D01*
X53700232Y-49315204D01*
X53700510Y-49315561D01*
X53695343Y-49319582D01*
X53662701Y-49355042D01*
X53660645Y-49357275D01*
X53091558Y-49926362D01*
X53042583Y-49949200D01*
X53035698Y-49949501D01*
X51597145Y-49949501D01*
X51546365Y-49931019D01*
X51541284Y-49926362D01*
X50998578Y-49383657D01*
X50988302Y-49371004D01*
X50980676Y-49359331D01*
X50980674Y-49359329D01*
X50953630Y-49338280D01*
X50949958Y-49335037D01*
X50946548Y-49331627D01*
X50946546Y-49331625D01*
X50928800Y-49318955D01*
X50915321Y-49308464D01*
X50888363Y-49287481D01*
X50882608Y-49284367D01*
X50882823Y-49283969D01*
X50881382Y-49283227D01*
X50881184Y-49283634D01*
X50875303Y-49280758D01*
X50826193Y-49266138D01*
X50812263Y-49261356D01*
X50777727Y-49249500D01*
X50777726Y-49249500D01*
X50777723Y-49249499D01*
X50771269Y-49248422D01*
X50771343Y-49247974D01*
X50769746Y-49247741D01*
X50769690Y-49248193D01*
X50763193Y-49247383D01*
X50712008Y-49249500D01*
X48081531Y-49249500D01*
X48030751Y-49231018D01*
X48005732Y-49192759D01*
X48004420Y-49188293D01*
X48004419Y-49188291D01*
X48004419Y-49188289D01*
X47944631Y-49057373D01*
X47850382Y-48948603D01*
X47729307Y-48870793D01*
X47591215Y-48830246D01*
X47447293Y-48830246D01*
X47447292Y-48830246D01*
X47437093Y-48833240D01*
X47383163Y-48829808D01*
X47358981Y-48813299D01*
X47348638Y-48802956D01*
X47325800Y-48753980D01*
X47325499Y-48747117D01*
X47325499Y-47694541D01*
X47327181Y-47678326D01*
X47327957Y-47674625D01*
X47330042Y-47664685D01*
X47325803Y-47630684D01*
X47325500Y-47625794D01*
X47325500Y-47620963D01*
X47325499Y-47620955D01*
X47321910Y-47599448D01*
X47321007Y-47592208D01*
X47315573Y-47548607D01*
X47315571Y-47548604D01*
X47313706Y-47542337D01*
X47314144Y-47542206D01*
X47313650Y-47540665D01*
X47313218Y-47540814D01*
X47311092Y-47534624D01*
X47311092Y-47534619D01*
X47286704Y-47489555D01*
X47279694Y-47475215D01*
X47264200Y-47443519D01*
X47260393Y-47438187D01*
X47260762Y-47437923D01*
X47259795Y-47436626D01*
X47259437Y-47436906D01*
X47255419Y-47431743D01*
X47217724Y-47397042D01*
X47014228Y-47193546D01*
X46804334Y-46983652D01*
X46794063Y-46971004D01*
X46786437Y-46959331D01*
X46786435Y-46959329D01*
X46759391Y-46938280D01*
X46755719Y-46935037D01*
X46752309Y-46931627D01*
X46752307Y-46931625D01*
X46734561Y-46918955D01*
X46713182Y-46902315D01*
X46694124Y-46887481D01*
X46688369Y-46884367D01*
X46688584Y-46883969D01*
X46687143Y-46883227D01*
X46686945Y-46883634D01*
X46681064Y-46880758D01*
X46631954Y-46866138D01*
X46618024Y-46861356D01*
X46583488Y-46849500D01*
X46583487Y-46849500D01*
X46583484Y-46849499D01*
X46577030Y-46848422D01*
X46577104Y-46847974D01*
X46575507Y-46847741D01*
X46575451Y-46848193D01*
X46568954Y-46847383D01*
X46517769Y-46849500D01*
X42069541Y-46849500D01*
X42053330Y-46847819D01*
X42039687Y-46844958D01*
X42039680Y-46844958D01*
X42005685Y-46849196D01*
X42000794Y-46849500D01*
X41995950Y-46849500D01*
X41976404Y-46852762D01*
X41974449Y-46853089D01*
X41970552Y-46853574D01*
X41923611Y-46859425D01*
X41917336Y-46861294D01*
X41917207Y-46860861D01*
X41915661Y-46861356D01*
X41915808Y-46861783D01*
X41909622Y-46863906D01*
X41864555Y-46888295D01*
X41818517Y-46910800D01*
X41813192Y-46914603D01*
X41812929Y-46914235D01*
X41811629Y-46915204D01*
X41811907Y-46915561D01*
X41806740Y-46919582D01*
X41772041Y-46957275D01*
X41772042Y-46957275D01*
X40934136Y-47795182D01*
X40102957Y-48626361D01*
X40053981Y-48649199D01*
X40047096Y-48649500D01*
X39462424Y-48649500D01*
X39411644Y-48631018D01*
X39384624Y-48584218D01*
X39394008Y-48531000D01*
X39401356Y-48520383D01*
X39402296Y-48519238D01*
X39527685Y-48366450D01*
X39625232Y-48183954D01*
X39683533Y-47991756D01*
X39703266Y-47958836D01*
X42338463Y-45323638D01*
X42387440Y-45300801D01*
X42394325Y-45300500D01*
X51815500Y-45300500D01*
X51866280Y-45318982D01*
G37*
G04 #@! TD.AperFunction*
G04 #@! TA.AperFunction,Conductor*
G36*
X55140267Y-36818982D02*
G01*
X55167287Y-36865782D01*
X55161085Y-36912887D01*
X55141966Y-36953888D01*
X55103755Y-36992099D01*
X55070368Y-36999501D01*
X55028039Y-36999501D01*
X54889947Y-37040048D01*
X54889946Y-37040048D01*
X54768871Y-37117858D01*
X54674622Y-37226628D01*
X54614834Y-37357545D01*
X54594353Y-37500001D01*
X54614834Y-37642456D01*
X54674622Y-37773373D01*
X54674623Y-37773374D01*
X54768872Y-37882144D01*
X54801398Y-37903047D01*
X54853212Y-37936346D01*
X54885938Y-37979349D01*
X54883367Y-38033326D01*
X54866362Y-38058665D01*
X54748666Y-38176362D01*
X54699692Y-38199200D01*
X54692806Y-38199501D01*
X54578039Y-38199501D01*
X54439947Y-38240048D01*
X54439946Y-38240048D01*
X54318871Y-38317858D01*
X54224622Y-38426628D01*
X54164834Y-38557545D01*
X54144353Y-38700001D01*
X54164834Y-38842456D01*
X54224622Y-38973373D01*
X54276447Y-39033182D01*
X54318872Y-39082144D01*
X54439947Y-39159954D01*
X54556322Y-39194124D01*
X54599839Y-39226164D01*
X54612579Y-39278680D01*
X54589927Y-39325785D01*
X54550910Y-39364803D01*
X54547605Y-39367756D01*
X54516030Y-39392937D01*
X54482519Y-39442089D01*
X54447210Y-39489931D01*
X54444441Y-39495170D01*
X54444330Y-39495111D01*
X54441983Y-39499761D01*
X54442095Y-39499815D01*
X54439525Y-39505151D01*
X54421992Y-39561995D01*
X54402353Y-39618121D01*
X54401253Y-39623934D01*
X54401132Y-39623911D01*
X54400260Y-39629042D01*
X54400382Y-39629061D01*
X54399500Y-39634916D01*
X54399500Y-39694391D01*
X54397276Y-39753828D01*
X54397939Y-39759709D01*
X54397814Y-39759723D01*
X54399500Y-39772527D01*
X54399500Y-41790500D01*
X54381018Y-41841280D01*
X54334218Y-41868300D01*
X54320500Y-41869500D01*
X53342811Y-41869500D01*
X53283163Y-41878348D01*
X53283157Y-41878349D01*
X53239269Y-41891662D01*
X53239261Y-41891665D01*
X53184749Y-41917447D01*
X53178407Y-41921686D01*
X53134516Y-41935000D01*
X52174516Y-41935000D01*
X52165558Y-41935391D01*
X52147372Y-41936982D01*
X52062533Y-41963731D01*
X52062526Y-41963734D01*
X52015737Y-41990748D01*
X52015731Y-41990752D01*
X51974991Y-42021611D01*
X51925374Y-42098435D01*
X51906893Y-42149213D01*
X51894500Y-42219496D01*
X51894500Y-44320500D01*
X51876018Y-44371280D01*
X51829218Y-44398300D01*
X51815500Y-44399500D01*
X44266974Y-44399500D01*
X44216194Y-44381018D01*
X44189174Y-44334218D01*
X44189492Y-44305088D01*
X44197512Y-44264768D01*
X44200500Y-44249748D01*
X44200500Y-43150252D01*
X44188867Y-43091769D01*
X44144552Y-43025448D01*
X44078231Y-42981133D01*
X44078230Y-42981132D01*
X44078231Y-42981132D01*
X44019748Y-42969500D01*
X42920252Y-42969500D01*
X42861769Y-42981132D01*
X42795448Y-43025448D01*
X42751132Y-43091769D01*
X42741210Y-43141653D01*
X42739500Y-43150252D01*
X42739500Y-44249748D01*
X42742488Y-44264768D01*
X42750508Y-44305088D01*
X42742287Y-44358498D01*
X42701659Y-44394129D01*
X42673026Y-44399500D01*
X42202518Y-44399500D01*
X42198092Y-44399251D01*
X42157969Y-44394730D01*
X42157964Y-44394730D01*
X42132752Y-44399500D01*
X42099511Y-44405789D01*
X42040713Y-44414652D01*
X42040711Y-44414652D01*
X42040709Y-44414653D01*
X42035055Y-44416397D01*
X42035018Y-44416279D01*
X42030075Y-44417905D01*
X42030116Y-44418020D01*
X42024530Y-44419974D01*
X41971926Y-44447777D01*
X41918363Y-44473571D01*
X41913471Y-44476907D01*
X41913401Y-44476805D01*
X41909149Y-44479823D01*
X41909222Y-44479922D01*
X41904460Y-44483436D01*
X41862413Y-44525483D01*
X41818803Y-44565946D01*
X41815117Y-44570570D01*
X41815020Y-44570492D01*
X41807154Y-44580741D01*
X39423914Y-46963981D01*
X39374938Y-46986819D01*
X39322740Y-46972833D01*
X39317936Y-46969188D01*
X39236453Y-46902317D01*
X39236451Y-46902316D01*
X39236450Y-46902315D01*
X39053954Y-46804768D01*
X39053951Y-46804767D01*
X39053945Y-46804764D01*
X38855938Y-46744701D01*
X38855936Y-46744700D01*
X38855934Y-46744700D01*
X38650000Y-46724417D01*
X38649999Y-46724417D01*
X38616529Y-46727713D01*
X38444066Y-46744700D01*
X38444063Y-46744700D01*
X38444061Y-46744701D01*
X38246054Y-46804764D01*
X38246048Y-46804767D01*
X38063546Y-46902317D01*
X37903589Y-47033589D01*
X37772317Y-47193546D01*
X37674767Y-47376048D01*
X37674764Y-47376054D01*
X37614701Y-47574061D01*
X37614700Y-47574063D01*
X37614700Y-47574066D01*
X37594417Y-47780000D01*
X37614700Y-47985934D01*
X37614700Y-47985936D01*
X37614701Y-47985938D01*
X37674764Y-48183945D01*
X37674767Y-48183951D01*
X37674768Y-48183954D01*
X37760920Y-48345131D01*
X37772317Y-48366453D01*
X37903591Y-48526412D01*
X37973262Y-48583588D01*
X38000791Y-48630089D01*
X37991989Y-48683407D01*
X37969055Y-48708947D01*
X37961140Y-48714599D01*
X37960877Y-48714231D01*
X37959572Y-48715204D01*
X37959850Y-48715561D01*
X37954683Y-48719582D01*
X37919985Y-48757275D01*
X36935361Y-49741898D01*
X36886385Y-49764736D01*
X36834187Y-49750750D01*
X36803192Y-49706484D01*
X36800500Y-49686037D01*
X36800500Y-45240000D01*
X37594417Y-45240000D01*
X37614700Y-45445934D01*
X37614700Y-45445936D01*
X37614701Y-45445938D01*
X37674764Y-45643945D01*
X37674767Y-45643951D01*
X37674768Y-45643954D01*
X37739888Y-45765783D01*
X37772317Y-45826453D01*
X37903589Y-45986410D01*
X38018483Y-46080700D01*
X38063550Y-46117685D01*
X38246046Y-46215232D01*
X38246051Y-46215233D01*
X38246054Y-46215235D01*
X38353488Y-46247823D01*
X38444066Y-46275300D01*
X38650000Y-46295583D01*
X38855934Y-46275300D01*
X39020105Y-46225500D01*
X39053945Y-46215235D01*
X39053946Y-46215234D01*
X39053954Y-46215232D01*
X39236450Y-46117685D01*
X39396410Y-45986410D01*
X39527685Y-45826450D01*
X39625232Y-45643954D01*
X39627608Y-45636123D01*
X39675632Y-45477804D01*
X39685300Y-45445934D01*
X39705583Y-45240000D01*
X39685300Y-45034066D01*
X39651800Y-44923630D01*
X39625235Y-44836054D01*
X39625233Y-44836051D01*
X39625232Y-44836046D01*
X39527685Y-44653550D01*
X39500689Y-44620655D01*
X39396410Y-44493589D01*
X39236453Y-44362317D01*
X39236451Y-44362316D01*
X39236450Y-44362315D01*
X39053954Y-44264768D01*
X39053951Y-44264767D01*
X39053945Y-44264764D01*
X38855938Y-44204701D01*
X38855936Y-44204700D01*
X38855934Y-44204700D01*
X38650000Y-44184417D01*
X38649999Y-44184417D01*
X38616529Y-44187713D01*
X38444066Y-44204700D01*
X38444063Y-44204700D01*
X38444061Y-44204701D01*
X38246054Y-44264764D01*
X38246048Y-44264767D01*
X38063546Y-44362317D01*
X37903589Y-44493589D01*
X37772317Y-44653546D01*
X37674767Y-44836048D01*
X37674764Y-44836054D01*
X37614701Y-45034061D01*
X37614700Y-45034063D01*
X37614700Y-45034066D01*
X37594417Y-45240000D01*
X36800500Y-45240000D01*
X36800500Y-43569747D01*
X37599500Y-43569747D01*
X37611132Y-43628230D01*
X37611133Y-43628231D01*
X37655448Y-43694552D01*
X37721769Y-43738867D01*
X37721768Y-43738867D01*
X37780252Y-43750500D01*
X39519748Y-43750500D01*
X39578231Y-43738867D01*
X39644552Y-43694552D01*
X39688867Y-43628231D01*
X39700500Y-43569748D01*
X39700500Y-41959748D01*
X42739500Y-41959748D01*
X42740293Y-41963734D01*
X42751132Y-42018230D01*
X42751133Y-42018231D01*
X42795448Y-42084552D01*
X42861769Y-42128867D01*
X42861768Y-42128867D01*
X42920252Y-42140500D01*
X44019748Y-42140500D01*
X44078231Y-42128867D01*
X44144552Y-42084552D01*
X44188867Y-42018231D01*
X44200500Y-41959748D01*
X44200500Y-40860252D01*
X44188867Y-40801769D01*
X44144552Y-40735448D01*
X44078231Y-40691133D01*
X44078230Y-40691132D01*
X44078231Y-40691132D01*
X44019748Y-40679500D01*
X42920252Y-40679500D01*
X42861769Y-40691132D01*
X42795448Y-40735448D01*
X42751132Y-40801769D01*
X42739500Y-40860252D01*
X42739500Y-41959748D01*
X39700500Y-41959748D01*
X39700500Y-41830252D01*
X39688867Y-41771769D01*
X39644552Y-41705448D01*
X39578231Y-41661133D01*
X39578230Y-41661132D01*
X39578231Y-41661132D01*
X39519748Y-41649500D01*
X37780252Y-41649500D01*
X37721769Y-41661132D01*
X37655448Y-41705448D01*
X37611132Y-41771769D01*
X37599500Y-41830252D01*
X37599500Y-43569747D01*
X36800500Y-43569747D01*
X36800500Y-38687586D01*
X36800543Y-38686292D01*
X37280992Y-38686292D01*
X37300158Y-38917597D01*
X37357135Y-39142592D01*
X37357137Y-39142597D01*
X37357138Y-39142600D01*
X37445526Y-39344103D01*
X37450368Y-39355141D01*
X37577313Y-39549445D01*
X37734501Y-39720198D01*
X37734504Y-39720200D01*
X37734508Y-39720205D01*
X37917666Y-39862762D01*
X38012510Y-39914089D01*
X38121786Y-39973227D01*
X38121789Y-39973228D01*
X38341311Y-40048590D01*
X38570243Y-40086792D01*
X38570248Y-40086792D01*
X38802335Y-40086792D01*
X38802341Y-40086792D01*
X39031273Y-40048590D01*
X39250795Y-39973228D01*
X39454918Y-39862762D01*
X39638076Y-39720205D01*
X39684526Y-39669747D01*
X42739500Y-39669747D01*
X42751132Y-39728230D01*
X42756281Y-39735936D01*
X42795448Y-39794552D01*
X42861769Y-39838867D01*
X42861768Y-39838867D01*
X42920252Y-39850500D01*
X44019748Y-39850500D01*
X44078231Y-39838867D01*
X44144552Y-39794552D01*
X44188867Y-39728231D01*
X44200500Y-39669748D01*
X44200500Y-39669747D01*
X45029500Y-39669747D01*
X45041132Y-39728230D01*
X45046281Y-39735936D01*
X45085448Y-39794552D01*
X45151769Y-39838867D01*
X45151768Y-39838867D01*
X45210252Y-39850500D01*
X46309748Y-39850500D01*
X46368231Y-39838867D01*
X46434552Y-39794552D01*
X46478867Y-39728231D01*
X46490500Y-39669748D01*
X46490500Y-39669747D01*
X51899500Y-39669747D01*
X51911132Y-39728230D01*
X51916281Y-39735936D01*
X51955448Y-39794552D01*
X52021769Y-39838867D01*
X52021768Y-39838867D01*
X52080252Y-39850500D01*
X53179748Y-39850500D01*
X53238231Y-39838867D01*
X53304552Y-39794552D01*
X53348867Y-39728231D01*
X53360500Y-39669748D01*
X53360500Y-38570252D01*
X53348867Y-38511769D01*
X53304552Y-38445448D01*
X53238231Y-38401133D01*
X53238230Y-38401132D01*
X53238231Y-38401132D01*
X53179748Y-38389500D01*
X52080252Y-38389500D01*
X52021769Y-38401132D01*
X51955448Y-38445448D01*
X51911132Y-38511769D01*
X51899500Y-38570252D01*
X51899500Y-39669747D01*
X46490500Y-39669747D01*
X46490500Y-38570252D01*
X46478867Y-38511769D01*
X46434552Y-38445448D01*
X46368231Y-38401133D01*
X46368230Y-38401132D01*
X46368231Y-38401132D01*
X46309748Y-38389500D01*
X45210252Y-38389500D01*
X45151769Y-38401132D01*
X45085448Y-38445448D01*
X45041132Y-38511769D01*
X45029500Y-38570252D01*
X45029500Y-39669747D01*
X44200500Y-39669747D01*
X44200500Y-38570252D01*
X44188867Y-38511769D01*
X44144552Y-38445448D01*
X44078231Y-38401133D01*
X44078230Y-38401132D01*
X44078231Y-38401132D01*
X44019748Y-38389500D01*
X42920252Y-38389500D01*
X42861769Y-38401132D01*
X42795448Y-38445448D01*
X42751132Y-38511769D01*
X42739500Y-38570252D01*
X42739500Y-39669747D01*
X39684526Y-39669747D01*
X39795271Y-39549445D01*
X39922216Y-39355141D01*
X40015449Y-39142592D01*
X40072426Y-38917597D01*
X40091592Y-38686292D01*
X40091325Y-38683075D01*
X40086436Y-38624066D01*
X40072426Y-38454987D01*
X40015449Y-38229992D01*
X39922216Y-38017443D01*
X39795271Y-37823139D01*
X39700739Y-37720449D01*
X39638082Y-37652385D01*
X39638079Y-37652382D01*
X39638076Y-37652379D01*
X39454918Y-37509822D01*
X39431140Y-37496954D01*
X39250797Y-37399356D01*
X39031275Y-37323994D01*
X38965863Y-37313079D01*
X38802341Y-37285792D01*
X38570243Y-37285792D01*
X38427160Y-37309668D01*
X38341308Y-37323994D01*
X38121786Y-37399356D01*
X37917667Y-37509821D01*
X37917665Y-37509822D01*
X37734511Y-37652376D01*
X37734501Y-37652385D01*
X37577313Y-37823138D01*
X37577313Y-37823139D01*
X37450366Y-38017446D01*
X37450365Y-38017448D01*
X37357138Y-38229983D01*
X37357136Y-38229988D01*
X37357135Y-38229992D01*
X37316742Y-38389500D01*
X37300158Y-38454987D01*
X37281259Y-38683075D01*
X37280992Y-38686292D01*
X36800543Y-38686292D01*
X36800585Y-38685002D01*
X36810360Y-38535868D01*
X36816465Y-38442722D01*
X36817136Y-38437619D01*
X36864252Y-38200754D01*
X36865587Y-38195772D01*
X36943219Y-37967076D01*
X36945189Y-37962318D01*
X37052006Y-37745716D01*
X37054581Y-37741254D01*
X37188759Y-37540445D01*
X37191890Y-37536364D01*
X37351148Y-37354764D01*
X37354764Y-37351148D01*
X37536364Y-37191890D01*
X37540445Y-37188759D01*
X37741254Y-37054581D01*
X37745716Y-37052006D01*
X37962318Y-36945189D01*
X37967076Y-36943219D01*
X38195772Y-36865587D01*
X38200754Y-36864253D01*
X38219827Y-36860459D01*
X38437619Y-36817136D01*
X38442722Y-36816465D01*
X38569047Y-36808185D01*
X38685005Y-36800585D01*
X38687589Y-36800500D01*
X38733888Y-36800500D01*
X55089487Y-36800500D01*
X55140267Y-36818982D01*
G37*
G04 #@! TD.AperFunction*
G04 #@! TA.AperFunction,Conductor*
G36*
X57878312Y-42633200D02*
G01*
X57904133Y-42640781D01*
X57937908Y-42650698D01*
X57958359Y-42660038D01*
X58010614Y-42693620D01*
X58027608Y-42708345D01*
X58068283Y-42755286D01*
X58080440Y-42774202D01*
X58106243Y-42830703D01*
X58112578Y-42852278D01*
X58121417Y-42913756D01*
X58121417Y-42936242D01*
X58112578Y-42997720D01*
X58106243Y-43019295D01*
X58080440Y-43075796D01*
X58068283Y-43094712D01*
X58027608Y-43141653D01*
X58010615Y-43156378D01*
X57975687Y-43178825D01*
X57975688Y-43178825D01*
X57950978Y-43197476D01*
X57950979Y-43197476D01*
X57933181Y-43213147D01*
X57925496Y-43220268D01*
X57875874Y-43297096D01*
X57875873Y-43297098D01*
X57857393Y-43347870D01*
X57844999Y-43418156D01*
X57844999Y-43418159D01*
X57844999Y-43650609D01*
X57845391Y-43659576D01*
X57846983Y-43677763D01*
X57873741Y-43762605D01*
X57900765Y-43809402D01*
X57900767Y-43809405D01*
X57900770Y-43809410D01*
X57931622Y-43850133D01*
X57931624Y-43850135D01*
X57931626Y-43850137D01*
X58008456Y-43899749D01*
X58059238Y-43918227D01*
X58129524Y-43930614D01*
X59190494Y-43930522D01*
X59241274Y-43949000D01*
X59268298Y-43995797D01*
X59269499Y-44009522D01*
X59269499Y-45066818D01*
X59251017Y-45117598D01*
X59204217Y-45144618D01*
X59161954Y-45140481D01*
X59160935Y-45140086D01*
X59160934Y-45140085D01*
X59149599Y-45135693D01*
X59133500Y-45127207D01*
X59123481Y-45120344D01*
X59091781Y-45112888D01*
X59086550Y-45111268D01*
X59056176Y-45099501D01*
X59056174Y-45099501D01*
X59044028Y-45099501D01*
X59025941Y-45097402D01*
X59021258Y-45096300D01*
X59014119Y-45094621D01*
X58992726Y-45097606D01*
X58981857Y-45099122D01*
X58976402Y-45099501D01*
X57429500Y-45099501D01*
X57378720Y-45081019D01*
X57351700Y-45034219D01*
X57350500Y-45020501D01*
X57350500Y-44853311D01*
X57350500Y-44666097D01*
X57350632Y-44662890D01*
X57354132Y-44620656D01*
X57352917Y-44615861D01*
X57350500Y-44596472D01*
X57350500Y-44213368D01*
X57338344Y-44152257D01*
X57292041Y-44082959D01*
X57292040Y-44082958D01*
X57275034Y-44071595D01*
X57243081Y-44028015D01*
X57246616Y-43974092D01*
X57283985Y-43935057D01*
X57298105Y-43930265D01*
X57298022Y-43930000D01*
X57307670Y-43926957D01*
X57386968Y-43901954D01*
X57433768Y-43874934D01*
X57474507Y-43844076D01*
X57524125Y-43767250D01*
X57542607Y-43716470D01*
X57555000Y-43646186D01*
X57555000Y-43443818D01*
X57554609Y-43434859D01*
X57553018Y-43416675D01*
X57526268Y-43331833D01*
X57499248Y-43285033D01*
X57499247Y-43285031D01*
X57486672Y-43268430D01*
X57470744Y-43216792D01*
X57472162Y-43205324D01*
X57475500Y-43188549D01*
X57475500Y-42788589D01*
X57493981Y-42737812D01*
X57540781Y-42710792D01*
X57554678Y-42709592D01*
X57557404Y-42709599D01*
X57562957Y-42708345D01*
X57610109Y-42697697D01*
X57610111Y-42697696D01*
X57610116Y-42697695D01*
X57675948Y-42670122D01*
X57691637Y-42660038D01*
X57712090Y-42650697D01*
X57748444Y-42640024D01*
X57771687Y-42633200D01*
X57793942Y-42630000D01*
X57856056Y-42630000D01*
X57878312Y-42633200D01*
G37*
G04 #@! TD.AperFunction*
G04 #@! TA.AperFunction,Conductor*
G36*
X55531712Y-39707862D02*
G01*
X55536768Y-39708867D01*
X55536769Y-39708868D01*
X55595252Y-39720501D01*
X56543139Y-39720501D01*
X56593919Y-39738983D01*
X56620939Y-39785783D01*
X56614737Y-39832888D01*
X56570932Y-39926825D01*
X56570932Y-39926827D01*
X56564499Y-39975682D01*
X56564499Y-40424319D01*
X56570932Y-40473174D01*
X56570932Y-40473176D01*
X56620935Y-40580405D01*
X56620937Y-40580408D01*
X56704592Y-40664063D01*
X56704595Y-40664065D01*
X56704596Y-40664066D01*
X56811827Y-40714069D01*
X56847817Y-40718807D01*
X56860682Y-40720501D01*
X56860684Y-40720501D01*
X57088453Y-40720501D01*
X57139233Y-40738983D01*
X57166253Y-40785783D01*
X57156869Y-40839001D01*
X57115473Y-40873737D01*
X57112208Y-40874845D01*
X57038034Y-40898231D01*
X57038027Y-40898234D01*
X56991238Y-40925248D01*
X56991232Y-40925252D01*
X56950492Y-40956111D01*
X56900875Y-41032935D01*
X56882394Y-41083713D01*
X56870001Y-41153996D01*
X56870001Y-41776134D01*
X56851519Y-41826914D01*
X56831246Y-41844114D01*
X56819584Y-41851018D01*
X56794745Y-41865722D01*
X56741632Y-41875685D01*
X56694541Y-41849176D01*
X56675507Y-41798600D01*
X56675502Y-41797740D01*
X56675502Y-41202853D01*
X56663869Y-41144370D01*
X56663869Y-41144369D01*
X56619554Y-41078049D01*
X56553233Y-41033734D01*
X56553232Y-41033733D01*
X56553233Y-41033733D01*
X56494750Y-41022101D01*
X56255254Y-41022101D01*
X56196771Y-41033733D01*
X56130450Y-41078049D01*
X56086134Y-41144370D01*
X56074502Y-41202853D01*
X56074502Y-41790500D01*
X56056020Y-41841280D01*
X56009220Y-41868300D01*
X55995502Y-41869500D01*
X55379500Y-41869500D01*
X55328720Y-41851018D01*
X55301700Y-41804218D01*
X55300500Y-41790500D01*
X55300500Y-39922144D01*
X55318982Y-39871364D01*
X55323639Y-39866283D01*
X55460439Y-39729483D01*
X55509415Y-39706645D01*
X55531712Y-39707862D01*
G37*
G04 #@! TD.AperFunction*
G04 #@! TA.AperFunction,Conductor*
G36*
X61314995Y-36800585D02*
G01*
X61437633Y-36808622D01*
X61557275Y-36816465D01*
X61562382Y-36817137D01*
X61746086Y-36853678D01*
X61799245Y-36864253D01*
X61804231Y-36865588D01*
X62032918Y-36943217D01*
X62037686Y-36945192D01*
X62081559Y-36966828D01*
X62254278Y-37052004D01*
X62258751Y-37054586D01*
X62353444Y-37117858D01*
X62459549Y-37188756D01*
X62463642Y-37191896D01*
X62645227Y-37351141D01*
X62648858Y-37354772D01*
X62808101Y-37536354D01*
X62811243Y-37540450D01*
X62945409Y-37741241D01*
X62947995Y-37745721D01*
X63054806Y-37962311D01*
X63056785Y-37967089D01*
X63134408Y-38195758D01*
X63135746Y-38200754D01*
X63182860Y-38437604D01*
X63183535Y-38442732D01*
X63199415Y-38685002D01*
X63199500Y-38687586D01*
X63199500Y-40790500D01*
X63181018Y-40841280D01*
X63134218Y-40868300D01*
X63120500Y-40869500D01*
X60521655Y-40869500D01*
X60489190Y-40872081D01*
X60464540Y-40876025D01*
X60452642Y-40878290D01*
X60391631Y-40907161D01*
X60337825Y-40912174D01*
X60298136Y-40887486D01*
X60290167Y-40878290D01*
X60281128Y-40867858D01*
X60160053Y-40790048D01*
X60021961Y-40749501D01*
X59878039Y-40749501D01*
X59739947Y-40790048D01*
X59739942Y-40790050D01*
X59666949Y-40836960D01*
X59624239Y-40849501D01*
X58182193Y-40849501D01*
X58131413Y-40831019D01*
X58126332Y-40826362D01*
X57528638Y-40228669D01*
X57505800Y-40179693D01*
X57505499Y-40172808D01*
X57505500Y-39975685D01*
X57499068Y-39926828D01*
X57449065Y-39819597D01*
X57449064Y-39819596D01*
X57449062Y-39819593D01*
X57429192Y-39799723D01*
X57406354Y-39750747D01*
X57420340Y-39698549D01*
X57441160Y-39678178D01*
X57461552Y-39664553D01*
X57505867Y-39598232D01*
X57517500Y-39539749D01*
X57517499Y-39379499D01*
X57535982Y-39328720D01*
X57582782Y-39301700D01*
X57596500Y-39300500D01*
X57721960Y-39300500D01*
X57721961Y-39300500D01*
X57860053Y-39259953D01*
X57981128Y-39182143D01*
X58075377Y-39073373D01*
X58135165Y-38942457D01*
X58155647Y-38800000D01*
X58147127Y-38740742D01*
X58158195Y-38687850D01*
X58160176Y-38686292D01*
X59908408Y-38686292D01*
X59927574Y-38917597D01*
X59984551Y-39142592D01*
X59984553Y-39142597D01*
X59984554Y-39142600D01*
X60072942Y-39344103D01*
X60077784Y-39355141D01*
X60204729Y-39549445D01*
X60361917Y-39720198D01*
X60361920Y-39720200D01*
X60361924Y-39720205D01*
X60545082Y-39862762D01*
X60639926Y-39914089D01*
X60749202Y-39973227D01*
X60749205Y-39973228D01*
X60968727Y-40048590D01*
X61197659Y-40086792D01*
X61197664Y-40086792D01*
X61429751Y-40086792D01*
X61429757Y-40086792D01*
X61658689Y-40048590D01*
X61878211Y-39973228D01*
X62082334Y-39862762D01*
X62265492Y-39720205D01*
X62422687Y-39549445D01*
X62549632Y-39355141D01*
X62642865Y-39142592D01*
X62699842Y-38917597D01*
X62719008Y-38686292D01*
X62718741Y-38683075D01*
X62713852Y-38624066D01*
X62699842Y-38454987D01*
X62642865Y-38229992D01*
X62549632Y-38017443D01*
X62422687Y-37823139D01*
X62328155Y-37720449D01*
X62265498Y-37652385D01*
X62265495Y-37652382D01*
X62265492Y-37652379D01*
X62082334Y-37509822D01*
X62058556Y-37496954D01*
X61878213Y-37399356D01*
X61658691Y-37323994D01*
X61593279Y-37313079D01*
X61429757Y-37285792D01*
X61197659Y-37285792D01*
X61054576Y-37309668D01*
X60968724Y-37323994D01*
X60749202Y-37399356D01*
X60545083Y-37509821D01*
X60545081Y-37509822D01*
X60361927Y-37652376D01*
X60361917Y-37652385D01*
X60204729Y-37823138D01*
X60204729Y-37823139D01*
X60077782Y-38017446D01*
X60077781Y-38017448D01*
X59984554Y-38229983D01*
X59984552Y-38229988D01*
X59984551Y-38229992D01*
X59944158Y-38389500D01*
X59927574Y-38454987D01*
X59908675Y-38683075D01*
X59908408Y-38686292D01*
X58160176Y-38686292D01*
X58200672Y-38654445D01*
X58225323Y-38650501D01*
X58533256Y-38650501D01*
X58533260Y-38650501D01*
X58601393Y-38640574D01*
X58706483Y-38589199D01*
X58789198Y-38506484D01*
X58840573Y-38401394D01*
X58850500Y-38333261D01*
X58850500Y-37066741D01*
X58840573Y-36998608D01*
X58799306Y-36914196D01*
X58793609Y-36860459D01*
X58823786Y-36815630D01*
X58870280Y-36800500D01*
X61266112Y-36800500D01*
X61312411Y-36800500D01*
X61314995Y-36800585D01*
G37*
G04 #@! TD.AperFunction*
G04 #@! TA.AperFunction,Conductor*
G36*
X51371780Y-58118483D02*
G01*
X51398800Y-58165283D01*
X51400000Y-58179001D01*
X51399999Y-61826384D01*
X51381516Y-61877164D01*
X51334717Y-61904184D01*
X51320844Y-61905384D01*
X51307386Y-61905357D01*
X51307385Y-61905357D01*
X51249083Y-61913680D01*
X51249080Y-61913681D01*
X51153311Y-61941801D01*
X51131055Y-61945001D01*
X51068946Y-61945001D01*
X51046689Y-61941801D01*
X50948072Y-61912844D01*
X50948073Y-61912844D01*
X50899150Y-61905760D01*
X50890587Y-61904520D01*
X50467439Y-61903670D01*
X49621145Y-61901972D01*
X49621142Y-61901972D01*
X49565285Y-61909592D01*
X49389047Y-61958971D01*
X49383764Y-61960068D01*
X49132297Y-61994633D01*
X49126920Y-61995001D01*
X48873083Y-61995001D01*
X48867707Y-61994633D01*
X48616240Y-61960069D01*
X48610958Y-61958972D01*
X48425749Y-61907080D01*
X48425734Y-61907077D01*
X48370722Y-61899460D01*
X48370729Y-61899460D01*
X47629168Y-61897971D01*
X47022446Y-61896754D01*
X47022445Y-61896754D01*
X47022437Y-61896754D01*
X46996942Y-61898291D01*
X46996940Y-61898291D01*
X46978355Y-61905009D01*
X46976057Y-61905760D01*
X46853313Y-61941801D01*
X46831056Y-61945001D01*
X46768944Y-61945001D01*
X46746687Y-61941801D01*
X46723169Y-61934895D01*
X46681245Y-61922585D01*
X46671132Y-61918330D01*
X46666106Y-61916388D01*
X46576979Y-61895856D01*
X46572578Y-61895352D01*
X46572773Y-61893645D01*
X46528079Y-61877260D01*
X46501168Y-61830398D01*
X46500000Y-61816861D01*
X46500000Y-58179001D01*
X46518482Y-58128221D01*
X46565282Y-58101201D01*
X46579000Y-58100001D01*
X51321000Y-58100001D01*
X51371780Y-58118483D01*
G37*
G04 #@! TD.AperFunction*
G04 #@! TA.AperFunction,Conductor*
G36*
X56446780Y-42093482D02*
G01*
X56473800Y-42140282D01*
X56475000Y-42154000D01*
X56475000Y-42537248D01*
X56474810Y-42541123D01*
X56474501Y-42544255D01*
X56474501Y-43095501D01*
X56456019Y-43146281D01*
X56409219Y-43173301D01*
X56395501Y-43174501D01*
X56353039Y-43174501D01*
X56214947Y-43215048D01*
X56214946Y-43215048D01*
X56093871Y-43292858D01*
X55999622Y-43401628D01*
X55939834Y-43532545D01*
X55936284Y-43557242D01*
X55910763Y-43604875D01*
X55860595Y-43624960D01*
X55858088Y-43625000D01*
X55350000Y-43625000D01*
X55349999Y-43870501D01*
X55331516Y-43921281D01*
X55284717Y-43948301D01*
X55270999Y-43949501D01*
X55203038Y-43949501D01*
X55064946Y-43990048D01*
X55064945Y-43990048D01*
X54943870Y-44067858D01*
X54849622Y-44176627D01*
X54803723Y-44277130D01*
X54787723Y-44300172D01*
X54625915Y-44461981D01*
X54622610Y-44464934D01*
X54591030Y-44490119D01*
X54557519Y-44539271D01*
X54522210Y-44587113D01*
X54519441Y-44592352D01*
X54519330Y-44592293D01*
X54516983Y-44596943D01*
X54517095Y-44596997D01*
X54514525Y-44602333D01*
X54496992Y-44659177D01*
X54477353Y-44715303D01*
X54476253Y-44721116D01*
X54476132Y-44721093D01*
X54475260Y-44726224D01*
X54475382Y-44726243D01*
X54474500Y-44732098D01*
X54474500Y-44791574D01*
X54472433Y-44846811D01*
X54465350Y-44876672D01*
X54439835Y-44932543D01*
X54439834Y-44932546D01*
X54419353Y-45075001D01*
X54439834Y-45217456D01*
X54439835Y-45217458D01*
X54467361Y-45277731D01*
X54474500Y-45310548D01*
X54474500Y-46533141D01*
X54474251Y-46537567D01*
X54469730Y-46577690D01*
X54469730Y-46577696D01*
X54480788Y-46636140D01*
X54489652Y-46694950D01*
X54491397Y-46700605D01*
X54491277Y-46700641D01*
X54492904Y-46705583D01*
X54493021Y-46705543D01*
X54494976Y-46711132D01*
X54494977Y-46711133D01*
X54522777Y-46763733D01*
X54548575Y-46817303D01*
X54548578Y-46817307D01*
X54551910Y-46822194D01*
X54551806Y-46822264D01*
X54554816Y-46826506D01*
X54554916Y-46826433D01*
X54558432Y-46831196D01*
X54558434Y-46831199D01*
X54600495Y-46873260D01*
X54640945Y-46916855D01*
X54640947Y-46916856D01*
X54645577Y-46920549D01*
X54645499Y-46920646D01*
X54655742Y-46928507D01*
X55034379Y-47307144D01*
X55326861Y-47599625D01*
X55349699Y-47648601D01*
X55350000Y-47655486D01*
X55350000Y-48128719D01*
X55331518Y-48179499D01*
X55284718Y-48206519D01*
X55280774Y-48207112D01*
X55262215Y-48209425D01*
X55255940Y-48211294D01*
X55255811Y-48210861D01*
X55254265Y-48211356D01*
X55254412Y-48211783D01*
X55248223Y-48213907D01*
X55232109Y-48222628D01*
X55178652Y-48230541D01*
X55172253Y-48228949D01*
X55150725Y-48222628D01*
X55071961Y-48199501D01*
X54928039Y-48199501D01*
X54789947Y-48240048D01*
X54789946Y-48240048D01*
X54668871Y-48317858D01*
X54578879Y-48421716D01*
X54531657Y-48447990D01*
X54478595Y-48437763D01*
X54459471Y-48421716D01*
X54456128Y-48417858D01*
X54335053Y-48340048D01*
X54196961Y-48299501D01*
X54053039Y-48299501D01*
X53914947Y-48340048D01*
X53914946Y-48340048D01*
X53793870Y-48417859D01*
X53775872Y-48438630D01*
X53739807Y-48458860D01*
X53740811Y-48461783D01*
X53734622Y-48463907D01*
X53689546Y-48488301D01*
X53643518Y-48510801D01*
X53638193Y-48514604D01*
X53637930Y-48514236D01*
X53636627Y-48515207D01*
X53636905Y-48515564D01*
X53631740Y-48519583D01*
X53597031Y-48557288D01*
X53377457Y-48776861D01*
X53328482Y-48799699D01*
X53321597Y-48800000D01*
X52179000Y-48800000D01*
X52128220Y-48781518D01*
X52101200Y-48734718D01*
X52100000Y-48721000D01*
X52100000Y-42219500D01*
X52118482Y-42168720D01*
X52165282Y-42141700D01*
X52179000Y-42140500D01*
X53179748Y-42140500D01*
X53238231Y-42128867D01*
X53238233Y-42128866D01*
X53273429Y-42105347D01*
X53298920Y-42088314D01*
X53342811Y-42075000D01*
X56396000Y-42075000D01*
X56446780Y-42093482D01*
G37*
G04 #@! TD.AperFunction*
G04 #@! TA.AperFunction,Conductor*
G36*
X57543086Y-41093482D02*
G01*
X57548167Y-41098139D01*
X57768740Y-41318712D01*
X57776031Y-41328843D01*
X57776633Y-41328390D01*
X57781042Y-41334229D01*
X57816760Y-41366791D01*
X57818058Y-41368030D01*
X57832203Y-41382175D01*
X57835704Y-41384573D01*
X57839990Y-41387968D01*
X57864067Y-41409917D01*
X57875392Y-41414304D01*
X57891498Y-41422793D01*
X57901519Y-41429658D01*
X57933229Y-41437116D01*
X57938451Y-41438733D01*
X57968827Y-41450501D01*
X57980970Y-41450501D01*
X57999057Y-41452599D01*
X58010881Y-41455380D01*
X58043143Y-41450879D01*
X58048599Y-41450501D01*
X59440573Y-41450501D01*
X59491353Y-41468983D01*
X59512434Y-41496684D01*
X59524621Y-41523372D01*
X59524623Y-41523374D01*
X59618872Y-41632144D01*
X59739947Y-41709954D01*
X59878039Y-41750501D01*
X60021960Y-41750501D01*
X60021961Y-41750501D01*
X60160053Y-41709954D01*
X60281128Y-41632144D01*
X60375377Y-41523374D01*
X60435165Y-41392458D01*
X60455647Y-41250001D01*
X60443461Y-41165242D01*
X60454529Y-41112349D01*
X60497007Y-41078944D01*
X60521657Y-41075000D01*
X63120500Y-41075000D01*
X63171280Y-41093482D01*
X63198300Y-41140282D01*
X63199500Y-41154000D01*
X63199500Y-47421000D01*
X63181018Y-47471780D01*
X63134218Y-47498800D01*
X63120500Y-47500000D01*
X61028403Y-47500000D01*
X60977623Y-47481518D01*
X60972542Y-47476861D01*
X60829339Y-47333658D01*
X60819063Y-47321005D01*
X60811437Y-47309332D01*
X60811435Y-47309330D01*
X60784390Y-47288280D01*
X60780718Y-47285037D01*
X60766199Y-47270517D01*
X60766192Y-47270512D01*
X59683390Y-46187709D01*
X59660552Y-46138733D01*
X59674538Y-46086535D01*
X59679532Y-46080132D01*
X59750377Y-45998373D01*
X59810165Y-45867457D01*
X59830647Y-45725000D01*
X59810165Y-45582543D01*
X59750377Y-45451627D01*
X59656128Y-45342857D01*
X59535053Y-45265047D01*
X59535050Y-45265046D01*
X59531740Y-45264074D01*
X59488225Y-45232032D01*
X59475000Y-45188275D01*
X59475000Y-44000000D01*
X60219417Y-44000000D01*
X60239700Y-44205934D01*
X60239700Y-44205936D01*
X60239701Y-44205938D01*
X60299764Y-44403945D01*
X60299767Y-44403951D01*
X60299768Y-44403954D01*
X60381549Y-44556954D01*
X60397317Y-44586453D01*
X60528589Y-44746410D01*
X60688546Y-44877682D01*
X60688550Y-44877685D01*
X60871046Y-44975232D01*
X60871051Y-44975233D01*
X60871054Y-44975235D01*
X60978488Y-45007823D01*
X61069066Y-45035300D01*
X61223392Y-45050500D01*
X61223394Y-45050500D01*
X61576606Y-45050500D01*
X61576608Y-45050500D01*
X61730934Y-45035300D01*
X61878360Y-44990579D01*
X61928945Y-44975235D01*
X61928946Y-44975234D01*
X61928954Y-44975232D01*
X62111450Y-44877685D01*
X62271410Y-44746410D01*
X62402685Y-44586450D01*
X62500232Y-44403954D01*
X62560300Y-44205934D01*
X62580583Y-44000000D01*
X62560300Y-43794066D01*
X62530845Y-43696966D01*
X62500235Y-43596054D01*
X62500233Y-43596051D01*
X62500232Y-43596046D01*
X62402685Y-43413550D01*
X62366371Y-43369301D01*
X62271410Y-43253589D01*
X62111453Y-43122317D01*
X62111451Y-43122316D01*
X62111450Y-43122315D01*
X61928954Y-43024768D01*
X61928951Y-43024767D01*
X61928945Y-43024764D01*
X61730938Y-42964701D01*
X61730936Y-42964700D01*
X61730934Y-42964700D01*
X61576608Y-42949500D01*
X61223392Y-42949500D01*
X61069066Y-42964700D01*
X61069063Y-42964700D01*
X61069061Y-42964701D01*
X60871054Y-43024764D01*
X60871048Y-43024767D01*
X60688546Y-43122317D01*
X60528589Y-43253589D01*
X60397317Y-43413546D01*
X60378740Y-43448301D01*
X60301882Y-43592092D01*
X60299767Y-43596048D01*
X60299764Y-43596054D01*
X60239701Y-43794061D01*
X60239700Y-43794063D01*
X60239700Y-43794066D01*
X60219417Y-44000000D01*
X59475000Y-44000000D01*
X59475000Y-43725000D01*
X59474999Y-43724999D01*
X58129506Y-43725114D01*
X58078724Y-43706636D01*
X58051700Y-43659839D01*
X58050499Y-43646122D01*
X58050499Y-43418159D01*
X58068981Y-43367382D01*
X58086785Y-43351706D01*
X58156128Y-43307143D01*
X58250377Y-43198373D01*
X58310165Y-43067457D01*
X58330647Y-42925000D01*
X58310165Y-42782543D01*
X58250377Y-42651627D01*
X58156128Y-42542857D01*
X58035053Y-42465047D01*
X57896961Y-42424500D01*
X57753039Y-42424500D01*
X57614947Y-42465047D01*
X57564848Y-42497243D01*
X57512136Y-42509147D01*
X57464104Y-42484384D01*
X57456452Y-42474673D01*
X57450020Y-42465047D01*
X57419552Y-42419449D01*
X57353231Y-42375134D01*
X57353230Y-42375133D01*
X57353231Y-42375133D01*
X57294748Y-42363501D01*
X57055252Y-42363501D01*
X56990412Y-42376398D01*
X56959586Y-42376398D01*
X56939087Y-42372320D01*
X56892889Y-42344285D01*
X56875501Y-42294838D01*
X56875501Y-42096563D01*
X56893983Y-42045783D01*
X56939090Y-42019081D01*
X56953232Y-42016268D01*
X57019553Y-41971953D01*
X57063868Y-41905632D01*
X57075501Y-41847149D01*
X57075501Y-41202853D01*
X57075501Y-41154000D01*
X57093983Y-41103220D01*
X57140783Y-41076200D01*
X57154501Y-41075000D01*
X57492306Y-41075000D01*
X57543086Y-41093482D01*
G37*
G04 #@! TD.AperFunction*
G04 #@! TA.AperFunction,Conductor*
G36*
X46576572Y-62101358D02*
G01*
X46589947Y-62109954D01*
X46728039Y-62150501D01*
X46871960Y-62150501D01*
X46871961Y-62150501D01*
X47010053Y-62109954D01*
X47022034Y-62102254D01*
X48370306Y-62104960D01*
X48571642Y-62161372D01*
X48571648Y-62161372D01*
X48571649Y-62161373D01*
X48856318Y-62200501D01*
X48856322Y-62200501D01*
X49143682Y-62200501D01*
X49384692Y-62167373D01*
X49428358Y-62161372D01*
X49620731Y-62107472D01*
X50890175Y-62110020D01*
X51028039Y-62150501D01*
X51171960Y-62150501D01*
X51171961Y-62150501D01*
X51306974Y-62110858D01*
X52249469Y-62112749D01*
X52378039Y-62150501D01*
X52521960Y-62150501D01*
X52521961Y-62150501D01*
X52647805Y-62113550D01*
X54665423Y-62117601D01*
X54821642Y-62161372D01*
X54821648Y-62161372D01*
X54821649Y-62161373D01*
X55106318Y-62200501D01*
X55106322Y-62200501D01*
X55393682Y-62200501D01*
X55634692Y-62167373D01*
X55678358Y-62161372D01*
X55826257Y-62119933D01*
X58350000Y-62125001D01*
X58350000Y-62225001D01*
X58350000Y-63199500D01*
X45900000Y-63199500D01*
X45900000Y-62100001D01*
X46576572Y-62101358D01*
G37*
G04 #@! TD.AperFunction*
G04 #@! TA.AperFunction,Conductor*
G36*
X48386980Y-55018482D02*
G01*
X48414000Y-55065282D01*
X48415200Y-55079000D01*
X48415200Y-55858847D01*
X48426832Y-55917330D01*
X48426833Y-55917331D01*
X48471148Y-55983652D01*
X48537469Y-56027967D01*
X48537468Y-56027967D01*
X48595952Y-56039600D01*
X51404048Y-56039600D01*
X51462531Y-56027967D01*
X51528852Y-55983652D01*
X51573167Y-55917331D01*
X51584800Y-55858848D01*
X51584800Y-55078999D01*
X51603282Y-55028220D01*
X51650082Y-55001200D01*
X51663800Y-55000000D01*
X53920500Y-55000000D01*
X53971280Y-55018482D01*
X53998300Y-55065282D01*
X53999500Y-55079000D01*
X53999500Y-56669744D01*
X53999810Y-56672892D01*
X54000000Y-56676766D01*
X54000000Y-58150000D01*
X56067306Y-58150000D01*
X56118086Y-58168482D01*
X56123167Y-58173139D01*
X56693878Y-58743850D01*
X56705183Y-58758121D01*
X56711580Y-58768452D01*
X56737576Y-58788084D01*
X56741700Y-58791672D01*
X57326861Y-59376834D01*
X57349699Y-59425809D01*
X57350000Y-59432694D01*
X57350000Y-61838333D01*
X57331518Y-61889113D01*
X57284718Y-61916133D01*
X57270841Y-61917333D01*
X55826672Y-61914433D01*
X55826664Y-61914433D01*
X55770819Y-61922051D01*
X55639049Y-61958971D01*
X55633770Y-61960067D01*
X55382297Y-61994633D01*
X55376920Y-61995001D01*
X55123083Y-61995001D01*
X55117707Y-61994633D01*
X54866240Y-61960069D01*
X54860958Y-61958972D01*
X54720867Y-61919721D01*
X54720851Y-61919718D01*
X54665840Y-61912101D01*
X54665847Y-61912101D01*
X52648216Y-61908049D01*
X52589914Y-61916372D01*
X52589911Y-61916373D01*
X52503311Y-61941801D01*
X52481055Y-61945001D01*
X52418946Y-61945001D01*
X52396689Y-61941801D01*
X52307366Y-61915573D01*
X52307367Y-61915573D01*
X52278623Y-61911411D01*
X52249881Y-61907249D01*
X52248597Y-61907246D01*
X51684340Y-61906113D01*
X51633597Y-61887528D01*
X51606672Y-61840675D01*
X51605499Y-61827113D01*
X51605499Y-61656684D01*
X51605647Y-61654616D01*
X51605647Y-61645397D01*
X51605499Y-61643326D01*
X51605499Y-61643325D01*
X51605499Y-58406701D01*
X51605647Y-58404662D01*
X51605647Y-58395354D01*
X51605499Y-58393295D01*
X51605500Y-58174517D01*
X51605109Y-58165559D01*
X51604456Y-58158100D01*
X51603518Y-58147375D01*
X51576768Y-58062533D01*
X51574114Y-58057937D01*
X51549751Y-58015738D01*
X51549747Y-58015732D01*
X51518888Y-57974992D01*
X51442064Y-57925375D01*
X51391286Y-57906894D01*
X51321003Y-57894501D01*
X51321000Y-57894501D01*
X46574517Y-57894501D01*
X46574516Y-57894501D01*
X46565558Y-57894892D01*
X46547372Y-57896483D01*
X46462533Y-57923232D01*
X46462526Y-57923235D01*
X46415737Y-57950249D01*
X46415731Y-57950253D01*
X46374991Y-57981112D01*
X46325374Y-58057936D01*
X46306893Y-58108714D01*
X46294500Y-58178997D01*
X46294500Y-58393333D01*
X46294353Y-58395390D01*
X46294353Y-58404623D01*
X46294500Y-58406677D01*
X46294500Y-61643333D01*
X46294353Y-61645390D01*
X46294353Y-61654623D01*
X46294500Y-61656677D01*
X46294500Y-61816131D01*
X46276018Y-61866911D01*
X46229218Y-61893931D01*
X46215342Y-61895131D01*
X46179342Y-61895059D01*
X46128599Y-61876475D01*
X46101673Y-61829622D01*
X46100500Y-61816059D01*
X46100500Y-58180253D01*
X46088867Y-58121770D01*
X46046214Y-58057937D01*
X46044552Y-58055449D01*
X46044550Y-58055448D01*
X46044550Y-58055447D01*
X46035107Y-58049137D01*
X46003155Y-58005556D01*
X46000000Y-57983453D01*
X46000000Y-56676766D01*
X46000190Y-56672892D01*
X46000500Y-56669744D01*
X46000500Y-55079000D01*
X46018982Y-55028220D01*
X46065782Y-55001200D01*
X46079500Y-55000000D01*
X48336200Y-55000000D01*
X48386980Y-55018482D01*
G37*
G04 #@! TD.AperFunction*
M02*
