M48
; DRILL file {KiCad 7.0.7} date 2024 March 10, Sunday 21:17:56
; FORMAT={-:-/ absolute / metric / decimal}
; #@! TF.CreationDate,2024-03-10T21:17:56-05:00
; #@! TF.GenerationSoftware,Kicad,Pcbnew,7.0.7
; #@! TF.FileFunction,Plated,1,2,PTH
FMAT,2
METRIC
; #@! TA.AperFunction,Plated,PTH,ViaDrill
T1C0.300
; #@! TA.AperFunction,Plated,PTH,ComponentDrill
T2C0.950
; #@! TA.AperFunction,Plated,PTH,ComponentDrill
T3C1.000
; #@! TA.AperFunction,Plated,PTH,ComponentDrill
T4C2.700
%
G90
G05
T1
X37.425Y-46.55
X37.9Y-53.3
X38.025Y-52.225
X38.15Y-56.85
X39.625Y-51.725
X39.8Y-57.65
X39.9Y-55.15
X40.05Y-58.75
X40.7Y-53.35
X40.776Y-62.274
X40.8Y-37.45
X40.8Y-56.05
X41.399Y-61.176
X41.85Y-57.45
X43.6Y-56.45
X44.15Y-45.95
X44.45Y-50.05
X44.7Y-38.45
X45.2Y-54.0
X45.75Y-40.7
X45.75Y-43.0
X46.45Y-45.95
X46.8Y-58.4
X46.8Y-61.65
X47.05Y-51.55
X47.519Y-49.331
X48.0Y-38.5
X48.75Y-46.0
X48.75Y-48.3
X49.0Y-53.0
X49.0Y-55.5
X50.0Y-53.6
X50.0Y-54.9
X50.3Y-40.65
X50.3Y-50.65
X50.35Y-43.0
X51.0Y-38.45
X51.0Y-53.0
X51.0Y-55.5
X51.05Y-46.0
X51.05Y-48.3
X51.1Y-58.4
X51.1Y-61.65
X52.05Y-58.45
X52.05Y-60.05
X52.2Y-51.75
X52.45Y-61.65
X53.4Y-58.45
X53.8Y-38.3
X53.95Y-40.5
X53.95Y-41.275
X54.125Y-48.8
X54.6Y-51.05
X54.65Y-38.7
X54.65Y-57.4
X54.75Y-52.475
X54.775Y-53.275
X54.925Y-45.075
X55.0Y-48.7
X55.1Y-37.5
X55.275Y-44.45
X55.8Y-49.7
X55.825Y-40.7
X56.075Y-45.625
X56.2Y-46.775
X56.25Y-56.4
X56.425Y-43.675
X56.712Y-45.863
X57.025Y-46.925
X57.05Y-37.95
X57.55Y-37.2
X57.65Y-38.8
X57.825Y-42.925
X59.0Y-56.6
X59.1Y-53.7
X59.325Y-45.725
X59.5Y-40.55
X59.525Y-48.2
X59.7Y-55.5
X59.8Y-56.7
X59.95Y-41.25
X60.0Y-47.3
X60.5Y-50.65
X60.55Y-57.85
X60.6Y-52.15
X60.6Y-56.65
X61.9Y-57.25
X61.95Y-52.85
X61.975Y-53.7
X62.65Y-51.3
T2
X61.4Y-44.0
X61.4Y-46.5
X61.4Y-49.0
T3
X38.65Y-42.7
X38.65Y-45.24
X38.65Y-47.78
X38.65Y-50.32
T4
X44.0Y-60.1
X49.0Y-60.1
X55.25Y-60.1
X60.25Y-60.1
T0
M30
