G04 #@! TF.GenerationSoftware,KiCad,Pcbnew,7.0.7*
G04 #@! TF.CreationDate,2024-03-10T21:17:58-05:00*
G04 #@! TF.ProjectId,squirrelbrain,73717569-7272-4656-9c62-7261696e2e6b,1*
G04 #@! TF.SameCoordinates,Original*
G04 #@! TF.FileFunction,Soldermask,Bot*
G04 #@! TF.FilePolarity,Negative*
%FSLAX46Y46*%
G04 Gerber Fmt 4.6, Leading zero omitted, Abs format (unit mm)*
G04 Created by KiCad (PCBNEW 7.0.7) date 2024-03-10 21:17:58*
%MOMM*%
%LPD*%
G01*
G04 APERTURE LIST*
G04 Aperture macros list*
%AMRoundRect*
0 Rectangle with rounded corners*
0 $1 Rounding radius*
0 $2 $3 $4 $5 $6 $7 $8 $9 X,Y pos of 4 corners*
0 Add a 4 corners polygon primitive as box body*
4,1,4,$2,$3,$4,$5,$6,$7,$8,$9,$2,$3,0*
0 Add four circle primitives for the rounded corners*
1,1,$1+$1,$2,$3*
1,1,$1+$1,$4,$5*
1,1,$1+$1,$6,$7*
1,1,$1+$1,$8,$9*
0 Add four rect primitives between the rounded corners*
20,1,$1+$1,$2,$3,$4,$5,0*
20,1,$1+$1,$4,$5,$6,$7,0*
20,1,$1+$1,$6,$7,$8,$9,0*
20,1,$1+$1,$8,$9,$2,$3,0*%
G04 Aperture macros list end*
%ADD10RoundRect,0.135000X0.185000X-0.135000X0.185000X0.135000X-0.185000X0.135000X-0.185000X-0.135000X0*%
%ADD11RoundRect,0.140000X-0.140000X-0.170000X0.140000X-0.170000X0.140000X0.170000X-0.140000X0.170000X0*%
%ADD12R,1.700000X1.700000*%
%ADD13O,1.700000X1.700000*%
%ADD14RoundRect,0.135000X-0.135000X-0.185000X0.135000X-0.185000X0.135000X0.185000X-0.135000X0.185000X0*%
%ADD15R,0.200000X0.604799*%
%ADD16R,0.873098X0.250000*%
%ADD17RoundRect,0.150000X0.150000X0.600000X-0.150000X0.600000X-0.150000X-0.600000X0.150000X-0.600000X0*%
%ADD18RoundRect,0.009000X-0.141000X0.416000X-0.141000X-0.416000X0.141000X-0.416000X0.141000X0.416000X0*%
%ADD19RoundRect,0.135000X0.135000X0.185000X-0.135000X0.185000X-0.135000X-0.185000X0.135000X-0.185000X0*%
%ADD20R,0.600000X1.550000*%
%ADD21R,1.200000X1.800000*%
%ADD22R,3.800000X3.800000*%
%ADD23C,3.800000*%
%ADD24RoundRect,0.050000X-0.100000X0.285000X-0.100000X-0.285000X0.100000X-0.285000X0.100000X0.285000X0*%
%ADD25R,0.385000X0.690000*%
%ADD26R,1.035000X0.690000*%
%ADD27R,1.404099X0.354800*%
%ADD28R,2.768600X3.378200*%
%ADD29R,1.060000X1.060000*%
%ADD30RoundRect,0.250000X0.725000X-0.600000X0.725000X0.600000X-0.725000X0.600000X-0.725000X-0.600000X0*%
%ADD31O,1.950000X1.700000*%
G04 APERTURE END LIST*
D10*
X55650000Y-38210001D03*
X55650000Y-37190001D03*
X56600000Y-38210001D03*
X56600000Y-37190001D03*
D11*
X38520000Y-56400000D03*
X39480000Y-56400000D03*
X55645000Y-50550000D03*
X56605000Y-50550000D03*
D12*
X38650000Y-42700000D03*
D13*
X38650000Y-45240000D03*
X38650000Y-47780000D03*
X38650000Y-50320000D03*
D14*
X60340000Y-52650001D03*
X61360000Y-52650001D03*
D15*
X56375002Y-42866401D03*
D16*
X56238452Y-42195701D03*
D15*
X56375002Y-41525001D03*
X56775001Y-41525001D03*
X57175000Y-41525001D03*
D16*
X57311550Y-42195701D03*
D15*
X57175000Y-42866401D03*
X56775001Y-42866401D03*
D17*
X37300000Y-54400001D03*
X62775000Y-55850001D03*
D18*
X56000000Y-44650000D03*
X56500000Y-44650000D03*
X57000000Y-44650000D03*
X57500000Y-44650000D03*
X57500000Y-47750000D03*
X57000000Y-47750000D03*
X56500000Y-47750000D03*
X56000000Y-47750000D03*
D19*
X55460000Y-51525000D03*
X54440000Y-51525000D03*
D20*
X56100000Y-53225000D03*
X57100000Y-53225000D03*
D21*
X54800000Y-55750000D03*
X58400000Y-55750000D03*
D19*
X39410000Y-52575000D03*
X38390000Y-52575000D03*
D22*
X60250000Y-60100001D03*
D23*
X55250000Y-60100001D03*
D20*
X42900000Y-53225000D03*
X43900000Y-53225000D03*
D21*
X41600000Y-55750000D03*
X45200000Y-55750000D03*
D14*
X56540000Y-51525000D03*
X57560000Y-51525000D03*
D24*
X59860052Y-53560001D03*
X60360052Y-53560001D03*
X60860052Y-53560001D03*
X61360052Y-53560001D03*
X61360052Y-55040001D03*
X60860052Y-55040001D03*
X60360052Y-55040001D03*
X59860052Y-55040001D03*
D11*
X57145000Y-48975000D03*
X58105000Y-48975000D03*
X42665000Y-51300000D03*
X43625000Y-51300000D03*
X60120000Y-55900001D03*
X61080000Y-55900001D03*
D25*
X57124500Y-39175001D03*
D26*
X56132500Y-39175001D03*
D17*
X37300000Y-56650001D03*
D14*
X56015000Y-40200001D03*
X57035000Y-40200001D03*
D27*
X52949948Y-51875001D03*
X52949948Y-52524999D03*
X52949948Y-53175001D03*
X52949948Y-53824999D03*
X52949948Y-54474998D03*
X52949948Y-55124999D03*
X52949948Y-55774998D03*
X52949948Y-56424999D03*
X47050052Y-56424999D03*
X47050052Y-55775001D03*
X47050052Y-55124999D03*
X47050052Y-54475001D03*
X47050052Y-53825002D03*
X47050052Y-53175001D03*
X47050052Y-52525002D03*
X47050052Y-51875001D03*
D28*
X50000000Y-54150000D03*
D24*
X38200000Y-53674999D03*
X38700000Y-53674999D03*
X39200000Y-53674999D03*
X39700000Y-53674999D03*
X39700000Y-55154999D03*
X39200000Y-55154999D03*
X38700000Y-55154999D03*
X38200000Y-55154999D03*
D29*
X43470000Y-48280000D03*
X45760000Y-48280000D03*
X48050000Y-48280000D03*
X50340000Y-48280000D03*
X52630000Y-48280000D03*
X43470000Y-45990000D03*
X45760000Y-45990000D03*
X48050000Y-45990000D03*
X50340000Y-45990000D03*
X52630000Y-45990000D03*
X43470000Y-43700000D03*
X45760000Y-43700000D03*
X48050000Y-43700000D03*
X50340000Y-43700000D03*
X52630000Y-43700000D03*
X43470000Y-41410000D03*
X45760000Y-41410000D03*
X48050000Y-41410000D03*
X50340000Y-41410000D03*
X52630000Y-41410000D03*
X43470000Y-39120000D03*
X45760000Y-39120000D03*
X48050000Y-39120000D03*
X50340000Y-39120000D03*
X52630000Y-39120000D03*
D30*
X61400000Y-49000000D03*
D31*
X61400000Y-46500000D03*
X61400000Y-44000000D03*
D17*
X58350000Y-37700001D03*
X58350000Y-40050001D03*
D22*
X44000000Y-60100001D03*
D23*
X49000000Y-60100001D03*
D17*
X62775000Y-53600001D03*
D14*
X44515000Y-51300000D03*
X45535000Y-51300000D03*
M02*
