G04 #@! TF.GenerationSoftware,KiCad,Pcbnew,7.0.7*
G04 #@! TF.CreationDate,2024-03-10T21:17:58-05:00*
G04 #@! TF.ProjectId,squirrelbrain,73717569-7272-4656-9c62-7261696e2e6b,1*
G04 #@! TF.SameCoordinates,Original*
G04 #@! TF.FileFunction,Copper,L1,Top*
G04 #@! TF.FilePolarity,Positive*
%FSLAX46Y46*%
G04 Gerber Fmt 4.6, Leading zero omitted, Abs format (unit mm)*
G04 Created by KiCad (PCBNEW 7.0.7) date 2024-03-10 21:17:58*
%MOMM*%
%LPD*%
G01*
G04 APERTURE LIST*
G04 Aperture macros list*
%AMRoundRect*
0 Rectangle with rounded corners*
0 $1 Rounding radius*
0 $2 $3 $4 $5 $6 $7 $8 $9 X,Y pos of 4 corners*
0 Add a 4 corners polygon primitive as box body*
4,1,4,$2,$3,$4,$5,$6,$7,$8,$9,$2,$3,0*
0 Add four circle primitives for the rounded corners*
1,1,$1+$1,$2,$3*
1,1,$1+$1,$4,$5*
1,1,$1+$1,$6,$7*
1,1,$1+$1,$8,$9*
0 Add four rect primitives between the rounded corners*
20,1,$1+$1,$2,$3,$4,$5,0*
20,1,$1+$1,$4,$5,$6,$7,0*
20,1,$1+$1,$6,$7,$8,$9,0*
20,1,$1+$1,$8,$9,$2,$3,0*%
G04 Aperture macros list end*
G04 #@! TA.AperFunction,SMDPad,CuDef*
%ADD10RoundRect,0.135000X0.135000X0.185000X-0.135000X0.185000X-0.135000X-0.185000X0.135000X-0.185000X0*%
G04 #@! TD*
G04 #@! TA.AperFunction,SMDPad,CuDef*
%ADD11R,0.800000X0.300000*%
G04 #@! TD*
G04 #@! TA.AperFunction,SMDPad,CuDef*
%ADD12R,0.800000X0.400000*%
G04 #@! TD*
G04 #@! TA.AperFunction,SMDPad,CuDef*
%ADD13RoundRect,1.000000X-0.375000X0.000000X0.375000X0.000000X0.375000X0.000000X-0.375000X0.000000X0*%
G04 #@! TD*
G04 #@! TA.AperFunction,ComponentPad*
%ADD14R,1.700000X1.700000*%
G04 #@! TD*
G04 #@! TA.AperFunction,ComponentPad*
%ADD15O,1.700000X1.700000*%
G04 #@! TD*
G04 #@! TA.AperFunction,ComponentPad*
%ADD16R,3.800000X3.800000*%
G04 #@! TD*
G04 #@! TA.AperFunction,ComponentPad*
%ADD17C,3.800000*%
G04 #@! TD*
G04 #@! TA.AperFunction,ComponentPad*
%ADD18RoundRect,0.250000X0.725000X-0.600000X0.725000X0.600000X-0.725000X0.600000X-0.725000X-0.600000X0*%
G04 #@! TD*
G04 #@! TA.AperFunction,ComponentPad*
%ADD19O,1.950000X1.700000*%
G04 #@! TD*
G04 #@! TA.AperFunction,ViaPad*
%ADD20C,0.600000*%
G04 #@! TD*
G04 #@! TA.AperFunction,Conductor*
%ADD21C,0.160000*%
G04 #@! TD*
G04 #@! TA.AperFunction,Conductor*
%ADD22C,0.200000*%
G04 #@! TD*
G04 #@! TA.AperFunction,Conductor*
%ADD23C,0.300000*%
G04 #@! TD*
G04 #@! TA.AperFunction,Conductor*
%ADD24C,0.500000*%
G04 #@! TD*
G04 APERTURE END LIST*
D10*
X61830000Y-41530001D03*
X60810000Y-41530001D03*
D11*
X39700000Y-57300001D03*
X39700000Y-56800001D03*
X39700000Y-56300001D03*
X39700000Y-55800001D03*
D12*
X37200000Y-54800001D03*
X37200000Y-58300001D03*
X62800000Y-52000001D03*
X62800000Y-55500001D03*
D11*
X60300000Y-54500001D03*
X60300000Y-54000001D03*
X60300000Y-53500001D03*
X60300000Y-53000001D03*
D13*
X41937500Y-39380000D03*
X41937500Y-41920000D03*
X41937500Y-44460000D03*
X41937500Y-47000000D03*
X41937500Y-49540000D03*
X41937500Y-52080000D03*
X41937500Y-54620000D03*
X58102500Y-54620000D03*
X58102500Y-52080000D03*
X58102500Y-49540000D03*
X58102500Y-47000000D03*
X58102500Y-44460000D03*
X58102500Y-41920000D03*
X58102500Y-39380000D03*
D14*
X38650000Y-42700000D03*
D15*
X38650000Y-45240000D03*
X38650000Y-47780000D03*
X38650000Y-50320000D03*
D16*
X60250000Y-60100001D03*
D17*
X55250000Y-60100001D03*
D18*
X61400000Y-49000000D03*
D19*
X61400000Y-46500000D03*
X61400000Y-44000000D03*
D16*
X44000000Y-60100001D03*
D17*
X49000000Y-60100001D03*
D20*
X60550000Y-57850001D03*
X54650000Y-57400001D03*
X41850000Y-57450001D03*
X40050000Y-58750001D03*
X41399500Y-61176089D03*
X40776089Y-62273911D03*
X39800000Y-57650001D03*
X40700000Y-53350001D03*
X38150000Y-56850001D03*
X59800000Y-56700001D03*
X55000000Y-48700001D03*
X59100000Y-53700001D03*
X60600000Y-56650001D03*
X38025000Y-52225000D03*
X39625000Y-51725000D03*
X37900000Y-53300001D03*
X61950000Y-52850001D03*
X61975000Y-53700001D03*
X59950000Y-41250001D03*
X56200000Y-46775000D03*
X47519254Y-49330746D03*
X59700000Y-55500001D03*
X55274999Y-44450001D03*
X54925000Y-45075001D03*
X47050000Y-51550000D03*
X61900000Y-57250001D03*
X37425000Y-46550000D03*
X46450000Y-45950000D03*
X40800000Y-56050001D03*
X60000000Y-47300001D03*
X52200000Y-51750001D03*
X59500000Y-40550001D03*
X55825000Y-40700001D03*
X53950000Y-40500001D03*
X54750000Y-52475001D03*
X50300000Y-50650001D03*
X53950000Y-41275000D03*
X39900000Y-55150000D03*
X57825000Y-42925000D03*
X44700000Y-38450001D03*
X45750000Y-43000000D03*
X56250000Y-56400001D03*
X51050000Y-48300000D03*
X59000000Y-56600001D03*
X53800000Y-38300001D03*
X60600000Y-52150001D03*
X48750000Y-46000000D03*
X60500000Y-50650001D03*
X43600000Y-56450001D03*
X50300000Y-40650001D03*
X56712500Y-45862501D03*
X51050000Y-46000000D03*
X54125000Y-48800001D03*
X51000000Y-38450001D03*
X50350000Y-43000000D03*
X44450000Y-50050000D03*
X62650000Y-51300001D03*
X45200000Y-54000000D03*
X45750000Y-40700000D03*
X55800000Y-49700000D03*
X56075000Y-45625001D03*
X48750000Y-48300000D03*
X44150000Y-45950000D03*
X40800000Y-37450001D03*
X48000000Y-38500000D03*
X51000000Y-55500000D03*
X49000000Y-53000000D03*
X50000000Y-53600000D03*
X51100000Y-58400001D03*
X46800000Y-58400001D03*
X49000000Y-55500000D03*
X51000000Y-53000000D03*
X50000000Y-54900000D03*
X46800000Y-61650001D03*
X51100000Y-61650001D03*
X57650000Y-38800000D03*
X59325000Y-45725000D03*
X59525000Y-48200000D03*
X57025000Y-46925001D03*
X54600000Y-51050000D03*
X54650000Y-38700001D03*
X56425000Y-43675001D03*
X54775000Y-53275001D03*
X57050000Y-37950001D03*
X55100000Y-37500001D03*
X57550000Y-37200001D03*
X52050000Y-58450001D03*
X53400000Y-58450001D03*
X52450000Y-61650001D03*
X52050000Y-60050001D03*
D21*
X40700000Y-53350001D02*
X39320000Y-54746638D01*
X39320000Y-54746638D02*
X39320000Y-55180001D01*
X38390244Y-57430001D02*
X38730000Y-57090245D01*
X39080000Y-55420001D02*
X38759756Y-55420001D01*
X38759756Y-55420001D02*
X37570000Y-56609757D01*
X37570000Y-56609757D02*
X37570000Y-57120001D01*
X38730000Y-57090245D02*
X38730000Y-56720001D01*
X37880000Y-57430001D02*
X38390244Y-57430001D01*
X39150000Y-56300001D02*
X39700000Y-56300001D01*
X38730000Y-56720001D02*
X39150000Y-56300001D01*
X37570000Y-57120001D02*
X37880000Y-57430001D01*
X39320000Y-55180001D02*
X39080000Y-55420001D01*
D22*
X41399500Y-61176089D02*
X41200000Y-60976589D01*
X41200000Y-60976589D02*
X41200000Y-57064216D01*
X42344216Y-55920000D02*
X42850978Y-55920000D01*
X43612500Y-55158478D02*
X43612500Y-53762501D01*
X41200000Y-57064216D02*
X42344216Y-55920000D01*
X43612500Y-53762501D02*
X42050000Y-52200001D01*
X42850978Y-55920000D02*
X43612500Y-55158478D01*
X41600000Y-63050001D02*
X40823910Y-62273911D01*
X40823910Y-62273911D02*
X40776089Y-62273911D01*
X39800000Y-57400001D02*
X39750000Y-57350001D01*
X39800000Y-57650001D02*
X39800000Y-57400001D01*
X37900000Y-53300001D02*
X39874999Y-53300001D01*
X39874999Y-53300001D02*
X40262500Y-52912500D01*
X40262500Y-52912500D02*
X40262500Y-51215000D01*
X40262500Y-51215000D02*
X41937500Y-49540000D01*
X39700000Y-55800001D02*
X38925000Y-55800001D01*
X38925000Y-55800001D02*
X38150000Y-56575001D01*
X38150000Y-56575001D02*
X38150000Y-56850001D01*
X40800000Y-56050001D02*
X40800000Y-55750001D01*
X40199999Y-55150000D02*
X39900000Y-55150000D01*
X40800000Y-55750001D02*
X40199999Y-55150000D01*
X55000000Y-48700001D02*
X55050000Y-48750001D01*
X56427500Y-55158478D02*
X57189022Y-55920000D01*
X56400000Y-54450001D02*
X56427500Y-54450001D01*
X55050000Y-48750001D02*
X55050000Y-50085785D01*
X55050000Y-50085785D02*
X56400000Y-51435785D01*
X57189022Y-55920000D02*
X59280001Y-55920000D01*
X56400000Y-51435785D02*
X56400000Y-54450001D01*
X56427500Y-54450001D02*
X56427500Y-55158478D01*
X59280001Y-55920000D02*
X59700000Y-55500001D01*
X61100000Y-57250001D02*
X60350000Y-57250001D01*
X60350000Y-57250001D02*
X59795279Y-56695280D01*
X61300000Y-57050001D02*
X61300000Y-56460051D01*
X61300000Y-57050001D02*
X61100000Y-57250001D01*
X59795279Y-56695280D02*
X59795279Y-56682067D01*
D21*
X60600000Y-56650001D02*
X60600000Y-55208113D01*
X60970000Y-54838113D02*
X60970000Y-54740002D01*
X60600000Y-55208113D02*
X60970000Y-54838113D01*
X60970000Y-54740002D02*
X60980000Y-54730001D01*
X60980000Y-54730001D02*
X60980000Y-54050001D01*
X60980000Y-54050001D02*
X60400000Y-54050001D01*
X60400000Y-54050001D02*
X60350000Y-54000001D01*
D22*
X61000000Y-52850001D02*
X60250000Y-52850001D01*
X61360000Y-53210001D02*
X61000000Y-52850001D01*
X61360000Y-54985515D02*
X61360000Y-53210001D01*
X61080000Y-55265515D02*
X61360000Y-54985515D01*
X61080000Y-56240051D02*
X61080000Y-55265515D01*
X61300000Y-56460051D02*
X61080000Y-56240051D01*
D21*
X62100000Y-56150001D02*
X62535930Y-56150001D01*
X62835338Y-62276064D02*
X62361401Y-62750001D01*
X61940005Y-55990006D02*
X62100000Y-56150001D01*
X62930005Y-56544076D02*
X62930005Y-62112097D01*
X61940005Y-55480312D02*
X61940005Y-55990006D01*
X62120000Y-55300317D02*
X61940005Y-55480312D01*
X62535930Y-56150001D02*
X62930005Y-56544076D01*
X62930005Y-62112097D02*
X62835338Y-62276064D01*
X62140000Y-54610001D02*
X62120000Y-54630001D01*
X62120000Y-54630001D02*
X62120000Y-55300317D01*
X62361401Y-62750001D02*
X62000000Y-62750001D01*
X62000000Y-62750001D02*
X61770000Y-62980001D01*
D22*
X61950000Y-52850001D02*
X62000000Y-52850001D01*
X62000000Y-52850001D02*
X62575000Y-53425001D01*
X62575000Y-53425001D02*
X62575000Y-54175001D01*
X62575000Y-54175001D02*
X62140000Y-54610001D01*
X62450000Y-61750001D02*
X62550000Y-61650001D01*
X61480000Y-56074365D02*
X61480000Y-55431201D01*
X62550000Y-61650001D02*
X62550000Y-56701472D01*
X62378529Y-56530001D02*
X61935636Y-56530001D01*
X62550000Y-56701472D02*
X62378529Y-56530001D01*
X61935636Y-56530001D02*
X61480000Y-56074365D01*
D21*
X61480000Y-55431201D02*
X61760000Y-55151200D01*
D22*
X61760000Y-53915001D02*
X61975000Y-53700001D01*
D21*
X61760000Y-55151200D02*
X61760000Y-53915001D01*
D22*
X59150000Y-53800001D02*
X59150000Y-53750001D01*
X59100000Y-53700001D02*
X59022499Y-53700001D01*
X59150000Y-53750001D02*
X59100000Y-53700001D01*
X59022499Y-53700001D02*
X58102500Y-54620000D01*
D21*
X60300000Y-53500001D02*
X59800000Y-53500001D01*
X59800000Y-53500001D02*
X59620000Y-53320001D01*
X59620000Y-53320001D02*
X59620000Y-52730001D01*
X59620000Y-52730001D02*
X60200000Y-52150001D01*
X60200000Y-52150001D02*
X60600000Y-52150001D01*
D23*
X60300000Y-54500001D02*
X60300000Y-54900001D01*
X60300000Y-54900001D02*
X59700000Y-55500001D01*
D22*
X61750000Y-41540001D02*
X61820000Y-41610001D01*
X61820000Y-41610001D02*
X61820000Y-43600001D01*
X61820000Y-43600001D02*
X61460000Y-43960001D01*
X59950000Y-41250001D02*
X60490000Y-40710001D01*
X60490000Y-40710001D02*
X62140000Y-40710001D01*
X60125000Y-48125001D02*
X60125000Y-49730978D01*
X63100000Y-41670001D02*
X63100000Y-46551346D01*
X60125000Y-49730978D02*
X58102500Y-51753478D01*
X62140000Y-40710001D02*
X63100000Y-41670001D01*
X60600001Y-47650000D02*
X60125000Y-48125001D01*
X63100000Y-46551346D02*
X62001346Y-47650000D01*
X62001346Y-47650000D02*
X60600001Y-47650000D01*
X58102500Y-51753478D02*
X58102500Y-52080000D01*
X60670000Y-41790001D02*
X60670000Y-41850001D01*
X58160000Y-44360001D02*
X58160000Y-44500001D01*
X60670000Y-41850001D02*
X58160000Y-44360001D01*
X37475000Y-51675000D02*
X37475000Y-49768654D01*
X39201814Y-49170000D02*
X40200000Y-48171814D01*
X40200000Y-46197500D02*
X41937500Y-44460000D01*
X38073654Y-49170000D02*
X39201814Y-49170000D01*
X40200000Y-48171814D02*
X40200000Y-46197500D01*
X37475000Y-49768654D02*
X38073654Y-49170000D01*
X38025000Y-52225000D02*
X37475000Y-51675000D01*
X39862500Y-51487500D02*
X39862500Y-51049314D01*
X39625000Y-51725000D02*
X39862500Y-51487500D01*
X40262500Y-48675000D02*
X41937500Y-47000000D01*
X39862500Y-51049314D02*
X40262500Y-50649314D01*
X40262500Y-50649314D02*
X40262500Y-48675000D01*
X61700000Y-63050001D02*
X41600000Y-63050001D01*
X61770000Y-62980001D02*
X61700000Y-63050001D01*
X41870001Y-52080000D02*
X41937500Y-52080000D01*
D21*
X62270000Y-62280001D02*
X62450000Y-62100001D01*
D22*
X40800000Y-61450000D02*
X42000001Y-62650001D01*
D21*
X61800000Y-62280001D02*
X62270000Y-62280001D01*
D22*
X61571175Y-62499996D02*
X61600005Y-62499996D01*
X40800000Y-56898530D02*
X40800000Y-61450000D01*
X61600005Y-62499996D02*
X61800000Y-62300001D01*
D21*
X62450000Y-62100001D02*
X62450000Y-61750001D01*
D22*
X42000001Y-62650001D02*
X61421170Y-62650001D01*
X41937500Y-55761030D02*
X40800000Y-56898530D01*
X41937500Y-54620000D02*
X41937500Y-55761030D01*
X61421170Y-62650001D02*
X61571175Y-62499996D01*
X58102500Y-54620000D02*
X58868714Y-54620000D01*
X58102500Y-52080000D02*
X58102500Y-51802501D01*
X56427500Y-50127501D02*
X56427500Y-47002500D01*
X56427500Y-47002500D02*
X56200000Y-46775000D01*
X58102500Y-51802501D02*
X56427500Y-50127501D01*
D24*
X55125001Y-44875000D02*
X57687500Y-44875000D01*
D22*
X47050000Y-50650000D02*
X47519254Y-50180746D01*
D24*
X57687500Y-44875000D02*
X58102500Y-44460000D01*
X58092501Y-44450001D02*
X58102500Y-44460000D01*
X55274999Y-44450001D02*
X58092501Y-44450001D01*
X55000000Y-44725000D02*
X55274999Y-44450001D01*
D22*
X47519254Y-50180746D02*
X47519254Y-49330746D01*
X47050000Y-51550000D02*
X47050000Y-50650000D01*
D24*
X54925000Y-45075001D02*
X55125001Y-44875000D01*
D23*
X58102500Y-42009962D02*
X58102500Y-41920000D01*
X57825000Y-42925000D02*
X58102500Y-42009962D01*
D22*
X60850001Y-44000000D02*
X61400000Y-44000000D01*
X59325000Y-45725000D02*
X59325000Y-45525001D01*
X59325000Y-45525001D02*
X60850001Y-44000000D01*
D23*
X59525000Y-48200000D02*
X59442500Y-48200000D01*
X59442500Y-48200000D02*
X58102500Y-49540000D01*
D22*
X52950000Y-49465686D02*
X54534314Y-51050000D01*
X54534314Y-51050000D02*
X54600000Y-51050000D01*
X53784314Y-39200001D02*
X52950000Y-40034315D01*
X54650000Y-38700001D02*
X54548529Y-38700001D01*
X54048529Y-39200001D02*
X53784314Y-39200001D01*
X52950000Y-40034315D02*
X52950000Y-49465686D01*
X54548529Y-38700001D02*
X54048529Y-39200001D01*
X55200000Y-50801471D02*
X54848529Y-50450000D01*
X53950000Y-39600001D02*
X53350000Y-40200001D01*
X54848529Y-50450000D02*
X54500000Y-50450000D01*
X54598529Y-39600001D02*
X53950000Y-39600001D01*
X55200000Y-52076472D02*
X55200000Y-50801471D01*
X53350000Y-40200001D02*
X53350000Y-43700001D01*
X53350000Y-49300000D02*
X53350000Y-43700001D01*
X54775000Y-53275001D02*
X54800000Y-53275001D01*
X54800000Y-53275001D02*
X55350000Y-52725001D01*
X55350000Y-52725001D02*
X55350000Y-52226472D01*
X55350000Y-52226472D02*
X55200000Y-52076472D01*
X53375000Y-43675001D02*
X53350000Y-43700001D01*
X57050000Y-37950001D02*
X56248529Y-37950001D01*
X56248529Y-37950001D02*
X54598529Y-39600001D01*
X56425000Y-43675001D02*
X53375000Y-43675001D01*
X54500000Y-50450000D02*
X53350000Y-49300000D01*
X41937500Y-41952500D02*
X41937500Y-41920000D01*
D23*
X41937500Y-41920000D02*
X40955000Y-41920000D01*
X38650000Y-45240000D02*
X41937500Y-41952500D01*
D22*
X40168399Y-41081601D02*
X38550000Y-42700000D01*
X41854021Y-37250001D02*
X40168399Y-38935623D01*
X55100000Y-37500001D02*
X54850000Y-37250001D01*
X40168399Y-38935623D02*
X40168399Y-41081601D01*
X54850000Y-37250001D02*
X41854021Y-37250001D01*
X56248529Y-37200001D02*
X55348529Y-38100001D01*
X57550000Y-37200001D02*
X56248529Y-37200001D01*
X54400000Y-37650001D02*
X43667499Y-37650001D01*
X54850000Y-38100001D02*
X54400000Y-37650001D01*
X42207500Y-39650000D02*
X41937500Y-39380000D01*
X43667499Y-37650001D02*
X41937500Y-39380000D01*
X55348529Y-38100001D02*
X54850000Y-38100001D01*
G04 #@! TA.AperFunction,Conductor*
G36*
X56118058Y-58168483D02*
G01*
X56123139Y-58173140D01*
X57326861Y-59376862D01*
X57349699Y-59425838D01*
X57350000Y-59432723D01*
X57350000Y-62270501D01*
X57331518Y-62321281D01*
X57284718Y-62348301D01*
X57271000Y-62349501D01*
X51679000Y-62349501D01*
X51628220Y-62331019D01*
X51601200Y-62284219D01*
X51600000Y-62270501D01*
X51600000Y-61694927D01*
X51600804Y-61683684D01*
X51605647Y-61650001D01*
X51600804Y-61616315D01*
X51600000Y-61605073D01*
X51600000Y-58444927D01*
X51600804Y-58433684D01*
X51605647Y-58400001D01*
X51600804Y-58366315D01*
X51600000Y-58355073D01*
X51600000Y-58229001D01*
X51618482Y-58178221D01*
X51665282Y-58151201D01*
X51679000Y-58150001D01*
X56067278Y-58150001D01*
X56118058Y-58168483D01*
G37*
G04 #@! TD.AperFunction*
G04 #@! TA.AperFunction,Conductor*
G36*
X51371780Y-52468482D02*
G01*
X51398800Y-52515282D01*
X51400000Y-52529000D01*
X51400000Y-58190896D01*
X51398800Y-58204614D01*
X51394500Y-58228997D01*
X51394500Y-58358740D01*
X51394762Y-58366072D01*
X51396090Y-58384640D01*
X51396834Y-58391577D01*
X51396833Y-58408448D01*
X51396089Y-58415362D01*
X51394762Y-58433928D01*
X51394500Y-58441260D01*
X51394500Y-61608740D01*
X51394762Y-61616072D01*
X51396090Y-61634640D01*
X51396834Y-61641577D01*
X51396833Y-61658448D01*
X51396089Y-61665362D01*
X51394762Y-61683928D01*
X51394500Y-61691260D01*
X51394500Y-62270501D01*
X51376018Y-62321281D01*
X51329218Y-62348301D01*
X51315500Y-62349501D01*
X46579000Y-62349501D01*
X46528220Y-62331019D01*
X46501200Y-62284219D01*
X46500000Y-62270501D01*
X46500000Y-55029000D01*
X46518482Y-54978220D01*
X46565282Y-54951200D01*
X46579000Y-54950000D01*
X48600000Y-54950000D01*
X48600000Y-52529000D01*
X48618482Y-52478220D01*
X48665282Y-52451200D01*
X48679000Y-52450000D01*
X51321000Y-52450000D01*
X51371780Y-52468482D01*
G37*
G04 #@! TD.AperFunction*
G04 #@! TA.AperFunction,Conductor*
G36*
X41804367Y-36818982D02*
G01*
X41831387Y-36865782D01*
X41822003Y-36919000D01*
X41785489Y-36951772D01*
X41784030Y-36952415D01*
X41784029Y-36952416D01*
X41776995Y-36955520D01*
X41772909Y-36957325D01*
X41755529Y-36962707D01*
X41743590Y-36964939D01*
X41743585Y-36964941D01*
X41715900Y-36982082D01*
X41711059Y-36984634D01*
X41681251Y-36997796D01*
X41672660Y-37006387D01*
X41658396Y-37017686D01*
X41648072Y-37024078D01*
X41648068Y-37024082D01*
X41628439Y-37050074D01*
X41624845Y-37054204D01*
X40201379Y-38477670D01*
X40152403Y-38500508D01*
X40100205Y-38486522D01*
X40069210Y-38442256D01*
X40068935Y-38441203D01*
X40065244Y-38426628D01*
X40015449Y-38229992D01*
X39922216Y-38017443D01*
X39795271Y-37823139D01*
X39695227Y-37714462D01*
X39638082Y-37652385D01*
X39638079Y-37652382D01*
X39638076Y-37652379D01*
X39454918Y-37509822D01*
X39437694Y-37500501D01*
X39250797Y-37399356D01*
X39031275Y-37323994D01*
X38965863Y-37313079D01*
X38802341Y-37285792D01*
X38570243Y-37285792D01*
X38427887Y-37309547D01*
X38341308Y-37323994D01*
X38121786Y-37399356D01*
X37917667Y-37509821D01*
X37917665Y-37509822D01*
X37734511Y-37652376D01*
X37734501Y-37652385D01*
X37577313Y-37823138D01*
X37577313Y-37823139D01*
X37450366Y-38017446D01*
X37450365Y-38017448D01*
X37357138Y-38229983D01*
X37357136Y-38229988D01*
X37357135Y-38229992D01*
X37307340Y-38426628D01*
X37300158Y-38454987D01*
X37285647Y-38630119D01*
X37280992Y-38686292D01*
X37300158Y-38917597D01*
X37357135Y-39142592D01*
X37357137Y-39142597D01*
X37357138Y-39142600D01*
X37425962Y-39299501D01*
X37450368Y-39355141D01*
X37577313Y-39549445D01*
X37734501Y-39720198D01*
X37734504Y-39720200D01*
X37734508Y-39720205D01*
X37917666Y-39862762D01*
X37991112Y-39902509D01*
X38121786Y-39973227D01*
X38121789Y-39973228D01*
X38341311Y-40048590D01*
X38570243Y-40086792D01*
X38570248Y-40086792D01*
X38802335Y-40086792D01*
X38802341Y-40086792D01*
X39031273Y-40048590D01*
X39250795Y-39973228D01*
X39454918Y-39862762D01*
X39638076Y-39720205D01*
X39730779Y-39619501D01*
X39778766Y-39594661D01*
X39831497Y-39606478D01*
X39864296Y-39649426D01*
X39867898Y-39673009D01*
X39867899Y-40924408D01*
X39849417Y-40975188D01*
X39844760Y-40980269D01*
X39198668Y-41626361D01*
X39149692Y-41649199D01*
X39142807Y-41649500D01*
X37780252Y-41649500D01*
X37721769Y-41661132D01*
X37655448Y-41705448D01*
X37611132Y-41771769D01*
X37599500Y-41830252D01*
X37599500Y-43569747D01*
X37611132Y-43628230D01*
X37611133Y-43628231D01*
X37655448Y-43694552D01*
X37721769Y-43738867D01*
X37721768Y-43738867D01*
X37780252Y-43750500D01*
X39453095Y-43750500D01*
X39503875Y-43768982D01*
X39530895Y-43815782D01*
X39521511Y-43869000D01*
X39508959Y-43885357D01*
X39326459Y-44067858D01*
X39144647Y-44249670D01*
X39095671Y-44272507D01*
X39058123Y-44264840D01*
X39057538Y-44266253D01*
X39053945Y-44264764D01*
X38855938Y-44204701D01*
X38855936Y-44204700D01*
X38855934Y-44204700D01*
X38650000Y-44184417D01*
X38649999Y-44184417D01*
X38616529Y-44187713D01*
X38444066Y-44204700D01*
X38444063Y-44204700D01*
X38444061Y-44204701D01*
X38246054Y-44264764D01*
X38246048Y-44264767D01*
X38246046Y-44264767D01*
X38246046Y-44264768D01*
X38222920Y-44277129D01*
X38063546Y-44362317D01*
X37903589Y-44493589D01*
X37772317Y-44653546D01*
X37674767Y-44836048D01*
X37674764Y-44836054D01*
X37614701Y-45034061D01*
X37614700Y-45034063D01*
X37614700Y-45034066D01*
X37594417Y-45240000D01*
X37614700Y-45445934D01*
X37614700Y-45445936D01*
X37614701Y-45445938D01*
X37674764Y-45643945D01*
X37674767Y-45643951D01*
X37674768Y-45643954D01*
X37769234Y-45820685D01*
X37772317Y-45826453D01*
X37903589Y-45986410D01*
X38050703Y-46107142D01*
X38063550Y-46117685D01*
X38246046Y-46215232D01*
X38246051Y-46215233D01*
X38246054Y-46215235D01*
X38353488Y-46247823D01*
X38444066Y-46275300D01*
X38650000Y-46295583D01*
X38855934Y-46275300D01*
X39022950Y-46224637D01*
X39053945Y-46215235D01*
X39053946Y-46215234D01*
X39053954Y-46215232D01*
X39236450Y-46117685D01*
X39396410Y-45986410D01*
X39527685Y-45826450D01*
X39625232Y-45643954D01*
X39631796Y-45622317D01*
X39658296Y-45534954D01*
X39685300Y-45445934D01*
X39705583Y-45240000D01*
X39685300Y-45034066D01*
X39637862Y-44877682D01*
X39625235Y-44836054D01*
X39623747Y-44832462D01*
X39625554Y-44831713D01*
X39618881Y-44784952D01*
X39640327Y-44745353D01*
X40257018Y-44128662D01*
X40305993Y-44105825D01*
X40358191Y-44119811D01*
X40389186Y-44164077D01*
X40389780Y-44202611D01*
X40368418Y-44293437D01*
X40362000Y-44385910D01*
X40362000Y-44534090D01*
X40368418Y-44626562D01*
X40368418Y-44626565D01*
X40368419Y-44626567D01*
X40419357Y-44843143D01*
X40509223Y-45046671D01*
X40509224Y-45046672D01*
X40509226Y-45046676D01*
X40634961Y-45230225D01*
X40637290Y-45233030D01*
X40635711Y-45234340D01*
X40655609Y-45277011D01*
X40641623Y-45329209D01*
X40632771Y-45339757D01*
X40031285Y-45941242D01*
X40021158Y-45948531D01*
X40021612Y-45949132D01*
X40015771Y-45953542D01*
X39983217Y-45989250D01*
X39981961Y-45990566D01*
X39967827Y-46004702D01*
X39967817Y-46004714D01*
X39965418Y-46008214D01*
X39962027Y-46012494D01*
X39940084Y-46036567D01*
X39940082Y-46036570D01*
X39935693Y-46047898D01*
X39927209Y-46063994D01*
X39920346Y-46074014D01*
X39920344Y-46074018D01*
X39912887Y-46105717D01*
X39911268Y-46110945D01*
X39899500Y-46141326D01*
X39899500Y-46153470D01*
X39897402Y-46171557D01*
X39894620Y-46183381D01*
X39897239Y-46202154D01*
X39899121Y-46215644D01*
X39899500Y-46221098D01*
X39899500Y-48014621D01*
X39881018Y-48065401D01*
X39876371Y-48070471D01*
X39831559Y-48115284D01*
X39788301Y-48158542D01*
X39739325Y-48181379D01*
X39687127Y-48167393D01*
X39656132Y-48123126D01*
X39656842Y-48079747D01*
X39659653Y-48070483D01*
X39685300Y-47985934D01*
X39705583Y-47780000D01*
X39685300Y-47574066D01*
X39639803Y-47424081D01*
X39625235Y-47376054D01*
X39625233Y-47376051D01*
X39625232Y-47376046D01*
X39527685Y-47193550D01*
X39497806Y-47157142D01*
X39396410Y-47033589D01*
X39236453Y-46902317D01*
X39236451Y-46902316D01*
X39236450Y-46902315D01*
X39053954Y-46804768D01*
X39053951Y-46804767D01*
X39053945Y-46804764D01*
X38855938Y-46744701D01*
X38855936Y-46744700D01*
X38855934Y-46744700D01*
X38650000Y-46724417D01*
X38649999Y-46724417D01*
X38616529Y-46727713D01*
X38444066Y-46744700D01*
X38444063Y-46744700D01*
X38444061Y-46744701D01*
X38246054Y-46804764D01*
X38246048Y-46804767D01*
X38063546Y-46902317D01*
X37903589Y-47033589D01*
X37772317Y-47193546D01*
X37728675Y-47275194D01*
X37680707Y-47364936D01*
X37674767Y-47376048D01*
X37674764Y-47376054D01*
X37614701Y-47574061D01*
X37614700Y-47574063D01*
X37614700Y-47574066D01*
X37594417Y-47780000D01*
X37614700Y-47985934D01*
X37614700Y-47985936D01*
X37614701Y-47985938D01*
X37674764Y-48183945D01*
X37674767Y-48183951D01*
X37674768Y-48183954D01*
X37769234Y-48360685D01*
X37772317Y-48366453D01*
X37903589Y-48526410D01*
X38063546Y-48657682D01*
X38063550Y-48657685D01*
X38181684Y-48720829D01*
X38217754Y-48761066D01*
X38219522Y-48815076D01*
X38186159Y-48857587D01*
X38144442Y-48869500D01*
X38135561Y-48869500D01*
X38123242Y-48867490D01*
X38123138Y-48868237D01*
X38115891Y-48867226D01*
X38115890Y-48867226D01*
X38104855Y-48867736D01*
X38067613Y-48869458D01*
X38065789Y-48869500D01*
X38045803Y-48869500D01*
X38041632Y-48870280D01*
X38036202Y-48870909D01*
X38003662Y-48872415D01*
X37992544Y-48877324D01*
X37975158Y-48882707D01*
X37963222Y-48884938D01*
X37935531Y-48902083D01*
X37930688Y-48904636D01*
X37900890Y-48917792D01*
X37900883Y-48917797D01*
X37892295Y-48926385D01*
X37878033Y-48937683D01*
X37867704Y-48944079D01*
X37867698Y-48944084D01*
X37848069Y-48970077D01*
X37844474Y-48974208D01*
X37306285Y-49512396D01*
X37296158Y-49519685D01*
X37296612Y-49520286D01*
X37290771Y-49524696D01*
X37258217Y-49560404D01*
X37256961Y-49561720D01*
X37242827Y-49575856D01*
X37242817Y-49575868D01*
X37240418Y-49579368D01*
X37237027Y-49583648D01*
X37215084Y-49607721D01*
X37215082Y-49607724D01*
X37210693Y-49619052D01*
X37202209Y-49635148D01*
X37195346Y-49645168D01*
X37195344Y-49645172D01*
X37187887Y-49676871D01*
X37186268Y-49682099D01*
X37174500Y-49712480D01*
X37174500Y-49724624D01*
X37172402Y-49742711D01*
X37169620Y-49754535D01*
X37171198Y-49765841D01*
X37174121Y-49786798D01*
X37174500Y-49792252D01*
X37174500Y-51613097D01*
X37172491Y-51625412D01*
X37173238Y-51625517D01*
X37172226Y-51632763D01*
X37174458Y-51681027D01*
X37174500Y-51682852D01*
X37174500Y-51702850D01*
X37175279Y-51707015D01*
X37175910Y-51712454D01*
X37177414Y-51744991D01*
X37182322Y-51756106D01*
X37187707Y-51773496D01*
X37189938Y-51785432D01*
X37207083Y-51813122D01*
X37209636Y-51817966D01*
X37222793Y-51847763D01*
X37222796Y-51847767D01*
X37231378Y-51856349D01*
X37242683Y-51870620D01*
X37249080Y-51880951D01*
X37275076Y-51900583D01*
X37279200Y-51904171D01*
X37395549Y-52020520D01*
X37501531Y-52126502D01*
X37524369Y-52175478D01*
X37523866Y-52193604D01*
X37519353Y-52224998D01*
X37519353Y-52224999D01*
X37539834Y-52367455D01*
X37599622Y-52498372D01*
X37675286Y-52585693D01*
X37693872Y-52607143D01*
X37777882Y-52661133D01*
X37795870Y-52672693D01*
X37828596Y-52715695D01*
X37826025Y-52769673D01*
X37789359Y-52809370D01*
X37775416Y-52814952D01*
X37689947Y-52840048D01*
X37689946Y-52840048D01*
X37568871Y-52917858D01*
X37474622Y-53026628D01*
X37414834Y-53157545D01*
X37394353Y-53300001D01*
X37414834Y-53442456D01*
X37474622Y-53573373D01*
X37547210Y-53657144D01*
X37568872Y-53682144D01*
X37689947Y-53759954D01*
X37828039Y-53800501D01*
X37971960Y-53800501D01*
X37971961Y-53800501D01*
X38110053Y-53759954D01*
X38231128Y-53682144D01*
X38278245Y-53627767D01*
X38325468Y-53601493D01*
X38337950Y-53600501D01*
X39813096Y-53600501D01*
X39825411Y-53602509D01*
X39825516Y-53601763D01*
X39832761Y-53602773D01*
X39832764Y-53602774D01*
X39864680Y-53601298D01*
X39916259Y-53617415D01*
X39945411Y-53662917D01*
X39938496Y-53716511D01*
X39924523Y-53735740D01*
X39162460Y-54506990D01*
X39153669Y-54514240D01*
X39153872Y-54514508D01*
X39148033Y-54518917D01*
X39116514Y-54553490D01*
X39109655Y-54560432D01*
X39102200Y-54567977D01*
X39102132Y-54568060D01*
X39095169Y-54576904D01*
X39077385Y-54596413D01*
X39077379Y-54596421D01*
X39073113Y-54607435D01*
X39064893Y-54623146D01*
X39058268Y-54632942D01*
X39058268Y-54632943D01*
X39052379Y-54658673D01*
X39049037Y-54669582D01*
X39039500Y-54694202D01*
X39039500Y-54706020D01*
X39037509Y-54723644D01*
X39034872Y-54735165D01*
X39038676Y-54761294D01*
X39039500Y-54772675D01*
X39039500Y-55031092D01*
X39021018Y-55081872D01*
X39016361Y-55086953D01*
X38986952Y-55116362D01*
X38937976Y-55139200D01*
X38931091Y-55139501D01*
X38818398Y-55139501D01*
X38806544Y-55137567D01*
X38806430Y-55138390D01*
X38799182Y-55137378D01*
X38754186Y-55139459D01*
X38752361Y-55139501D01*
X38733763Y-55139501D01*
X38733760Y-55139501D01*
X38733754Y-55139502D01*
X38730039Y-55140196D01*
X38724610Y-55140825D01*
X38694422Y-55142222D01*
X38684604Y-55146557D01*
X38667223Y-55151939D01*
X38656670Y-55153912D01*
X38630973Y-55169823D01*
X38626135Y-55172372D01*
X38598866Y-55184414D01*
X38598488Y-55184581D01*
X38590904Y-55192165D01*
X38576639Y-55203464D01*
X38567515Y-55209114D01*
X38567511Y-55209118D01*
X38549297Y-55233236D01*
X38545702Y-55237367D01*
X37413121Y-56369947D01*
X37403373Y-56376966D01*
X37403872Y-56377626D01*
X37398032Y-56382036D01*
X37367678Y-56415331D01*
X37366420Y-56416649D01*
X37353274Y-56429795D01*
X37351134Y-56432919D01*
X37347741Y-56437201D01*
X37327383Y-56459535D01*
X37327381Y-56459538D01*
X37323505Y-56469542D01*
X37315019Y-56485642D01*
X37308955Y-56494494D01*
X37308954Y-56494495D01*
X37302036Y-56523913D01*
X37300416Y-56529144D01*
X37289500Y-56557320D01*
X37289500Y-56568044D01*
X37287402Y-56586131D01*
X37284944Y-56596578D01*
X37287186Y-56612648D01*
X37289121Y-56626519D01*
X37289500Y-56631972D01*
X37289500Y-57061358D01*
X37287567Y-57073212D01*
X37288389Y-57073327D01*
X37287377Y-57080576D01*
X37289458Y-57125571D01*
X37289500Y-57127396D01*
X37289500Y-57146000D01*
X37290193Y-57149707D01*
X37290824Y-57155143D01*
X37292221Y-57185334D01*
X37296555Y-57195150D01*
X37301938Y-57212532D01*
X37303144Y-57218983D01*
X37303911Y-57223086D01*
X37311293Y-57235007D01*
X37316117Y-57242799D01*
X37319818Y-57248775D01*
X37322370Y-57253617D01*
X37334579Y-57281267D01*
X37342162Y-57288850D01*
X37353467Y-57303121D01*
X37359118Y-57312247D01*
X37383238Y-57330462D01*
X37387362Y-57334050D01*
X37520103Y-57466791D01*
X37640189Y-57586877D01*
X37647202Y-57596624D01*
X37647865Y-57596124D01*
X37652276Y-57601964D01*
X37652277Y-57601965D01*
X37652279Y-57601968D01*
X37676212Y-57623786D01*
X37685574Y-57632321D01*
X37686872Y-57633560D01*
X37694194Y-57640882D01*
X37700037Y-57646725D01*
X37703148Y-57648856D01*
X37707445Y-57652258D01*
X37729778Y-57672618D01*
X37739779Y-57676492D01*
X37755887Y-57684983D01*
X37760580Y-57688197D01*
X37764738Y-57691046D01*
X37786185Y-57696090D01*
X37794157Y-57697965D01*
X37799390Y-57699586D01*
X37809359Y-57703448D01*
X37827565Y-57710501D01*
X37838291Y-57710501D01*
X37856377Y-57712599D01*
X37860408Y-57713546D01*
X37866821Y-57715055D01*
X37866821Y-57715054D01*
X37866822Y-57715055D01*
X37871808Y-57714359D01*
X37896755Y-57710879D01*
X37902210Y-57710501D01*
X38331602Y-57710501D01*
X38343455Y-57712434D01*
X38343570Y-57711612D01*
X38350817Y-57712623D01*
X38350819Y-57712622D01*
X38350820Y-57712623D01*
X38375438Y-57711484D01*
X38395814Y-57710543D01*
X38397639Y-57710501D01*
X38416235Y-57710501D01*
X38416237Y-57710501D01*
X38419952Y-57709806D01*
X38425383Y-57709175D01*
X38455577Y-57707780D01*
X38465389Y-57703447D01*
X38482784Y-57698061D01*
X38484382Y-57697762D01*
X38493328Y-57696090D01*
X38519028Y-57680175D01*
X38523855Y-57677631D01*
X38551510Y-57665422D01*
X38559096Y-57657835D01*
X38573363Y-57646533D01*
X38582489Y-57640884D01*
X38600708Y-57616756D01*
X38604291Y-57612639D01*
X38886875Y-57330055D01*
X38896626Y-57323045D01*
X38896123Y-57322379D01*
X38901962Y-57317968D01*
X38901967Y-57317966D01*
X38932340Y-57284647D01*
X38933529Y-57283401D01*
X38946724Y-57270208D01*
X38948863Y-57267082D01*
X38952250Y-57262806D01*
X38962123Y-57251976D01*
X39009995Y-57226906D01*
X39062782Y-57238471D01*
X39095785Y-57281262D01*
X39099500Y-57305204D01*
X39099500Y-57469749D01*
X39101813Y-57481381D01*
X39111132Y-57528231D01*
X39118313Y-57538977D01*
X39155448Y-57594553D01*
X39221769Y-57638868D01*
X39221768Y-57638868D01*
X39240013Y-57642497D01*
X39286212Y-57670531D01*
X39302797Y-57708736D01*
X39314834Y-57792456D01*
X39374622Y-57923373D01*
X39419684Y-57975377D01*
X39468872Y-58032144D01*
X39589947Y-58109954D01*
X39728039Y-58150501D01*
X39871960Y-58150501D01*
X39871961Y-58150501D01*
X40010053Y-58109954D01*
X40131128Y-58032144D01*
X40225377Y-57923374D01*
X40285165Y-57792458D01*
X40305647Y-57650001D01*
X40290369Y-57543741D01*
X40291082Y-57517092D01*
X40300500Y-57469749D01*
X40300500Y-57130253D01*
X40288867Y-57071770D01*
X40244552Y-57005449D01*
X40178231Y-56961134D01*
X40178230Y-56961133D01*
X40178231Y-56961133D01*
X40119748Y-56949501D01*
X39280252Y-56949501D01*
X39221769Y-56961133D01*
X39155445Y-57005451D01*
X39155183Y-57005844D01*
X39154692Y-57006203D01*
X39149946Y-57010950D01*
X39149215Y-57010219D01*
X39111602Y-57037795D01*
X39057678Y-57034258D01*
X39018645Y-56996886D01*
X39010500Y-56961950D01*
X39010500Y-56868909D01*
X39028982Y-56818129D01*
X39033628Y-56813058D01*
X39180275Y-56666410D01*
X39229249Y-56643574D01*
X39251545Y-56644790D01*
X39280252Y-56650501D01*
X39280253Y-56650501D01*
X40119748Y-56650501D01*
X40178231Y-56638868D01*
X40244552Y-56594553D01*
X40288867Y-56528232D01*
X40300500Y-56469749D01*
X40300500Y-56130253D01*
X40288867Y-56071770D01*
X40288866Y-56071768D01*
X40287602Y-56065414D01*
X40287602Y-56034588D01*
X40288866Y-56028233D01*
X40288867Y-56028232D01*
X40300500Y-55969749D01*
X40300500Y-55630253D01*
X40288867Y-55571770D01*
X40244552Y-55505449D01*
X40178231Y-55461134D01*
X40178230Y-55461133D01*
X40178231Y-55461133D01*
X40119748Y-55449501D01*
X39630595Y-55449501D01*
X39579815Y-55431019D01*
X39552795Y-55384219D01*
X39561039Y-55337465D01*
X39559972Y-55337052D01*
X39562064Y-55331648D01*
X39562179Y-55331001D01*
X39562566Y-55330352D01*
X39562615Y-55330224D01*
X39562617Y-55330223D01*
X39566490Y-55320223D01*
X39574986Y-55304107D01*
X39576810Y-55301444D01*
X39581045Y-55295263D01*
X39587965Y-55265837D01*
X39589581Y-55260618D01*
X39600500Y-55232436D01*
X39600500Y-55221708D01*
X39602599Y-55203620D01*
X39605053Y-55193183D01*
X39605054Y-55193179D01*
X39601308Y-55166330D01*
X39600877Y-55163245D01*
X39600499Y-55157787D01*
X39600499Y-55028996D01*
X39600499Y-54894284D01*
X39618981Y-54843507D01*
X39623291Y-54838774D01*
X40284852Y-54169237D01*
X40333688Y-54146108D01*
X40385969Y-54159782D01*
X40417229Y-54203861D01*
X40417947Y-54242852D01*
X40368418Y-54453437D01*
X40362000Y-54545910D01*
X40362000Y-54694090D01*
X40368418Y-54786562D01*
X40368418Y-54786565D01*
X40368419Y-54786567D01*
X40419357Y-55003143D01*
X40509223Y-55206671D01*
X40509224Y-55206672D01*
X40509226Y-55206676D01*
X40634960Y-55390224D01*
X40792275Y-55547539D01*
X40792278Y-55547541D01*
X40792279Y-55547542D01*
X40975829Y-55673277D01*
X41179357Y-55763143D01*
X41309315Y-55793708D01*
X41354513Y-55823325D01*
X41370100Y-55875067D01*
X41348781Y-55924723D01*
X41347087Y-55926470D01*
X40631285Y-56642272D01*
X40621158Y-56649561D01*
X40621612Y-56650162D01*
X40615771Y-56654572D01*
X40583217Y-56690280D01*
X40581961Y-56691596D01*
X40567827Y-56705732D01*
X40567817Y-56705744D01*
X40565418Y-56709244D01*
X40562027Y-56713524D01*
X40540084Y-56737597D01*
X40540082Y-56737600D01*
X40535693Y-56748928D01*
X40527209Y-56765024D01*
X40520346Y-56775044D01*
X40520344Y-56775048D01*
X40512887Y-56806747D01*
X40511268Y-56811975D01*
X40499500Y-56842356D01*
X40499500Y-56854500D01*
X40497402Y-56872587D01*
X40494620Y-56884411D01*
X40496207Y-56895783D01*
X40499121Y-56916674D01*
X40499500Y-56922128D01*
X40499500Y-61388097D01*
X40497491Y-61400412D01*
X40498238Y-61400517D01*
X40497226Y-61407763D01*
X40499458Y-61456027D01*
X40499500Y-61457852D01*
X40499500Y-61477850D01*
X40500279Y-61482015D01*
X40500910Y-61487454D01*
X40502414Y-61519991D01*
X40507322Y-61531106D01*
X40512707Y-61548496D01*
X40514938Y-61560432D01*
X40532083Y-61588122D01*
X40534636Y-61592966D01*
X40547793Y-61622763D01*
X40547796Y-61622767D01*
X40556378Y-61631349D01*
X40567683Y-61645620D01*
X40574081Y-61655952D01*
X40597197Y-61673409D01*
X40626582Y-61718760D01*
X40619942Y-61772389D01*
X40580382Y-61809203D01*
X40571848Y-61812251D01*
X40566039Y-61813956D01*
X40566035Y-61813958D01*
X40444960Y-61891768D01*
X40350711Y-62000538D01*
X40290923Y-62131455D01*
X40270442Y-62273911D01*
X40290923Y-62416366D01*
X40350711Y-62547283D01*
X40350712Y-62547284D01*
X40444961Y-62656054D01*
X40566036Y-62733864D01*
X40704128Y-62774411D01*
X40848053Y-62774411D01*
X40853646Y-62773607D01*
X40854095Y-62776735D01*
X40896424Y-62779246D01*
X40920919Y-62795891D01*
X41189667Y-63064639D01*
X41212505Y-63113615D01*
X41198519Y-63165813D01*
X41154253Y-63196808D01*
X41133806Y-63199500D01*
X38687589Y-63199500D01*
X38685005Y-63199415D01*
X38442732Y-63183535D01*
X38437604Y-63182860D01*
X38200754Y-63135746D01*
X38195758Y-63134408D01*
X37967089Y-63056785D01*
X37962311Y-63054806D01*
X37745721Y-62947995D01*
X37741241Y-62945409D01*
X37540450Y-62811243D01*
X37536354Y-62808101D01*
X37354772Y-62648858D01*
X37351141Y-62645227D01*
X37191896Y-62463642D01*
X37188756Y-62459549D01*
X37147647Y-62398027D01*
X37054586Y-62258751D01*
X37052004Y-62254278D01*
X36945193Y-62037688D01*
X36943217Y-62032918D01*
X36865588Y-61804231D01*
X36864253Y-61799245D01*
X36848243Y-61718760D01*
X36817137Y-61562382D01*
X36816465Y-61557275D01*
X36805376Y-61388097D01*
X36800585Y-61314995D01*
X36800543Y-61313708D01*
X37280992Y-61313708D01*
X37300158Y-61545013D01*
X37357135Y-61770008D01*
X37357137Y-61770013D01*
X37357138Y-61770016D01*
X37431166Y-61938782D01*
X37450368Y-61982557D01*
X37577313Y-62176861D01*
X37734501Y-62347614D01*
X37734504Y-62347616D01*
X37734508Y-62347621D01*
X37917666Y-62490178D01*
X38012510Y-62541505D01*
X38121786Y-62600643D01*
X38121789Y-62600644D01*
X38341311Y-62676006D01*
X38570243Y-62714208D01*
X38570248Y-62714208D01*
X38802335Y-62714208D01*
X38802341Y-62714208D01*
X39031273Y-62676006D01*
X39250795Y-62600644D01*
X39454918Y-62490178D01*
X39638076Y-62347621D01*
X39795271Y-62176861D01*
X39922216Y-61982557D01*
X40015449Y-61770008D01*
X40072426Y-61545013D01*
X40091592Y-61313708D01*
X40072426Y-61082403D01*
X40015449Y-60857408D01*
X39922216Y-60644859D01*
X39795271Y-60450555D01*
X39638076Y-60279795D01*
X39454918Y-60137238D01*
X39440484Y-60129426D01*
X39250797Y-60026772D01*
X39031275Y-59951410D01*
X38965863Y-59940495D01*
X38802341Y-59913208D01*
X38570243Y-59913208D01*
X38427160Y-59937084D01*
X38341308Y-59951410D01*
X38121786Y-60026772D01*
X37917667Y-60137237D01*
X37917665Y-60137238D01*
X37734511Y-60279792D01*
X37734501Y-60279801D01*
X37577313Y-60450554D01*
X37577313Y-60450555D01*
X37450366Y-60644862D01*
X37450365Y-60644864D01*
X37357138Y-60857399D01*
X37357136Y-60857404D01*
X37357135Y-60857408D01*
X37300158Y-61082403D01*
X37284936Y-61266115D01*
X37280992Y-61313708D01*
X36800543Y-61313708D01*
X36800500Y-61312411D01*
X36800500Y-38687586D01*
X36800585Y-38685002D01*
X36810360Y-38535868D01*
X36816465Y-38442722D01*
X36817136Y-38437619D01*
X36863616Y-38203955D01*
X36864253Y-38200754D01*
X36865587Y-38195772D01*
X36943219Y-37967076D01*
X36945189Y-37962318D01*
X37052006Y-37745716D01*
X37054581Y-37741254D01*
X37188759Y-37540445D01*
X37191890Y-37536364D01*
X37351148Y-37354764D01*
X37354764Y-37351148D01*
X37536364Y-37191890D01*
X37540445Y-37188759D01*
X37741254Y-37054581D01*
X37745716Y-37052006D01*
X37962318Y-36945189D01*
X37967076Y-36943219D01*
X38195772Y-36865587D01*
X38200754Y-36864253D01*
X38210402Y-36862333D01*
X38437619Y-36817136D01*
X38442722Y-36816465D01*
X38569047Y-36808185D01*
X38685005Y-36800585D01*
X38687589Y-36800500D01*
X38733888Y-36800500D01*
X41753587Y-36800500D01*
X41804367Y-36818982D01*
G37*
G04 #@! TD.AperFunction*
G04 #@! TA.AperFunction,Conductor*
G36*
X54293587Y-37968983D02*
G01*
X54298668Y-37973640D01*
X54446801Y-38121773D01*
X54469639Y-38170749D01*
X54455653Y-38222947D01*
X54433651Y-38244093D01*
X54318871Y-38317858D01*
X54224622Y-38426628D01*
X54164835Y-38557542D01*
X54164834Y-38557546D01*
X54151586Y-38649687D01*
X54129252Y-38694305D01*
X53947197Y-38876362D01*
X53898221Y-38899200D01*
X53891335Y-38899501D01*
X53846217Y-38899501D01*
X53833901Y-38897492D01*
X53833797Y-38898239D01*
X53826550Y-38897227D01*
X53778285Y-38899459D01*
X53776460Y-38899501D01*
X53756464Y-38899501D01*
X53752301Y-38900280D01*
X53746862Y-38900911D01*
X53714324Y-38902415D01*
X53714321Y-38902416D01*
X53714322Y-38902416D01*
X53703201Y-38907325D01*
X53685817Y-38912708D01*
X53673885Y-38914938D01*
X53673876Y-38914942D01*
X53646187Y-38932084D01*
X53641347Y-38934635D01*
X53611548Y-38947794D01*
X53611544Y-38947797D01*
X53602955Y-38956386D01*
X53588693Y-38967684D01*
X53578364Y-38974080D01*
X53578358Y-38974085D01*
X53558729Y-39000078D01*
X53555134Y-39004209D01*
X52781285Y-39778057D01*
X52771158Y-39785346D01*
X52771612Y-39785947D01*
X52765771Y-39790357D01*
X52733217Y-39826065D01*
X52731961Y-39827381D01*
X52717827Y-39841517D01*
X52717817Y-39841529D01*
X52715418Y-39845029D01*
X52712027Y-39849309D01*
X52690084Y-39873382D01*
X52690082Y-39873385D01*
X52685693Y-39884713D01*
X52677209Y-39900809D01*
X52670346Y-39910829D01*
X52670344Y-39910833D01*
X52662887Y-39942532D01*
X52661268Y-39947760D01*
X52649500Y-39978141D01*
X52649500Y-39990285D01*
X52647402Y-40008372D01*
X52644620Y-40020196D01*
X52647239Y-40038969D01*
X52649121Y-40052459D01*
X52649500Y-40057913D01*
X52649500Y-49403783D01*
X52647491Y-49416098D01*
X52648238Y-49416203D01*
X52647226Y-49423449D01*
X52649458Y-49471713D01*
X52649500Y-49473538D01*
X52649500Y-49493536D01*
X52650279Y-49497701D01*
X52650910Y-49503140D01*
X52652414Y-49535677D01*
X52657322Y-49546792D01*
X52662707Y-49564182D01*
X52664938Y-49576118D01*
X52682083Y-49603808D01*
X52684636Y-49608652D01*
X52697793Y-49638449D01*
X52697796Y-49638453D01*
X52706378Y-49647035D01*
X52717683Y-49661306D01*
X52724080Y-49671637D01*
X52750076Y-49691269D01*
X52754200Y-49694857D01*
X53414077Y-50354734D01*
X54073242Y-51013899D01*
X54095577Y-51058517D01*
X54114834Y-51192455D01*
X54174622Y-51323372D01*
X54266019Y-51428850D01*
X54268872Y-51432143D01*
X54389947Y-51509953D01*
X54528039Y-51550500D01*
X54671960Y-51550500D01*
X54671961Y-51550500D01*
X54798244Y-51513420D01*
X54852173Y-51516847D01*
X54891283Y-51554139D01*
X54899500Y-51589220D01*
X54899500Y-52014569D01*
X54897491Y-52026884D01*
X54898238Y-52026989D01*
X54897226Y-52034235D01*
X54899458Y-52082499D01*
X54899500Y-52084324D01*
X54899500Y-52104322D01*
X54900279Y-52108487D01*
X54900910Y-52113926D01*
X54902414Y-52146463D01*
X54907322Y-52157578D01*
X54912707Y-52174968D01*
X54914938Y-52186904D01*
X54932083Y-52214594D01*
X54934634Y-52219435D01*
X54935080Y-52220443D01*
X54947793Y-52249235D01*
X54947796Y-52249239D01*
X54956378Y-52257821D01*
X54967683Y-52272092D01*
X54974080Y-52282423D01*
X55000076Y-52302055D01*
X55004200Y-52305643D01*
X55023548Y-52324991D01*
X55026360Y-52327803D01*
X55049198Y-52376779D01*
X55049499Y-52383664D01*
X55049499Y-52567807D01*
X55031017Y-52618587D01*
X55026360Y-52623668D01*
X54898666Y-52751362D01*
X54849692Y-52774200D01*
X54842806Y-52774501D01*
X54703039Y-52774501D01*
X54564947Y-52815048D01*
X54564946Y-52815048D01*
X54443871Y-52892858D01*
X54349622Y-53001628D01*
X54289834Y-53132545D01*
X54269353Y-53275001D01*
X54289834Y-53417456D01*
X54349622Y-53548373D01*
X54439475Y-53652069D01*
X54443872Y-53657144D01*
X54564947Y-53734954D01*
X54703039Y-53775501D01*
X54846960Y-53775501D01*
X54846961Y-53775501D01*
X54985053Y-53734954D01*
X55106128Y-53657144D01*
X55200377Y-53548374D01*
X55260165Y-53417458D01*
X55280647Y-53275001D01*
X55280373Y-53273098D01*
X55279276Y-53265467D01*
X55290341Y-53212573D01*
X55301606Y-53198364D01*
X55518711Y-52981259D01*
X55528842Y-52973974D01*
X55528386Y-52973370D01*
X55534224Y-52968960D01*
X55534228Y-52968959D01*
X55566799Y-52933229D01*
X55568009Y-52931961D01*
X55582174Y-52917798D01*
X55584577Y-52914289D01*
X55587962Y-52910014D01*
X55609916Y-52885934D01*
X55614304Y-52874605D01*
X55622793Y-52858499D01*
X55629656Y-52848482D01*
X55637111Y-52816781D01*
X55638731Y-52811550D01*
X55639576Y-52809370D01*
X55650500Y-52781174D01*
X55650500Y-52769028D01*
X55652598Y-52750941D01*
X55655379Y-52739120D01*
X55650878Y-52706857D01*
X55650500Y-52701402D01*
X55650500Y-52288377D01*
X55652509Y-52276063D01*
X55651762Y-52275959D01*
X55652773Y-52268710D01*
X55652569Y-52264305D01*
X55650753Y-52225000D01*
X55650542Y-52220443D01*
X55650500Y-52218618D01*
X55650500Y-52198632D01*
X55650500Y-52198628D01*
X55649719Y-52194455D01*
X55649088Y-52189017D01*
X55647585Y-52156480D01*
X55642678Y-52145367D01*
X55637292Y-52127974D01*
X55635061Y-52116040D01*
X55635061Y-52116039D01*
X55617912Y-52088343D01*
X55615363Y-52083505D01*
X55615319Y-52083406D01*
X55602206Y-52053707D01*
X55602204Y-52053704D01*
X55593619Y-52045119D01*
X55582312Y-52030845D01*
X55579859Y-52026884D01*
X55575919Y-52020520D01*
X55549918Y-52000885D01*
X55545801Y-51997302D01*
X55523637Y-51975138D01*
X55500800Y-51926166D01*
X55500500Y-51919301D01*
X55500500Y-51151977D01*
X55518983Y-51101197D01*
X55565782Y-51074177D01*
X55619000Y-51083561D01*
X55635361Y-51096116D01*
X56076361Y-51537116D01*
X56099199Y-51586092D01*
X56099500Y-51592977D01*
X56099500Y-54397063D01*
X56096484Y-54418684D01*
X56095599Y-54421793D01*
X56099331Y-54462072D01*
X56099500Y-54465718D01*
X56099500Y-54477845D01*
X56101727Y-54489760D01*
X56102230Y-54493371D01*
X56105965Y-54533661D01*
X56105965Y-54533662D01*
X56107407Y-54536557D01*
X56114343Y-54557249D01*
X56114938Y-54560432D01*
X56115167Y-54560802D01*
X56115403Y-54561632D01*
X56117582Y-54567255D01*
X56117060Y-54567457D01*
X56127000Y-54602390D01*
X56127000Y-55096575D01*
X56124991Y-55108890D01*
X56125738Y-55108995D01*
X56124726Y-55116241D01*
X56126958Y-55164505D01*
X56127000Y-55166330D01*
X56127000Y-55186328D01*
X56127779Y-55190493D01*
X56128410Y-55195932D01*
X56129914Y-55228469D01*
X56134822Y-55239584D01*
X56140207Y-55256974D01*
X56142438Y-55268910D01*
X56142439Y-55268911D01*
X56156715Y-55291969D01*
X56159583Y-55296600D01*
X56162136Y-55301444D01*
X56175293Y-55331241D01*
X56175296Y-55331245D01*
X56183878Y-55339827D01*
X56195183Y-55354098D01*
X56201580Y-55364429D01*
X56227576Y-55384061D01*
X56231700Y-55387649D01*
X56607192Y-55763141D01*
X56932762Y-56088711D01*
X56940053Y-56098842D01*
X56940655Y-56098389D01*
X56945064Y-56104228D01*
X56980782Y-56136790D01*
X56982080Y-56138029D01*
X56996225Y-56152174D01*
X56999726Y-56154572D01*
X57004013Y-56157968D01*
X57028089Y-56179916D01*
X57039415Y-56184304D01*
X57055524Y-56192794D01*
X57065542Y-56199657D01*
X57097253Y-56207115D01*
X57102460Y-56208727D01*
X57122836Y-56216621D01*
X57132848Y-56220500D01*
X57132849Y-56220500D01*
X57144992Y-56220500D01*
X57163079Y-56222598D01*
X57174903Y-56225379D01*
X57207165Y-56220878D01*
X57212621Y-56220500D01*
X59218098Y-56220500D01*
X59230413Y-56222508D01*
X59230518Y-56221762D01*
X59237764Y-56222773D01*
X59237765Y-56222772D01*
X59237766Y-56222773D01*
X59259636Y-56221762D01*
X59286030Y-56220542D01*
X59287855Y-56220500D01*
X59307839Y-56220500D01*
X59307845Y-56220500D01*
X59312017Y-56219719D01*
X59317453Y-56219088D01*
X59349993Y-56217585D01*
X59360849Y-56212790D01*
X59414767Y-56209186D01*
X59458388Y-56241083D01*
X59471302Y-56293556D01*
X59452465Y-56336792D01*
X59374622Y-56426628D01*
X59314834Y-56557545D01*
X59294353Y-56700000D01*
X59314834Y-56842456D01*
X59374622Y-56973373D01*
X59462028Y-57074245D01*
X59468872Y-57082144D01*
X59589947Y-57159954D01*
X59728039Y-57200501D01*
X59842807Y-57200501D01*
X59893587Y-57218983D01*
X59898668Y-57223640D01*
X60093740Y-57418712D01*
X60101031Y-57428843D01*
X60101633Y-57428390D01*
X60106042Y-57434229D01*
X60141760Y-57466791D01*
X60143058Y-57468030D01*
X60157203Y-57482175D01*
X60160704Y-57484573D01*
X60164990Y-57487968D01*
X60189067Y-57509917D01*
X60200392Y-57514304D01*
X60216498Y-57522793D01*
X60226519Y-57529658D01*
X60258229Y-57537116D01*
X60263451Y-57538733D01*
X60293827Y-57550501D01*
X60305970Y-57550501D01*
X60324057Y-57552599D01*
X60335881Y-57555380D01*
X60368143Y-57550879D01*
X60373599Y-57550501D01*
X61038097Y-57550501D01*
X61050412Y-57552509D01*
X61050517Y-57551763D01*
X61057763Y-57552774D01*
X61057764Y-57552773D01*
X61057765Y-57552774D01*
X61079635Y-57551763D01*
X61106029Y-57550543D01*
X61107854Y-57550501D01*
X61127838Y-57550501D01*
X61127844Y-57550501D01*
X61132016Y-57549720D01*
X61137452Y-57549089D01*
X61169992Y-57547586D01*
X61181104Y-57542678D01*
X61198492Y-57537293D01*
X61210433Y-57535062D01*
X61238129Y-57517913D01*
X61242956Y-57515368D01*
X61272765Y-57502207D01*
X61281353Y-57493617D01*
X61295622Y-57482315D01*
X61305952Y-57475920D01*
X61325585Y-57449919D01*
X61329162Y-57445808D01*
X61468711Y-57306259D01*
X61478842Y-57298974D01*
X61478386Y-57298370D01*
X61484224Y-57293960D01*
X61484228Y-57293959D01*
X61516799Y-57258229D01*
X61518009Y-57256961D01*
X61532174Y-57242798D01*
X61534577Y-57239289D01*
X61537962Y-57235014D01*
X61559916Y-57210934D01*
X61564304Y-57199605D01*
X61572795Y-57183497D01*
X61579657Y-57173481D01*
X61586122Y-57145994D01*
X61587115Y-57141773D01*
X61588732Y-57136549D01*
X61600500Y-57106174D01*
X61600500Y-57094028D01*
X61602598Y-57075941D01*
X61605379Y-57064120D01*
X61600878Y-57031855D01*
X61600500Y-57026402D01*
X61600500Y-56810559D01*
X61618982Y-56759779D01*
X61665782Y-56732759D01*
X61719000Y-56742143D01*
X61735359Y-56754696D01*
X61742839Y-56762176D01*
X61744591Y-56763376D01*
X61746341Y-56764575D01*
X61750632Y-56767973D01*
X61758393Y-56775048D01*
X61774700Y-56789915D01*
X61774701Y-56789915D01*
X61774703Y-56789917D01*
X61786026Y-56794303D01*
X61802133Y-56802792D01*
X61812156Y-56809658D01*
X61843867Y-56817116D01*
X61849074Y-56818728D01*
X61869450Y-56826622D01*
X61879462Y-56830501D01*
X61879463Y-56830501D01*
X61891606Y-56830501D01*
X61909693Y-56832599D01*
X61921517Y-56835380D01*
X61953779Y-56830879D01*
X61959235Y-56830501D01*
X62170500Y-56830501D01*
X62221280Y-56848983D01*
X62248300Y-56895783D01*
X62249500Y-56909501D01*
X62249499Y-61492808D01*
X62231016Y-61543588D01*
X62226368Y-61548660D01*
X62217825Y-61557204D01*
X62217826Y-61557204D01*
X62170343Y-61626521D01*
X62144621Y-61735877D01*
X62144620Y-61735884D01*
X62160142Y-61847150D01*
X62162469Y-61854092D01*
X62161680Y-61854356D01*
X62169499Y-61884466D01*
X62169500Y-61920499D01*
X62151019Y-61971280D01*
X62104220Y-61998300D01*
X62090500Y-61999501D01*
X61861904Y-61999501D01*
X61849588Y-61997492D01*
X61849484Y-61998239D01*
X61842237Y-61997227D01*
X61793972Y-61999459D01*
X61792147Y-61999501D01*
X61774007Y-61999501D01*
X61770439Y-62000167D01*
X61765006Y-62000797D01*
X61730009Y-62002415D01*
X61717535Y-62007923D01*
X61700153Y-62013306D01*
X61696918Y-62013910D01*
X61696914Y-62013912D01*
X61681706Y-62023328D01*
X61676864Y-62025880D01*
X61627236Y-62047793D01*
X61627235Y-62047794D01*
X61465523Y-62209505D01*
X61451249Y-62220811D01*
X61433052Y-62232078D01*
X61428210Y-62234630D01*
X61398407Y-62247791D01*
X61398405Y-62247792D01*
X61389816Y-62256381D01*
X61375554Y-62267679D01*
X61365225Y-62274075D01*
X61365219Y-62274081D01*
X61345593Y-62300068D01*
X61342000Y-62304197D01*
X61319840Y-62326360D01*
X61270865Y-62349200D01*
X61263976Y-62349501D01*
X57634500Y-62349501D01*
X57583720Y-62331019D01*
X57556700Y-62284219D01*
X57555500Y-62270501D01*
X57555500Y-59428233D01*
X57555003Y-59416862D01*
X57535945Y-59338990D01*
X57513107Y-59290014D01*
X57472171Y-59231552D01*
X57472166Y-59231547D01*
X57472164Y-59231544D01*
X56265287Y-58024668D01*
X56256912Y-58016991D01*
X56256910Y-58016989D01*
X56256909Y-58016989D01*
X56188342Y-57975376D01*
X56137562Y-57956894D01*
X56137561Y-57956894D01*
X56067281Y-57944501D01*
X56067278Y-57944501D01*
X51684500Y-57944501D01*
X51633720Y-57926019D01*
X51606700Y-57879219D01*
X51605500Y-57865501D01*
X51605500Y-52524516D01*
X51605109Y-52515558D01*
X51603605Y-52498372D01*
X51603518Y-52497374D01*
X51576768Y-52412532D01*
X51574114Y-52407936D01*
X51549751Y-52365737D01*
X51549747Y-52365731D01*
X51538545Y-52350942D01*
X51518890Y-52324993D01*
X51518889Y-52324992D01*
X51518888Y-52324991D01*
X51442064Y-52275374D01*
X51391286Y-52256893D01*
X51321003Y-52244500D01*
X51321000Y-52244500D01*
X48674517Y-52244500D01*
X48674516Y-52244500D01*
X48665558Y-52244891D01*
X48647372Y-52246482D01*
X48562533Y-52273231D01*
X48562526Y-52273234D01*
X48515737Y-52300248D01*
X48515731Y-52300252D01*
X48474991Y-52331111D01*
X48425374Y-52407935D01*
X48406893Y-52458713D01*
X48394500Y-52528996D01*
X48394500Y-54665500D01*
X48376018Y-54716280D01*
X48329218Y-54743300D01*
X48315500Y-54744500D01*
X46574516Y-54744500D01*
X46565558Y-54744891D01*
X46547372Y-54746482D01*
X46462533Y-54773231D01*
X46462526Y-54773234D01*
X46415737Y-54800248D01*
X46415731Y-54800252D01*
X46374991Y-54831111D01*
X46325374Y-54907935D01*
X46306893Y-54958713D01*
X46294500Y-55028996D01*
X46294500Y-58393333D01*
X46294353Y-58395390D01*
X46294353Y-58404623D01*
X46294500Y-58406677D01*
X46294500Y-61643333D01*
X46294353Y-61645390D01*
X46294353Y-61654623D01*
X46294500Y-61656677D01*
X46294500Y-62270501D01*
X46276018Y-62321281D01*
X46229218Y-62348301D01*
X46215500Y-62349501D01*
X42157194Y-62349501D01*
X42106414Y-62331019D01*
X42101333Y-62326362D01*
X41550226Y-61775255D01*
X41527388Y-61726279D01*
X41541374Y-61674081D01*
X41583831Y-61643594D01*
X41609553Y-61636042D01*
X41730628Y-61558232D01*
X41824877Y-61449462D01*
X41884665Y-61318546D01*
X41905147Y-61176089D01*
X41884665Y-61033632D01*
X41824877Y-60902716D01*
X41730628Y-60793946D01*
X41609553Y-60716136D01*
X41609554Y-60716136D01*
X41557242Y-60700776D01*
X41513727Y-60668735D01*
X41500500Y-60624976D01*
X41500500Y-57221409D01*
X41518982Y-57170629D01*
X41523639Y-57165548D01*
X42445548Y-56243639D01*
X42494524Y-56220801D01*
X42501409Y-56220500D01*
X42789075Y-56220500D01*
X42801390Y-56222508D01*
X42801495Y-56221762D01*
X42808741Y-56222773D01*
X42808742Y-56222772D01*
X42808743Y-56222773D01*
X42830613Y-56221762D01*
X42857007Y-56220542D01*
X42858832Y-56220500D01*
X42878816Y-56220500D01*
X42878822Y-56220500D01*
X42882994Y-56219719D01*
X42888430Y-56219088D01*
X42920970Y-56217585D01*
X42932082Y-56212677D01*
X42949470Y-56207292D01*
X42961411Y-56205061D01*
X42989107Y-56187912D01*
X42993934Y-56185367D01*
X43023743Y-56172206D01*
X43032331Y-56163616D01*
X43046600Y-56152314D01*
X43056930Y-56145919D01*
X43076563Y-56119918D01*
X43080140Y-56115807D01*
X43781211Y-55414736D01*
X43791342Y-55407451D01*
X43790886Y-55406847D01*
X43796724Y-55402437D01*
X43796728Y-55402436D01*
X43829299Y-55366706D01*
X43830509Y-55365438D01*
X43844674Y-55351275D01*
X43847077Y-55347766D01*
X43850462Y-55343491D01*
X43872416Y-55319411D01*
X43876804Y-55308082D01*
X43885295Y-55291974D01*
X43892157Y-55281958D01*
X43899615Y-55250250D01*
X43901232Y-55245026D01*
X43913000Y-55214651D01*
X43913000Y-55202504D01*
X43915098Y-55184418D01*
X43917879Y-55172597D01*
X43913378Y-55140332D01*
X43913000Y-55134879D01*
X43913000Y-53824407D01*
X43915009Y-53812093D01*
X43914262Y-53811989D01*
X43915273Y-53804740D01*
X43913042Y-53756473D01*
X43913000Y-53754648D01*
X43913000Y-53734661D01*
X43913000Y-53734657D01*
X43912219Y-53730484D01*
X43911588Y-53725046D01*
X43911242Y-53717558D01*
X43910085Y-53692510D01*
X43905178Y-53681397D01*
X43899792Y-53664003D01*
X43897561Y-53652069D01*
X43897561Y-53652068D01*
X43880411Y-53624370D01*
X43877862Y-53619533D01*
X43876927Y-53617415D01*
X43864706Y-53589736D01*
X43864702Y-53589732D01*
X43864701Y-53589730D01*
X43856119Y-53581148D01*
X43844812Y-53566874D01*
X43838419Y-53556549D01*
X43812425Y-53536919D01*
X43808300Y-53533330D01*
X43238477Y-52963507D01*
X43215639Y-52914531D01*
X43229625Y-52862333D01*
X43238479Y-52851783D01*
X43240042Y-52850221D01*
X43365777Y-52666671D01*
X43455643Y-52463143D01*
X43506581Y-52246567D01*
X43513000Y-52154092D01*
X43513000Y-52005908D01*
X43506581Y-51913433D01*
X43455643Y-51696857D01*
X43390800Y-51550000D01*
X46544353Y-51550000D01*
X46564834Y-51692455D01*
X46624622Y-51823372D01*
X46645759Y-51847765D01*
X46718872Y-51932143D01*
X46839947Y-52009953D01*
X46978039Y-52050500D01*
X47121960Y-52050500D01*
X47121961Y-52050500D01*
X47260053Y-52009953D01*
X47381128Y-51932143D01*
X47475377Y-51823373D01*
X47535165Y-51692457D01*
X47555647Y-51550000D01*
X47535165Y-51407543D01*
X47475377Y-51276627D01*
X47381128Y-51167857D01*
X47381127Y-51167856D01*
X47377765Y-51164943D01*
X47351491Y-51117721D01*
X47350500Y-51105251D01*
X47350500Y-50807191D01*
X47368983Y-50756411D01*
X47373628Y-50751341D01*
X47687965Y-50437004D01*
X47698096Y-50429719D01*
X47697640Y-50429115D01*
X47703478Y-50424705D01*
X47703482Y-50424704D01*
X47736053Y-50388974D01*
X47737263Y-50387706D01*
X47751428Y-50373543D01*
X47753831Y-50370034D01*
X47757216Y-50365759D01*
X47779170Y-50341679D01*
X47783558Y-50330350D01*
X47792047Y-50314244D01*
X47798910Y-50304227D01*
X47806365Y-50272526D01*
X47807985Y-50267295D01*
X47808633Y-50265623D01*
X47819754Y-50236919D01*
X47819754Y-50224773D01*
X47821852Y-50206686D01*
X47824633Y-50194865D01*
X47820132Y-50162600D01*
X47819754Y-50157147D01*
X47819754Y-49775506D01*
X47838236Y-49724726D01*
X47847021Y-49715801D01*
X47850377Y-49712891D01*
X47850382Y-49712889D01*
X47944631Y-49604119D01*
X48004419Y-49473203D01*
X48024901Y-49330746D01*
X48004419Y-49188289D01*
X47944631Y-49057373D01*
X47850382Y-48948603D01*
X47729307Y-48870793D01*
X47591215Y-48830246D01*
X47447293Y-48830246D01*
X47309201Y-48870793D01*
X47309200Y-48870793D01*
X47188125Y-48948603D01*
X47093876Y-49057373D01*
X47034088Y-49188290D01*
X47013607Y-49330746D01*
X47034088Y-49473201D01*
X47093876Y-49604118D01*
X47093877Y-49604119D01*
X47188126Y-49712889D01*
X47188131Y-49712892D01*
X47191486Y-49715800D01*
X47217760Y-49763021D01*
X47218753Y-49775505D01*
X47218753Y-50023552D01*
X47200271Y-50074332D01*
X47195614Y-50079413D01*
X46881285Y-50393742D01*
X46871158Y-50401031D01*
X46871612Y-50401632D01*
X46865771Y-50406042D01*
X46833217Y-50441750D01*
X46831961Y-50443066D01*
X46817827Y-50457202D01*
X46817817Y-50457214D01*
X46815418Y-50460714D01*
X46812027Y-50464994D01*
X46790084Y-50489067D01*
X46790082Y-50489070D01*
X46785693Y-50500398D01*
X46777209Y-50516494D01*
X46770346Y-50526514D01*
X46770344Y-50526518D01*
X46762887Y-50558217D01*
X46761268Y-50563445D01*
X46749500Y-50593826D01*
X46749500Y-50605970D01*
X46747402Y-50624057D01*
X46744620Y-50635881D01*
X46747239Y-50654654D01*
X46749121Y-50668144D01*
X46749500Y-50673598D01*
X46749500Y-51105239D01*
X46731018Y-51156019D01*
X46722238Y-51164940D01*
X46718872Y-51167856D01*
X46624622Y-51276627D01*
X46564834Y-51407544D01*
X46544353Y-51550000D01*
X43390800Y-51550000D01*
X43365777Y-51493329D01*
X43240042Y-51309779D01*
X43240041Y-51309778D01*
X43240039Y-51309775D01*
X43082724Y-51152460D01*
X42899176Y-51026726D01*
X42899172Y-51026724D01*
X42899173Y-51026724D01*
X42899171Y-51026723D01*
X42695643Y-50936857D01*
X42483242Y-50886901D01*
X42438044Y-50857284D01*
X42422457Y-50805541D01*
X42443776Y-50755885D01*
X42483242Y-50733098D01*
X42695643Y-50683143D01*
X42899171Y-50593277D01*
X43082721Y-50467542D01*
X43240042Y-50310221D01*
X43365777Y-50126671D01*
X43455643Y-49923143D01*
X43506581Y-49706567D01*
X43513000Y-49614092D01*
X43513000Y-49465908D01*
X43506581Y-49373433D01*
X43455643Y-49156857D01*
X43365777Y-48953329D01*
X43240042Y-48769779D01*
X43240041Y-48769778D01*
X43240039Y-48769775D01*
X43082724Y-48612460D01*
X42899176Y-48486726D01*
X42899172Y-48486724D01*
X42899173Y-48486724D01*
X42899171Y-48486723D01*
X42695643Y-48396857D01*
X42483242Y-48346901D01*
X42438044Y-48317284D01*
X42422457Y-48265541D01*
X42443776Y-48215885D01*
X42483242Y-48193098D01*
X42695643Y-48143143D01*
X42899171Y-48053277D01*
X43082721Y-47927542D01*
X43240042Y-47770221D01*
X43365777Y-47586671D01*
X43455643Y-47383143D01*
X43506581Y-47166567D01*
X43513000Y-47074092D01*
X43513000Y-46925908D01*
X43506581Y-46833433D01*
X43455643Y-46616857D01*
X43365777Y-46413329D01*
X43240042Y-46229779D01*
X43240041Y-46229778D01*
X43240039Y-46229775D01*
X43082724Y-46072460D01*
X42899176Y-45946726D01*
X42899172Y-45946724D01*
X42899173Y-45946724D01*
X42899171Y-45946723D01*
X42695643Y-45856857D01*
X42483242Y-45806901D01*
X42438044Y-45777284D01*
X42422457Y-45725541D01*
X42443776Y-45675885D01*
X42483242Y-45653098D01*
X42695643Y-45603143D01*
X42899171Y-45513277D01*
X43082721Y-45387542D01*
X43240042Y-45230221D01*
X43365777Y-45046671D01*
X43455643Y-44843143D01*
X43506581Y-44626567D01*
X43513000Y-44534092D01*
X43513000Y-44385908D01*
X43506581Y-44293433D01*
X43455643Y-44076857D01*
X43365777Y-43873329D01*
X43240042Y-43689779D01*
X43240041Y-43689778D01*
X43240039Y-43689775D01*
X43082724Y-43532460D01*
X42899176Y-43406726D01*
X42899172Y-43406724D01*
X42899173Y-43406724D01*
X42899171Y-43406723D01*
X42695643Y-43316857D01*
X42483242Y-43266901D01*
X42438044Y-43237284D01*
X42422457Y-43185541D01*
X42443776Y-43135885D01*
X42483242Y-43113098D01*
X42695643Y-43063143D01*
X42899171Y-42973277D01*
X43082721Y-42847542D01*
X43240042Y-42690221D01*
X43365777Y-42506671D01*
X43455643Y-42303143D01*
X43506581Y-42086567D01*
X43513000Y-41994092D01*
X43513000Y-41845908D01*
X43506581Y-41753433D01*
X43455643Y-41536857D01*
X43365777Y-41333329D01*
X43360454Y-41325559D01*
X43289668Y-41222224D01*
X43240042Y-41149779D01*
X43240040Y-41149777D01*
X43240039Y-41149775D01*
X43082724Y-40992460D01*
X42899176Y-40866726D01*
X42899172Y-40866724D01*
X42899173Y-40866724D01*
X42899171Y-40866723D01*
X42695643Y-40776857D01*
X42483242Y-40726901D01*
X42438044Y-40697284D01*
X42422457Y-40645541D01*
X42443776Y-40595885D01*
X42483242Y-40573098D01*
X42695643Y-40523143D01*
X42899171Y-40433277D01*
X43082721Y-40307542D01*
X43240042Y-40150221D01*
X43365777Y-39966671D01*
X43455643Y-39763143D01*
X43506581Y-39546567D01*
X43513000Y-39454092D01*
X43513000Y-39305908D01*
X43506581Y-39213433D01*
X43455643Y-38996857D01*
X43365777Y-38793329D01*
X43240042Y-38609779D01*
X43240040Y-38609777D01*
X43240038Y-38609774D01*
X43237710Y-38606970D01*
X43239288Y-38605659D01*
X43219390Y-38562988D01*
X43233376Y-38510790D01*
X43242222Y-38500248D01*
X43768831Y-37973640D01*
X43817807Y-37950802D01*
X43824692Y-37950501D01*
X54242807Y-37950501D01*
X54293587Y-37968983D01*
G37*
G04 #@! TD.AperFunction*
G04 #@! TA.AperFunction,Conductor*
G36*
X63165813Y-47002825D02*
G01*
X63196808Y-47047091D01*
X63199500Y-47067538D01*
X63199500Y-56226161D01*
X63181018Y-56276941D01*
X63134218Y-56303961D01*
X63081000Y-56294577D01*
X63064639Y-56282022D01*
X62775740Y-55993123D01*
X62768729Y-55983376D01*
X62768065Y-55983879D01*
X62763652Y-55978036D01*
X62763651Y-55978035D01*
X62763651Y-55978034D01*
X62730345Y-55947671D01*
X62729055Y-55946439D01*
X62715894Y-55933278D01*
X62715893Y-55933277D01*
X62715892Y-55933276D01*
X62712776Y-55931142D01*
X62708485Y-55927743D01*
X62705013Y-55924578D01*
X62686152Y-55907384D01*
X62686150Y-55907383D01*
X62676147Y-55903508D01*
X62660040Y-55895017D01*
X62651193Y-55888956D01*
X62651191Y-55888955D01*
X62621770Y-55882036D01*
X62616538Y-55880415D01*
X62588366Y-55869501D01*
X62588365Y-55869501D01*
X62577640Y-55869501D01*
X62559551Y-55867402D01*
X62549110Y-55864946D01*
X62549108Y-55864945D01*
X62531503Y-55867402D01*
X62519169Y-55869122D01*
X62513714Y-55869501D01*
X62299505Y-55869501D01*
X62248725Y-55851019D01*
X62221705Y-55804219D01*
X62220505Y-55790501D01*
X62220505Y-55629221D01*
X62238987Y-55578441D01*
X62243635Y-55573367D01*
X62276877Y-55540126D01*
X62286626Y-55533117D01*
X62286123Y-55532451D01*
X62291962Y-55528040D01*
X62291967Y-55528038D01*
X62322340Y-55494719D01*
X62323529Y-55493473D01*
X62336723Y-55480281D01*
X62338856Y-55477165D01*
X62342254Y-55472874D01*
X62362617Y-55450539D01*
X62366492Y-55440534D01*
X62374981Y-55424428D01*
X62381044Y-55415579D01*
X62387963Y-55386158D01*
X62389579Y-55380939D01*
X62400500Y-55352752D01*
X62400500Y-55342024D01*
X62402599Y-55323937D01*
X62405053Y-55313500D01*
X62405054Y-55313494D01*
X62403107Y-55299536D01*
X62400878Y-55283560D01*
X62400500Y-55278106D01*
X62400500Y-54807194D01*
X62418982Y-54756414D01*
X62423627Y-54751344D01*
X62743712Y-54431258D01*
X62753842Y-54423974D01*
X62753386Y-54423370D01*
X62759224Y-54418960D01*
X62759228Y-54418959D01*
X62791799Y-54383229D01*
X62793009Y-54381961D01*
X62807174Y-54367798D01*
X62809577Y-54364289D01*
X62812962Y-54360014D01*
X62834916Y-54335934D01*
X62839301Y-54324611D01*
X62847795Y-54308498D01*
X62854657Y-54298482D01*
X62862115Y-54266769D01*
X62863731Y-54261550D01*
X62875500Y-54231174D01*
X62875499Y-54219030D01*
X62877597Y-54200943D01*
X62880379Y-54189120D01*
X62875878Y-54156855D01*
X62875500Y-54151402D01*
X62875500Y-53486907D01*
X62877509Y-53474593D01*
X62876762Y-53474489D01*
X62877773Y-53467240D01*
X62875542Y-53418973D01*
X62875500Y-53417148D01*
X62875500Y-53397161D01*
X62875500Y-53397157D01*
X62874719Y-53392984D01*
X62874088Y-53387546D01*
X62872585Y-53355010D01*
X62867678Y-53343897D01*
X62862292Y-53326503D01*
X62860061Y-53314569D01*
X62860061Y-53314568D01*
X62842911Y-53286870D01*
X62840362Y-53282033D01*
X62837257Y-53275000D01*
X62827206Y-53252236D01*
X62827202Y-53252232D01*
X62827201Y-53252230D01*
X62818619Y-53243648D01*
X62807312Y-53229374D01*
X62800919Y-53219049D01*
X62774925Y-53199419D01*
X62770800Y-53195830D01*
X62478786Y-52903816D01*
X62455948Y-52854840D01*
X62455775Y-52850897D01*
X62455646Y-52850003D01*
X62455647Y-52850001D01*
X62435165Y-52707544D01*
X62375377Y-52576628D01*
X62281128Y-52467858D01*
X62160053Y-52390048D01*
X62021961Y-52349501D01*
X61878039Y-52349501D01*
X61739947Y-52390048D01*
X61739946Y-52390048D01*
X61618871Y-52467858D01*
X61524622Y-52576628D01*
X61464834Y-52707546D01*
X61464833Y-52707548D01*
X61464375Y-52710736D01*
X61463318Y-52712707D01*
X61463242Y-52712968D01*
X61463187Y-52712952D01*
X61438851Y-52758368D01*
X61388681Y-52778448D01*
X61337341Y-52761583D01*
X61330319Y-52755349D01*
X61256260Y-52681290D01*
X61248970Y-52671158D01*
X61248368Y-52671613D01*
X61243959Y-52665774D01*
X61238868Y-52661133D01*
X61208239Y-52633210D01*
X61206929Y-52631959D01*
X61192797Y-52617827D01*
X61189293Y-52615426D01*
X61185006Y-52612029D01*
X61160934Y-52590086D01*
X61160933Y-52590085D01*
X61160930Y-52590084D01*
X61160927Y-52590082D01*
X61149599Y-52585693D01*
X61133499Y-52577207D01*
X61123480Y-52570344D01*
X61091780Y-52562888D01*
X61086549Y-52561268D01*
X61056175Y-52549501D01*
X61056173Y-52549501D01*
X61044027Y-52549501D01*
X61025940Y-52547402D01*
X61021257Y-52546300D01*
X61014118Y-52544621D01*
X60992725Y-52547606D01*
X60981856Y-52549122D01*
X60976401Y-52549501D01*
X60222156Y-52549501D01*
X60206717Y-52552386D01*
X60139568Y-52564939D01*
X60044047Y-52624082D01*
X60038787Y-52628879D01*
X59988810Y-52649434D01*
X59985561Y-52649501D01*
X59880252Y-52649501D01*
X59821769Y-52661133D01*
X59755448Y-52705449D01*
X59711132Y-52771770D01*
X59702524Y-52815048D01*
X59699500Y-52830253D01*
X59699500Y-53169749D01*
X59701813Y-53181381D01*
X59711132Y-53228231D01*
X59711133Y-53228232D01*
X59755448Y-53294553D01*
X59821769Y-53338868D01*
X59821768Y-53338868D01*
X59880252Y-53350501D01*
X60719748Y-53350501D01*
X60778231Y-53338868D01*
X60844552Y-53294553D01*
X60861179Y-53269668D01*
X60904758Y-53237715D01*
X60958682Y-53241249D01*
X60982726Y-53257698D01*
X61036360Y-53311332D01*
X61059198Y-53360308D01*
X61059499Y-53367193D01*
X61059499Y-53688914D01*
X61041017Y-53739694D01*
X60994217Y-53766714D01*
X60987789Y-53767577D01*
X60968846Y-53769332D01*
X60965199Y-53769501D01*
X60929577Y-53769501D01*
X60878797Y-53751019D01*
X60863891Y-53734392D01*
X60844552Y-53705449D01*
X60778231Y-53661134D01*
X60778230Y-53661133D01*
X60778231Y-53661133D01*
X60719748Y-53649501D01*
X59880252Y-53649501D01*
X59821769Y-53661133D01*
X59755447Y-53705449D01*
X59747356Y-53717558D01*
X59703774Y-53749509D01*
X59649851Y-53745972D01*
X59610817Y-53708601D01*
X59603477Y-53684910D01*
X59585165Y-53557544D01*
X59525377Y-53426628D01*
X59431128Y-53317858D01*
X59310053Y-53240048D01*
X59310052Y-53240048D01*
X59188565Y-53204376D01*
X59145049Y-53172336D01*
X59132309Y-53119820D01*
X59156306Y-53071401D01*
X59166177Y-53063401D01*
X59247721Y-53007542D01*
X59405039Y-52850224D01*
X59405039Y-52850223D01*
X59405042Y-52850221D01*
X59530777Y-52666671D01*
X59620643Y-52463143D01*
X59671581Y-52246567D01*
X59678000Y-52154092D01*
X59678000Y-52005908D01*
X59671581Y-51913433D01*
X59620643Y-51696857D01*
X59530777Y-51493329D01*
X59405042Y-51309779D01*
X59405041Y-51309778D01*
X59405039Y-51309775D01*
X59245139Y-51149875D01*
X59246311Y-51148702D01*
X59221989Y-51107058D01*
X59231106Y-51053793D01*
X59243854Y-51037093D01*
X60293711Y-49987236D01*
X60303842Y-49979951D01*
X60303386Y-49979347D01*
X60309224Y-49974937D01*
X60309228Y-49974936D01*
X60341799Y-49939206D01*
X60343009Y-49937938D01*
X60357174Y-49923775D01*
X60359577Y-49920266D01*
X60362962Y-49915991D01*
X60384916Y-49891911D01*
X60389301Y-49880588D01*
X60397795Y-49864475D01*
X60404657Y-49854459D01*
X60412115Y-49822746D01*
X60413731Y-49817527D01*
X60425500Y-49787151D01*
X60425500Y-49775007D01*
X60427599Y-49756919D01*
X60430378Y-49745100D01*
X60430379Y-49745096D01*
X60426292Y-49715800D01*
X60425878Y-49712832D01*
X60425500Y-49707379D01*
X60425500Y-48282194D01*
X60443982Y-48231414D01*
X60448639Y-48226333D01*
X60701333Y-47973639D01*
X60750309Y-47950801D01*
X60757194Y-47950500D01*
X61939443Y-47950500D01*
X61951758Y-47952508D01*
X61951863Y-47951762D01*
X61959109Y-47952773D01*
X61959110Y-47952772D01*
X61959111Y-47952773D01*
X61980981Y-47951762D01*
X62007375Y-47950542D01*
X62009200Y-47950500D01*
X62029184Y-47950500D01*
X62029190Y-47950500D01*
X62033362Y-47949719D01*
X62038798Y-47949088D01*
X62071338Y-47947585D01*
X62082450Y-47942677D01*
X62099838Y-47937292D01*
X62111779Y-47935061D01*
X62139475Y-47917912D01*
X62144302Y-47915367D01*
X62174111Y-47902206D01*
X62182699Y-47893616D01*
X62196968Y-47882314D01*
X62207298Y-47875919D01*
X62226932Y-47849917D01*
X62230507Y-47845808D01*
X63064640Y-47011676D01*
X63113615Y-46988839D01*
X63165813Y-47002825D01*
G37*
G04 #@! TD.AperFunction*
G04 #@! TA.AperFunction,Conductor*
G36*
X39928313Y-48960793D02*
G01*
X39959308Y-49005059D01*
X39962000Y-49025506D01*
X39962000Y-50492120D01*
X39943518Y-50542900D01*
X39938871Y-50547970D01*
X39815986Y-50670856D01*
X39693785Y-50793057D01*
X39683659Y-50800346D01*
X39684112Y-50800946D01*
X39678271Y-50805356D01*
X39645717Y-50841064D01*
X39644461Y-50842380D01*
X39630327Y-50856516D01*
X39630317Y-50856528D01*
X39627918Y-50860028D01*
X39624527Y-50864308D01*
X39602584Y-50888381D01*
X39602582Y-50888384D01*
X39598193Y-50899712D01*
X39589709Y-50915808D01*
X39582846Y-50925828D01*
X39582844Y-50925832D01*
X39575387Y-50957531D01*
X39573768Y-50962759D01*
X39562000Y-50993140D01*
X39562000Y-51005284D01*
X39559902Y-51023371D01*
X39557120Y-51035195D01*
X39559186Y-51050000D01*
X39561621Y-51067458D01*
X39562000Y-51072912D01*
X39562000Y-51162730D01*
X39543518Y-51213510D01*
X39505257Y-51238529D01*
X39451099Y-51254432D01*
X39414947Y-51265047D01*
X39414946Y-51265047D01*
X39293871Y-51342857D01*
X39199622Y-51451627D01*
X39139834Y-51582544D01*
X39119353Y-51725000D01*
X39139834Y-51867455D01*
X39199622Y-51998372D01*
X39291428Y-52104322D01*
X39293872Y-52107143D01*
X39414947Y-52184953D01*
X39553039Y-52225500D01*
X39696960Y-52225500D01*
X39696961Y-52225500D01*
X39835053Y-52184953D01*
X39840288Y-52181588D01*
X39892996Y-52169681D01*
X39941030Y-52194440D01*
X39961910Y-52244282D01*
X39962000Y-52248046D01*
X39962000Y-52755307D01*
X39943518Y-52806087D01*
X39938861Y-52811168D01*
X39773667Y-52976362D01*
X39724691Y-52999200D01*
X39717806Y-52999501D01*
X38337950Y-52999501D01*
X38287170Y-52981019D01*
X38278246Y-52972235D01*
X38231128Y-52917858D01*
X38129129Y-52852307D01*
X38096403Y-52809304D01*
X38098974Y-52755326D01*
X38135640Y-52715630D01*
X38149577Y-52710050D01*
X38235053Y-52684953D01*
X38356128Y-52607143D01*
X38450377Y-52498373D01*
X38510165Y-52367457D01*
X38530647Y-52225000D01*
X38510165Y-52082543D01*
X38450377Y-51951627D01*
X38356128Y-51842857D01*
X38235053Y-51765047D01*
X38096961Y-51724500D01*
X37982194Y-51724500D01*
X37931414Y-51706018D01*
X37926333Y-51701361D01*
X37798639Y-51573667D01*
X37775801Y-51524691D01*
X37775500Y-51517806D01*
X37775500Y-49925848D01*
X37793982Y-49875068D01*
X37798639Y-49869986D01*
X38174988Y-49493638D01*
X38223964Y-49470801D01*
X38230849Y-49470500D01*
X39139911Y-49470500D01*
X39152226Y-49472508D01*
X39152331Y-49471762D01*
X39159577Y-49472773D01*
X39159578Y-49472772D01*
X39159579Y-49472773D01*
X39182509Y-49471713D01*
X39207843Y-49470542D01*
X39209668Y-49470500D01*
X39229652Y-49470500D01*
X39229658Y-49470500D01*
X39233830Y-49469719D01*
X39239266Y-49469088D01*
X39271806Y-49467585D01*
X39282918Y-49462677D01*
X39300306Y-49457292D01*
X39312247Y-49455061D01*
X39339943Y-49437912D01*
X39344770Y-49435367D01*
X39374579Y-49422206D01*
X39383167Y-49413616D01*
X39397436Y-49402314D01*
X39407766Y-49395919D01*
X39427399Y-49369918D01*
X39430976Y-49365807D01*
X39827140Y-48969643D01*
X39876115Y-48946807D01*
X39928313Y-48960793D01*
G37*
G04 #@! TD.AperFunction*
G04 #@! TA.AperFunction,Conductor*
G36*
X54901693Y-43993983D02*
G01*
X54928713Y-44040783D01*
X54919329Y-44094001D01*
X54910620Y-44106231D01*
X54898854Y-44119811D01*
X54849618Y-44176632D01*
X54803722Y-44277129D01*
X54787724Y-44300171D01*
X54657574Y-44430322D01*
X54597208Y-44512116D01*
X54552354Y-44640300D01*
X54549463Y-44717534D01*
X54530224Y-44766310D01*
X54499623Y-44801627D01*
X54439834Y-44932545D01*
X54419353Y-45075001D01*
X54439834Y-45217456D01*
X54499622Y-45348373D01*
X54584159Y-45445934D01*
X54593872Y-45457144D01*
X54714947Y-45534954D01*
X54853039Y-45575501D01*
X54996960Y-45575501D01*
X54996961Y-45575501D01*
X55135053Y-45534954D01*
X55256128Y-45457144D01*
X55316441Y-45387539D01*
X55346572Y-45352766D01*
X55393794Y-45326492D01*
X55406276Y-45325500D01*
X56862515Y-45325500D01*
X56913295Y-45343982D01*
X56918365Y-45348628D01*
X56957276Y-45387539D01*
X56957279Y-45387542D01*
X57069915Y-45464700D01*
X57140829Y-45513277D01*
X57344357Y-45603143D01*
X57556755Y-45653098D01*
X57601955Y-45682716D01*
X57617542Y-45734459D01*
X57596223Y-45784115D01*
X57556756Y-45806901D01*
X57344357Y-45856857D01*
X57153243Y-45941242D01*
X57140827Y-45946724D01*
X57140823Y-45946726D01*
X56957275Y-46072460D01*
X56799960Y-46229775D01*
X56676724Y-46409677D01*
X56632778Y-46441125D01*
X56578899Y-46436968D01*
X56551845Y-46416766D01*
X56531127Y-46392856D01*
X56410053Y-46315047D01*
X56271961Y-46274500D01*
X56128039Y-46274500D01*
X55989947Y-46315047D01*
X55989946Y-46315047D01*
X55868871Y-46392857D01*
X55774622Y-46501627D01*
X55714834Y-46632544D01*
X55694353Y-46775000D01*
X55714834Y-46917455D01*
X55774622Y-47048372D01*
X55774623Y-47048373D01*
X55868872Y-47157143D01*
X55989947Y-47234953D01*
X56070256Y-47258533D01*
X56113773Y-47290573D01*
X56127000Y-47334333D01*
X56127000Y-50065598D01*
X56124991Y-50077913D01*
X56125738Y-50078018D01*
X56124726Y-50085264D01*
X56126958Y-50133528D01*
X56127000Y-50135353D01*
X56127000Y-50155351D01*
X56127779Y-50159516D01*
X56128410Y-50164955D01*
X56129914Y-50197492D01*
X56134822Y-50208607D01*
X56140207Y-50225997D01*
X56142438Y-50237933D01*
X56159583Y-50265623D01*
X56162136Y-50270467D01*
X56175293Y-50300264D01*
X56175296Y-50300268D01*
X56183878Y-50308850D01*
X56195183Y-50323121D01*
X56201580Y-50333452D01*
X56227576Y-50353084D01*
X56231700Y-50356672D01*
X56592853Y-50717825D01*
X56936521Y-51061493D01*
X56959359Y-51110469D01*
X56945373Y-51162667D01*
X56936521Y-51173215D01*
X56799956Y-51309779D01*
X56798749Y-51311233D01*
X56798157Y-51311578D01*
X56797375Y-51312361D01*
X56797169Y-51312155D01*
X56752084Y-51338484D01*
X56698820Y-51329363D01*
X56670821Y-51302353D01*
X56670756Y-51302249D01*
X56667914Y-51297658D01*
X56665367Y-51292827D01*
X56652206Y-51263020D01*
X56652206Y-51263019D01*
X56643619Y-51254432D01*
X56632312Y-51240158D01*
X56625919Y-51229833D01*
X56599925Y-51210203D01*
X56595794Y-51206608D01*
X55373639Y-49984452D01*
X55350801Y-49935476D01*
X55350500Y-49928591D01*
X55350500Y-49089252D01*
X55368982Y-49038472D01*
X55369796Y-49037518D01*
X55425377Y-48973374D01*
X55485165Y-48842458D01*
X55505647Y-48700001D01*
X55485165Y-48557544D01*
X55425377Y-48426628D01*
X55331128Y-48317858D01*
X55210053Y-48240048D01*
X55071961Y-48199501D01*
X54928039Y-48199501D01*
X54789947Y-48240048D01*
X54789946Y-48240048D01*
X54668871Y-48317858D01*
X54574622Y-48426628D01*
X54514834Y-48557545D01*
X54498456Y-48671462D01*
X54494353Y-48700001D01*
X54497792Y-48723921D01*
X54514834Y-48842456D01*
X54574622Y-48973373D01*
X54574623Y-48973374D01*
X54668872Y-49082144D01*
X54713210Y-49110638D01*
X54745936Y-49153640D01*
X54749499Y-49177097D01*
X54749499Y-50023882D01*
X54747494Y-50036198D01*
X54748238Y-50036302D01*
X54747226Y-50043548D01*
X54748304Y-50066852D01*
X54732186Y-50118432D01*
X54686684Y-50147583D01*
X54669388Y-50149500D01*
X54657193Y-50149500D01*
X54606413Y-50131018D01*
X54601332Y-50126361D01*
X53673639Y-49198668D01*
X53650801Y-49149692D01*
X53650500Y-49142807D01*
X53650500Y-44054501D01*
X53668982Y-44003721D01*
X53715782Y-43976701D01*
X53729500Y-43975501D01*
X54850913Y-43975501D01*
X54901693Y-43993983D01*
G37*
G04 #@! TD.AperFunction*
G04 #@! TA.AperFunction,Conductor*
G36*
X62419000Y-41417778D02*
G01*
X62435361Y-41430333D01*
X62776361Y-41771333D01*
X62799199Y-41820309D01*
X62799500Y-41827194D01*
X62799500Y-46394150D01*
X62781018Y-46444930D01*
X62776361Y-46450011D01*
X62711763Y-46514609D01*
X62662787Y-46537447D01*
X62610589Y-46523461D01*
X62579594Y-46479195D01*
X62577283Y-46466498D01*
X62560300Y-46294066D01*
X62560299Y-46294063D01*
X62560299Y-46294061D01*
X62500235Y-46096054D01*
X62500233Y-46096051D01*
X62500232Y-46096046D01*
X62402685Y-45913550D01*
X62356161Y-45856860D01*
X62271410Y-45753589D01*
X62111453Y-45622317D01*
X62111451Y-45622316D01*
X62111450Y-45622315D01*
X61928954Y-45524768D01*
X61928951Y-45524767D01*
X61928945Y-45524764D01*
X61730938Y-45464701D01*
X61730936Y-45464700D01*
X61730934Y-45464700D01*
X61576608Y-45449500D01*
X61223392Y-45449500D01*
X61069066Y-45464700D01*
X61069063Y-45464700D01*
X61069061Y-45464701D01*
X60871054Y-45524764D01*
X60871048Y-45524767D01*
X60688546Y-45622317D01*
X60528589Y-45753589D01*
X60397317Y-45913546D01*
X60379583Y-45946724D01*
X60320938Y-46056441D01*
X60299767Y-46096048D01*
X60299764Y-46096054D01*
X60239701Y-46294061D01*
X60239700Y-46294063D01*
X60239700Y-46294066D01*
X60219417Y-46500000D01*
X60239700Y-46705934D01*
X60239700Y-46705936D01*
X60239701Y-46705938D01*
X60299764Y-46903945D01*
X60299767Y-46903951D01*
X60299768Y-46903954D01*
X60397315Y-47086450D01*
X60397317Y-47086453D01*
X60523752Y-47240515D01*
X60541679Y-47291494D01*
X60522644Y-47342070D01*
X60495782Y-47361073D01*
X60495791Y-47361087D01*
X60495574Y-47361220D01*
X60491231Y-47364294D01*
X60489573Y-47364936D01*
X60461878Y-47382083D01*
X60457035Y-47384636D01*
X60427237Y-47397792D01*
X60427230Y-47397797D01*
X60418642Y-47406385D01*
X60404380Y-47417683D01*
X60394051Y-47424079D01*
X60394045Y-47424084D01*
X60374416Y-47450077D01*
X60370821Y-47454208D01*
X59986247Y-47838781D01*
X59937271Y-47861619D01*
X59885073Y-47847633D01*
X59870683Y-47834655D01*
X59856128Y-47817857D01*
X59735053Y-47740047D01*
X59596960Y-47699499D01*
X59591369Y-47698696D01*
X59591797Y-47695714D01*
X59551418Y-47681018D01*
X59524398Y-47634218D01*
X59529929Y-47588590D01*
X59530776Y-47586672D01*
X59530777Y-47586671D01*
X59620643Y-47383143D01*
X59671581Y-47166567D01*
X59678000Y-47074092D01*
X59678000Y-46925908D01*
X59671581Y-46833433D01*
X59620643Y-46616857D01*
X59530777Y-46413329D01*
X59462751Y-46314024D01*
X59449302Y-46261688D01*
X59472642Y-46212948D01*
X59505670Y-46193580D01*
X59535053Y-46184953D01*
X59656128Y-46107143D01*
X59750377Y-45998373D01*
X59810165Y-45867457D01*
X59830647Y-45725000D01*
X59810165Y-45582543D01*
X59796037Y-45551609D01*
X59791755Y-45497742D01*
X59812036Y-45462934D01*
X60477945Y-44797025D01*
X60526920Y-44774188D01*
X60579118Y-44788174D01*
X60583913Y-44791812D01*
X60688550Y-44877685D01*
X60871046Y-44975232D01*
X60871051Y-44975233D01*
X60871054Y-44975235D01*
X60978488Y-45007823D01*
X61069066Y-45035300D01*
X61223392Y-45050500D01*
X61223394Y-45050500D01*
X61576606Y-45050500D01*
X61576608Y-45050500D01*
X61730934Y-45035300D01*
X61878360Y-44990579D01*
X61928945Y-44975235D01*
X61928946Y-44975234D01*
X61928954Y-44975232D01*
X62111450Y-44877685D01*
X62271410Y-44746410D01*
X62402685Y-44586450D01*
X62500232Y-44403954D01*
X62560300Y-44205934D01*
X62580583Y-44000000D01*
X62560300Y-43794066D01*
X62509995Y-43628230D01*
X62500235Y-43596054D01*
X62500233Y-43596051D01*
X62500232Y-43596046D01*
X62402685Y-43413550D01*
X62397082Y-43406723D01*
X62271410Y-43253590D01*
X62149382Y-43153445D01*
X62121854Y-43106943D01*
X62120499Y-43092377D01*
X62120499Y-42677132D01*
X62120499Y-42062999D01*
X62138981Y-42012222D01*
X62155704Y-41999405D01*
X62154742Y-41998031D01*
X62160405Y-41994065D01*
X62244062Y-41910408D01*
X62244065Y-41910405D01*
X62294068Y-41803174D01*
X62300500Y-41754317D01*
X62300500Y-41486194D01*
X62318982Y-41435414D01*
X62365782Y-41408394D01*
X62419000Y-41417778D01*
G37*
G04 #@! TD.AperFunction*
G04 #@! TA.AperFunction,Conductor*
G36*
X61314995Y-36800585D02*
G01*
X61437633Y-36808622D01*
X61557275Y-36816465D01*
X61562382Y-36817137D01*
X61746086Y-36853678D01*
X61799245Y-36864253D01*
X61804231Y-36865588D01*
X62032918Y-36943217D01*
X62037686Y-36945192D01*
X62112491Y-36982082D01*
X62254278Y-37052004D01*
X62258751Y-37054586D01*
X62263180Y-37057545D01*
X62459549Y-37188756D01*
X62463642Y-37191896D01*
X62645227Y-37351141D01*
X62648858Y-37354772D01*
X62808101Y-37536354D01*
X62811243Y-37540450D01*
X62886031Y-37652376D01*
X62927515Y-37714462D01*
X62945409Y-37741241D01*
X62947995Y-37745721D01*
X63054806Y-37962311D01*
X63056785Y-37967089D01*
X63134408Y-38195758D01*
X63135746Y-38200754D01*
X63182860Y-38437604D01*
X63183535Y-38442732D01*
X63199415Y-38685002D01*
X63199500Y-38687586D01*
X63199500Y-41153808D01*
X63181018Y-41204588D01*
X63134218Y-41231608D01*
X63081000Y-41222224D01*
X63064639Y-41209669D01*
X62396260Y-40541290D01*
X62388970Y-40531158D01*
X62388368Y-40531613D01*
X62383959Y-40525774D01*
X62381071Y-40523141D01*
X62348239Y-40493210D01*
X62346929Y-40491959D01*
X62332797Y-40477827D01*
X62329293Y-40475426D01*
X62325006Y-40472029D01*
X62300934Y-40450086D01*
X62300933Y-40450085D01*
X62300930Y-40450084D01*
X62300927Y-40450082D01*
X62289599Y-40445693D01*
X62273499Y-40437207D01*
X62263480Y-40430344D01*
X62231780Y-40422888D01*
X62226549Y-40421268D01*
X62196175Y-40409501D01*
X62196173Y-40409501D01*
X62184027Y-40409501D01*
X62165940Y-40407402D01*
X62161257Y-40406300D01*
X62154118Y-40404621D01*
X62133545Y-40407492D01*
X62121856Y-40409122D01*
X62116401Y-40409501D01*
X60551903Y-40409501D01*
X60539587Y-40407492D01*
X60539483Y-40408239D01*
X60532236Y-40407227D01*
X60483971Y-40409459D01*
X60482146Y-40409501D01*
X60462150Y-40409501D01*
X60457987Y-40410280D01*
X60452548Y-40410911D01*
X60420008Y-40412415D01*
X60408890Y-40417324D01*
X60391508Y-40422707D01*
X60379569Y-40424939D01*
X60379564Y-40424941D01*
X60351879Y-40442082D01*
X60347038Y-40444634D01*
X60317230Y-40457796D01*
X60308639Y-40466387D01*
X60294375Y-40477686D01*
X60284051Y-40484078D01*
X60284047Y-40484082D01*
X60264418Y-40510074D01*
X60260824Y-40514204D01*
X60048665Y-40726362D01*
X59999690Y-40749200D01*
X59992805Y-40749501D01*
X59878039Y-40749501D01*
X59739947Y-40790048D01*
X59739946Y-40790048D01*
X59618871Y-40867858D01*
X59524622Y-40976628D01*
X59464834Y-41107545D01*
X59444353Y-41250001D01*
X59464834Y-41392456D01*
X59524622Y-41523373D01*
X59536303Y-41536853D01*
X59618872Y-41632144D01*
X59739947Y-41709954D01*
X59878039Y-41750501D01*
X60021960Y-41750501D01*
X60021961Y-41750501D01*
X60160053Y-41709954D01*
X60171610Y-41702526D01*
X60224320Y-41690619D01*
X60272353Y-41715379D01*
X60293232Y-41765222D01*
X60277189Y-41816825D01*
X60270183Y-41824845D01*
X58824990Y-43270038D01*
X58776014Y-43292876D01*
X58751043Y-43291079D01*
X58734890Y-43287280D01*
X58644067Y-43265919D01*
X58644063Y-43265918D01*
X58644059Y-43265918D01*
X58573589Y-43261026D01*
X58551592Y-43259500D01*
X57653408Y-43259500D01*
X57638502Y-43260534D01*
X57560937Y-43265918D01*
X57543420Y-43270038D01*
X57344357Y-43316857D01*
X57146435Y-43404248D01*
X57140827Y-43406724D01*
X57140823Y-43406726D01*
X56998850Y-43503980D01*
X56946511Y-43517430D01*
X56897772Y-43494090D01*
X56882343Y-43471623D01*
X56850377Y-43401628D01*
X56756128Y-43292858D01*
X56635053Y-43215048D01*
X56496961Y-43174501D01*
X56353039Y-43174501D01*
X56214947Y-43215048D01*
X56214946Y-43215048D01*
X56093871Y-43292858D01*
X56046754Y-43347235D01*
X55999532Y-43373509D01*
X55987050Y-43374501D01*
X53729500Y-43374501D01*
X53678720Y-43356019D01*
X53651700Y-43309219D01*
X53650500Y-43295501D01*
X53650500Y-40357194D01*
X53668982Y-40306414D01*
X53673639Y-40301333D01*
X54051332Y-39923640D01*
X54100308Y-39900802D01*
X54107193Y-39900501D01*
X54536626Y-39900501D01*
X54548941Y-39902509D01*
X54549046Y-39901763D01*
X54556292Y-39902774D01*
X54556293Y-39902773D01*
X54556294Y-39902774D01*
X54578164Y-39901763D01*
X54604558Y-39900543D01*
X54606383Y-39900501D01*
X54626367Y-39900501D01*
X54626373Y-39900501D01*
X54630545Y-39899720D01*
X54635981Y-39899089D01*
X54668521Y-39897586D01*
X54679633Y-39892678D01*
X54697021Y-39887293D01*
X54708962Y-39885062D01*
X54736658Y-39867913D01*
X54741485Y-39865368D01*
X54771294Y-39852207D01*
X54779882Y-39843617D01*
X54794151Y-39832315D01*
X54804481Y-39825920D01*
X54824114Y-39799919D01*
X54827691Y-39795808D01*
X56349860Y-38273640D01*
X56398837Y-38250802D01*
X56405722Y-38250501D01*
X56612050Y-38250501D01*
X56662830Y-38268983D01*
X56671754Y-38277767D01*
X56714175Y-38326724D01*
X56718872Y-38332144D01*
X56839947Y-38409954D01*
X56839950Y-38409954D01*
X56845085Y-38412300D01*
X56843958Y-38414766D01*
X56879262Y-38440756D01*
X56892006Y-38493271D01*
X56869354Y-38540382D01*
X56799958Y-38609778D01*
X56674226Y-38793323D01*
X56674224Y-38793327D01*
X56674223Y-38793329D01*
X56584357Y-38996857D01*
X56550081Y-39142592D01*
X56533418Y-39213437D01*
X56527000Y-39305910D01*
X56527000Y-39454090D01*
X56533418Y-39546562D01*
X56533418Y-39546565D01*
X56533419Y-39546567D01*
X56584357Y-39763143D01*
X56674223Y-39966671D01*
X56674224Y-39966672D01*
X56674226Y-39966676D01*
X56799960Y-40150224D01*
X56957275Y-40307539D01*
X57128658Y-40424940D01*
X57140829Y-40433277D01*
X57344357Y-40523143D01*
X57560933Y-40574081D01*
X57653408Y-40580500D01*
X57653410Y-40580500D01*
X58551590Y-40580500D01*
X58551592Y-40580500D01*
X58644067Y-40574081D01*
X58860643Y-40523143D01*
X59064171Y-40433277D01*
X59247721Y-40307542D01*
X59405042Y-40150221D01*
X59530777Y-39966671D01*
X59620643Y-39763143D01*
X59671581Y-39546567D01*
X59678000Y-39454092D01*
X59678000Y-39305908D01*
X59671581Y-39213433D01*
X59620643Y-38996857D01*
X59530777Y-38793329D01*
X59457455Y-38686292D01*
X59908408Y-38686292D01*
X59927574Y-38917597D01*
X59984551Y-39142592D01*
X59984553Y-39142597D01*
X59984554Y-39142600D01*
X60053378Y-39299501D01*
X60077784Y-39355141D01*
X60204729Y-39549445D01*
X60361917Y-39720198D01*
X60361920Y-39720200D01*
X60361924Y-39720205D01*
X60545082Y-39862762D01*
X60618528Y-39902509D01*
X60749202Y-39973227D01*
X60749205Y-39973228D01*
X60968727Y-40048590D01*
X61197659Y-40086792D01*
X61197664Y-40086792D01*
X61429751Y-40086792D01*
X61429757Y-40086792D01*
X61658689Y-40048590D01*
X61878211Y-39973228D01*
X62082334Y-39862762D01*
X62265492Y-39720205D01*
X62422687Y-39549445D01*
X62549632Y-39355141D01*
X62642865Y-39142592D01*
X62699842Y-38917597D01*
X62719008Y-38686292D01*
X62699842Y-38454987D01*
X62642865Y-38229992D01*
X62549632Y-38017443D01*
X62422687Y-37823139D01*
X62322643Y-37714462D01*
X62265498Y-37652385D01*
X62265495Y-37652382D01*
X62265492Y-37652379D01*
X62082334Y-37509822D01*
X62065110Y-37500501D01*
X61878213Y-37399356D01*
X61658691Y-37323994D01*
X61593279Y-37313079D01*
X61429757Y-37285792D01*
X61197659Y-37285792D01*
X61055303Y-37309547D01*
X60968724Y-37323994D01*
X60749202Y-37399356D01*
X60545083Y-37509821D01*
X60545081Y-37509822D01*
X60361927Y-37652376D01*
X60361917Y-37652385D01*
X60204729Y-37823138D01*
X60204729Y-37823139D01*
X60077782Y-38017446D01*
X60077781Y-38017448D01*
X59984554Y-38229983D01*
X59984552Y-38229988D01*
X59984551Y-38229992D01*
X59934756Y-38426628D01*
X59927574Y-38454987D01*
X59913063Y-38630119D01*
X59908408Y-38686292D01*
X59457455Y-38686292D01*
X59405042Y-38609779D01*
X59405041Y-38609778D01*
X59405039Y-38609775D01*
X59247724Y-38452460D01*
X59064176Y-38326726D01*
X59064172Y-38326724D01*
X59064173Y-38326724D01*
X59064171Y-38326723D01*
X58860643Y-38236857D01*
X58644067Y-38185919D01*
X58644065Y-38185918D01*
X58644062Y-38185918D01*
X58567803Y-38180625D01*
X58551592Y-38179500D01*
X57653408Y-38179500D01*
X57651301Y-38179646D01*
X57618918Y-38181893D01*
X57566980Y-38166971D01*
X57536785Y-38122154D01*
X57535253Y-38091844D01*
X57555647Y-37950001D01*
X57535165Y-37807544D01*
X57535163Y-37807540D01*
X57533573Y-37802124D01*
X57536477Y-37801270D01*
X57533048Y-37758503D01*
X57564363Y-37714462D01*
X57609206Y-37700501D01*
X57621960Y-37700501D01*
X57621961Y-37700501D01*
X57760053Y-37659954D01*
X57881128Y-37582144D01*
X57975377Y-37473374D01*
X58035165Y-37342458D01*
X58055647Y-37200001D01*
X58035165Y-37057544D01*
X57991197Y-36961269D01*
X57975377Y-36926627D01*
X57972541Y-36922215D01*
X57960632Y-36869504D01*
X57985391Y-36821471D01*
X58035233Y-36800590D01*
X58038997Y-36800500D01*
X61266112Y-36800500D01*
X61312411Y-36800500D01*
X61314995Y-36800585D01*
G37*
G04 #@! TD.AperFunction*
M02*
